<svg width="23" height="28" viewBox="0 0 23 28" fill="none" xmlns="http://www.w3.org/2000/svg">
<path d="M21.7974 9.70522C21.6406 9.82673 18.8734 11.3848 18.8734 14.8492C18.8734 18.8564 22.3946 20.2741 22.5 20.3092C22.4838 20.3956 21.9406 22.2507 20.6435 24.1409C19.4869 25.8042 18.2789 27.4649 16.4413 27.4649C14.6037 27.4649 14.1308 26.3983 12.0094 26.3983C9.94208 26.3983 9.20704 27.5 7.52616 27.5C5.84529 27.5 4.67246 25.9608 3.32398 24.0707C1.76201 21.851 0.5 18.4028 0.5 15.1301C0.5 9.88074 3.9158 7.09676 7.27755 7.09676C9.06381 7.09676 10.5528 8.26868 11.6743 8.26868C12.7417 8.26868 14.4064 7.02655 16.4386 7.02655C17.2088 7.02655 19.976 7.09676 21.7974 9.70522ZM15.4738 4.80423C16.3143 3.80783 16.9088 2.42529 16.9088 1.04275C16.9088 0.851035 16.8926 0.656616 16.8575 0.5C15.4901 0.551305 13.8632 1.40999 12.8823 2.5468C12.1121 3.42169 11.3933 4.80423 11.3933 6.20567C11.3933 6.41629 11.4284 6.62691 11.4446 6.69442C11.5311 6.71062 11.6716 6.72952 11.8121 6.72952C13.039 6.72952 14.5821 5.90864 15.4738 4.80423Z" fill="black"/>
</svg>
