<svg width="102" height="100" viewBox="0 0 102 100" fill="none" xmlns="http://www.w3.org/2000/svg">
<mask id="mask0_217_2893" style="mask-type:alpha" maskUnits="userSpaceOnUse" x="0" y="0" width="102" height="100">
<path d="M100.032 51.0348C100.032 53.8909 99.7868 56.7418 99.2976 59.5557C95.1575 83.1382 76.0222 97.1642 52.7447 97.9667C28.5644 98.8004 6.96864 83.9774 2.70232 59.5439C2.21279 56.734 1.96719 53.887 1.96827 51.0348C1.9677 48.1806 2.2133 45.3318 2.70232 42.5198C3.68823 36.8838 5.66235 31.4664 8.53361 26.5175C11.3923 21.5638 15.0971 17.1495 19.4798 13.4749C23.8554 9.78927 28.8472 6.90477 34.2254 4.95401C39.599 2.99177 45.2764 1.99185 50.997 2.00017C56.7196 1.99237 62.3988 2.99226 67.7745 4.95401C73.1503 6.90617 78.1398 9.79057 82.5142 13.4749C86.8971 17.1509 90.6036 21.5649 93.4663 26.5175C96.3376 31.4664 98.3117 36.8838 99.2976 42.5198C99.7866 45.3318 100.032 48.1806 100.032 51.0348Z" fill="url(#paint0_linear_217_2893)" stroke="black" stroke-width="3.52345" stroke-miterlimit="10"/>
</mask>
<g mask="url(#mask0_217_2893)">
<path d="M100.032 51.0348C100.032 53.8909 99.7868 56.7418 99.2976 59.5557C95.1575 83.1382 76.0222 97.1642 52.7447 97.9667C28.5644 98.8004 6.96864 83.9774 2.70232 59.5439C2.21279 56.734 1.96719 53.887 1.96827 51.0348C1.9677 48.1806 2.2133 45.3318 2.70232 42.5198C3.68823 36.8838 5.66235 31.4664 8.53361 26.5175C11.3923 21.5638 15.0971 17.1495 19.4798 13.4749C23.8554 9.78927 28.8472 6.90477 34.2254 4.95401C39.599 2.99177 45.2764 1.99185 50.997 2.00017C56.7196 1.99237 62.3988 2.99226 67.7745 4.95401C73.1503 6.90617 78.1398 9.79057 82.5142 13.4749C86.8971 17.1509 90.6036 21.5649 93.4663 26.5175C96.3376 31.4664 98.3117 36.8838 99.2976 42.5198C99.7866 45.3318 100.032 48.1806 100.032 51.0348Z" fill="url(#paint1_linear_217_2893)"/>
<path d="M89.9995 81.5021C87.2101 90.0789 81.7905 97.5505 74.5158 102.849C67.2411 108.147 58.4839 111 49.4965 111C40.5098 111 31.7534 108.146 24.4797 102.848C17.206 97.5501 11.7876 90.0785 8.99951 81.5021L28.8955 71.8934L39.9369 66.5552L41.3649 65.8655C42.1356 65.4952 42.93 65.1766 43.7428 64.9118C44.5456 64.6488 45.3663 64.4444 46.1985 64.3C46.7872 64.1893 47.3816 64.1112 47.9789 64.0661C48.4808 64.0181 48.9887 64.0001 49.4965 64.0001C50.0044 64.0001 50.5062 64.0181 51.0141 64.0601C51.6115 64.1072 52.2059 64.1873 52.7946 64.3C53.6267 64.4444 54.4474 64.6488 55.2502 64.9118C56.0668 65.1713 56.8635 65.4901 57.6341 65.8655L59.0621 66.5552L70.1155 71.8934L89.9995 81.5021Z" fill="url(#paint2_linear_217_2893)" stroke="black" stroke-width="3.31034" stroke-miterlimit="10"/>
<path fill-rule="evenodd" clip-rule="evenodd" d="M49.1523 19.377C49.1523 21.7906 49.1357 23.7654 49.1153 23.7654C49.0949 23.7654 47.219 24.2441 44.9464 24.8292C42.6739 25.4143 40.7906 25.8931 40.7613 25.8931C40.7319 25.8931 40.7078 24.5293 40.7078 22.8624V19.8318L44.8311 17.4217C47.099 16.0963 48.9988 15.0065 49.0533 15.0001C49.1078 14.9938 49.1523 16.9633 49.1523 19.377ZM58.379 19.975L66.8328 24.8949V27.9206C66.8328 29.5848 66.7884 30.9437 66.7339 30.9405C66.6794 30.9373 62.8349 29.3344 58.1905 27.3783L49.746 23.8219L49.7112 19.3936C49.6898 16.6635 49.7241 14.9825 49.8008 15.0101C49.8691 15.0348 53.7293 17.2691 58.379 19.975ZM49.1523 34.0049C49.1523 37.5888 49.1304 40.521 49.1037 40.521C49.0771 40.521 45.2449 39.5337 40.5879 38.3268C35.9308 37.12 32.0933 36.1326 32.0599 36.1326C32.0267 36.1326 31.9995 35.1764 31.9995 34.0075C31.9995 31.9149 32.004 31.8811 32.2964 31.8061C32.4597 31.7642 36.2448 30.7815 40.7078 29.6223C45.1709 28.4631 48.8967 27.5088 48.9874 27.5017C49.1172 27.4916 49.1523 28.8738 49.1523 34.0049ZM54.0596 29.3173L58.1225 31.0129L58.0905 34.0601L58.0585 37.1074L54.0342 38.7467C51.8209 39.6483 49.9358 40.3865 49.845 40.387C49.7153 40.3878 49.6801 39.0234 49.6801 34.0049C49.6801 29.1302 49.7174 27.6218 49.8384 27.6218C49.9254 27.6218 51.825 28.3849 54.0596 29.3173ZM66.8309 40.0888L66.8289 43.1142L58.3782 48.0345C53.7304 50.7407 49.871 52.975 49.802 52.9998C49.7237 53.0277 49.6896 51.3753 49.7112 48.6144L49.746 44.1842L58.1905 40.6301C62.8349 38.6754 66.6794 37.0732 66.7339 37.0698C66.7884 37.0663 66.8319 38.425 66.8309 40.0888ZM44.5146 43.0569C46.5211 43.5738 48.3854 44.0549 48.6575 44.1258L49.1523 44.2548V48.6491C49.1523 51.069 49.101 53.0236 49.038 52.9991C48.9752 52.9748 47.0752 51.8783 44.8158 50.5627L40.7078 48.1707V45.1437C40.7078 43.479 40.7436 42.1168 40.7871 42.1168C40.8308 42.1168 42.5082 42.5398 44.5146 43.0569Z" fill="#FFBCA9"/>
<path d="M100.063 51.0348C100.064 53.8909 99.8181 56.7418 99.3288 59.5557C95.1887 83.1382 76.0534 97.1642 52.7759 97.9667C28.5956 98.8004 6.99989 83.9774 2.73357 59.5439C2.24404 56.734 1.99844 53.887 1.99952 51.0348C1.99895 48.1806 2.24455 45.3318 2.73357 42.5198C3.71948 36.8838 5.6936 31.4664 8.56486 26.5175C11.4236 21.5638 15.1283 17.1495 19.511 13.4749C23.8867 9.78927 28.8785 6.90477 34.2567 4.95401C39.6303 2.99177 45.3076 1.99185 51.0283 2.00017C56.7508 1.99237 62.43 2.99226 67.8058 4.95401C73.1815 6.90617 78.1711 9.79057 82.5455 13.4749C86.9284 17.1509 90.6349 21.5649 93.4975 26.5175C96.3688 31.4664 98.3429 36.8838 99.3288 42.5198C99.8178 45.3318 100.063 48.1806 100.063 51.0348Z" stroke="black" stroke-width="3.52345" stroke-miterlimit="10"/>
</g>
<defs>
<linearGradient id="paint0_linear_217_2893" x1="50.9999" y1="2.00012" x2="50.9999" y2="66.2385" gradientUnits="userSpaceOnUse">
<stop stop-color="#5611A3"/>
<stop offset="1" stop-color="#94227D"/>
</linearGradient>
<linearGradient id="paint1_linear_217_2893" x1="50.9999" y1="2.00012" x2="50.9999" y2="66.2385" gradientUnits="userSpaceOnUse">
<stop stop-color="#5611A3"/>
<stop offset="1" stop-color="#94227D"/>
</linearGradient>
<linearGradient id="paint2_linear_217_2893" x1="49.4995" y1="64.0001" x2="49.4995" y2="111" gradientUnits="userSpaceOnUse">
<stop stop-color="#FFE0E3"/>
<stop offset="0.552083" stop-color="#F18C95"/>
<stop offset="1" stop-color="#E73E93"/>
</linearGradient>
</defs>
</svg>
