<svg width="316" height="77" viewBox="0 0 316 77" fill="none" xmlns="http://www.w3.org/2000/svg">
<path d="M11.7553 16.8429C8.86762 16.836 6.10101 15.9693 4.05973 14.4321C2.01844 12.8949 0.868379 10.8122 0.860857 8.63899V8.20486C0.867043 6.03123 2.01662 3.94782 4.05816 2.41029C6.0997 0.872756 8.8671 0.00617351 11.7553 0H206.714C209.603 0.00585902 212.372 0.872096 214.415 2.40946C216.459 3.94683 217.61 6.03039 217.619 8.20486V8.63899C217.609 10.8131 216.457 12.8959 214.414 14.4329C212.371 15.97 209.603 16.8363 206.714 16.8429H140.35C134.354 16.8429 129.449 19.7634 129.449 23.3326C129.449 26.9 134.354 29.8206 140.35 29.8206H305.101C307.99 29.8266 310.758 30.6931 312.8 32.2305C314.842 33.768 315.993 35.8514 316 38.0253V38.4612C315.992 40.6348 314.841 42.7176 312.799 44.2545C310.757 45.7915 307.989 46.6576 305.101 46.6635H220.08C214.084 46.6635 209.174 49.505 209.174 52.982C209.174 56.455 214.084 59.2965 220.08 59.2965H221.08C223.969 59.303 226.737 60.1697 228.779 61.7072C230.821 63.2447 231.971 65.3281 231.979 67.502V67.9387C231.97 70.1121 230.819 72.1945 228.777 73.7313C226.735 75.2681 223.968 76.1344 221.08 76.141H110.767C107.879 76.1342 105.112 75.2679 103.07 73.7312C101.028 72.1945 99.876 70.1122 99.8664 67.9387V67.502C99.8748 65.328 101.026 63.2448 103.068 61.7073C105.111 60.1699 107.879 59.3032 110.767 59.2965H138.807C144.8 59.2965 149.706 56.455 149.706 52.982C149.706 49.505 144.8 46.6635 138.807 46.6635H45.9107C43.0225 46.6574 40.2549 45.7913 38.2124 44.2544C36.1699 42.7176 35.0185 40.6349 35.0098 38.4612V38.0253C35.0178 35.8513 36.1689 33.768 38.2114 32.2306C40.254 30.6933 43.022 29.8268 45.9107 29.8206H59.3876C65.3832 29.8206 70.2863 26.9 70.2863 23.3326C70.2863 19.7634 65.3832 16.8429 59.3876 16.8429H11.7553Z" fill="url(#paint0_linear_1102_419)"/>
<defs>
<linearGradient id="paint0_linear_1102_419" x1="120.452" y1="-17.7662" x2="76.4541" y2="197.74" gradientUnits="userSpaceOnUse">
<stop stop-color="#63159B"/>
<stop offset="1" stop-color="#F49DA4"/>
</linearGradient>
</defs>
</svg>
