<svg width="337" height="105" viewBox="0 0 337 105" fill="none" xmlns="http://www.w3.org/2000/svg">
<path d="M11.7857 75.569C8.66278 75.5627 5.67047 74.7067 3.46222 73.1881C1.25397 71.6695 0.00924683 69.6116 0 67.464V67.0329C0.00939941 64.8855 1.25415 62.8279 3.46243 61.3096C5.67072 59.7913 8.66306 58.9357 11.7857 58.9296H147.99C154.472 58.9296 159.776 56.0439 159.776 52.5188C159.776 48.9912 154.472 46.1061 147.99 46.1061H83.8765C80.7539 46.0998 77.7619 45.2441 75.5537 43.7259C73.3455 42.2076 72.1005 40.1501 72.0907 38.0028V37.5694C72.0995 35.4215 73.344 33.3634 75.5523 31.8445C77.7606 30.3256 80.7532 29.4692 83.8765 29.4627H116.287C122.771 29.4627 128.073 26.5779 128.073 23.0528C128.073 19.5269 122.771 16.6425 116.287 16.6425H66.9149C63.7921 16.6357 60.8 15.7794 58.5922 14.2605C56.3845 12.7416 55.1404 10.6835 55.1318 8.53587V8.10657C55.1403 5.95894 56.3842 3.90088 58.592 2.38197C60.7998 0.863054 63.7921 0.00668887 66.9149 0H214.235C217.359 0.00646287 220.352 0.862641 222.561 2.38146C224.77 3.90027 226.016 5.95841 226.026 8.10657V8.53587C226.016 10.684 224.77 12.7422 222.561 14.261C220.352 15.7798 217.359 16.6359 214.235 16.6425H197.606C191.125 16.6425 185.823 19.5269 185.823 23.0528C185.823 26.5779 191.125 29.4627 197.606 29.4627H270.02C273.144 29.4695 276.136 30.3258 278.345 31.8446C280.553 33.3634 281.798 35.4215 281.808 37.5694V38.0028C281.797 40.1502 280.552 42.2076 278.343 43.7258C276.135 45.2439 273.143 46.0996 270.02 46.1061H249.467C242.985 46.1061 237.678 48.9912 237.678 52.5188C237.678 56.0439 242.985 58.9296 249.467 58.9296H324.501C327.624 58.9356 330.617 59.7912 332.825 61.3095C335.034 62.8278 336.279 64.8853 336.289 67.0329V67.464C336.28 69.6118 335.034 71.6697 332.826 73.1883C330.617 74.7069 327.624 75.5627 324.501 75.569H191.315C184.833 75.569 179.529 78.3782 179.529 81.8102C179.529 85.243 184.833 88.0513 191.315 88.0513H192.896C196.018 88.0578 199.01 88.9134 201.218 90.4317C203.427 91.9499 204.672 94.0073 204.682 96.1546V96.5881C204.672 98.7358 203.428 100.794 201.219 102.312C199.011 103.831 196.019 104.687 192.896 104.694H45.5755C42.452 104.687 39.459 103.831 37.2501 102.313C35.0411 100.794 33.7955 98.7361 33.7851 96.5881V96.1546C33.7962 94.007 35.0421 91.9495 37.2511 90.4314C39.46 88.9132 42.4525 88.0577 45.5755 88.0513H89.8382C96.322 88.0513 101.626 85.243 101.626 81.8102C101.626 78.3782 96.322 75.569 89.8382 75.569H11.7857Z" fill="url(#paint0_linear_20_660)"/>
<defs>
<linearGradient id="paint0_linear_20_660" x1="127.617" y1="-24.4286" x2="51.672" y2="264.265" gradientUnits="userSpaceOnUse">
<stop stop-color="#63159B"/>
<stop offset="1" stop-color="#F49DA4"/>
</linearGradient>
</defs>
</svg>
