<svg width="316" height="77" viewBox="0 0 316 77" fill="none" xmlns="http://www.w3.org/2000/svg">
<path d="M10.8944 16.8429C8.00678 16.836 5.24017 15.9693 3.19889 14.4321C1.1576 12.8949 0.00753905 10.8122 1.66923e-05 8.63899V8.20486C0.00620363 6.03123 1.15578 3.94782 3.19732 2.41029C5.23886 0.872756 8.00626 0.00617351 10.8944 0H205.853C208.742 0.00585902 211.511 0.872096 213.555 2.40946C215.598 3.94683 216.75 6.03039 216.758 8.20486V8.63899C216.748 10.8131 215.596 12.8959 213.553 14.4329C211.51 15.97 208.742 16.8363 205.853 16.8429H139.489C133.493 16.8429 128.588 19.7634 128.588 23.3326C128.588 26.9 133.493 29.8206 139.489 29.8206H304.241C307.129 29.8266 309.897 30.6931 311.939 32.2305C313.982 33.768 315.132 35.8514 315.139 38.0253V38.4612C315.131 40.6348 313.981 42.7176 311.938 44.2545C309.896 45.7915 307.129 46.6576 304.241 46.6635H219.219C213.223 46.6635 208.313 49.505 208.313 52.982C208.313 56.455 213.223 59.2965 219.219 59.2965H220.219C223.108 59.303 225.876 60.1697 227.918 61.7072C229.96 63.2447 231.111 65.3281 231.118 67.502V67.9387C231.109 70.1121 229.958 72.1945 227.916 73.7313C225.874 75.2681 223.107 76.1344 220.219 76.141H109.906C107.019 76.1342 104.251 75.2679 102.209 73.7312C100.167 72.1945 99.0151 70.1122 99.0055 67.9387V67.502C99.0139 65.328 100.165 63.2448 102.207 61.7073C104.25 60.1699 107.018 59.3032 109.906 59.2965H137.946C143.94 59.2965 148.845 56.455 148.845 52.982C148.845 49.505 143.94 46.6635 137.946 46.6635H45.0499C42.1617 46.6574 39.394 45.7913 37.3515 44.2544C35.3091 42.7176 34.1577 40.6349 34.149 38.4612V38.0253C34.157 35.8513 35.308 33.768 37.3506 32.2306C39.3931 30.6933 42.1612 29.8268 45.0499 29.8206H58.5268C64.5224 29.8206 69.4254 26.9 69.4254 23.3326C69.4254 19.7634 64.5224 16.8429 58.5268 16.8429H10.8944Z" fill="#FCDDEC"/>
</svg>
