<svg width="46" height="43" viewBox="0 0 46 43" fill="none" xmlns="http://www.w3.org/2000/svg">
<path fill-rule="evenodd" clip-rule="evenodd" d="M23.0174 5.51123C13.8874 5.51123 6.48486 12.6794 6.48486 21.5224C6.48486 28.5963 11.2219 34.5968 17.7921 36.7149C18.6194 36.8614 18.9208 36.367 18.9208 35.9424C18.9208 35.563 18.9066 34.5555 18.8985 33.2198C14.2995 34.1869 13.3291 31.0731 13.3291 31.0731C12.577 29.2243 11.4929 28.7319 11.4929 28.7319C9.99174 27.7382 11.6066 27.7579 11.6066 27.7579C13.2662 27.8719 14.1391 29.4081 14.1391 29.4081C15.6139 31.8545 18.0093 31.1478 18.9513 30.739C19.1015 29.704 19.5278 28.9983 20.0008 28.5982C16.3295 28.1943 12.4694 26.8202 12.4694 20.685C12.4694 18.9374 13.1139 17.5083 14.1716 16.3888C14.0011 15.9839 13.4337 14.3562 14.333 12.1516C14.333 12.1516 15.7215 11.7211 18.8802 13.793C20.1987 13.4382 21.6137 13.2603 23.0195 13.2544C24.4232 13.2603 25.8382 13.4382 27.1587 13.793C30.3154 11.7211 31.7009 12.1516 31.7009 12.1516C32.6032 14.3562 32.0358 15.9839 31.8653 16.3888C32.925 17.5083 33.5655 18.9374 33.5655 20.685C33.5655 26.8359 29.6993 28.1894 26.0158 28.5855C26.6096 29.0798 27.1384 30.0568 27.1384 31.5508C27.1384 33.6906 27.1181 35.4175 27.1181 35.9424C27.1181 36.3709 27.4155 36.8692 28.2549 36.7129C34.82 34.5909 39.553 28.5943 39.553 21.5224C39.553 12.6794 32.1495 5.51123 23.0174 5.51123Z" fill="#FC75A0"/>
</svg>
