<svg width="23" height="26" viewBox="0 0 23 26" fill="none" xmlns="http://www.w3.org/2000/svg">
<path d="M0.489549 0.423087C0.165167 0.818546 0.00112587 1.32466 0.0307594 1.8386V24.1646C0.00280267 24.6783 0.166646 25.1839 0.489549 25.5801L0.564623 25.6564L12.8685 13.1457V12.849L0.564623 0.346802L0.489549 0.423087Z" fill="url(#paint0_linear_591_154)"/>
<path d="M16.9722 17.3159L12.8682 13.1457V12.849L16.9722 8.68726L17.064 8.73811L21.9272 11.5437C23.3202 12.3405 23.3202 13.6543 21.9272 14.4595L17.064 17.2651L16.9722 17.3159Z" fill="url(#paint1_linear_591_154)"/>
<path d="M17.0641 17.265L12.8933 13.027L0.489258 25.5801C0.775169 25.819 1.13113 25.9544 1.50111 25.9652C1.8711 25.9759 2.23409 25.8613 2.53296 25.6394L17.0391 17.265" fill="url(#paint2_linear_591_154)"/>
<path d="M17.0641 8.73808L2.53296 0.355221C2.2373 0.124248 1.87189 0.00474001 1.49915 0.0171073C1.12641 0.0294746 0.769459 0.17295 0.489258 0.423029L12.8682 13.0016L17.0641 8.73808Z" fill="url(#paint3_linear_591_154)"/>
<path opacity="0.1" d="M16.9729 17.1718L2.53357 25.4953C2.24554 25.7134 1.89594 25.8312 1.53674 25.8312C1.17755 25.8312 0.827945 25.7134 0.539918 25.4953L0.464844 25.5716L0.539918 25.6479C0.827945 25.8659 1.17755 25.9837 1.53674 25.9837C1.89594 25.9837 2.24554 25.8659 2.53357 25.6479L17.0397 17.2735L16.9729 17.1718Z" fill="black"/>
<path opacity="0.07" d="M0.4893 25.4445C0.165858 25.0452 0.00208125 24.5369 0.0305109 24.0205V24.1646C0.00255409 24.6783 0.166398 25.1838 0.4893 25.5801L0.564375 25.5038L0.4893 25.4445Z" fill="black"/>
<path opacity="0.07" d="M21.9276 14.3069L16.9727 17.1718L17.0644 17.265L21.9276 14.4255C22.2128 14.2981 22.4597 14.096 22.6429 13.8398C22.8261 13.5837 22.939 13.2827 22.9703 12.9677C22.9134 13.2589 22.7891 13.5322 22.6078 13.765C22.4266 13.9979 22.1934 14.1836 21.9276 14.3069Z" fill="black"/>
<path opacity="0.3" d="M2.53276 0.507842L21.9271 11.6878C22.1903 11.8081 22.4219 11.9897 22.6031 12.218C22.7842 12.4462 22.9099 12.7147 22.9698 13.0016C22.9402 12.686 22.8279 12.3843 22.6445 12.1279C22.4611 11.8714 22.2133 11.6697 21.9271 11.5437L2.53276 0.355273C1.16474 -0.44148 0.0302734 0.219655 0.0302734 1.83859V1.98268C0.0302734 0.372225 1.16474 -0.297386 2.53276 0.507842Z" fill="white"/>
<defs>
<linearGradient id="paint0_linear_591_154" x1="11.7841" y1="1.60126" x2="-5.15745" y2="18.274" gradientUnits="userSpaceOnUse">
<stop stop-color="#008EFF"/>
<stop offset="0.01" stop-color="#008FFF"/>
<stop offset="0.26" stop-color="#00ACFF"/>
<stop offset="0.51" stop-color="#00C0FF"/>
<stop offset="0.76" stop-color="#00CDFF"/>
<stop offset="1" stop-color="#00D1FF"/>
</linearGradient>
<linearGradient id="paint1_linear_591_154" x1="22.094" y1="13.0016" x2="-1.94658" y2="13.0016" gradientUnits="userSpaceOnUse">
<stop stop-color="#FFD800"/>
<stop offset="1" stop-color="#FF8A00"/>
</linearGradient>
<linearGradient id="paint2_linear_591_154" x1="14.7868" y1="15.3155" x2="-8.18053" y2="37.9185" gradientUnits="userSpaceOnUse">
<stop stop-color="#FF3A44"/>
<stop offset="1" stop-color="#B11162"/>
</linearGradient>
<linearGradient id="paint3_linear_591_154" x1="-2.63051" y1="-7.01051" x2="7.63259" y2="3.08144" gradientUnits="userSpaceOnUse">
<stop stop-color="#328E71"/>
<stop offset="0.07" stop-color="#2D9571"/>
<stop offset="0.48" stop-color="#15BD74"/>
<stop offset="0.8" stop-color="#06D575"/>
<stop offset="1" stop-color="#00DE76"/>
</linearGradient>
</defs>
</svg>
