<svg width="877" height="410" viewBox="0 0 877 410" fill="none" xmlns="http://www.w3.org/2000/svg">
<rect width="2" height="399" transform="matrix(-1 0 0 1 82 11)" fill="#E5E5E5"/>
<rect x="219" y="11" width="2" height="381" fill="#E5E5E5"/>
<rect x="358" y="11" width="1" height="381" fill="#E5E5E5"/>
<rect x="497" y="11" width="1" height="381" fill="#E5E5E5"/>
<rect x="635" y="11" width="2" height="381" fill="#E5E5E5"/>
<rect x="774" y="11" width="1" height="381" fill="#E5E5E5"/>
<rect x="876" y="11" width="1" height="381" fill="#E5E5E5"/>
<path d="M41.4933 299.509C40.557 299.509 39.719 299.261 38.9793 298.764C38.2511 298.267 37.679 297.556 37.2629 296.631C36.8583 295.695 36.656 294.597 36.656 293.337C36.656 292.077 36.8583 290.985 37.2629 290.06C37.679 289.124 38.2511 288.407 38.9793 287.91C39.719 287.413 40.557 287.165 41.4933 287.165C42.4295 287.165 43.2617 287.413 43.9899 287.91C44.7296 288.407 45.3076 289.124 45.7237 290.06C46.1398 290.985 46.3478 292.077 46.3478 293.337C46.3478 294.597 46.1398 295.695 45.7237 296.631C45.3076 297.556 44.7296 298.267 43.9899 298.764C43.2617 299.261 42.4295 299.509 41.4933 299.509ZM41.4933 298.365C42.1983 298.365 42.8167 298.169 43.3484 297.776C43.8916 297.383 44.3135 296.81 44.6141 296.059C44.9146 295.308 45.0648 294.4 45.0648 293.337C45.0648 292.274 44.9146 291.366 44.6141 290.615C44.3135 289.864 43.8916 289.292 43.3484 288.899C42.8167 288.506 42.1983 288.309 41.4933 288.309C40.7882 288.309 40.164 288.506 39.6208 288.899C39.0891 289.292 38.673 289.864 38.3725 290.615C38.072 291.366 37.9217 292.274 37.9217 293.337C37.9217 294.4 38.072 295.308 38.3725 296.059C38.673 296.81 39.0891 297.383 39.6208 297.776C40.164 298.169 40.7882 298.365 41.4933 298.365Z" fill="#9C9C9C"/>
<path d="M16.6937 225.846C16.6937 226.736 16.3527 227.493 15.6707 228.117C14.9888 228.73 13.989 229.071 12.6713 229.14V231.134H11.8044V229.158C10.9607 229.112 10.1631 228.95 9.41182 228.672C8.67208 228.383 8.08838 228.019 7.66071 227.58L8.16351 226.592C8.56806 226.985 9.09397 227.314 9.74124 227.58C10.4001 227.846 11.0878 228.002 11.8044 228.048V223.488C11.0069 223.292 10.3423 223.084 9.81059 222.864C9.2789 222.633 8.8339 222.304 8.47559 221.876C8.12883 221.437 7.95546 220.859 7.95546 220.142C7.95546 219.252 8.27909 218.507 8.92637 217.906C9.57364 217.293 10.533 216.935 11.8044 216.831V214.837H12.6713V216.813C13.3302 216.836 13.9659 216.946 14.5785 217.143C15.2026 217.328 15.7401 217.576 16.1909 217.888L15.7574 218.911C15.2835 218.611 14.7807 218.374 14.2491 218.2C13.7174 218.027 13.1915 217.929 12.6713 217.906V222.5C13.5266 222.708 14.2259 222.922 14.7692 223.142C15.3124 223.35 15.769 223.673 16.1389 224.112C16.5087 224.552 16.6937 225.13 16.6937 225.846ZM9.22111 220.107C9.22111 220.708 9.44072 221.165 9.87994 221.477C10.3307 221.789 10.9722 222.055 11.8044 222.275V217.94C10.9491 218.01 10.3018 218.247 9.86261 218.651C9.43494 219.044 9.22111 219.53 9.22111 220.107ZM12.6713 228.048C13.5844 227.979 14.2722 227.753 14.7345 227.372C15.1968 226.991 15.428 226.505 15.428 225.916C15.428 225.291 15.1911 224.823 14.7172 224.511C14.2433 224.199 13.5613 223.933 12.6713 223.714V228.048ZM22.1863 216.917V229.054H20.938V218.027H18.0773V216.917H22.1863ZM30.5025 229.158C29.5663 229.158 28.7283 228.909 27.9886 228.412C27.2604 227.915 26.6882 227.204 26.2721 226.28C25.8676 225.343 25.6653 224.245 25.6653 222.986C25.6653 221.726 25.8676 220.633 26.2721 219.709C26.6882 218.772 27.2604 218.056 27.9886 217.559C28.7283 217.062 29.5663 216.813 30.5025 216.813C31.4388 216.813 32.271 217.062 32.9992 217.559C33.7389 218.056 34.3168 218.772 34.7329 219.709C35.1491 220.633 35.3571 221.726 35.3571 222.986C35.3571 224.245 35.1491 225.343 34.7329 226.28C34.3168 227.204 33.7389 227.915 32.9992 228.412C32.271 228.909 31.4388 229.158 30.5025 229.158ZM30.5025 228.013C31.2076 228.013 31.826 227.817 32.3577 227.424C32.9009 227.031 33.3228 226.459 33.6233 225.708C33.9239 224.956 34.0741 224.049 34.0741 222.986C34.0741 221.922 33.9239 221.015 33.6233 220.263C33.3228 219.512 32.9009 218.94 32.3577 218.547C31.826 218.154 31.2076 217.958 30.5025 217.958C29.7975 217.958 29.1733 218.154 28.6301 218.547C28.0984 218.94 27.6823 219.512 27.3817 220.263C27.0812 221.015 26.931 221.922 26.931 222.986C26.931 224.049 27.0812 224.956 27.3817 225.708C27.6823 226.459 28.0984 227.031 28.6301 227.424C29.1733 227.817 29.7975 228.013 30.5025 228.013ZM41.9184 224.477L39.7686 226.453V229.054H38.5376V216.189H39.7686V224.91L45.2126 219.934H46.7383L42.8373 223.662L47.1024 229.054H45.594L41.9184 224.477Z" fill="#9C9C9C"/>
<path d="M13.0026 155.495C13.0026 156.385 12.6617 157.142 11.9797 157.766C11.2978 158.379 10.2979 158.72 8.98028 158.789V160.783H8.11339V158.807C7.26962 158.76 6.47209 158.599 5.72078 158.321C4.98104 158.032 4.39734 157.668 3.96967 157.229L4.47247 156.241C4.87702 156.634 5.40293 156.963 6.0502 157.229C6.70904 157.495 7.39677 157.651 8.11339 157.697V153.137C7.31586 152.941 6.65124 152.733 6.11955 152.513C5.58786 152.282 5.14286 151.952 4.78455 151.525C4.43779 151.086 4.26442 150.508 4.26442 149.791C4.26442 148.901 4.58805 148.156 5.23533 147.554C5.8826 146.942 6.84196 146.584 8.11339 146.48V144.486H8.98028V146.462C9.63911 146.485 10.2748 146.595 10.8874 146.792C11.5116 146.977 12.0491 147.225 12.4998 147.537L12.0664 148.56C11.5925 148.26 11.0897 148.023 10.558 147.849C10.0263 147.676 9.50041 147.578 8.98028 147.554V152.149C9.83561 152.357 10.5349 152.571 11.0781 152.79C11.6214 152.999 12.078 153.322 12.4478 153.761C12.8177 154.201 13.0026 154.779 13.0026 155.495ZM5.53007 149.756C5.53007 150.357 5.74968 150.814 6.1889 151.126C6.63968 151.438 7.28118 151.704 8.11339 151.924V147.589C7.25806 147.659 6.61079 147.895 6.17157 148.3C5.7439 148.693 5.53007 149.178 5.53007 149.756ZM8.98028 157.697C9.8934 157.628 10.5811 157.402 11.0435 157.021C11.5058 156.639 11.737 156.154 11.737 155.565C11.737 154.94 11.5 154.472 11.0261 154.16C10.5522 153.848 9.87028 153.582 8.98028 153.363V157.697ZM23.5885 157.593V158.703H15.0757V157.818L20.1209 152.877C20.7567 152.253 21.1843 151.716 21.4039 151.265C21.6351 150.802 21.7507 150.34 21.7507 149.878C21.7507 149.161 21.5022 148.606 21.0052 148.213C20.5197 147.809 19.8204 147.606 18.9073 147.606C17.4856 147.606 16.3818 148.057 15.5958 148.959L14.7116 148.196C15.1855 147.641 15.7865 147.214 16.5147 146.913C17.2544 146.612 18.0867 146.462 19.0113 146.462C20.2481 146.462 21.2248 146.757 21.9414 147.346C22.6696 147.924 23.0337 148.722 23.0337 149.739C23.0337 150.363 22.895 150.964 22.6176 151.542C22.3402 152.12 21.8143 152.785 21.0398 153.536L16.9135 157.593H23.5885ZM30.5025 158.807C29.5663 158.807 28.7283 158.558 27.9886 158.061C27.2604 157.564 26.6882 156.853 26.2721 155.929C25.8676 154.992 25.6653 153.894 25.6653 152.634C25.6653 151.375 25.8676 150.282 26.2721 149.358C26.6882 148.421 27.2604 147.705 27.9886 147.208C28.7283 146.711 29.5663 146.462 30.5025 146.462C31.4388 146.462 32.271 146.711 32.9992 147.208C33.7389 147.705 34.3168 148.421 34.7329 149.358C35.1491 150.282 35.3571 151.375 35.3571 152.634C35.3571 153.894 35.1491 154.992 34.7329 155.929C34.3168 156.853 33.7389 157.564 32.9992 158.061C32.271 158.558 31.4388 158.807 30.5025 158.807ZM30.5025 157.662C31.2076 157.662 31.826 157.466 32.3577 157.073C32.9009 156.68 33.3228 156.108 33.6233 155.356C33.9239 154.605 34.0741 153.698 34.0741 152.634C34.0741 151.571 33.9239 150.664 33.6233 149.912C33.3228 149.161 32.9009 148.589 32.3577 148.196C31.826 147.803 31.2076 147.606 30.5025 147.606C29.7975 147.606 29.1733 147.803 28.6301 148.196C28.0984 148.589 27.6823 149.161 27.3818 149.912C27.0812 150.664 26.931 151.571 26.931 152.634C26.931 153.698 27.0812 154.605 27.3818 155.356C27.6823 156.108 28.0984 156.68 28.6301 157.073C29.1733 157.466 29.7975 157.662 30.5025 157.662ZM41.9184 154.125L39.7686 156.102V158.703H38.5376V145.838H39.7686V154.559L45.2126 149.583H46.7383L42.8373 153.311L47.1024 158.703H45.594L41.9184 154.125Z" fill="#9C9C9C"/>
<path d="M11.6928 85.1436C11.6928 86.0336 11.3518 86.7907 10.6698 87.4148C9.98789 88.0274 8.98809 88.3684 7.67042 88.4378V90.4316H6.80353V88.4551C5.95976 88.4089 5.16223 88.247 4.41092 87.9696C3.67118 87.6807 3.08748 87.3166 2.65981 86.8774L3.16261 85.8891C3.56715 86.2821 4.09307 86.6115 4.74034 86.8774C5.39918 87.1432 6.08691 87.2993 6.80353 87.3455V82.7857C6.006 82.5892 5.34138 82.3811 4.80969 82.1615C4.278 81.9303 3.833 81.6009 3.47469 81.1733C3.12793 80.734 2.95455 80.1561 2.95455 79.4395C2.95455 78.5495 3.27819 77.804 3.92547 77.2029C4.57274 76.5903 5.5321 76.232 6.80353 76.128V74.1341H7.67042V76.1106C8.32925 76.1338 8.96497 76.2436 9.57757 76.4401C10.2017 76.625 10.7392 76.8735 11.19 77.1856L10.7565 78.2085C10.2826 77.908 9.77984 77.671 9.24815 77.4977C8.71646 77.3243 8.19055 77.226 7.67042 77.2029V81.7974C8.52575 82.0055 9.22503 82.2193 9.76828 82.4389C10.3115 82.647 10.7681 82.9706 11.138 83.4098C11.5078 83.849 11.6928 84.427 11.6928 85.1436ZM4.22021 79.4048C4.22021 80.0058 4.43982 80.4624 4.87904 80.7745C5.32982 81.0866 5.97132 81.3524 6.80353 81.572V77.2376C5.9482 77.3069 5.30093 77.5439 4.86171 77.9484C4.43404 78.3414 4.22021 78.8269 4.22021 79.4048ZM7.67042 87.3455C8.58354 87.2761 9.27127 87.0507 9.73361 86.6693C10.1959 86.2879 10.4271 85.8024 10.4271 85.2129C10.4271 84.5888 10.1902 84.1207 9.71627 83.8086C9.24237 83.4965 8.56042 83.2307 7.67042 83.0111V87.3455ZM17.9821 81.416C19.2536 81.4853 20.2187 81.8321 20.8775 82.4562C21.5479 83.0688 21.8831 83.8722 21.8831 84.8662C21.8831 85.5597 21.7155 86.1781 21.3803 86.7213C21.0451 87.253 20.5481 87.6749 19.8893 87.987C19.2304 88.2991 18.4271 88.4551 17.4793 88.4551C16.6009 88.4551 15.7687 88.3164 14.9827 88.039C14.2083 87.75 13.5841 87.3686 13.1102 86.8947L13.717 85.9065C14.1216 86.3226 14.6591 86.6635 15.3295 86.9294C15.9998 87.1837 16.7165 87.3108 17.4793 87.3108C18.4734 87.3108 19.242 87.097 19.7852 86.6693C20.3285 86.2301 20.6001 85.6291 20.6001 84.8662C20.6001 84.1149 20.3285 83.5254 19.7852 83.0977C19.242 82.6701 18.4213 82.4562 17.3233 82.4562H16.4564V81.5373L19.8199 77.3243H13.613V76.2147H21.415V77.0989L17.9821 81.416ZM29.0572 88.4551C28.121 88.4551 27.283 88.2066 26.5433 87.7096C25.8151 87.2126 25.2429 86.5017 24.8268 85.577C24.4223 84.6408 24.22 83.5427 24.22 82.2829C24.22 81.023 24.4223 79.9307 24.8268 79.006C25.2429 78.0698 25.8151 77.3532 26.5433 76.8562C27.283 76.3591 28.121 76.1106 29.0572 76.1106C29.9935 76.1106 30.8257 76.3591 31.5539 76.8562C32.2936 77.3532 32.8715 78.0698 33.2876 79.006C33.7037 79.9307 33.9118 81.023 33.9118 82.2829C33.9118 83.5427 33.7037 84.6408 33.2876 85.577C32.8715 86.5017 32.2936 87.2126 31.5539 87.7096C30.8257 88.2066 29.9935 88.4551 29.0572 88.4551ZM29.0572 87.3108C29.7623 87.3108 30.3807 87.1143 30.9124 86.7213C31.4556 86.3283 31.8775 85.7562 32.178 85.0049C32.4785 84.2536 32.6288 83.3462 32.6288 82.2829C32.6288 81.2195 32.4785 80.3121 32.178 79.5608C31.8775 78.8095 31.4556 78.2374 30.9124 77.8444C30.3807 77.4514 29.7623 77.2549 29.0572 77.2549C28.3522 77.2549 27.728 77.4514 27.1848 77.8444C26.6531 78.2374 26.237 78.8095 25.9364 79.5608C25.6359 80.3121 25.4857 81.2195 25.4857 82.2829C25.4857 83.3462 25.6359 84.2536 25.9364 85.0049C26.237 85.7562 26.6531 86.3283 27.1848 86.7213C27.728 87.1143 28.3522 87.3108 29.0572 87.3108ZM40.4731 83.7739L38.3233 85.7504V88.3511H37.0923V75.4865H38.3233V84.2074L43.7673 79.2314H45.293L41.392 82.959L45.6571 88.3511H44.1487L40.4731 83.7739Z" fill="#9C9C9C"/>
<path d="M9.7118 14.7925C9.7118 15.6825 9.37082 16.4396 8.68887 17.0638C8.00692 17.6764 7.00711 18.0173 5.68945 18.0867V20.0805H4.82256V18.104C3.97879 18.0578 3.18125 17.896 2.42995 17.6186C1.69021 17.3296 1.10651 16.9655 0.678841 16.5263L1.18164 15.538C1.58618 15.931 2.11209 16.2604 2.75937 16.5263C3.4182 16.7921 4.10593 16.9482 4.82256 16.9944V12.4346C4.02502 12.2381 3.36041 12.03 2.82872 11.8104C2.29703 11.5793 1.85203 11.2498 1.49371 10.8222C1.14696 10.383 0.973583 9.80503 0.973583 9.08841C0.973583 8.1984 1.29722 7.45288 1.9445 6.85184C2.59177 6.23924 3.55113 5.88093 4.82256 5.7769V3.78306H5.68945V5.75956C6.34828 5.78268 6.984 5.89248 7.5966 6.08898C8.22075 6.27391 8.75822 6.52242 9.20901 6.8345L8.77556 7.85743C8.30166 7.55691 7.79887 7.31996 7.26718 7.14658C6.73549 6.9732 6.20958 6.87496 5.68945 6.85184V11.4463C6.54477 11.6544 7.24406 11.8682 7.78731 12.0878C8.33056 12.2959 8.78712 12.6195 9.15699 13.0587C9.52686 13.498 9.7118 14.0759 9.7118 14.7925ZM2.23924 9.05373C2.23924 9.65477 2.45885 10.1113 2.89807 10.4234C3.34885 10.7355 3.99035 11.0013 4.82256 11.2209V6.88651C3.96723 6.95586 3.31996 7.19281 2.88073 7.59736C2.45307 7.99035 2.23924 8.47581 2.23924 9.05373ZM5.68945 16.9944C6.60257 16.9251 7.2903 16.6997 7.75264 16.3182C8.21498 15.9368 8.44615 15.4514 8.44615 14.8619C8.44615 14.2377 8.2092 13.7696 7.7353 13.4575C7.2614 13.1454 6.57945 12.8796 5.68945 12.66V16.9944ZM22.4955 14.8099H20.0682V18H18.8199V14.8099H11.9715V13.9083L18.4038 5.86359H19.7908L13.5839 13.7002H18.8546V10.8915H20.0682V13.7002H22.4955V14.8099ZM29.0572 18.104C28.121 18.104 27.283 17.8555 26.5433 17.3585C25.8151 16.8615 25.2429 16.1506 24.8268 15.226C24.4223 14.2897 24.22 13.1917 24.22 11.9318C24.22 10.6719 24.4223 9.57964 24.8268 8.65496C25.2429 7.71873 25.8151 7.0021 26.5433 6.50508C27.283 6.00807 28.121 5.75956 29.0572 5.75956C29.9935 5.75956 30.8257 6.00807 31.5539 6.50508C32.2936 7.0021 32.8715 7.71873 33.2876 8.65496C33.7037 9.57964 33.9118 10.6719 33.9118 11.9318C33.9118 13.1917 33.7037 14.2897 33.2876 15.226C32.8715 16.1506 32.2936 16.8615 31.5539 17.3585C30.8257 17.8555 29.9935 18.104 29.0572 18.104ZM29.0572 16.9597C29.7623 16.9597 30.3807 16.7632 30.9124 16.3703C31.4556 15.9773 31.8775 15.4051 32.178 14.6538C32.4785 13.9025 32.6288 12.9952 32.6288 11.9318C32.6288 10.8684 32.4785 9.96107 32.178 9.20977C31.8775 8.45847 31.4556 7.88632 30.9124 7.49334C30.3807 7.10035 29.7623 6.90385 29.0572 6.90385C28.3522 6.90385 27.728 7.10035 27.1848 7.49334C26.6531 7.88632 26.237 8.45847 25.9364 9.20977C25.6359 9.96107 25.4857 10.8684 25.4857 11.9318C25.4857 12.9952 25.6359 13.9025 25.9364 14.6538C26.237 15.4051 26.6531 15.9773 27.1848 16.3703C27.728 16.7632 28.3522 16.9597 29.0572 16.9597ZM40.4731 13.4228L38.3233 15.3993V18H37.0923V5.1354H38.3233V13.8563L43.7673 8.88035H45.293L41.392 12.608L45.6571 18H44.1487L40.4731 13.4228Z" fill="#9C9C9C"/>
<path d="M106.261 232.475C101.85 232.475 101.85 252.185 95.2333 252.185C93.4274 252.185 85.3157 252.185 82.0071 253.109C82.0062 273.588 82.0071 389.832 82 406H876V253.109C869.39 250.953 867.184 246.641 862.767 246.641C856.15 246.641 856.15 238.634 851.739 238.634C845.122 238.634 845.122 235.554 838.506 235.554C831.889 235.554 831.889 246.333 825.272 246.333C818.655 246.333 818.656 209.069 812.039 209.069C807.628 209.069 807.628 217.385 801.011 217.385C794.394 217.385 794.394 216.769 787.778 216.769C781.161 216.769 781.161 181.353 774.544 181.353C767.928 181.353 767.928 153.636 763.517 153.636C756.9 153.636 756.9 219.232 750.283 219.232C743.667 219.232 743.667 145.013 737.05 145.013C730.433 145.013 730.433 201.986 723.817 201.986C719.406 201.986 719.406 133.926 712.789 133.926C706.172 133.926 706.172 115.448 699.556 115.448C692.939 115.448 692.939 170.266 686.322 170.266C679.706 170.266 679.706 130.846 675.294 130.846C668.678 130.846 668.678 135.774 662.061 135.774C655.444 135.774 655.444 212.149 648.828 212.149C642.211 212.149 642.211 149.016 635.594 149.016C631.183 149.016 631.183 152.096 624.567 152.096C617.95 152.096 617.95 219.848 611.333 219.848C604.717 219.848 604.717 56.6266 598.1 56.6266C591.483 56.6266 591.483 82.8036 587.072 82.8036C580.455 82.8036 580.456 146.86 573.839 146.86C567.222 146.86 567.222 81.2638 560.605 81.2638C553.989 81.2638 553.989 182.584 547.372 182.584C542.961 182.584 542.961 214.613 536.344 214.613C529.728 214.613 529.728 247.565 523.111 247.565C516.494 247.565 516.494 182.584 509.878 182.584C503.261 182.584 503.261 44 498.85 44C492.233 44 492.233 239.25 485.617 239.25C479 239.25 479 183.508 472.383 183.508C465.767 183.508 465.767 153.02 459.15 153.02C454.739 153.02 454.739 137.929 448.122 137.929C441.505 137.929 441.505 100.666 434.889 100.666C428.272 100.666 428.272 87.4231 421.656 87.4231C415.039 87.4231 415.039 92.9665 410.628 92.9665C404.011 92.9665 404.011 224.16 397.394 224.16C390.778 224.16 390.778 252.801 384.161 252.801C377.544 252.801 377.544 224.776 370.928 224.776C366.517 224.776 366.517 163.491 359.9 163.491C353.283 163.491 353.283 205.682 346.667 205.682C340.05 205.682 340.05 227.547 333.433 227.547C326.817 227.547 326.817 147.168 322.406 147.168C315.789 147.168 315.789 197.983 309.172 197.983C302.556 197.983 302.556 229.703 295.939 229.703C289.322 229.703 289.322 139.777 282.706 139.777C278.294 139.777 278.294 91.7346 271.678 91.7346C265.061 91.7346 265.061 112.984 258.444 112.984C251.828 112.984 251.828 230.011 245.211 230.011C238.594 230.011 238.594 123.455 234.183 123.455C227.567 123.455 227.567 215.229 220.95 215.229C214.333 215.229 214.333 173.653 207.717 173.653C201.1 173.653 201.1 154.868 194.483 154.868C190.072 154.868 190.072 195.827 183.456 195.827C176.839 195.827 176.839 166.57 170.222 166.57C163.606 166.57 163.606 252.185 156.989 252.185C150.372 252.185 150.372 230.935 145.961 230.935C139.344 230.935 139.344 208.454 132.728 208.454C126.111 208.454 126.111 232.167 119.494 232.167C112.878 232.167 112.878 232.475 106.261 232.475Z" fill="#80288E" fill-opacity="0.5"/>
<path d="M106.261 232.475C101.85 232.475 101.85 252.185 95.2333 252.185C93.4274 252.185 85.3157 252.185 82.0071 253.109C82.0062 273.588 82.0071 389.832 82 406H876V253.109C869.39 250.953 867.184 246.641 862.767 246.641C856.15 246.641 856.15 238.634 851.739 238.634C845.122 238.634 845.122 235.554 838.506 235.554C831.889 235.554 831.889 246.333 825.272 246.333C818.655 246.333 818.656 209.069 812.039 209.069C807.628 209.069 807.628 217.385 801.011 217.385C794.394 217.385 794.394 216.769 787.778 216.769C781.161 216.769 781.161 181.353 774.544 181.353C767.928 181.353 767.928 153.636 763.517 153.636C756.9 153.636 756.9 219.232 750.283 219.232C743.667 219.232 743.667 145.013 737.05 145.013C730.433 145.013 730.433 201.986 723.817 201.986C719.406 201.986 719.406 133.926 712.789 133.926C706.172 133.926 706.172 115.448 699.556 115.448C692.939 115.448 692.939 170.266 686.322 170.266C679.706 170.266 679.706 130.846 675.294 130.846C668.678 130.846 668.678 135.774 662.061 135.774C655.444 135.774 655.444 212.149 648.828 212.149C642.211 212.149 642.211 149.016 635.594 149.016C631.183 149.016 631.183 152.096 624.567 152.096C617.95 152.096 617.95 219.848 611.333 219.848C604.717 219.848 604.717 56.6266 598.1 56.6266C591.483 56.6266 591.483 82.8036 587.072 82.8036C580.455 82.8036 580.456 146.86 573.839 146.86C567.222 146.86 567.222 81.2638 560.605 81.2638C553.989 81.2638 553.989 182.584 547.372 182.584C542.961 182.584 542.961 214.613 536.344 214.613C529.728 214.613 529.728 247.565 523.111 247.565C516.494 247.565 516.494 182.584 509.878 182.584C503.261 182.584 503.261 44 498.85 44C492.233 44 492.233 239.25 485.617 239.25C479 239.25 479 183.508 472.383 183.508C465.767 183.508 465.767 153.02 459.15 153.02C454.739 153.02 454.739 137.929 448.122 137.929C441.505 137.929 441.505 100.666 434.889 100.666C428.272 100.666 428.272 87.4231 421.656 87.4231C415.039 87.4231 415.039 92.9665 410.628 92.9665C404.011 92.9665 404.011 224.16 397.394 224.16C390.778 224.16 390.778 252.801 384.161 252.801C377.544 252.801 377.544 224.776 370.928 224.776C366.517 224.776 366.517 163.491 359.9 163.491C353.283 163.491 353.283 205.682 346.667 205.682C340.05 205.682 340.05 227.547 333.433 227.547C326.817 227.547 326.817 147.168 322.406 147.168C315.789 147.168 315.789 197.983 309.172 197.983C302.556 197.983 302.556 229.703 295.939 229.703C289.322 229.703 289.322 139.777 282.706 139.777C278.294 139.777 278.294 91.7346 271.678 91.7346C265.061 91.7346 265.061 112.984 258.444 112.984C251.828 112.984 251.828 230.011 245.211 230.011C238.594 230.011 238.594 123.455 234.183 123.455C227.567 123.455 227.567 215.229 220.95 215.229C214.333 215.229 214.333 173.653 207.717 173.653C201.1 173.653 201.1 154.868 194.483 154.868C190.072 154.868 190.072 195.827 183.456 195.827C176.839 195.827 176.839 166.57 170.222 166.57C163.606 166.57 163.606 252.185 156.989 252.185C150.372 252.185 150.372 230.935 145.961 230.935C139.344 230.935 139.344 208.454 132.728 208.454C126.111 208.454 126.111 232.167 119.494 232.167C112.878 232.167 112.878 232.475 106.261 232.475Z" fill="url(#paint0_linear_907_442)"/>
<path d="M82 256C88.6167 256 88.6167 255.063 95.2333 255.063C101.85 255.063 101.85 235.081 106.261 235.081C112.878 235.081 112.878 234.769 119.494 234.769C126.111 234.769 126.111 210.728 132.728 210.728C139.344 210.728 139.344 233.52 145.961 233.52C150.372 233.52 150.372 255.063 156.989 255.063C163.606 255.063 163.606 168.265 170.222 168.265C176.839 168.265 176.839 197.926 183.456 197.926C190.072 197.926 190.072 156.401 194.483 156.401C201.1 156.401 201.1 175.446 207.717 175.446C214.333 175.446 214.333 217.596 220.95 217.596C227.567 217.596 227.567 124.554 234.183 124.554C238.594 124.554 238.594 232.583 245.211 232.583C251.828 232.583 251.828 113.938 258.444 113.938C265.061 113.938 265.061 92.3947 271.678 92.3947C278.294 92.3947 278.294 141.102 282.706 141.102C289.322 141.102 289.322 232.271 295.939 232.271C302.556 232.271 302.556 200.112 309.172 200.112C315.789 200.112 315.789 148.595 322.406 148.595C326.817 148.595 326.817 230.085 333.433 230.085C340.05 230.085 340.05 207.918 346.667 207.918C353.283 207.918 353.283 165.143 359.9 165.143C366.517 165.143 366.517 227.275 370.928 227.275C377.544 227.275 377.544 255.688 384.161 255.688C390.778 255.688 390.778 226.651 397.394 226.651C404.011 226.651 404.011 93.6436 410.628 93.6436C415.039 93.6436 415.039 88.0236 421.656 88.0236C428.272 88.0236 428.272 101.449 434.889 101.449C441.506 101.449 441.506 139.228 448.122 139.228C454.739 139.228 454.739 154.527 459.15 154.527C465.767 154.527 465.767 185.437 472.383 185.437C479 185.437 479 241.95 485.617 241.95C492.233 241.95 492.233 44 498.85 44C503.261 44 503.261 184.501 509.878 184.501C516.494 184.501 516.494 250.38 523.111 250.38C529.728 250.38 529.728 216.972 536.344 216.972C542.961 216.972 542.961 184.501 547.372 184.501C553.989 184.501 553.989 81.7791 560.606 81.7791C567.222 81.7791 567.222 148.283 573.839 148.283C580.456 148.283 580.456 83.3402 587.072 83.3402C591.483 83.3402 591.483 56.8012 598.1 56.8012C604.717 56.8012 604.717 222.28 611.333 222.28C617.95 222.28 617.95 153.591 624.567 153.591C631.183 153.591 631.183 150.468 635.594 150.468C642.211 150.468 642.211 214.474 648.828 214.474C655.444 214.474 655.444 137.043 662.061 137.043C668.678 137.043 668.678 132.047 675.294 132.047C679.706 132.047 679.706 172.012 686.322 172.012C692.939 172.012 692.939 116.436 699.556 116.436C706.172 116.436 706.172 135.169 712.789 135.169C719.406 135.169 719.406 204.171 723.817 204.171C730.433 204.171 730.433 146.409 737.05 146.409C743.667 146.409 743.667 221.655 750.283 221.655C756.9 221.655 756.9 155.152 763.517 155.152C767.928 155.152 767.928 183.252 774.544 183.252C781.161 183.252 781.161 219.158 787.778 219.158C794.394 219.158 794.394 219.782 801.011 219.782C807.628 219.782 807.628 211.352 812.039 211.352C818.656 211.352 818.655 249.131 825.272 249.131C831.889 249.131 831.889 238.203 838.505 238.203C845.122 238.203 845.122 241.325 851.739 241.325C856.15 241.325 856.15 249.443 862.767 249.443C869.383 249.443 869.383 256 876 256" stroke="#80288E" stroke-width="1.44522"/>
<defs>
<linearGradient id="paint0_linear_907_442" x1="479.006" y1="44" x2="479.006" y2="406" gradientUnits="userSpaceOnUse">
<stop stop-color="white" stop-opacity="0"/>
<stop offset="1" stop-color="white"/>
</linearGradient>
</defs>
</svg>
