<svg width="2414" height="1253" viewBox="0 0 2414 1253" fill="none" xmlns="http://www.w3.org/2000/svg">
<path d="M1709.36 555.326L1718.89 541.445L1682.83 544.97C1576.29 501.921 1667.09 551.484 1639.65 512.244H1617.75C1617.75 512.244 1613.75 549.096 1629.13 539.423C1637.75 558.599 1694.72 561.353 1709.36 555.326Z" fill="#992B3B"/>
<path d="M1629.13 539.423V526.495L1637.75 532.097C1627.67 527.165 1619.71 514.241 1617.97 512.244H1594.72C1567.13 530.764 1545.72 539.078 1526.37 542.437L1496.1 534.298L1505.63 550.084C1525.96 557.264 1607.54 561.363 1629.13 539.423Z" fill="#BA3A47"/>
<path d="M1691.34 524.058H1613.96V619.599H1691.34V524.058Z" fill="#DDD3D4"/>
<path d="M1613.96 524.058H1518.04V619.599H1613.96V524.058Z" fill="#FDFDFD"/>
<path d="M1573.1 575.581H1557.84V616.824H1573.1V575.581Z" fill="#272747"/>
<path d="M1557.84 575.581H1553.16V616.824H1557.84V575.581Z" fill="#FFBA78"/>
<path d="M1577.79 575.581H1573.1V616.824H1577.79V575.581Z" fill="#FFBA78"/>
<path d="M1595.85 586.435V575.582H1583.15V586.435H1595.85Z" fill="#FFBA78"/>
<path d="M1548.05 586.435V575.582H1535.35V586.435H1548.05Z" fill="#FFBA78"/>
<path d="M1531.48 524.058H1518.04V619.599H1531.48V524.058Z" fill="#BA3A47"/>
<path d="M1613.96 524.058H1600.52V619.599H1613.96V524.058Z" fill="#BA3A47"/>
<path d="M1614.38 552.953H1518.04V559.928H1614.38V552.953Z" fill="#BA3A47"/>
<path d="M1569.69 556.851V537.45H1562.72V556.851H1569.69Z" fill="#BA3A47"/>
<path d="M1691.34 524.058H1677.89V619.599H1691.34V524.058Z" fill="#992B3B"/>
<path d="M1627.41 524.058H1613.96V619.599H1627.41V524.058Z" fill="#992B3B"/>
<path d="M1691.34 552.953H1614.38V559.928H1691.34V552.953Z" fill="#992B3B"/>
<path d="M1727.16 545.046L1738.37 528.715L1695.94 532.862C1570.58 482.21 1677.42 540.526 1645.13 494.356H1619.37C1619.37 494.356 1614.66 537.717 1632.76 526.335C1642.9 548.897 1709.93 552.138 1727.16 545.046Z" fill="#BA3A47"/>
<path d="M1632.76 526.335V511.124L1642.9 517.716C1631.05 511.913 1621.68 496.706 1619.63 494.356H1592.27C1559.81 516.147 1534.62 525.93 1511.85 529.882L1476.23 520.306L1487.44 538.879C1511.37 547.326 1607.36 552.15 1632.76 526.335Z" fill="#FF4E53"/>
<path d="M1745.36 529.81V517.004L1699.49 521.486C1677.84 512.689 1658.9 498.331 1644.57 479.865H1616.72C1616.72 479.865 1613.45 522.828 1633.02 510.524C1640.44 539.774 1726.97 541.187 1745.36 529.81Z" fill="#0D0D1E"/>
<path d="M1633.02 510.524V497.718L1642.16 505.115C1629.35 498.842 1619.22 482.405 1617.01 479.865H1587.43C1552.35 503.419 1525.12 513.994 1500.5 518.265L1462.01 507.914V520.721C1488.54 538.828 1609.68 544.55 1633.02 510.524Z" fill="#1C1C35"/>
<path d="M1745.36 517.004C1703.41 524.361 1638.97 467.058 1638.97 467.058H1616.72C1616.72 467.058 1613.45 510.021 1633.02 497.718C1640.44 526.967 1726.97 528.38 1745.36 517.004Z" fill="#1C1C35"/>
<path d="M1633.02 497.718C1614.41 501.659 1617.01 467.058 1617.01 467.058H1587.43C1533.36 503.362 1497.93 508.831 1462.01 507.914C1488.54 526.021 1609.68 531.743 1633.02 497.718Z" fill="#272747"/>
<path d="M1504.83 600.85H1613.96V597.535H1504.83V600.85Z" fill="#FF4E53"/>
<path d="M1504.83 610.643H1613.96V607.328H1504.83V610.643Z" fill="#FF4E53"/>
<path d="M1504.83 619.599H1613.96V616.284H1504.83V619.599Z" fill="#FF4E53"/>
<path d="M1574.96 619.599H1578.9V599.192H1574.96V619.599Z" fill="#FF4E53"/>
<path d="M1610.03 619.599H1613.96V599.192H1610.03V619.599Z" fill="#FF4E53"/>
<path d="M1539.89 619.599H1543.83V599.192H1539.89V619.599Z" fill="#FF4E53"/>
<path d="M1504.83 619.599H1508.76V599.192H1504.83V619.599Z" fill="#FF4E53"/>
<path d="M1613.96 600.85H1702.92V597.535H1613.96V600.85Z" fill="#BA3A47"/>
<path d="M1613.96 610.643H1702.92V607.328H1613.96V610.643Z" fill="#BA3A47"/>
<path d="M1613.96 619.599H1702.92V616.284H1613.96V619.599Z" fill="#BA3A47"/>
<path d="M1670.64 619.599H1674.58V599.192H1670.64V619.599Z" fill="#BA3A47"/>
<path d="M1698.99 619.599H1702.92V599.192H1698.99V619.599Z" fill="#BA3A47"/>
<path d="M1642.3 619.599H1646.24V599.192H1642.3V619.599Z" fill="#BA3A47"/>
<path d="M1613.96 619.599H1617.9V599.192H1613.96V619.599Z" fill="#BA3A47"/>
<path d="M1709.36 437.18L1718.89 423.3L1682.83 426.824C1576.29 383.776 1667.09 433.338 1639.65 394.098H1617.75C1617.75 394.098 1613.75 430.951 1629.13 421.277C1637.75 440.453 1694.72 443.207 1709.36 437.18Z" fill="#992B3B"/>
<path d="M1629.13 421.277V408.35L1637.75 413.952C1627.67 409.02 1619.71 396.096 1617.97 394.098H1594.72C1567.13 412.619 1545.72 420.933 1526.37 424.292L1496.1 416.153L1505.63 431.939C1525.96 439.118 1607.54 443.218 1629.13 421.277Z" fill="#BA3A47"/>
<path d="M1691.34 405.912H1613.96V501.454H1691.34V405.912Z" fill="#DDD3D4"/>
<path d="M1613.96 405.912H1518.04V501.454H1613.96V405.912Z" fill="#FDFDFD"/>
<path d="M1573.1 457.436H1557.84V498.679H1573.1V457.436Z" fill="#272747"/>
<path d="M1557.84 457.436H1553.16V498.679H1557.84V457.436Z" fill="#FFBA78"/>
<path d="M1577.79 457.436H1573.1V498.679H1577.79V457.436Z" fill="#FFBA78"/>
<path d="M1595.85 468.289V457.436H1583.15V468.289H1595.85Z" fill="#FFBA78"/>
<path d="M1548.05 468.289V457.436H1535.35V468.289H1548.05Z" fill="#FFBA78"/>
<path d="M1531.48 405.912H1518.04V501.454H1531.48V405.912Z" fill="#BA3A47"/>
<path d="M1613.96 405.912H1600.52V501.454H1613.96V405.912Z" fill="#BA3A47"/>
<path d="M1614.38 434.807H1518.04V441.783H1614.38V434.807Z" fill="#BA3A47"/>
<path d="M1569.69 438.705V419.305H1562.72V438.705H1569.69Z" fill="#BA3A47"/>
<path d="M1691.34 405.912H1677.89V501.454H1691.34V405.912Z" fill="#992B3B"/>
<path d="M1627.41 405.912H1613.96V501.454H1627.41V405.912Z" fill="#992B3B"/>
<path d="M1691.34 434.807H1614.38V441.783H1691.34V434.807Z" fill="#992B3B"/>
<path d="M1727.16 426.901L1738.37 410.569L1695.94 414.716C1570.58 364.065 1677.42 422.38 1645.13 376.21H1619.37C1619.37 376.21 1614.66 419.571 1632.76 408.189C1642.9 430.752 1709.93 433.992 1727.16 426.901Z" fill="#BA3A47"/>
<path d="M1632.76 408.189V392.979L1642.9 399.57C1631.05 393.767 1621.68 378.561 1619.63 376.21H1592.27C1559.81 398.002 1534.62 407.784 1511.85 411.736L1476.23 402.16L1487.44 420.733C1511.37 429.181 1607.36 434.005 1632.76 408.189Z" fill="#FF4E53"/>
<path d="M1745.36 411.665V398.859L1699.49 403.341C1677.84 394.544 1658.9 380.186 1644.57 361.72H1616.72C1616.72 361.72 1613.45 404.683 1633.02 392.379C1640.44 421.629 1726.97 423.042 1745.36 411.665Z" fill="#0D0D1E"/>
<path d="M1633.02 392.379V379.573L1642.16 386.97C1629.35 380.697 1619.22 364.26 1617.01 361.72H1587.43C1552.35 385.274 1525.12 395.849 1500.5 400.12L1462.01 389.769V402.576C1488.54 420.683 1609.68 426.405 1633.02 392.379Z" fill="#1C1C35"/>
<path d="M1745.36 398.858C1703.41 406.216 1638.97 348.913 1638.97 348.913H1616.72C1616.72 348.913 1613.45 391.876 1633.02 379.572C1640.44 408.822 1726.97 410.235 1745.36 398.858Z" fill="#1C1C35"/>
<path d="M1633.02 379.572C1614.41 383.514 1617.01 348.913 1617.01 348.913H1587.43C1533.36 385.217 1497.93 390.686 1462.01 389.769C1488.54 407.875 1609.68 413.598 1633.02 379.572Z" fill="#272747"/>
<path d="M1504.83 482.705H1613.96V479.39H1504.83V482.705Z" fill="#FF4E53"/>
<path d="M1504.83 492.497H1613.96V489.182H1504.83V492.497Z" fill="#FF4E53"/>
<path d="M1504.83 501.454H1613.96V498.139H1504.83V501.454Z" fill="#FF4E53"/>
<path d="M1574.96 501.454H1578.9V481.047H1574.96V501.454Z" fill="#FF4E53"/>
<path d="M1610.03 501.454H1613.96V481.047H1610.03V501.454Z" fill="#FF4E53"/>
<path d="M1539.89 501.454H1543.83V481.047H1539.89V501.454Z" fill="#FF4E53"/>
<path d="M1504.83 501.454H1508.76V481.047H1504.83V501.454Z" fill="#FF4E53"/>
<path d="M1613.96 482.705H1702.92V479.39H1613.96V482.705Z" fill="#BA3A47"/>
<path d="M1613.96 492.497H1702.92V489.182H1613.96V492.497Z" fill="#BA3A47"/>
<path d="M1613.96 501.454H1702.92V498.139H1613.96V501.454Z" fill="#BA3A47"/>
<path d="M1670.64 501.454H1674.58V481.047H1670.64V501.454Z" fill="#BA3A47"/>
<path d="M1698.99 501.454H1702.92V481.047H1698.99V501.454Z" fill="#BA3A47"/>
<path d="M1642.3 501.454H1646.24V481.047H1642.3V501.454Z" fill="#BA3A47"/>
<path d="M1613.96 501.454H1617.9V481.047H1613.96V501.454Z" fill="#BA3A47"/>
<path d="M1709.36 319.036L1718.89 305.156L1682.83 308.68C1576.29 265.632 1667.09 315.194 1639.65 275.954H1617.75C1617.75 275.954 1613.75 312.807 1629.13 303.133C1637.75 322.309 1694.72 325.063 1709.36 319.036Z" fill="#992B3B"/>
<path d="M1629.13 303.133V290.206L1637.75 295.808C1627.67 290.876 1619.71 277.952 1617.97 275.954H1594.72C1567.13 294.475 1545.72 302.789 1526.37 306.148L1496.1 298.009L1505.63 313.795C1525.96 320.974 1607.54 325.074 1629.13 303.133Z" fill="#BA3A47"/>
<path d="M1691.34 287.768H1613.96V383.309H1691.34V287.768Z" fill="#DDD3D4"/>
<path d="M1613.96 287.768H1518.04V383.309H1613.96V287.768Z" fill="#FDFDFD"/>
<path d="M1573.1 339.292H1557.84V380.535H1573.1V339.292Z" fill="#272747"/>
<path d="M1557.84 339.292H1553.16V380.535H1557.84V339.292Z" fill="#FFBA78"/>
<path d="M1577.79 339.292H1573.1V380.535H1577.79V339.292Z" fill="#FFBA78"/>
<path d="M1595.85 350.145V339.292H1583.15V350.145H1595.85Z" fill="#FFBA78"/>
<path d="M1548.05 350.145V339.292H1535.35V350.145H1548.05Z" fill="#FFBA78"/>
<path d="M1531.48 287.768H1518.04V383.309H1531.48V287.768Z" fill="#BA3A47"/>
<path d="M1613.96 287.768H1600.52V383.309H1613.96V287.768Z" fill="#BA3A47"/>
<path d="M1614.38 316.663H1518.04V323.638H1614.38V316.663Z" fill="#BA3A47"/>
<path d="M1569.69 320.561V301.16H1562.72V320.561H1569.69Z" fill="#BA3A47"/>
<path d="M1691.34 287.768H1677.89V383.309H1691.34V287.768Z" fill="#992B3B"/>
<path d="M1627.41 287.768H1613.96V383.309H1627.41V287.768Z" fill="#992B3B"/>
<path d="M1691.34 316.663H1614.38V323.638H1691.34V316.663Z" fill="#992B3B"/>
<path d="M1727.16 308.757L1738.37 292.425L1695.94 296.572C1570.58 245.921 1677.42 304.237 1645.13 258.066H1619.37C1619.37 258.066 1614.66 301.427 1632.76 290.045C1642.9 312.608 1709.93 315.848 1727.16 308.757Z" fill="#BA3A47"/>
<path d="M1632.76 290.045V274.835L1642.9 281.426C1631.05 275.623 1621.68 260.417 1619.63 258.066H1592.27C1559.81 279.858 1534.62 289.64 1511.85 293.592L1476.23 284.016L1487.44 302.59C1511.37 311.037 1607.36 315.861 1632.76 290.045Z" fill="#FF4E53"/>
<path d="M1745.36 293.521V280.714L1699.49 285.197C1677.84 276.4 1658.9 262.042 1644.57 243.575H1616.72C1616.72 243.575 1613.45 286.538 1633.02 274.235C1640.44 303.484 1726.97 304.897 1745.36 293.521Z" fill="#0D0D1E"/>
<path d="M1633.02 274.235V261.428L1642.16 268.826C1629.35 262.553 1619.22 246.116 1617.01 243.575H1587.43C1552.35 267.13 1525.12 277.704 1500.5 281.976L1462.01 271.625V284.431C1488.54 302.538 1609.68 308.26 1633.02 274.235Z" fill="#1C1C35"/>
<path d="M1745.36 280.714C1703.41 288.072 1638.97 230.769 1638.97 230.769H1616.72C1616.72 230.769 1613.45 273.731 1633.02 261.428C1640.44 290.677 1726.97 292.091 1745.36 280.714Z" fill="#1C1C35"/>
<path d="M1633.02 261.428C1614.41 265.37 1617.01 230.769 1617.01 230.769H1587.43C1533.36 267.073 1497.93 272.542 1462.01 271.625C1488.54 289.731 1609.68 295.453 1633.02 261.428Z" fill="#272747"/>
<path d="M1504.83 364.561H1613.96V361.246H1504.83V364.561Z" fill="#FF4E53"/>
<path d="M1504.83 374.353H1613.96V371.038H1504.83V374.353Z" fill="#FF4E53"/>
<path d="M1504.83 383.31H1613.96V379.995H1504.83V383.31Z" fill="#FF4E53"/>
<path d="M1574.96 383.31H1578.9V362.903H1574.96V383.31Z" fill="#FF4E53"/>
<path d="M1610.03 383.31H1613.96V362.903H1610.03V383.31Z" fill="#FF4E53"/>
<path d="M1539.89 383.31H1543.83V362.903H1539.89V383.31Z" fill="#FF4E53"/>
<path d="M1504.83 383.31H1508.76V362.903H1504.83V383.31Z" fill="#FF4E53"/>
<path d="M1613.96 364.561H1702.92V361.246H1613.96V364.561Z" fill="#BA3A47"/>
<path d="M1613.96 374.353H1702.92V371.038H1613.96V374.353Z" fill="#BA3A47"/>
<path d="M1613.96 383.31H1702.92V379.995H1613.96V383.31Z" fill="#BA3A47"/>
<path d="M1670.64 383.31H1674.58V362.903H1670.64V383.31Z" fill="#BA3A47"/>
<path d="M1698.99 383.31H1702.92V362.903H1698.99V383.31Z" fill="#BA3A47"/>
<path d="M1642.3 383.31H1646.24V362.903H1642.3V383.31Z" fill="#BA3A47"/>
<path d="M1613.96 383.31H1617.9V362.903H1613.96V383.31Z" fill="#BA3A47"/>
<path d="M1709.36 200.891L1718.89 187.011L1682.83 190.535C1576.29 147.486 1667.09 197.049 1639.65 157.809H1617.75C1617.75 157.809 1613.75 194.662 1629.13 184.988C1637.75 204.164 1694.72 206.918 1709.36 200.891Z" fill="#992B3B"/>
<path d="M1629.13 184.988V172.06L1637.75 177.663C1627.67 172.731 1619.71 159.806 1617.97 157.809H1594.72C1567.13 176.33 1545.72 184.644 1526.37 188.003L1496.1 179.864L1505.63 195.65C1525.96 202.829 1607.54 206.929 1629.13 184.988Z" fill="#BA3A47"/>
<path d="M1691.34 169.623H1613.96V265.165H1691.34V169.623Z" fill="#DDD3D4"/>
<path d="M1613.96 169.623H1518.04V265.165H1613.96V169.623Z" fill="#FDFDFD"/>
<path d="M1573.1 221.146H1557.84V262.389H1573.1V221.146Z" fill="#272747"/>
<path d="M1557.84 221.146H1553.16V262.389H1557.84V221.146Z" fill="#FFBA78"/>
<path d="M1577.79 221.146H1573.1V262.389H1577.79V221.146Z" fill="#FFBA78"/>
<path d="M1595.85 232V221.146H1583.15V232H1595.85Z" fill="#FFBA78"/>
<path d="M1548.05 232V221.146H1535.35V232H1548.05Z" fill="#FFBA78"/>
<path d="M1531.48 169.623H1518.04V265.165H1531.48V169.623Z" fill="#BA3A47"/>
<path d="M1613.96 169.623H1600.52V265.165H1613.96V169.623Z" fill="#BA3A47"/>
<path d="M1614.38 198.518H1518.04V205.493H1614.38V198.518Z" fill="#BA3A47"/>
<path d="M1569.69 202.416V183.016H1562.72V202.416H1569.69Z" fill="#BA3A47"/>
<path d="M1691.34 169.623H1677.89V265.165H1691.34V169.623Z" fill="#992B3B"/>
<path d="M1627.41 169.623H1613.96V265.165H1627.41V169.623Z" fill="#992B3B"/>
<path d="M1691.34 198.518H1614.38V205.493H1691.34V198.518Z" fill="#992B3B"/>
<path d="M1727.16 190.611L1738.37 174.28L1695.94 178.427C1570.58 127.776 1677.42 186.092 1645.13 139.921H1619.37C1619.37 139.921 1614.66 183.282 1632.76 171.9C1642.9 194.463 1709.93 197.703 1727.16 190.611Z" fill="#BA3A47"/>
<path d="M1632.76 171.9V156.69L1642.9 163.281C1631.05 157.478 1621.68 142.272 1619.63 139.921H1592.27C1559.81 161.713 1534.62 171.495 1511.85 175.447L1476.23 165.871L1487.44 184.444C1511.37 192.892 1607.36 197.716 1632.76 171.9Z" fill="#FF4E53"/>
<path d="M1745.36 175.376V162.569L1699.49 167.052C1677.84 158.254 1658.9 143.897 1644.57 125.43H1616.72C1616.72 125.43 1613.45 168.393 1633.02 156.09C1640.44 185.339 1726.97 186.752 1745.36 175.376Z" fill="#0D0D1E"/>
<path d="M1633.02 156.09V143.283L1642.16 150.68C1629.35 144.408 1619.22 127.971 1617.01 125.43H1587.43C1552.35 148.985 1525.12 159.559 1500.5 163.831L1462.01 153.48V166.286C1488.54 184.393 1609.68 190.115 1633.02 156.09Z" fill="#1C1C35"/>
<path d="M1745.36 162.569C1703.41 169.926 1638.97 112.624 1638.97 112.624H1616.72C1616.72 112.624 1613.45 155.586 1633.02 143.283C1640.44 172.532 1726.97 173.945 1745.36 162.569Z" fill="#1C1C35"/>
<path d="M1633.02 143.283C1614.41 147.225 1617.01 112.624 1617.01 112.624H1587.43C1533.36 148.928 1497.93 154.397 1462.01 153.48C1488.54 171.586 1609.68 177.308 1633.02 143.283Z" fill="#272747"/>
<path d="M1504.83 246.415H1613.96V243.1H1504.83V246.415Z" fill="#FF4E53"/>
<path d="M1504.83 256.208H1613.96V252.893H1504.83V256.208Z" fill="#FF4E53"/>
<path d="M1504.83 265.164H1613.96V261.849H1504.83V265.164Z" fill="#FF4E53"/>
<path d="M1574.96 265.164H1578.9V244.757H1574.96V265.164Z" fill="#FF4E53"/>
<path d="M1610.03 265.164H1613.96V244.757H1610.03V265.164Z" fill="#FF4E53"/>
<path d="M1539.89 265.164H1543.83V244.757H1539.89V265.164Z" fill="#FF4E53"/>
<path d="M1504.83 265.164H1508.76V244.757H1504.83V265.164Z" fill="#FF4E53"/>
<path d="M1613.96 246.415H1702.92V243.1H1613.96V246.415Z" fill="#BA3A47"/>
<path d="M1613.96 256.208H1702.92V252.893H1613.96V256.208Z" fill="#BA3A47"/>
<path d="M1613.96 265.164H1702.92V261.849H1613.96V265.164Z" fill="#BA3A47"/>
<path d="M1670.64 265.164H1674.58V244.757H1670.64V265.164Z" fill="#BA3A47"/>
<path d="M1698.99 265.164H1702.92V244.757H1698.99V265.164Z" fill="#BA3A47"/>
<path d="M1642.3 265.164H1646.24V244.757H1642.3V265.164Z" fill="#BA3A47"/>
<path d="M1613.96 265.164H1617.9V244.757H1613.96V265.164Z" fill="#BA3A47"/>
<path d="M1638.97 104.907H1587.43V112.624H1638.97V104.907Z" fill="#272747"/>
<path d="M1633.02 97.1895H1593.38V104.906H1633.02V97.1895Z" fill="#272747"/>
<path d="M1625.67 89.4727H1600.73V97.1895H1625.67V89.4727Z" fill="#272747"/>
<path d="M1616.52 0H1609.88V89.4728H1616.52V0Z" fill="#272747"/>
<path d="M1855.6 619.806H1489.96V627.665H1855.6V619.806Z" fill="#272747"/>
<path d="M1855.6 627.666H1480.3V635.525H1855.6V627.666Z" fill="#272747"/>
<path d="M1855.6 635.525H1470.63V643.384H1855.6V635.525Z" fill="#272747"/>
<path d="M1855.6 643.384H1460.97V651.244H1855.6V643.384Z" fill="#272747"/>
<path d="M1855.6 651.243H1451.31V659.102H1855.6V651.243Z" fill="#272747"/>
<path d="M1855.6 659.102H1441.65V666.961H1855.6V659.102Z" fill="#272747"/>
<path d="M1855.6 666.961H1431.98V674.821H1855.6V666.961Z" fill="#272747"/>
<path d="M1855.6 674.821H1422.32V682.68H1855.6V674.821Z" fill="#272747"/>
<path d="M1855.6 682.68H1412.66V690.539H1855.6V682.68Z" fill="#272747"/>
<path d="M1855.6 690.539H1403V698.398H1855.6V690.539Z" fill="#272747"/>
<path d="M1855.6 698.399H1393.33V706.258H1855.6V698.399Z" fill="#272747"/>
<path d="M1855.6 706.258H1383.67V714.117H1855.6V706.258Z" fill="#272747"/>
<path d="M1855.6 619.806H1489.96V621.092H1855.6V619.806Z" fill="#3F3E56"/>
<path d="M1855.6 627.666H1480.3V628.952H1855.6V627.666Z" fill="#3F3E56"/>
<path d="M1855.6 635.525H1470.63V636.811H1855.6V635.525Z" fill="#3F3E56"/>
<path d="M1855.6 643.384H1460.97V644.671H1855.6V643.384Z" fill="#3F3E56"/>
<path d="M1855.6 651.243H1451.31V652.529H1855.6V651.243Z" fill="#3F3E56"/>
<path d="M1855.6 659.102H1441.65V660.388H1855.6V659.102Z" fill="#3F3E56"/>
<path d="M1855.6 666.961H1431.98V668.248H1855.6V666.961Z" fill="#3F3E56"/>
<path d="M1855.6 674.821H1422.32V676.107H1855.6V674.821Z" fill="#3F3E56"/>
<path d="M1855.6 682.68H1412.66V683.966H1855.6V682.68Z" fill="#3F3E56"/>
<path d="M1855.6 690.539H1403V691.825H1855.6V690.539Z" fill="#3F3E56"/>
<path d="M1855.6 698.399H1393.33V699.685H1855.6V698.399Z" fill="#3F3E56"/>
<path d="M1855.6 706.258H1383.67V707.544H1855.6V706.258Z" fill="#3F3E56"/>
<path d="M1838.67 520.5C1853.67 488.667 1890.67 438.4 1918.67 492C1953.67 559 1957.17 607 2009.17 618C2061.17 629 2269.67 591 2279.17 769C2288.58 945.288 2331.83 1102.45 2339.94 1105.46C2340.02 1105.47 2340.09 1105.49 2340.17 1105.5C2340.1 1105.5 2340.02 1105.49 2339.94 1105.46C2148.87 1068.44 1767.87 992.096 1770.67 982.5C1773.47 972.9 1817.17 670.5 1838.67 520.5Z" fill="#FDFDFD"/>
<path d="M1838.14 481.717C1814.33 470.623 1788.09 473.754 1765.14 487.552C1739.48 502.982 1729.76 533.435 1708.92 555.293C1669.14 597.02 1631.67 508.987 1590.93 548.026C1564.48 573.373 1550.64 625.296 1517.64 636.537C1487.22 646.899 1470.65 609 1444.19 605.386C1421.29 602.259 1393.8 633.701 1381.6 658.893C1379.63 662.954 1377.78 667.264 1375.54 670.985V945.56H1884.85V500.938C1868.86 501.417 1853.63 488.936 1838.14 481.717Z" fill="#FDFDFD"/>
<path fill-rule="evenodd" clip-rule="evenodd" d="M458.183 525.093C452.426 491.462 431.816 452.919 379 477.5C340.331 495.497 324.375 522.365 311.453 544.124C297.807 567.1 287.546 584.379 257.5 579.5C249.808 578.251 242.116 576.63 234.569 575.04C184.722 564.536 141.223 555.37 146 663.5C148.844 727.873 147.009 726.881 135.243 720.515C124.253 714.569 104.599 703.935 72.0001 737.5C32.3363 778.339 35.4882 832.299 38.239 879.395C40.1696 912.447 41.9027 942.118 28.5001 961.5C-3.99991 1008.5 -5.49991 1087.5 12.0001 1104L257.5 961.5L415.581 886.558V981.501H1113.96V796.952C1110.73 785.694 1101.08 790.116 1092.56 794.022C1089.14 795.585 1085.91 797.065 1083.35 797.426C1065.55 799.925 1055.09 790.149 1051.47 767.081C1050.45 760.575 1049.92 753.719 1049.4 746.876C1048.31 732.677 1047.23 718.532 1041.72 707.675C1031.72 687.928 1010.08 684.945 989.888 686.603C986.003 686.921 982.072 687.36 978.132 687.8C961.603 689.645 944.933 691.507 930.937 684.577C919.571 678.949 911.113 668.062 902.641 657.156C894.851 647.128 887.048 637.084 876.962 631.1C857.476 619.54 831.61 624.815 808.17 638.203C798.427 643.767 788.517 653.189 778.668 662.552C767.314 673.346 756.041 684.063 745.2 688.703C727.36 696.338 714.941 681.47 704.111 668.504C702.674 666.784 701.265 665.097 699.875 663.501C684.936 645.987 663.922 634.776 641.056 632.117C634.778 631.397 628.636 631.329 622.668 631.263C605.057 631.068 588.96 630.89 575.359 614.016C566.329 602.813 561.23 586.304 556.213 570.057C548.979 546.632 541.912 523.751 523.472 518.093C513.32 514.977 501.907 518.19 490.452 521.416C480.241 524.29 469.997 527.174 460.583 525.594C459.77 525.458 458.97 525.29 458.183 525.093Z" fill="#FDFDFD"/>
<path d="M1731.9 800.759C1682.57 795.817 1530.09 786.461 1482.3 772.627V772.525C1481.64 772.375 1480.99 772.209 1480.34 772.056C1374.85 741.233 1273.85 688.534 1180.4 613.065C1174.54 605.512 1162.91 604.054 1150.21 604.985C1137.51 604.054 1125.88 605.512 1120.03 613.065C1026.58 688.534 925.574 741.233 820.09 772.056C819.434 772.209 818.785 772.375 818.128 772.525V772.627C770.339 786.461 617.855 795.817 568.522 800.759V970.109H1731.9V800.759Z" fill="url(#paint0_linear_409_464)"/>
<path d="M1075.85 659.309C1093.23 635.65 1109.77 639.19 1100.07 671.187C1130.53 668.378 1095.17 655.584 1154.13 641.178C1160.26 627.377 1187.73 662.663 1206.01 672.108C1217.66 675.177 1186.98 651.856 1203.72 652.893C1224.64 654.777 1234.11 679.803 1234.57 654.991C1229.73 650.638 1225.2 646.474 1220.97 642.5C1207.3 632.63 1193.78 622.301 1180.4 611.514C1174.54 603.961 1162.91 602.502 1150.21 603.433C1137.51 602.502 1125.88 603.961 1120.03 611.514C1106.61 622.351 1093.04 632.714 1079.31 642.604C1075.61 646.115 1071.73 649.765 1067.61 653.595C1080.25 642.828 1062.11 670.794 1075.85 659.309Z" fill="#FDFDFD"/>
<path d="M415.581 1105.77L259.5 765C264.154 764.005 282.995 694.737 429.682 694.737C466.5 694.737 486.133 699.246 507.345 715.256C531.254 733.302 548.193 750.187 580.92 749.513C595.143 749.22 609.355 745.642 623.463 747.465C643.762 750.089 657.992 763.825 675.966 772.062C705.306 785.506 739.518 790.358 770.943 781.811C806.616 772.11 829.299 742.019 867.846 743.025C891.546 743.644 910.947 756.558 934.461 758.607C957.137 760.582 978.503 752.231 1000.28 747.602C1030.87 741.098 1064.58 742.933 1094.07 751.023C1127.05 760.07 1139.53 777.925 1166.31 790.741C1212.77 812.98 1260.67 772.578 1308.45 781.54C1322.53 784.182 1336.51 788.52 1350.83 788.057C1379.26 787.137 1389.17 759.765 1413.24 749.6C1432.45 741.491 1457.65 744.037 1479.35 748.659C1501.04 753.281 1522.78 759.775 1545.51 758.685C1574.13 757.311 1598.83 744.128 1627.29 741.757C1653.64 739.563 1680.14 747.079 1700.61 758.243C1718.94 768.233 1730.78 787.408 1749.66 795.585C1768.5 803.746 1791.49 796.003 1810.24 791.335C1834.64 785.403 1859.87 783.676 1884.85 786.231V1105.77H415.581Z" fill="#EF5DA8"/>
<path d="M1884.85 1065.14V789.627C1880.18 788.745 1875.48 788.111 1870.75 787.728C1844.41 785.784 1817.91 792.444 1797.43 802.335C1779.1 811.187 1767.26 828.179 1748.38 835.424C1729.54 842.655 1706.55 835.794 1687.8 831.658C1662.16 826.187 1635.82 824.738 1609.73 827.363C1581.07 830.208 1558.94 837.263 1529.48 830.164C1493.81 821.567 1471.13 794.904 1432.58 795.795C1408.88 796.344 1389.48 807.787 1365.96 809.602C1343.29 811.353 1321.92 803.952 1300.15 799.851C1269.01 794.373 1237.08 795.405 1206.36 802.882C1173.38 810.898 1160.89 826.72 1134.12 838.076C1087.66 857.782 1039.76 821.982 991.976 829.923C977.892 832.264 963.917 836.108 949.595 835.697C921.163 834.883 911.253 810.628 887.182 801.622C867.978 794.435 842.772 796.692 821.08 800.787C799.387 804.883 777.648 810.637 754.914 809.671C726.299 808.454 701.598 796.772 673.132 794.671C646.789 792.728 620.29 799.387 599.811 809.28C581.486 818.132 569.646 835.123 550.768 842.368C531.925 849.6 508.933 842.738 490.186 838.602C465.688 833.34 440.535 831.815 415.581 834.079L415.581 1065.14H1884.85Z" fill="#FCDDEC"/>
<path d="M1887.37 875.408C1883.85 875.157 1880.32 875.196 1876.81 875.525C1858.74 877.198 1842.25 887.255 1824.12 887.536C1791.1 888.047 1767.64 856.723 1734.65 856.345C1715.31 856.124 1697.85 866.756 1683.25 877.994C1668.65 889.233 1654.56 901.945 1636.2 907.666C1604.17 917.652 1575.77 889.164 1542.51 889.089C1503.33 889 1472.07 910.308 1449.72 936.809C1433.07 959.175 1421.94 934.641 1407 924.81C1385.16 910.441 1358.84 911.356 1333.21 918.811C1311.99 924.984 1297.38 941.798 1272.76 940.078C1262.7 939.374 1253.05 936.753 1243.1 935.389C1214.31 931.439 1185.11 938.131 1156.14 941.255C1120.69 945.077 1093.04 940.256 1067.86 921.212C1044.7 903.694 1023.45 884.161 987.394 884.953C965.18 885.441 944.623 894.443 922.389 893.532C881.896 891.872 854.225 858.921 813.796 856.372C790.089 854.878 768.328 864.391 750.04 874.7C731.753 885.007 714.036 896.828 691.338 901.357C651.722 909.262 617.902 878.83 577.131 876.566C529.1 873.901 490.052 893.212 461.735 918.314C436.24 943.985 443.064 911.214 413.056 895.841V1105.77H1887.37V875.408Z" fill="#F178B6"/>
<path d="M982.183 953.79L940.614 1038.59H1023.75L982.183 953.79Z" fill="url(#paint1_linear_409_464)"/>
<path d="M754.864 869.208L713.296 984.911H796.432L754.864 869.208Z" fill="url(#paint2_linear_409_464)"/>
<path d="M1142.64 945.946L1101.07 1038.59H1184.2L1142.64 945.946Z" fill="url(#paint3_linear_409_464)"/>
<path d="M942.362 940.921L883.454 1038.59H966.591L942.362 940.921Z" fill="url(#paint4_linear_409_464)"/>
<path d="M1164.48 955.074L1130.34 1038.59H1213.47L1164.48 955.074Z" fill="url(#paint5_linear_409_464)"/>
<path d="M1042.84 964.812L1001.27 1038.59H1084.41L1042.84 964.812Z" fill="url(#paint6_linear_409_464)"/>
<path d="M735.628 821.455L694.06 1038.59H777.199L735.628 821.455Z" fill="url(#paint7_linear_409_464)"/>
<path d="M694.06 904.346L652.491 1038.59H735.628L694.06 904.346Z" fill="url(#paint8_linear_409_464)"/>
<path d="M650.055 927.452L608.486 1038.59H691.623L650.055 927.452Z" fill="url(#paint9_linear_409_464)"/>
<path d="M1097.71 931.232L1056.14 1038.59H1139.28L1097.71 931.232Z" fill="url(#paint10_linear_409_464)"/>
<path d="M1233.21 920.703L1184.2 1038.59H1267.34L1233.21 920.703Z" fill="url(#paint11_linear_409_464)"/>
<path d="M1276.34 940.921L1234.77 1038.59H1317.91L1276.34 940.921Z" fill="url(#paint12_linear_409_464)"/>
<path d="M905.385 931.612L863.815 1038.59H946.954L905.385 931.612Z" fill="url(#paint13_linear_409_464)"/>
<path d="M843.294 891.153L814.111 1038.59H897.249L843.294 891.153Z" fill="url(#paint14_linear_409_464)"/>
<path d="M814.111 904.674L772.542 1038.59H855.679L814.111 904.674Z" fill="url(#paint15_linear_409_464)"/>
<path d="M791.749 882.261L742.75 1038.59H825.886L791.749 882.261Z" fill="url(#paint16_linear_409_464)"/>
<path d="M1213.57 984.786L1255.14 1105.76H1172L1213.57 984.786Z" fill="url(#paint17_linear_409_464)"/>
<path d="M841.28 951.971L882.85 1035.03H799.712L841.28 951.971Z" fill="url(#paint18_linear_409_464)"/>
<path d="M1100.3 979.156L1141.87 1105.77H1058.73L1100.3 979.156Z" fill="url(#paint19_linear_409_464)"/>
<path d="M1253.4 975.55L1312.3 1105.77H1229.16L1253.4 975.55Z" fill="url(#paint20_linear_409_464)"/>
<path d="M1078.46 985.709L1112.6 1105.77H1029.46L1078.46 985.709Z" fill="url(#paint21_linear_409_464)"/>
<path d="M1176.51 992.697L1218.08 1105.77H1134.94L1176.51 992.697Z" fill="url(#paint22_linear_409_464)"/>
<path d="M860.516 959.881L902.084 1105.77H818.947L860.516 959.881Z" fill="url(#paint23_linear_409_464)"/>
<path d="M902.084 977.195L943.655 1105.77H860.516L902.084 977.195Z" fill="url(#paint24_linear_409_464)"/>
<path d="M946.09 993.777L987.66 1105.76H904.521L946.09 993.777Z" fill="url(#paint25_linear_409_464)"/>
<path d="M1145.22 968.593L1186.79 1105.77H1103.65L1145.22 968.593Z" fill="url(#paint26_linear_409_464)"/>
<path d="M1009.73 966.048L1058.73 1105.77H975.593L1009.73 966.048Z" fill="url(#paint27_linear_409_464)"/>
<path d="M1040.58 990.789L1089.58 1105.77H1006.44L1040.58 990.789Z" fill="url(#paint28_linear_409_464)"/>
<path d="M966.591 992.07L1008.16 1105.77H925.022L966.591 992.07Z" fill="url(#paint29_linear_409_464)"/>
<path d="M714.349 955.468L755.918 1105.77H672.781L714.349 955.468Z" fill="url(#paint30_linear_409_464)"/>
<path d="M752.85 967.724L782.034 1105.77H698.897L752.85 967.724Z" fill="url(#paint31_linear_409_464)"/>
<path d="M782.034 977.428L823.602 1105.77H740.465L782.034 977.428Z" fill="url(#paint32_linear_409_464)"/>
<path d="M804.396 961.341L853.397 1105.77H770.258L804.396 961.341Z" fill="url(#paint33_linear_409_464)"/>
<path fill-rule="evenodd" clip-rule="evenodd" d="M886.114 1105.77H251.639V1022.06C247.584 1022.91 243.385 1023.25 239.135 1023.09C238.046 1037.23 232.637 1050.6 222.704 1061.16C207.651 1077.17 185.535 1083.21 163.45 1079.55C154.915 1093.56 139.319 1103.66 120.752 1105.35C90.9072 1108.07 64.6891 1088.01 62.1919 1060.55C60.2541 1039.24 73.1692 1019.74 92.9978 1010.8C89.1041 989.983 94.0152 968.899 108.351 953.651C113.531 948.142 119.547 943.813 126.111 940.655C110.968 926.582 105.255 908.089 113.479 897.242C117.473 891.974 124.091 889.384 131.862 889.348C119.363 856.824 126.294 821.857 151.244 804.171C154.002 802.216 156.886 800.539 159.871 799.132C158.074 786.687 160.422 774.17 167.433 763.971C172.604 756.45 179.659 751.136 187.68 748.104C183.588 731.414 186.537 715.318 196.351 707.692C204.219 701.579 214.753 702.266 224.681 708.309C229.2 703.167 234.821 699.278 241.279 697.216C249.107 694.717 257.065 695.255 264.295 698.23C279.361 690.711 295.795 691.934 304.283 702.327C306.534 705.244 308.13 708.613 308.961 712.203C309.792 715.793 309.839 719.52 309.099 723.129C322.7 712.963 337.915 709.923 348.86 716.8C363.666 726.102 365.549 750.293 354.286 773.32C363.305 772.303 372.422 773.995 380.476 778.18C378.18 773.308 377.91 768.723 380.22 765.565C384.237 760.072 394.73 760.707 405.112 766.539C403.525 754.372 407.248 743.619 415.672 739.363C425.68 734.306 439.133 740.032 448.56 752.317C449.087 750.776 449.665 749.236 450.349 747.707C459.38 727.53 478.857 716.615 493.852 723.326C497.173 724.924 500.11 727.219 502.463 730.055C504.816 732.891 506.53 736.2 507.487 739.759C515.083 724.572 527.318 715.031 540.185 716.268C557.59 717.941 570.123 738.717 570.385 764.35C587.214 753.854 606.596 754.529 613.759 765.904C620.949 777.323 613.098 795.195 596.224 805.82C595.031 806.571 593.824 807.251 592.611 807.889C598.41 809.393 603.58 812.706 607.369 817.347C609.752 820.353 611.467 823.833 612.401 827.554C621.217 815.707 633.841 809.944 643.723 814.367C654.303 819.102 658.265 833.956 654.017 849.586C655.506 849.208 657.021 848.873 658.578 848.618C680.393 845.048 700.229 855.296 702.883 871.51C703.377 875.161 703.078 878.877 702.007 882.402C700.935 885.928 699.116 889.181 696.673 891.939C713.533 889.918 728.233 894.879 734.285 906.301C742.472 921.752 732.029 943.653 710.775 957.985C728.803 966.254 738.912 982.806 733.359 995.048C727.786 1007.34 708.545 1010.62 690.384 1002.39C689.1 1001.81 687.868 1001.17 686.667 1000.51C688.605 1006.18 688.686 1012.32 686.898 1018.04C685.7 1021.68 683.74 1025.03 681.148 1027.86C692.518 1028.5 702.108 1033.03 706.705 1039.97C710.198 1025.19 716.917 1015.07 724.064 1015.47C733.235 1015.99 739.763 1033.63 739.173 1055.46C748.811 1037.67 766.8 1028.48 780.854 1034.77C783.955 1036.25 786.72 1038.34 788.981 1040.93C791.242 1043.52 792.95 1046.54 794.001 1049.81C794.094 1049.62 794.181 1049.43 794.269 1049.23C794.386 1048.98 794.502 1048.72 794.631 1048.47C807.111 1023.78 828.638 1009.53 842.712 1016.64C856.786 1023.76 858.077 1049.54 845.598 1074.23C845.478 1074.46 845.352 1074.69 845.226 1074.92C845.115 1075.12 845.003 1075.32 844.896 1075.52C862.398 1073 877.802 1077.95 884.038 1089.72C886.532 1094.68 887.265 1100.34 886.114 1105.77Z" fill="url(#paint34_linear_409_464)"/>
<path d="M317.624 1105.77V904.285C320.307 901.312 323.923 899.341 327.876 898.698C337.393 897.353 346.811 904.253 352.755 915.546C352.912 915.226 353.049 914.906 353.213 914.587C362.347 896.835 377.954 886.664 388.073 891.87C398.192 897.077 398.991 915.688 389.858 933.441C389.693 933.762 389.511 934.061 389.342 934.377C391.697 933.605 394.186 933.322 396.655 933.547C399.124 933.771 401.52 934.498 403.698 935.683C413.327 941.226 415.581 955.63 409.275 968.797C421.778 959.201 434.848 955.538 439.033 960.678C442.296 964.684 439.233 972.895 432.079 981.199C438.083 980.942 444.79 984.626 449.985 990.994C450.538 988.282 451.663 985.718 453.284 983.474C455.867 980.006 459.488 977.452 463.621 976.182C462.725 975.76 461.833 975.309 460.949 974.806C448.442 967.688 442.208 955.057 447.025 946.593C451.823 938.163 465.774 937.053 478.244 944.08C477.609 925.592 485.976 910.211 498.47 908.446C507.707 907.141 516.834 913.625 522.798 924.33C523.374 921.734 524.503 919.293 526.108 917.173C527.713 915.053 529.757 913.304 532.099 912.046C542.694 906.725 557.086 913.968 564.245 928.224C564.756 929.242 565.202 930.268 565.613 931.298C572.942 922.194 583.297 918.214 590.546 922.387C597.317 926.285 599.3 936.101 596.116 946.27C598.686 945.239 601.445 944.767 604.211 944.884C608.527 945.131 612.653 946.747 615.989 949.497C615.848 948.518 615.733 947.525 615.666 946.51C614.722 932.151 621.834 919.992 631.552 919.353C641.23 918.717 649.838 929.752 650.839 944.03C665.922 933.321 683.368 931.838 691.721 941.295C697.896 948.287 697.508 959.476 691.856 970.348C694.34 969.4 697 968.998 699.653 969.171C702.307 969.344 704.892 970.087 707.232 971.349C717.507 977.265 719.384 993.267 711.426 1007.09C710.822 1008.14 710.168 1009.13 709.492 1010.09C720.662 1010.39 729.707 1015.82 730.994 1023.81C732.078 1030.53 727.374 1037.27 719.596 1041.5C727.401 1045.09 732.218 1050.95 730.712 1055.62C729.846 1058.31 727.054 1060.09 723.235 1060.82C729.092 1063.75 733.944 1068.36 737.172 1074.06C745.85 1057.72 760.777 1048.57 772.485 1053.28C781.14 1056.75 785.812 1066.93 785.637 1079.18C787.432 1077.22 789.629 1075.67 792.078 1074.63C794.527 1073.6 797.17 1073.1 799.828 1073.18C811.665 1073.86 820.52 1087.32 819.608 1103.24V1105.77H317.624Z" fill="#EF5DA8"/>
<path fill-rule="evenodd" clip-rule="evenodd" d="M1877.41 746.241C1902.74 715.722 1943.63 690.056 1974.67 748.5C1995.17 740 2037.47 732.2 2042.67 769C2059.67 756.833 2089.27 743.6 2071.67 788C2092.84 778.833 2136.67 772 2142.67 818C2166 806.333 2207.47 800.6 2186.67 871C2207 857.167 2242.87 841.6 2223.67 890C2247.17 887.333 2289.27 892.6 2269.67 935C2314.17 923.5 2393.67 921.4 2355.67 1005C2372.67 1010.83 2400.07 1031.3 2373.67 1066.5C2393.5 1063 2427.4 1067.6 2407 1106H2342.67H2295.17L1884.85 866.906V1105.77H1004.12V1101.34C1002.52 1073.4 1018.05 1049.79 1038.82 1048.6C1048.05 1048.07 1056.75 1052.08 1063.72 1059.13C1063.41 1037.63 1071.61 1019.78 1086.79 1013.67C1107.33 1005.42 1133.52 1021.47 1148.75 1050.13C1154.41 1040.13 1162.93 1032.05 1173.2 1026.91C1166.5 1025.64 1161.6 1022.5 1160.08 1017.79C1157.44 1009.59 1165.89 999.307 1179.59 993.004C1165.94 985.585 1157.69 973.775 1159.59 961.977C1161.85 947.961 1177.72 938.431 1197.31 937.904C1196.13 936.218 1194.98 934.481 1193.92 932.643C1179.96 908.387 1183.25 880.312 1201.28 869.934C1209.29 865.321 1218.86 865.001 1228.26 868.178C1218.34 849.102 1217.66 829.47 1228.49 817.204C1243.15 800.61 1273.76 803.213 1300.22 822.002C1301.98 796.952 1317.08 777.59 1334.06 778.706C1351.11 779.828 1363.59 801.16 1361.93 826.354C1361.81 828.134 1361.61 829.877 1361.36 831.595C1367.22 826.769 1374.46 823.934 1382.03 823.501C1386.88 823.294 1391.72 824.123 1396.23 825.933C1390.64 808.091 1394.12 790.869 1406 784.03C1418.72 776.708 1436.89 783.691 1449.75 799.664C1450.47 797.857 1451.25 796.056 1452.15 794.271C1464.71 769.259 1489.96 756.551 1508.55 765.886C1516.81 770.035 1522.35 777.851 1524.87 787.439C1535.33 768.657 1551.35 757.281 1567.55 759.57C1589.47 762.667 1604.15 789.652 1603.04 822.089C1624.92 809.762 1649.39 811.708 1657.81 826.499C1666.26 841.348 1655.32 863.51 1633.38 875.999C1631.83 876.881 1630.27 877.673 1628.69 878.412C1635.95 880.641 1642.3 885.122 1646.83 891.206C1649.67 895.143 1651.65 899.641 1652.62 904.401C1661.73 893.228 1673.5 886.764 1684.03 887.215C1671.48 872.645 1666.11 858.239 1671.83 851.211C1679.18 842.193 1702.11 848.62 1724.04 865.455C1712.98 842.353 1716.93 817.083 1733.83 807.357C1737.65 805.279 1741.85 804.003 1746.19 803.61C1750.52 803.216 1754.88 803.711 1759.02 805.066C1758.89 804.828 1758.76 804.595 1758.62 804.362C1758.45 804.053 1758.28 803.744 1758.11 803.424C1742.09 772.277 1743.49 739.622 1761.24 730.488C1779 721.354 1806.38 739.199 1822.4 770.345C1822.57 770.663 1822.72 770.981 1822.86 771.3C1822.98 771.542 1823.09 771.784 1823.21 772.026C1833.64 752.214 1850.16 740.108 1866.86 742.467C1870.6 743.077 1874.17 744.365 1877.41 746.241Z" fill="url(#paint35_linear_409_464)"/>
<path d="M1155.63 1106H1620.86V956.996C1623.13 944.118 1617.91 932.43 1609.2 930.891C1601.71 929.568 1594.1 936.174 1590.65 946.221C1589.98 945.468 1589.28 944.73 1588.53 944.018C1578 934.053 1563.47 932.319 1556.06 940.143C1554.45 941.944 1553.24 944.07 1552.53 946.378C1551.81 948.687 1551.6 951.122 1551.91 953.518C1547.86 949.808 1542.9 947.224 1537.53 946.023C1538.35 944.962 1538.88 943.706 1539.07 942.377C1539.26 941.049 1539.1 939.695 1538.61 938.447C1536.56 934.483 1529.7 933.837 1522.38 936.571C1524.64 928.847 1523.31 921.503 1518.28 917.897C1511.87 913.307 1501.66 916.334 1494.12 924.55C1495 912.33 1490.16 902.026 1482.25 900.515C1474.87 899.104 1467.15 905.802 1463.15 916.199C1462.57 905.278 1457.83 896.488 1449.91 893.813C1439.98 890.462 1428.2 897.743 1420.88 910.672C1412.22 900.446 1400.09 896.342 1392.22 901.578C1383.44 907.426 1383.33 922.686 1391.97 935.663C1393.96 938.671 1396.35 941.396 1399.08 943.764C1396.38 943.715 1393.72 944.292 1391.29 945.45C1388.86 946.609 1386.73 948.317 1385.07 950.44C1382.97 940.986 1376.96 934.151 1369.86 934.147C1362.26 934.143 1355.91 941.97 1354.26 952.462C1353.47 951.837 1352.65 951.231 1351.79 950.66C1339.69 942.672 1325.07 943.486 1319.13 952.477C1317.86 954.529 1317.04 956.833 1316.74 959.23C1316.43 961.627 1316.65 964.062 1317.37 966.368C1307.82 960.637 1297.7 959.662 1291.01 964.874C1281.97 971.925 1282.34 987.832 1291.22 1002.11C1278.21 1002.22 1267.72 1009.42 1267.76 1018.23C1267.8 1027.08 1278.43 1034.21 1291.51 1034.15C1292.44 1034.15 1293.34 1034.1 1294.24 1034.02C1291.56 1036.9 1289.86 1040.55 1289.4 1044.45C1289.14 1046.95 1289.41 1049.48 1290.21 1051.87C1283.23 1049.21 1276.28 1049.34 1271.66 1052.26C1273.54 1042.48 1272.23 1034.63 1267.85 1032.95C1262.22 1030.79 1253.58 1039.6 1248.08 1052.82C1247.08 1039.59 1238.78 1029.27 1228.69 1029.26C1226.43 1029.32 1224.22 1029.83 1222.17 1030.77C1220.12 1031.71 1218.29 1033.06 1216.79 1034.74C1216.78 1034.41 1216.78 1034.09 1216.77 1033.77C1215.92 1015.64 1206.86 1001.34 1196.53 1001.83C1186.2 1002.31 1178.51 1017.39 1179.36 1035.51C1179.37 1035.84 1179.41 1036.15 1179.43 1036.48C1169.63 1030.27 1159.09 1029.1 1152.2 1034.47C1142.16 1042.3 1143.69 1061.06 1155.63 1076.37V1106ZM1417.2 950.745C1417.54 951.447 1417.91 952.12 1418.3 952.765C1417.63 952.087 1416.94 951.444 1416.24 950.834C1416.56 950.822 1416.88 950.777 1417.2 950.745Z" fill="#EF5DA8"/>
<path d="M587.724 1002.9C600.809 975.829 577.948 937.705 536.663 917.75C495.378 897.795 451.302 903.565 438.216 930.637C425.131 957.71 447.991 995.833 489.277 1015.79C530.562 1035.74 574.638 1029.97 587.724 1002.9Z" fill="url(#paint36_linear_409_464)"/>
<path d="M686.398 776.978H689.068V758.688H686.398V776.978Z" fill="#272747"/>
<path d="M602.957 809.868L663.43 757.786L659.398 753.105L598.926 805.187L602.957 809.868Z" fill="url(#paint37_linear_409_464)"/>
<path d="M594.053 1011.31H607.629V743.883H594.053V1011.31Z" fill="url(#paint38_linear_409_464)"/>
<path d="M594.054 758.688H697.068V743.882H594.054V758.688Z" fill="url(#paint39_linear_409_464)"/>
<path d="M695.485 862.143H679.98C675.521 862.143 671.243 860.371 668.09 857.218C664.936 854.064 663.164 849.787 663.164 845.327V798.135C663.164 793.675 664.936 789.398 668.09 786.244C671.243 783.091 675.52 781.319 679.98 781.319H695.485C699.945 781.319 704.222 783.091 707.376 786.245C710.53 789.398 712.301 793.675 712.301 798.135V845.327C712.301 847.535 711.866 849.722 711.021 851.762C710.176 853.802 708.937 855.656 707.376 857.218C705.814 858.779 703.961 860.018 701.92 860.863C699.88 861.708 697.694 862.143 695.485 862.143Z" fill="url(#paint40_linear_409_464)"/>
<path d="M678.817 781.254H696.649V775.092H678.817V781.254Z" fill="#272747"/>
<path d="M678.817 868.304H696.649V862.141H678.817V868.304Z" fill="#272747"/>
<g style="mix-blend-mode:multiply" opacity="0.6">
<path d="M699.064 862.086H696.244C698.764 861.028 700.916 859.25 702.431 856.975C703.946 854.7 704.756 852.028 704.761 849.295V794.166C704.757 791.557 704.019 789.002 702.632 786.793C701.244 784.584 699.263 782.81 696.914 781.675H699.518C701.537 783.073 703.188 784.94 704.328 787.115C705.469 789.291 706.065 791.71 706.067 794.166V849.295C706.064 851.843 705.422 854.35 704.198 856.585C702.974 858.82 701.209 860.711 699.064 862.086Z" fill="#C06DA1"/>
</g>
<g style="mix-blend-mode:multiply" opacity="0.6">
<path d="M670.705 794.166V849.295C670.709 852.028 671.52 854.7 673.034 856.975C674.549 859.25 676.701 861.028 679.222 862.086H676.402C674.256 860.711 672.491 858.82 671.267 856.585C670.044 854.35 669.401 851.843 669.399 849.295V794.166C669.4 791.71 669.997 789.291 671.137 787.115C672.278 784.94 673.928 783.073 675.947 781.675H678.551C676.203 782.81 674.221 784.584 672.834 786.793C671.446 789.002 670.708 791.557 670.705 794.166Z" fill="#C06DA1"/>
</g>
<g style="mix-blend-mode:multiply" opacity="0.6">
<path d="M679.624 794.166V849.295C679.624 855.036 681.702 859.965 684.656 862.086H682.729C679.704 858.528 678.129 853.961 678.317 849.295V794.166C678.155 789.638 679.63 785.203 682.473 781.675H684.266C681.52 783.936 679.624 788.681 679.624 794.166Z" fill="#C06DA1"/>
</g>
<g style="mix-blend-mode:multiply" opacity="0.6">
<path d="M686.931 862.087L687.217 781.675H688.524L688.238 862.087H686.931Z" fill="#C06DA1"/>
</g>
<g style="mix-blend-mode:multiply" opacity="0.6">
<path d="M697.149 849.295C697.337 853.961 695.762 858.528 692.737 862.086H690.791C693.754 859.973 695.842 855.046 695.842 849.295V794.166C695.842 788.676 693.94 783.935 691.19 781.675H692.993C695.835 785.203 697.311 789.638 697.149 794.166V849.295Z" fill="#C06DA1"/>
</g>
<path d="M685.979 758.688H688.818L683.475 743.881H680.637L685.979 758.688Z" fill="#272747"/>
<path d="M689.488 758.688H686.649L691.989 743.881H694.828L689.488 758.688Z" fill="#272747"/>
<path d="M628.228 1040.37C634.403 1021.97 616.66 999.421 588.597 990.004C560.535 980.587 532.78 987.87 526.605 1006.27C520.43 1024.67 538.173 1047.22 566.236 1056.64C594.298 1066.06 622.053 1058.78 628.228 1040.37Z" fill="#323654"/>
<path d="M604.524 500.275C663.141 500.275 710.66 479.619 710.66 454.137C710.66 428.656 663.141 408 604.524 408C545.907 408 498.388 428.656 498.388 454.137C498.388 479.619 545.907 500.275 604.524 500.275Z" fill="#EF5DA8"/>
<path d="M767.1 548.167C804.328 548.167 834.507 535.048 834.507 518.865C834.507 502.681 804.328 489.562 767.1 489.562C729.872 489.562 699.693 502.681 699.693 518.865C699.693 535.048 729.872 548.167 767.1 548.167Z" fill="url(#paint41_linear_409_464)"/>
<path d="M523.18 534.866C528.219 534.334 533.19 533.28 538.011 531.72C542.89 530.068 547.577 527.897 551.993 525.245C556.48 522.479 560.711 519.315 564.634 515.794C568.587 512.138 572.27 508.199 575.653 504.009C582.472 495.369 588.294 485.987 593.009 476.041C597.866 465.983 601.752 455.484 604.615 444.688C602.993 455.861 600.308 466.853 596.598 477.516C592.908 488.363 588.003 498.759 581.978 508.505C578.857 513.442 575.38 518.144 571.573 522.573C567.631 527.036 563.295 531.134 558.616 534.818C553.801 538.529 548.601 541.711 543.106 544.31C537.506 546.88 531.65 548.851 525.635 550.191L523.18 534.866Z" fill="#252577"/>
<path d="M427.964 573.737C497.413 573.737 553.713 544.99 553.713 509.528C553.713 474.067 497.413 445.32 427.964 445.32C358.514 445.32 302.214 474.067 302.214 509.528C302.214 544.99 358.514 573.737 427.964 573.737Z" fill="#F178B6"/>
<path d="M502.855 651.795C583.514 651.795 648.9 618.408 648.9 577.224C648.9 536.039 583.514 502.652 502.855 502.652C422.197 502.652 356.81 536.039 356.81 577.224C356.81 618.408 422.197 651.795 502.855 651.795Z" fill="url(#paint42_linear_409_464)"/>
<path d="M453.243 663.68C489.261 663.68 518.459 648.771 518.459 630.38C518.459 611.989 489.261 597.081 453.243 597.081C417.225 597.081 388.027 611.989 388.027 630.38C388.027 648.771 417.225 663.68 453.243 663.68Z" fill="#F178B6"/>
<path d="M699.422 605.92C755.809 605.92 801.519 586.432 801.519 562.392C801.519 538.352 755.809 518.864 699.422 518.864C643.035 518.864 597.325 538.352 597.325 562.392C597.325 586.432 643.035 605.92 699.422 605.92Z" fill="#EF5DA8"/>
<path d="M667.521 600.879C664.369 611.592 659.938 621.887 654.325 631.541C642.717 650.402 626.64 666.111 607.515 677.278C588.741 688.593 567.041 693.722 545.369 701.641C537.386 704.471 529.637 707.924 522.195 711.967C523.002 708.581 523.755 705.191 524.453 701.798C530.475 671.168 532.227 640.569 533.521 610.092C530.549 625.062 527.527 640.013 523.902 654.752C520.382 669.405 516.09 683.862 511.046 698.063C506.025 711.872 499.846 725.231 492.575 738C491.885 739.066 491.216 740.152 490.59 741.27C489.228 743.482 487.827 745.661 486.386 747.807C478.71 742.571 471.988 736.058 466.511 728.552C460.633 720.358 456.308 711.156 453.751 701.403C451.103 691.378 449.89 681.029 450.147 670.664C450.292 660.111 451.74 649.616 454.458 639.418C450.523 649.37 447.833 659.77 446.446 670.382C444.921 681.17 444.933 692.121 446.482 702.906C448.063 713.996 451.661 724.703 457.098 734.498C462.47 744.01 469.451 752.52 477.728 759.649C474.218 764.096 470.545 768.38 466.711 772.502L459.25 780.091L451.258 787.135C449.901 788.277 448.673 789.528 447.221 790.577L442.971 793.803L438.742 797.022C437.358 798.131 435.919 799.17 434.43 800.134C428.42 804.066 422.781 807.932 416.098 811.962C409.607 815.975 403.031 820.074 396.415 824.33C389.793 828.637 383.146 833.126 376.524 837.952C369.921 842.844 340.561 869.921 335.67 877C316.67 904.5 288.17 936.5 263.67 980C241.787 1018.85 204.707 1097.36 200.17 1105.5H235.67C252.17 1071.5 266.17 1051 339.67 946C363.17 915.5 380.139 897.995 384.17 893C388.392 887.845 400.84 877.449 405.79 872.44C410.804 867.456 416.117 862.53 421.608 857.626C427.149 852.728 432.831 847.814 438.655 842.883C444.392 838.111 450.588 832.401 456.574 826.971C458.106 825.65 459.515 824.15 460.938 822.678L465.199 818.268L469.437 813.865C470.872 812.431 472.112 810.763 473.453 809.226C476.077 806.082 478.719 802.978 481.284 799.819L488.45 789.886C497.591 776.537 505.25 762.233 511.293 747.225C512.766 743.446 514.139 739.647 515.413 735.829C517.607 733.6 519.951 731.523 522.427 729.612C531.001 723.18 540.346 717.846 550.244 713.735C560.328 709.274 570.914 705.354 581.462 700.866C586.735 698.621 592 696.233 597.165 693.558C602.331 690.865 607.34 687.882 612.167 684.622C631.447 671.669 647.233 654.16 658.128 633.647C663.235 623.417 667.092 612.61 669.615 601.458C672.285 590.432 674.13 579.292 676.157 568.19C673.423 579.139 670.862 590.149 667.521 600.879Z" fill="#272747"/>
<path d="M765.7 1052.61C763.227 1084.5 734.467 1108.27 701.462 1105.7C668.458 1103.14 643.707 1075.22 646.181 1043.34C648.654 1011.46 677.414 960.533 710.419 963.093C743.423 965.653 768.174 1020.73 765.7 1052.61Z" fill="#FCDDEC"/>
<path d="M458.648 964.171C456.866 987.148 436.139 1004.28 412.353 1002.43C388.568 1000.59 370.731 980.466 372.513 957.489C374.296 934.512 395.023 897.811 418.808 899.656C442.594 901.502 460.431 941.194 458.648 964.171Z" fill="#FCDDEC"/>
<path d="M700.167 1073.99C699.321 1081.52 695.586 1088.42 689.749 1093.24C683.913 1098.07 676.431 1100.43 668.882 1099.85C661.333 1099.26 654.306 1095.77 649.283 1090.1C644.261 1084.44 641.635 1077.04 641.959 1069.48C643.164 1053.95 657.17 1029.15 673.244 1030.39C689.318 1031.64 701.372 1058.46 700.167 1073.99Z" fill="#F178B6"/>
<path d="M587.243 990.238C587.089 988.595 586.935 986.953 586.781 985.31C573.277 986.107 559.728 985.648 546.309 983.94C559.365 981.511 572.181 977.933 584.607 973.248C584.077 971.686 583.547 970.124 583.017 968.562C572.747 971.66 562.264 973.999 551.651 975.56C560.914 970.691 569.826 965.183 578.323 959.075C577.404 957.705 576.486 956.335 575.567 954.964C568.848 959.135 561.907 962.938 554.775 966.357C561.032 957.003 566.58 947.194 571.371 937.012C569.902 936.26 568.434 935.509 566.965 934.757C559.422 948.327 550.453 961.055 540.212 972.724C540.071 972.78 539.928 972.831 539.786 972.886C547.083 960.203 553.128 946.84 557.836 932.985C556.292 932.403 554.748 931.822 553.204 931.24C548.746 941.932 543.445 952.252 537.352 962.104C540.07 951.263 541.978 940.236 543.059 929.112C541.423 928.898 539.788 928.684 538.152 928.47C535.342 945.427 530.54 961.994 523.846 977.826C523.581 977.831 523.317 977.832 523.053 977.836C525.606 964.191 529.453 950.821 534.543 937.906C533.03 937.248 531.517 936.59 530.004 935.933C525.322 945.796 521.363 955.986 518.159 966.423C516.479 955.227 513.957 944.174 510.615 933.358C509.024 933.792 507.432 934.227 505.841 934.661C508.951 947.826 510.833 961.251 511.462 974.764C506.821 962.321 501.089 950.313 494.333 938.879C492.886 939.671 491.439 940.462 489.991 941.254C494.812 950.836 498.922 960.76 502.287 970.945C495.895 962.66 488.935 954.829 481.455 947.511C480.263 948.652 479.072 949.793 477.88 950.934C486.824 961.18 494.879 972.169 501.956 983.783C506.466 989.516 510.792 997.822 509.879 1005.23C509.495 1008.36 509.186 1011.5 508.931 1014.64C508.877 1015.32 508.827 1015.99 508.779 1016.66C509.006 1016.48 509.237 1016.3 509.463 1016.12C510.256 1015.47 511.043 1014.82 511.825 1014.16C516.033 1010.64 520.041 1006.88 524.053 1003.14C525.36 1001.92 533.631 992.118 534.466 992.4C549.914 997.605 564.731 1004.52 578.641 1013.02C579.549 1011.65 580.458 1010.27 581.366 1008.89C572.457 1002.58 563.101 996.928 553.372 991.974C564.69 992.247 576.012 991.667 587.243 990.238Z" fill="#EF5DA8"/>
<path fill-rule="evenodd" clip-rule="evenodd" d="M2014.92 975.895C2025.66 974.249 2037.54 969.091 2049.06 960.932C2059.42 983.383 2088.11 996.174 2118.3 990.212C2126.67 988.558 2134.39 985.613 2141.2 981.694C2148.21 994.619 2159.47 1003 2172.17 1003C2175.89 1003 2179.49 1002.28 2182.89 1000.94C2173.34 1022.86 2179.37 1050.15 2199.44 1067.58C2218.5 1084.14 2244.6 1086.91 2264.62 1076.42C2262.74 1086.94 2264.18 1097.39 2268.91 1106H2342.3C2342.67 1105.57 2343.04 1105.13 2343.4 1104.68C2361.13 1082.93 2360.58 1053.14 2342.17 1038.15C2328.45 1026.97 2308.67 1027.17 2292.15 1037.02C2294.71 1018.36 2287.63 998.274 2271.68 984.418C2252.41 967.685 2225.97 965.029 2205.87 975.918C2208.93 968.387 2210.67 959.721 2210.67 950.5C2210.67 921.505 2193.43 898 2172.17 898C2166.77 898 2161.62 899.519 2156.95 902.26C2143.14 889.019 2120.99 882.653 2097.96 887.202L2097.75 887.243L2097.68 887.257C2099.59 873.11 2096.56 860.899 2088.06 853.511C2078.23 844.972 2063.04 844.588 2046.8 850.885C2037.9 829.605 2014.97 816.359 1990.38 818.953C1992.77 808.769 1991.16 799.718 1985.11 794.792C1975.96 787.333 1959.6 791.744 1945.89 804.428C1939.07 796.079 1930.05 791 1920.17 791C1907.3 791 1895.91 799.607 1888.92 812.829C1880.05 803.326 1869.18 798.7 1859.05 801.494C1846.85 804.863 1839.09 818.142 1837.83 834.903C1837.68 834.771 1837.53 834.636 1837.37 834.501L1837.37 834.501L1837.37 834.5C1837.18 834.327 1836.98 834.154 1836.78 833.986C1816.43 817.33 1792.23 813.23 1782.74 824.83C1773.25 836.43 1782.05 859.336 1802.4 875.993C1802.6 876.162 1802.81 876.321 1803.02 876.48C1803.12 876.549 1803.21 876.617 1803.3 876.686C1803.37 876.741 1803.44 876.797 1803.51 876.853C1800.26 877.156 1797.1 878.121 1794.24 879.687C1791.37 881.254 1788.86 883.39 1786.85 885.963C1778.12 897.713 1782.96 916.298 1797.49 928.898C1777.35 923.865 1759.63 926.297 1757.27 934.703C1755.43 941.254 1763.44 949.568 1776.44 955.848C1769.05 958.686 1762.88 966.657 1759.95 977.077C1757.86 974.09 1755.15 971.583 1752.02 969.722C1747.08 966.888 1741.36 965.701 1735.7 966.335C1736.56 965.356 1737.4 964.343 1738.21 963.271C1749.58 948.108 1750.49 929.576 1740.23 921.878C1730.01 914.21 1712.57 920.19 1701.19 935.221C1692.26 912.551 1674.08 898.359 1658.05 902.781C1646.21 906.051 1638.59 918.674 1637 934.737C1634.94 931.903 1632.29 929.546 1629.24 927.827C1626.19 926.107 1622.8 925.067 1619.31 924.775C1603.72 923.906 1590.13 940.209 1588.96 961.188C1588.88 962.686 1588.88 964.161 1588.92 965.62C1575.29 958.466 1560.69 959.09 1554.12 967.936C1547.99 976.199 1550.74 989.098 1559.92 999.714C1556.02 999.806 1552.19 1000.8 1548.75 1002.63C1545.3 1004.46 1542.32 1007.06 1540.05 1010.23C1539.65 1005.02 1538.55 999.881 1536.77 994.961C1529.15 973.686 1511.3 960.622 1496.9 965.78C1484.01 970.398 1478.29 988.062 1482.7 1006.98C1461.33 1004.32 1442.67 1011.72 1437.98 1026.17C1434.24 1037.7 1440.37 1050.81 1452.57 1060.93C1437.02 1056.59 1422.55 1059.78 1417.81 1069.58C1412.73 1080.09 1420.53 1094.63 1435.51 1104.18C1432.35 1104.5 1429.33 1105.13 1426.52 1106H1904.44V996.265C1916.22 1000.59 1929.34 1003 1943.17 1003C1972.12 1003 1997.96 992.436 2014.92 975.895ZM1341.67 1252.02V1250.01C1341.63 1250.67 1341.63 1251.34 1341.67 1252.02Z" fill="url(#paint43_linear_409_464)"/>
<path d="M1680.39 1105.77C1700.04 1065.05 1728.98 1029.51 1764.9 1002.04C1911.02 891.214 2143.71 940.582 2340.06 1105.77H1680.39Z" fill="#272747"/>
<path d="M1473.9 1105.77C1501.65 1084.62 1532.51 1067.92 1565.39 1056.24C1674.53 1017.77 1794.81 1039.03 1908.12 1105.77H1473.9Z" fill="#323654"/>
<path d="M2106 1106C2125.24 1084.74 2146.63 1067.94 2169.42 1056.19C2245.08 1017.51 2328.45 1038.89 2407 1106H2106Z" fill="#323654"/>
<path d="M118.67 1105.77C229.905 978.515 373.401 916.834 499.565 959.191C569.598 982.703 624.517 1035.06 661.625 1105.77H118.67Z" fill="#272747"/>
<path d="M458.658 1105.77C555.151 1038.57 658.53 1018.36 737.276 1062.64C756.863 1073.73 774.229 1088.36 788.498 1105.77H458.658Z" fill="#323654"/>
<path d="M12 1104C74.6046 984.098 141.677 948.039 192.767 1027.05C205.475 1046.85 216.742 1072.93 226 1104H12Z" fill="#323654"/>
<path d="M1099.62 1105.77C1028.42 1074.28 954.114 1072.47 896.578 1105.77H1099.62Z" fill="#323654"/>
<defs>
<linearGradient id="paint0_linear_409_464" x1="1290.42" y1="519.481" x2="1557.49" y2="1525.85" gradientUnits="userSpaceOnUse">
<stop stop-color="#63159B"/>
<stop offset="1" stop-color="#F49DA4"/>
</linearGradient>
<linearGradient id="paint1_linear_409_464" x1="992.202" y1="934.004" x2="1115.84" y2="1077.45" gradientUnits="userSpaceOnUse">
<stop stop-color="#63159B"/>
<stop offset="1" stop-color="#F49DA4"/>
</linearGradient>
<linearGradient id="paint2_linear_409_464" x1="27712.1" y1="34942.8" x2="27712.1" y2="28109.1" gradientUnits="userSpaceOnUse">
<stop stop-color="#1C7EB6"/>
<stop offset="1" stop-color="#44408D"/>
</linearGradient>
<linearGradient id="paint3_linear_409_464" x1="44556.1" y1="30765.8" x2="44556.1" y2="26384.9" gradientUnits="userSpaceOnUse">
<stop stop-color="#1C7EB6"/>
<stop offset="1" stop-color="#44408D"/>
</linearGradient>
<linearGradient id="paint4_linear_409_464" x1="35103.4" y1="32378.2" x2="35103.4" y2="27509.3" gradientUnits="userSpaceOnUse">
<stop stop-color="#1C7EB6"/>
<stop offset="1" stop-color="#44408D"/>
</linearGradient>
<linearGradient id="paint5_linear_409_464" x1="45827.6" y1="27837" x2="45827.6" y2="24276.9" gradientUnits="userSpaceOnUse">
<stop stop-color="#1C7EB6"/>
<stop offset="1" stop-color="#44408D"/>
</linearGradient>
<linearGradient id="paint6_linear_409_464" x1="40222" y1="24712.1" x2="40222" y2="21933.8" gradientUnits="userSpaceOnUse">
<stop stop-color="#1C7EB6"/>
<stop offset="1" stop-color="#44408D"/>
</linearGradient>
<linearGradient id="paint7_linear_409_464" x1="26877.2" y1="70713.8" x2="26877.2" y2="46647.5" gradientUnits="userSpaceOnUse">
<stop stop-color="#1C7EB6"/>
<stop offset="1" stop-color="#44408D"/>
</linearGradient>
<linearGradient id="paint8_linear_409_464" x1="25070.9" y1="44114.7" x2="25070.9" y2="34916.1" gradientUnits="userSpaceOnUse">
<stop stop-color="#1C7EB6"/>
<stop offset="1" stop-color="#44408D"/>
</linearGradient>
<linearGradient id="paint9_linear_409_464" x1="23159.3" y1="36700.6" x2="23159.3" y2="30395.9" gradientUnits="userSpaceOnUse">
<stop stop-color="#1C7EB6"/>
<stop offset="1" stop-color="#44408D"/>
</linearGradient>
<linearGradient id="paint10_linear_409_464" x1="42604.7" y1="35487.4" x2="42604.7" y2="29604.3" gradientUnits="userSpaceOnUse">
<stop stop-color="#1C7EB6"/>
<stop offset="1" stop-color="#44408D"/>
</linearGradient>
<linearGradient id="paint11_linear_409_464" x1="48168.6" y1="38866.3" x2="48168.6" y2="31772.6" gradientUnits="userSpaceOnUse">
<stop stop-color="#1C7EB6"/>
<stop offset="1" stop-color="#44408D"/>
</linearGradient>
<linearGradient id="paint12_linear_409_464" x1="50364.1" y1="32378.2" x2="50364.1" y2="27509.3" gradientUnits="userSpaceOnUse">
<stop stop-color="#1C7EB6"/>
<stop offset="1" stop-color="#44408D"/>
</linearGradient>
<linearGradient id="paint13_linear_409_464" x1="34251.2" y1="35365.4" x2="34251.2" y2="29524" gradientUnits="userSpaceOnUse">
<stop stop-color="#1C7EB6"/>
<stop offset="1" stop-color="#44408D"/>
</linearGradient>
<linearGradient id="paint14_linear_409_464" x1="32092.1" y1="48348.5" x2="32092.1" y2="37252.8" gradientUnits="userSpaceOnUse">
<stop stop-color="#1C7EB6"/>
<stop offset="1" stop-color="#44408D"/>
</linearGradient>
<linearGradient id="paint15_linear_409_464" x1="30285.7" y1="44009.7" x2="30285.7" y2="34855.8" gradientUnits="userSpaceOnUse">
<stop stop-color="#1C7EB6"/>
<stop offset="1" stop-color="#44408D"/>
</linearGradient>
<linearGradient id="paint16_linear_409_464" x1="28991.5" y1="51201.8" x2="28991.5" y2="38727.4" gradientUnits="userSpaceOnUse">
<stop stop-color="#1C7EB6"/>
<stop offset="1" stop-color="#44408D"/>
</linearGradient>
<linearGradient id="paint17_linear_409_464" x1="-7894.2" y1="61192.7" x2="-7894.2" y2="53721.6" gradientUnits="userSpaceOnUse">
<stop stop-color="#1C7EB6"/>
<stop offset="1" stop-color="#44408D"/>
</linearGradient>
<linearGradient id="paint18_linear_409_464" x1="-23321.6" y1="39198.4" x2="-23321.6" y2="35677.3" gradientUnits="userSpaceOnUse">
<stop stop-color="#1C7EB6"/>
<stop offset="1" stop-color="#44408D"/>
</linearGradient>
<linearGradient id="paint19_linear_409_464" x1="-12588.2" y1="64002.1" x2="-12588.2" y2="55819.4" gradientUnits="userSpaceOnUse">
<stop stop-color="#1C7EB6"/>
<stop offset="1" stop-color="#44408D"/>
</linearGradient>
<linearGradient id="paint20_linear_409_464" x1="-5525.54" y1="65801.8" x2="-5525.54" y2="57146.3" gradientUnits="userSpaceOnUse">
<stop stop-color="#1C7EB6"/>
<stop offset="1" stop-color="#44408D"/>
</linearGradient>
<linearGradient id="paint21_linear_409_464" x1="-13801.1" y1="60732.2" x2="-13801.1" y2="53374.6" gradientUnits="userSpaceOnUse">
<stop stop-color="#1C7EB6"/>
<stop offset="1" stop-color="#44408D"/>
</linearGradient>
<linearGradient id="paint22_linear_409_464" x1="-9430.22" y1="57245.3" x2="-9430.22" y2="50719.3" gradientUnits="userSpaceOnUse">
<stop stop-color="#1C7EB6"/>
<stop offset="1" stop-color="#44408D"/>
</linearGradient>
<linearGradient id="paint23_linear_409_464" x1="-22524" y1="73620.3" x2="-22524" y2="62756.6" gradientUnits="userSpaceOnUse">
<stop stop-color="#1C7EB6"/>
<stop offset="1" stop-color="#44408D"/>
</linearGradient>
<linearGradient id="paint24_linear_409_464" x1="-20802" y1="64980.7" x2="-20802" y2="56542.5" gradientUnits="userSpaceOnUse">
<stop stop-color="#1C7EB6"/>
<stop offset="1" stop-color="#44408D"/>
</linearGradient>
<linearGradient id="paint25_linear_409_464" x1="-18978.4" y1="56705.7" x2="-18978.4" y2="50303.9" gradientUnits="userSpaceOnUse">
<stop stop-color="#1C7EB6"/>
<stop offset="1" stop-color="#44408D"/>
</linearGradient>
<linearGradient id="paint26_linear_409_464" x1="-10726.6" y1="69273.1" x2="-10726.6" y2="59668.1" gradientUnits="userSpaceOnUse">
<stop stop-color="#1C7EB6"/>
<stop offset="1" stop-color="#44408D"/>
</linearGradient>
<linearGradient id="paint27_linear_409_464" x1="-16032.9" y1="70542.9" x2="-16032.9" y2="60578.3" gradientUnits="userSpaceOnUse">
<stop stop-color="#1C7EB6"/>
<stop offset="1" stop-color="#44408D"/>
</linearGradient>
<linearGradient id="paint28_linear_409_464" x1="-14755" y1="58197.5" x2="-14755" y2="51449.3" gradientUnits="userSpaceOnUse">
<stop stop-color="#1C7EB6"/>
<stop offset="1" stop-color="#44408D"/>
</linearGradient>
<linearGradient id="paint29_linear_409_464" x1="-18128.9" y1="57558.1" x2="-18128.9" y2="50959.5" gradientUnits="userSpaceOnUse">
<stop stop-color="#1C7EB6"/>
<stop offset="1" stop-color="#44408D"/>
</linearGradient>
<linearGradient id="paint30_linear_409_464" x1="-28580.8" y1="75822.7" x2="-28580.8" y2="64291.6" gradientUnits="userSpaceOnUse">
<stop stop-color="#1C7EB6"/>
<stop offset="1" stop-color="#44408D"/>
</linearGradient>
<linearGradient id="paint31_linear_409_464" x1="-27498.7" y1="69707.1" x2="-27498.7" y2="59980" gradientUnits="userSpaceOnUse">
<stop stop-color="#1C7EB6"/>
<stop offset="1" stop-color="#44408D"/>
</linearGradient>
<linearGradient id="paint32_linear_409_464" x1="-25776.1" y1="64864.3" x2="-25776.1" y2="56456.8" gradientUnits="userSpaceOnUse">
<stop stop-color="#1C7EB6"/>
<stop offset="1" stop-color="#44408D"/>
</linearGradient>
<linearGradient id="paint33_linear_409_464" x1="-24542.2" y1="72892" x2="-24542.2" y2="62244.6" gradientUnits="userSpaceOnUse">
<stop stop-color="#1C7EB6"/>
<stop offset="1" stop-color="#44408D"/>
</linearGradient>
<linearGradient id="paint34_linear_409_464" x1="573.703" y1="597.198" x2="1009.58" y2="1628.78" gradientUnits="userSpaceOnUse">
<stop stop-color="#63159B"/>
<stop offset="1" stop-color="#F49DA4"/>
</linearGradient>
<linearGradient id="paint35_linear_409_464" x1="1878.5" y1="621.858" x2="2136.6" y2="1718.47" gradientUnits="userSpaceOnUse">
<stop stop-color="#63159B"/>
<stop offset="1" stop-color="#F49DA4"/>
</linearGradient>
<linearGradient id="paint36_linear_409_464" x1="409.042" y1="901.961" x2="677.915" y2="768.543" gradientUnits="userSpaceOnUse">
<stop stop-color="#63159B"/>
<stop offset="1" stop-color="#F49DA4"/>
</linearGradient>
<linearGradient id="paint37_linear_409_464" x1="628.616" y1="778.929" x2="633.395" y2="784.334" gradientUnits="userSpaceOnUse">
<stop stop-color="#FB9898"/>
<stop offset="1" stop-color="#E38776"/>
</linearGradient>
<linearGradient id="paint38_linear_409_464" x1="-2876.66" y1="93718" x2="-934.35" y2="93816.6" gradientUnits="userSpaceOnUse">
<stop stop-color="#FB9898"/>
<stop offset="1" stop-color="#E38776"/>
</linearGradient>
<linearGradient id="paint39_linear_409_464" x1="-23238.2" y1="5244.95" x2="-23112.8" y2="6117.36" gradientUnits="userSpaceOnUse">
<stop stop-color="#FB9898"/>
<stop offset="1" stop-color="#E38776"/>
</linearGradient>
<linearGradient id="paint40_linear_409_464" x1="660.168" y1="794.166" x2="715.298" y2="849.296" gradientUnits="userSpaceOnUse">
<stop stop-color="#FF977C"/>
<stop offset="0.10035" stop-color="#FF8A75"/>
<stop offset="0.28624" stop-color="#FF6761"/>
<stop offset="0.40344" stop-color="#FF4E53"/>
<stop offset="0.52429" stop-color="#F24650"/>
<stop offset="0.74909" stop-color="#CF2F4A"/>
<stop offset="1" stop-color="#A11241"/>
</linearGradient>
<linearGradient id="paint41_linear_409_464" x1="783.347" y1="475.888" x2="839.269" y2="628.131" gradientUnits="userSpaceOnUse">
<stop stop-color="#63159B"/>
<stop offset="1" stop-color="#F49DA4"/>
</linearGradient>
<linearGradient id="paint42_linear_409_464" x1="538.056" y1="467.852" x2="698.005" y2="838.565" gradientUnits="userSpaceOnUse">
<stop stop-color="#63159B"/>
<stop offset="1" stop-color="#F49DA4"/>
</linearGradient>
<linearGradient id="paint43_linear_409_464" x1="1691.13" y1="1363.02" x2="1582.83" y2="861.053" gradientUnits="userSpaceOnUse">
<stop offset="0.35834" stop-color="#80288E"/>
<stop offset="1" stop-color="#44408D"/>
</linearGradient>
</defs>
</svg>
