<svg width="102" height="100" viewBox="0 0 102 100" fill="none" xmlns="http://www.w3.org/2000/svg">
<mask id="mask0_20_2404" style="mask-type:alpha" maskUnits="userSpaceOnUse" x="0" y="0" width="102" height="100">
<path d="M100.032 51.0347C100.032 53.8908 99.7869 56.7416 99.2976 59.5555C95.1575 83.1381 76.0222 97.1641 52.7447 97.9666C28.5645 98.8003 6.9687 83.9773 2.70238 59.5438C2.21285 56.7339 1.96725 53.8869 1.96833 51.0347C1.96776 48.1805 2.21336 45.3316 2.70238 42.5197C3.68829 36.8837 5.66241 31.4663 8.53367 26.5174C11.3924 21.5637 15.0971 17.1494 19.4798 13.4747C23.8555 9.78915 28.8473 6.90465 34.2255 4.95389C39.5991 2.99165 45.2764 1.99173 50.9971 2.00005C56.7196 1.99225 62.3988 2.99214 67.7746 4.95389C73.1503 6.90605 78.1399 9.79045 82.5143 13.4747C86.8972 17.1508 90.6037 21.5648 93.4664 26.5174C96.3376 31.4663 98.3118 36.8837 99.2977 42.5197C99.7867 45.3316 100.032 48.1805 100.032 51.0347Z" fill="url(#paint0_linear_20_2404)" stroke="black" stroke-width="3.52345" stroke-miterlimit="10"/>
</mask>
<g mask="url(#mask0_20_2404)">
<path d="M100.032 51.0347C100.032 53.8908 99.7869 56.7416 99.2976 59.5555C95.1575 83.1381 76.0222 97.1641 52.7447 97.9666C28.5645 98.8003 6.9687 83.9773 2.70238 59.5438C2.21285 56.7339 1.96725 53.8869 1.96833 51.0347C1.96776 48.1805 2.21336 45.3316 2.70238 42.5197C3.68829 36.8837 5.66241 31.4663 8.53367 26.5174C11.3924 21.5637 15.0971 17.1494 19.4798 13.4747C23.8555 9.78915 28.8473 6.90465 34.2255 4.95389C39.5991 2.99165 45.2764 1.99173 50.9971 2.00005C56.7196 1.99225 62.3988 2.99214 67.7746 4.95389C73.1503 6.90605 78.1399 9.79045 82.5143 13.4747C86.8972 17.1508 90.6037 21.5648 93.4664 26.5174C96.3376 31.4663 98.3118 36.8837 99.2977 42.5197C99.7867 45.3316 100.032 48.1805 100.032 51.0347Z" fill="url(#paint1_linear_20_2404)"/>
<g style="mix-blend-mode:soft-light">
<path d="M64.9827 60.3423C64.3549 60.3408 63.7535 60.1557 63.3098 59.8276C62.866 59.4994 62.616 59.0547 62.6144 58.5907V58.4981C62.6157 58.034 62.8656 57.5892 63.3094 57.2609C63.7532 56.9327 64.3548 56.7477 64.9827 56.7463H107.364C107.992 56.7476 108.594 56.9325 109.038 57.2608C109.482 57.589 109.733 58.0338 109.735 58.4981V58.5907C109.733 59.0549 109.482 59.4996 109.038 59.8277C108.594 60.1559 107.992 60.3408 107.364 60.3423H92.9374C91.634 60.3423 90.5677 60.9658 90.5677 61.7278C90.5677 62.4894 91.634 63.1129 92.9374 63.1129H128.752C129.38 63.1142 129.982 63.2992 130.426 63.6275C130.87 63.9557 131.12 64.4005 131.121 64.8646V64.9577C131.12 65.4218 130.87 65.8664 130.426 66.1946C129.982 66.5227 129.38 66.7076 128.752 66.7089H110.27C108.966 66.7089 107.899 67.3155 107.899 68.0579C107.899 68.7993 108.966 69.406 110.27 69.406H110.487C111.115 69.4074 111.717 69.5924 112.161 69.9207C112.605 70.2489 112.855 70.6937 112.856 71.1578V71.2511C112.854 71.7151 112.604 72.1597 112.16 72.4878C111.716 72.8159 111.115 73.0008 110.487 73.0022H86.5065C85.8788 73.0008 85.2772 72.8158 84.8333 72.4878C84.3893 72.1597 84.1389 71.7151 84.1368 71.2511V71.1578C84.1387 70.6937 84.3889 70.2489 84.8329 69.9207C85.2769 69.5925 85.8786 69.4074 86.5065 69.406H92.602C93.9049 69.406 94.9713 68.7993 94.9713 68.0579C94.9713 67.3155 93.9049 66.7089 92.602 66.7089H72.4076C71.7798 66.7076 71.1781 66.5227 70.7341 66.1945C70.2901 65.8664 70.0398 65.4218 70.0379 64.9577V64.8646C70.0396 64.4005 70.2899 63.9557 70.7339 63.6275C71.1779 63.2993 71.7796 63.1143 72.4076 63.1129H75.3373C76.6407 63.1129 77.7065 62.4894 77.7065 61.7278C77.7065 60.9658 76.6407 60.3423 75.3373 60.3423H64.9827Z" fill="#FCDDEC"/>
</g>
<rect opacity="0.8" x="49.8419" y="3.33398" width="3.48341" height="17.417" fill="black"/>
<rect opacity="0.8" x="49.8419" y="78.8079" width="3.48341" height="17.417" fill="black"/>
<g style="mix-blend-mode:soft-light">
<path d="M-17.4178 30.1528C-18.0562 30.1513 -18.6678 29.9663 -19.1191 29.6381C-19.5703 29.3099 -19.8246 28.8653 -19.8262 28.4013V28.3086C-19.8249 27.8445 -19.5707 27.3997 -19.1194 27.0715C-18.6681 26.7432 -18.0563 26.5582 -17.4178 26.5569H25.6819C26.3207 26.5581 26.9328 26.7431 27.3845 27.0713C27.8362 27.3995 28.0908 27.8444 28.0927 28.3086V28.4013C28.0905 28.8654 27.8358 29.3101 27.3841 29.6383C26.9325 29.9664 26.3205 30.1514 25.6819 30.1528H11.0107C9.68528 30.1528 8.60085 30.7763 8.60085 31.5383C8.60085 32.3 9.68528 32.9235 11.0107 32.9235H47.4325C48.0711 32.9248 48.683 33.1098 49.1345 33.438C49.586 33.7663 49.8403 34.2111 49.8419 34.6752V34.7682C49.8402 35.2323 49.5858 35.677 49.1343 36.0051C48.6828 36.3332 48.071 36.5182 47.4325 36.5194H28.6367C27.3112 36.5194 26.2258 37.1261 26.2258 37.8684C26.2258 38.6099 27.3112 39.2165 28.6367 39.2165H28.8579C29.4965 39.2179 30.1083 39.403 30.5598 39.7312C31.0112 40.0595 31.2656 40.5042 31.2673 40.9684V41.0616C31.2653 41.5256 31.0109 41.9702 30.5594 42.2983C30.108 42.6264 29.4963 42.8114 28.8579 42.8128H4.47089C3.83245 42.8113 3.22073 42.6264 2.76924 42.2983C2.31775 41.9702 2.06314 41.5256 2.06102 41.0616V40.9684C2.06287 40.5042 2.31735 40.0595 2.76888 39.7312C3.2204 39.403 3.83228 39.218 4.47089 39.2165H10.6697C11.9946 39.2165 13.0791 38.6099 13.0791 37.8684C13.0791 37.1261 11.9946 36.5194 10.6697 36.5194H-9.867C-10.5055 36.5181 -11.1174 36.3332 -11.5689 36.0051C-12.0204 35.677 -12.275 35.2323 -12.2769 34.7682V34.6752C-12.2751 34.211 -12.0206 33.7663 -11.5691 33.438C-11.1175 33.1098 -10.5056 32.9248 -9.867 32.9235H-6.88766C-5.56221 32.9235 -4.47829 32.3 -4.47829 31.5383C-4.47829 30.7763 -5.56221 30.1528 -6.88766 30.1528H-17.4178Z" fill="#FCDDEC"/>
</g>
<path d="M100.032 51.0347C100.032 53.8908 99.7869 56.7416 99.2976 59.5555C95.1575 83.1381 76.0222 97.1641 52.7447 97.9666C28.5645 98.8003 6.9687 83.9773 2.70238 59.5438C2.21285 56.7339 1.96725 53.8869 1.96833 51.0347C1.96776 48.1805 2.21336 45.3316 2.70238 42.5197C3.68829 36.8837 5.66241 31.4663 8.53367 26.5174C11.3924 21.5637 15.0971 17.1494 19.4798 13.4747C23.8555 9.78915 28.8473 6.90465 34.2255 4.95389C39.5991 2.99165 45.2764 1.99173 50.9971 2.00005C56.7196 1.99225 62.3988 2.99214 67.7746 4.95389C73.1503 6.90605 78.1399 9.79045 82.5143 13.4747C86.8972 17.1508 90.6037 21.5648 93.4664 26.5174C96.3376 31.4663 98.3118 36.8837 99.2977 42.5197C99.7867 45.3316 100.032 48.1805 100.032 51.0347Z" stroke="black" stroke-width="3.52345" stroke-miterlimit="10"/>
<path d="M68.8396 38.5838L68.8389 38.5764C68.4706 34.9523 66.6993 32.477 64.0449 30.8679C61.7156 29.4559 58.7472 28.7327 55.5521 28.361L55.5466 20.4105C55.5462 19.7704 55.0278 19.2514 54.3876 19.2502L48.9164 19.2403C48.6076 19.2397 48.3112 19.3622 48.0929 19.5807C47.8746 19.7992 47.7523 20.0957 47.7532 20.4045L47.7735 28.0418C47.1007 28.046 46.4239 28.0533 45.7488 28.0674L45.7285 20.4614C45.7268 19.821 45.2068 19.3028 44.5664 19.3034L39.0336 19.3082C38.3924 19.3088 37.873 19.8289 37.8735 20.4701L37.8789 28.3241C37.6693 28.3298 37.4614 28.3362 37.2559 28.3425L37.2481 28.3427C36.6604 28.3608 36.0916 28.3783 35.5256 28.3799C35.5249 28.3799 35.5243 28.3799 35.5236 28.3799L27.9907 28.3758C27.6823 28.3756 27.3865 28.4981 27.1685 28.7163C26.9506 28.9345 26.8284 29.2304 26.8289 29.5388L26.8386 35.3557C26.8391 35.6671 26.9647 35.9653 27.1872 36.1833C27.4097 36.4012 27.7104 36.5206 28.0218 36.5147L27.9997 35.3538L28.0219 36.5147L28.022 36.5147L28.0225 36.5147L28.0245 36.5146L28.033 36.5145L28.0665 36.5139L28.1941 36.5116C28.3043 36.5097 28.4617 36.5071 28.6502 36.5044C29.0277 36.4989 29.5285 36.4927 30.0246 36.4899C30.5234 36.4871 31.0069 36.4879 31.3542 36.4957C31.4751 36.4985 31.5687 36.5018 31.6357 36.5054C31.7316 36.532 31.8319 36.5465 31.9345 36.5476C32.8116 36.5566 33.2477 36.8051 33.4764 37.0214C33.703 37.2358 33.8412 37.5284 33.9075 37.8575L33.9361 48.0013C33.9363 48.0725 33.9429 48.1424 33.9555 48.2103L34.0627 62.299C34.0228 62.4992 33.9477 62.6792 33.843 62.8007C33.7607 62.8962 33.5953 63.0394 33.1538 63.045C33.0999 63.0457 33.0467 63.0501 32.9945 63.058C32.9919 63.058 32.9892 63.0581 32.9863 63.0582C32.8965 63.0606 32.7545 63.062 32.5693 63.0625C32.2027 63.0633 31.7029 63.0601 31.1961 63.0554C30.6903 63.0507 30.1818 63.0445 29.7994 63.0395L29.3373 63.0333L29.2078 63.0314L29.1737 63.0309L29.165 63.0308L29.1629 63.0307L29.1623 63.0307L29.1622 63.0307L29.1448 64.1917L29.1622 63.0307C28.5832 63.0221 28.0864 63.4412 27.9975 64.0134L26.9788 70.5655C26.9266 70.9018 27.0244 71.2441 27.2466 71.5019C27.4687 71.7597 27.7928 71.907 28.1331 71.905L35.2376 71.8627C35.8012 71.8732 36.3298 71.8733 36.8408 71.8735C37.2254 71.8736 37.6001 71.8736 37.9721 71.8782L37.9937 79.8255C37.9954 80.4647 38.5135 80.9823 39.1527 80.9835L44.6239 80.9934C44.9324 80.994 45.2284 80.8718 45.4466 80.6538C45.6649 80.4358 45.7874 80.1399 45.7872 79.8315L45.7818 72.0221C46.4842 72.0344 47.1678 72.0422 47.8341 72.0481L47.8266 79.8297C47.826 80.4706 48.3447 80.9908 48.9856 80.992L54.4568 81.0019C54.7657 81.0024 55.0621 80.8799 55.2804 80.6614C55.4987 80.4429 55.6209 80.1465 55.6201 79.8376L55.5984 71.8525C59.799 71.5305 63.5456 70.7804 66.4063 69.0429C69.6096 67.0974 71.579 63.9922 71.981 59.3138C72.3052 55.651 71.6273 52.8186 70.0039 50.7138C68.8793 49.2558 67.3664 48.2322 65.6095 47.5154C66.4442 46.8235 67.1561 45.9989 67.7039 45.0206C68.6832 43.272 69.082 41.1336 68.8396 38.5838ZM32.0492 63.8972C32.0194 64.0052 32.0058 64.1146 32.0074 64.2225C32.0071 64.2225 32.0068 64.2225 32.0065 64.2225C32.0033 64.0775 32.0286 63.9471 32.0691 63.8325C32.0618 63.8538 32.0552 63.8754 32.0492 63.8972ZM31.7334 36.5124C31.7331 36.5124 31.7309 36.5122 31.7269 36.5117C31.7316 36.5122 31.7337 36.5124 31.7334 36.5124ZM56.3168 41.1402L56.3168 41.1429C56.3218 42.3261 55.8801 43.1172 55.1789 43.7083C54.4305 44.3392 53.3326 44.781 52.0126 45.0656C49.898 45.5216 47.5429 45.5147 45.845 45.4877L45.8578 36.8351C45.9052 36.834 45.9532 36.8329 46.0016 36.8318C47.6866 36.7922 49.9354 36.7394 52.0022 37.1472C53.3184 37.407 54.4099 37.8319 55.1559 38.4617C55.8536 39.0507 56.3146 39.8698 56.3168 41.1402ZM58.8839 58.1821C58.8898 59.4845 58.3618 60.3812 57.475 61.0659C56.5358 61.7911 55.1707 62.2879 53.562 62.6031C50.8994 63.1249 47.9319 63.091 45.8968 63.059L45.8532 53.3027C45.9737 53.3001 46.0971 53.2974 46.2233 53.2946C48.2677 53.249 51.0278 53.1875 53.5465 53.647C55.149 53.9394 56.5039 54.4224 57.4397 55.1526C58.3217 55.8408 58.875 56.7763 58.8839 58.1821Z" fill="url(#paint2_linear_20_2404)" stroke="black" stroke-width="2.32227" stroke-linejoin="round"/>
</g>
<defs>
<linearGradient id="paint0_linear_20_2404" x1="51" y1="2" x2="51" y2="66.2384" gradientUnits="userSpaceOnUse">
<stop stop-color="#5611A3"/>
<stop offset="1" stop-color="#94227D"/>
</linearGradient>
<linearGradient id="paint1_linear_20_2404" x1="51" y1="2" x2="51" y2="66.2384" gradientUnits="userSpaceOnUse">
<stop stop-color="#5611A3"/>
<stop offset="1" stop-color="#94227D"/>
</linearGradient>
<linearGradient id="paint2_linear_20_2404" x1="118.929" y1="402.765" x2="53.1319" y2="20.6133" gradientUnits="userSpaceOnUse">
<stop stop-color="#63159B"/>
<stop offset="0.323794" stop-color="#B764A0"/>
<stop offset="1" stop-color="#FFB9BF"/>
</linearGradient>
</defs>
</svg>
