<svg width="102" height="100" viewBox="0 0 102 100" fill="none" xmlns="http://www.w3.org/2000/svg">
<mask id="mask0_20_2420" style="mask-type:alpha" maskUnits="userSpaceOnUse" x="0" y="0" width="102" height="100">
<path d="M100.032 51.0347C100.032 53.8908 99.7869 56.7416 99.2976 59.5555C95.1575 83.1381 76.0222 97.1641 52.7447 97.9666C28.5645 98.8003 6.9687 83.9773 2.70238 59.5438C2.21285 56.7339 1.96725 53.8869 1.96833 51.0347C1.96776 48.1805 2.21336 45.3316 2.70238 42.5197C3.68829 36.8837 5.66241 31.4663 8.53367 26.5174C11.3924 21.5637 15.0971 17.1494 19.4798 13.4747C23.8555 9.78915 28.8473 6.90465 34.2255 4.95389C39.5991 2.99165 45.2764 1.99173 50.9971 2.00005C56.7196 1.99225 62.3988 2.99214 67.7746 4.95389C73.1503 6.90605 78.1399 9.79045 82.5143 13.4747C86.8972 17.1508 90.6037 21.5648 93.4664 26.5174C96.3376 31.4663 98.3118 36.8837 99.2977 42.5197C99.7867 45.3316 100.032 48.1805 100.032 51.0347Z" fill="url(#paint0_linear_20_2420)" stroke="black" stroke-width="3.52345" stroke-miterlimit="10"/>
</mask>
<g mask="url(#mask0_20_2420)">
<path d="M100.032 51.0347C100.032 53.8908 99.7869 56.7416 99.2976 59.5555C95.1575 83.1381 76.0222 97.1641 52.7447 97.9666C28.5645 98.8003 6.9687 83.9773 2.70238 59.5438C2.21285 56.7339 1.96725 53.8869 1.96833 51.0347C1.96776 48.1805 2.21336 45.3316 2.70238 42.5197C3.68829 36.8837 5.66241 31.4663 8.53367 26.5174C11.3924 21.5637 15.0971 17.1494 19.4798 13.4747C23.8555 9.78915 28.8473 6.90465 34.2255 4.95389C39.5991 2.99165 45.2764 1.99173 50.9971 2.00005C56.7196 1.99225 62.3988 2.99214 67.7746 4.95389C73.1503 6.90605 78.1399 9.79045 82.5143 13.4747C86.8972 17.1508 90.6037 21.5648 93.4664 26.5174C96.3376 31.4663 98.3118 36.8837 99.2977 42.5197C99.7867 45.3316 100.032 48.1805 100.032 51.0347Z" fill="url(#paint1_linear_20_2420)"/>
<rect x="37" y="21" width="10" height="30" fill="url(#paint2_linear_20_2420)"/>
<line x1="41.5" y1="3" x2="41.5" y2="36" stroke="#FBAF8A" stroke-dasharray="2 2"/>
<path d="M100.032 51.0347C100.032 53.8908 99.7869 56.7416 99.2976 59.5555C95.1575 83.1381 76.0222 97.1641 52.7447 97.9666C28.5645 98.8003 6.9687 83.9773 2.70238 59.5438C2.21285 56.7339 1.96725 53.8869 1.96833 51.0347C1.96776 48.1805 2.21336 45.3316 2.70238 42.5197C3.68829 36.8837 5.66241 31.4663 8.53367 26.5174C11.3924 21.5637 15.0971 17.1494 19.4798 13.4747C23.8555 9.78915 28.8473 6.90465 34.2255 4.95389C39.5991 2.99165 45.2764 1.99173 50.9971 2.00005C56.7196 1.99225 62.3988 2.99214 67.7746 4.95389C73.1503 6.90605 78.1399 9.79045 82.5143 13.4747C86.8972 17.1508 90.6037 21.5648 93.4664 26.5174C96.3376 31.4663 98.3118 36.8837 99.2977 42.5197C99.7867 45.3316 100.032 48.1805 100.032 51.0347Z" stroke="black" stroke-width="3.52345" stroke-miterlimit="10"/>
<g style="mix-blend-mode:soft-light">
<g clip-path="url(#clip0_20_2420)">
<path d="M53.4244 84.919C56.9183 84.9165 60.3592 85.7834 63.4432 87.4431C66.5273 89.1028 69.1598 91.5043 71.1084 94.4358C72.4281 93.9227 73.7855 93.5152 75.1682 93.2168C72.9093 89.4294 69.7205 86.2963 65.9109 84.1215C62.1014 81.9466 57.8004 80.8037 53.4252 80.8037C49.05 80.8037 44.7491 81.9466 40.9396 84.1215C37.13 86.2963 33.9411 89.4294 31.6823 93.2168C33.0646 93.5148 34.4216 93.9224 35.7407 94.4358C37.6894 91.5046 40.3219 89.1032 43.4059 87.4435C46.4899 85.7838 49.9305 84.9168 53.4244 84.919Z" fill="#FCDDEC"/>
<path d="M53.4244 91.998C55.6531 91.9983 57.8508 92.5258 59.8417 93.5385C61.8325 94.5511 63.5612 96.0208 64.8894 97.8298C65.7105 97.232 66.5637 96.6807 67.4451 96.1785C65.8419 93.9362 63.7351 92.1105 61.2979 90.8513C58.8608 89.5922 56.1628 88.9356 53.4257 88.9355C50.6887 88.9355 47.9906 89.5919 45.5534 90.8509C43.1162 92.1099 41.0093 93.9356 39.4059 96.1778C40.2869 96.6809 41.1398 97.2324 41.961 97.8298C43.2888 96.0207 45.0172 94.551 47.0078 93.5383C48.9984 92.5257 51.1959 91.9981 53.4244 91.998Z" fill="#FCDDEC"/>
<path d="M47.2271 102.828C47.8563 101.729 48.7603 100.817 49.8482 100.184C50.9362 99.5497 52.1699 99.2161 53.4256 99.2162C54.6813 99.2164 55.915 99.5502 57.0028 100.184C58.0906 100.818 58.9943 101.731 59.6233 102.829C60.2756 102.023 60.9721 101.255 61.7096 100.529C60.7726 99.1886 59.5312 98.0955 58.0897 97.3411C56.6481 96.5866 55.0485 96.1929 53.4252 96.1929C51.8019 96.1929 50.2023 96.5866 48.7607 97.3411C47.3192 98.0955 46.0778 99.1886 45.1408 100.529C45.8776 101.255 46.5741 102.023 47.2271 102.828Z" fill="#FCDDEC"/>
</g>
<g clip-path="url(#clip1_20_2420)">
<path d="M80.2562 70.1153C83.7501 70.1128 87.1909 70.9797 90.275 72.6394C93.3591 74.2991 95.9916 76.7006 97.9402 79.632C99.2598 79.119 100.617 78.7115 102 78.4131C99.7411 74.6257 96.5523 71.4926 92.7427 69.3177C88.9332 67.1429 84.6322 66 80.257 66C75.8818 66 71.5809 67.1429 67.7713 69.3177C63.9618 71.4926 60.7729 74.6257 58.514 78.4131C59.8964 78.7111 61.2534 79.1187 62.5724 79.632C64.5212 76.7009 67.1537 74.2995 70.2377 72.6398C73.3216 70.9801 76.7623 70.1131 80.2562 70.1153Z" fill="#FCDDEC"/>
<path d="M80.2561 77.1941C82.4849 77.1943 84.6826 77.7219 86.6734 78.7345C88.6643 79.7472 90.393 81.2168 91.7212 83.0259C92.5422 82.4281 93.3955 81.8768 94.2769 81.3745C92.6737 79.1322 90.5669 77.3065 88.1297 76.0474C85.6925 74.7882 82.9946 74.1317 80.2575 74.1316C77.5204 74.1315 74.8224 74.788 72.3852 76.047C69.948 77.306 67.8411 79.1316 66.2377 81.3738C67.1187 81.8769 67.9716 82.4284 68.7928 83.0259C70.1206 81.2168 71.849 79.7471 73.8396 78.7344C75.8301 77.7217 78.0277 77.1942 80.2561 77.1941Z" fill="#FCDDEC"/>
<path d="M74.0588 88.0237C74.6881 86.9253 75.5921 86.0135 76.68 85.3796C77.768 84.7457 79.0017 84.4121 80.2574 84.4123C81.5131 84.4124 82.7467 84.7463 83.8345 85.3804C84.9223 86.0145 85.8261 86.9266 86.4551 88.0251C87.1074 87.2194 87.8039 86.4513 88.5414 85.7246C87.6044 84.3846 86.363 83.2915 84.9215 82.5371C83.4799 81.7827 81.8803 81.3889 80.257 81.3889C78.6337 81.3889 77.0341 81.7827 75.5925 82.5371C74.151 83.2915 72.9096 84.3846 71.9726 85.7246C72.7094 86.4515 73.4059 87.219 74.0588 88.0237Z" fill="#FCDDEC"/>
<path d="M80.2792 87.3203C79.2833 87.3206 78.3178 87.6672 77.5449 88.302C76.7719 88.9367 76.2386 89.8209 76.0344 90.8062C76.2598 91.1679 76.4774 91.5346 76.6872 91.9064C77.1489 91.8453 77.6161 91.7973 78.086 91.7595C78.086 91.7403 78.0813 91.7224 78.0813 91.7025C78.081 91.1169 78.3098 90.555 78.7177 90.1391C79.1255 89.7232 79.6795 89.4871 80.2588 89.4822C80.8382 89.4773 81.3959 89.704 81.8106 90.113C82.2253 90.5219 82.4633 91.08 82.4727 91.6655C82.4727 91.6785 82.4768 91.6895 82.4768 91.7025C82.4768 91.7238 82.4707 91.7424 82.4707 91.763C82.9256 91.7993 83.3792 91.8474 83.8277 91.9064C83.8725 91.8254 84.3213 91.0581 84.5087 90.7602C84.2965 89.7858 83.7617 88.9137 82.9926 88.2882C82.2235 87.6627 81.2663 87.3213 80.2792 87.3203Z" fill="#FCDDEC"/>
</g>
<g clip-path="url(#clip2_20_2420)">
<path d="M24.7421 97.8724C28.2361 97.8699 31.6769 98.7368 34.761 100.396C37.8451 102.056 40.4776 104.458 42.4262 107.389C43.7458 106.876 45.1032 106.469 46.486 106.17C44.2271 102.383 41.0382 99.2497 37.2287 97.0748C33.4191 94.8999 29.1182 93.7571 24.743 93.7571C20.3678 93.7571 16.0669 94.8999 12.2573 97.0748C8.44775 99.2497 5.2589 102.383 3 106.17C4.38235 106.468 5.73934 106.876 7.0584 107.389C9.00715 104.458 11.6396 102.057 14.7236 100.397C17.8076 98.7372 21.2483 97.8702 24.7421 97.8724Z" fill="#FCDDEC"/>
</g>
</g>
<g style="mix-blend-mode:soft-light" clip-path="url(#clip3_20_2420)">
<path d="M25.6673 70.1153C29.1613 70.1128 32.6021 70.9797 35.6862 72.6394C38.7703 74.2991 41.4028 76.7006 43.3514 79.632C44.671 79.119 46.0285 78.7115 47.4112 78.4131C45.1523 74.6257 41.9634 71.4926 38.1539 69.3177C34.3443 67.1429 30.0434 66 25.6682 66C21.293 66 16.9921 67.1429 13.1825 69.3177C9.37298 71.4926 6.18413 74.6257 3.92523 78.4131C5.30758 78.7111 6.66457 79.1187 7.98363 79.632C9.93239 76.7009 12.5649 74.2995 15.6489 72.6398C18.7328 70.9801 22.1735 70.1131 25.6673 70.1153Z" fill="#FCDDEC"/>
<path d="M25.6673 77.1941C27.8961 77.1943 30.0938 77.7219 32.0846 78.7345C34.0755 79.7472 35.8042 81.2168 37.1324 83.0259C37.9534 82.4281 38.8067 81.8768 39.6881 81.3745C38.0849 79.1322 35.9781 77.3065 33.5409 76.0474C31.1037 74.7882 28.4058 74.1317 25.6687 74.1316C22.9316 74.1315 20.2336 74.788 17.7964 76.047C15.3592 77.306 13.2523 79.1316 11.6489 81.3738C12.5298 81.8769 13.3828 82.4284 14.204 83.0259C15.5318 81.2168 17.2602 79.7471 19.2507 78.7344C21.2413 77.7217 23.4388 77.1942 25.6673 77.1941Z" fill="#FCDDEC"/>
<path d="M19.47 88.0237C20.0993 86.9253 21.0033 86.0135 22.0912 85.3796C23.1792 84.7457 24.4129 84.4121 25.6686 84.4123C26.9243 84.4124 28.1579 84.7463 29.2457 85.3804C30.3335 86.0145 31.2373 86.9266 31.8663 88.0251C32.5186 87.2194 33.2151 86.4513 33.9526 85.7246C33.0156 84.3846 31.7742 83.2915 30.3327 82.5371C28.8911 81.7827 27.2915 81.3889 25.6682 81.3889C24.0449 81.3889 22.4453 81.7827 21.0037 82.5371C19.5622 83.2915 18.3208 84.3846 17.3838 85.7246C18.1206 86.4515 18.8171 87.219 19.47 88.0237Z" fill="#FCDDEC"/>
<path d="M25.6904 87.3203C24.6946 87.3206 23.7291 87.6672 22.9561 88.302C22.1832 88.9367 21.6498 89.8209 21.4456 90.8062C21.671 91.1679 21.8887 91.5346 22.0985 91.9064C22.5602 91.8453 23.0274 91.7973 23.4973 91.7595C23.4973 91.7403 23.4925 91.7224 23.4925 91.7025C23.4923 91.1169 23.7211 90.555 24.1289 90.1391C24.5368 89.7232 25.0907 89.4871 25.6701 89.4822C26.2494 89.4773 26.8072 89.704 27.2219 90.113C27.6365 90.5219 27.8745 91.08 27.884 91.6655C27.884 91.6785 27.888 91.6895 27.888 91.7025C27.888 91.7238 27.882 91.7424 27.882 91.763C28.3368 91.7993 28.7904 91.8474 29.2389 91.9064C29.2838 91.8254 29.7326 91.0581 29.92 90.7602C29.7078 89.7858 29.1729 88.9137 28.4039 88.2882C27.6348 87.6627 26.6776 87.3213 25.6904 87.3203Z" fill="#FCDDEC"/>
<g clip-path="url(#clip4_20_2420)">
<path d="M-1.16444 83.9937C2.32951 83.9912 5.77035 84.8581 8.85443 86.5178C11.9385 88.1775 14.571 90.579 16.5196 93.5105C17.8393 92.9974 19.1967 92.5899 20.5794 92.2915C18.3205 88.5041 15.1317 85.371 11.3221 83.1962C7.51256 81.0213 3.21161 79.8784 -1.16357 79.8784C-5.53876 79.8784 -9.8397 81.0213 -13.6493 83.1962C-17.4588 85.371 -20.6477 88.5041 -22.9066 92.2915C-21.5242 92.5896 -20.1672 92.9971 -18.8482 93.5105C-16.8994 90.5793 -14.2669 88.1779 -11.1829 86.5182C-8.09896 84.8585 -4.65829 83.9915 -1.16444 83.9937Z" fill="#FCDDEC"/>
<path d="M-1.16445 91.0727C1.06427 91.073 3.26199 91.6005 5.25284 92.6132C7.2437 93.6258 8.9724 95.0955 10.3006 96.9045C11.1216 96.3067 11.9749 95.7555 12.8563 95.2532C11.2531 93.0109 9.14629 91.1852 6.70912 89.926C4.27195 88.6669 1.57397 88.0103 -1.16309 88.0103C-3.90015 88.0102 -6.59816 88.6666 -9.03539 89.9256C-11.4726 91.1846 -13.5795 93.0103 -15.1829 95.2525C-14.3019 95.7556 -13.449 96.3071 -12.6278 96.9045C-11.3 95.0954 -9.57163 93.6257 -7.58104 92.613C-5.59045 91.6004 -3.39294 91.0729 -1.16445 91.0727Z" fill="#FCDDEC"/>
</g>
</g>
<rect x="24" y="34" width="10" height="26" fill="url(#paint3_radial_20_2420)"/>
<line x1="28.5" y1="10" x2="28.5" y2="35" stroke="#FBAF8A" stroke-dasharray="2 2"/>
<rect x="50" y="27" width="10" height="30" fill="url(#paint4_linear_20_2420)"/>
<line x1="55.5" y1="4" x2="55.5" y2="29" stroke="#FBAF8A"/>
<line x1="55.5" y1="56" x2="55.5" y2="81" stroke="#FBAF8A" stroke-dasharray="2 2"/>
<rect x="63" y="16" width="10" height="30" fill="url(#paint5_linear_20_2420)"/>
<line x1="67.5" y1="45" x2="67.5" y2="70" stroke="#FBAF8A"/>
<line x1="67.5" y1="12" x2="67.5" y2="19" stroke="#FBAF8A"/>
<line x1="71" y1="12.5" x2="64" y2="12.5" stroke="#FBAF8A"/>
</g>
<defs>
<linearGradient id="paint0_linear_20_2420" x1="51" y1="2" x2="51" y2="66.2384" gradientUnits="userSpaceOnUse">
<stop stop-color="#5611A3"/>
<stop offset="1" stop-color="#94227D"/>
</linearGradient>
<linearGradient id="paint1_linear_20_2420" x1="51" y1="2" x2="51" y2="66.2384" gradientUnits="userSpaceOnUse">
<stop stop-color="#5611A3"/>
<stop offset="1" stop-color="#94227D"/>
</linearGradient>
<linearGradient id="paint2_linear_20_2420" x1="43.2051" y1="14" x2="56.8077" y2="20.3752" gradientUnits="userSpaceOnUse">
<stop stop-color="#FFBA78"/>
<stop offset="0.491458" stop-color="#F49DA4"/>
</linearGradient>
<radialGradient id="paint3_radial_20_2420" cx="0" cy="0" r="1" gradientUnits="userSpaceOnUse" gradientTransform="translate(29.4545 34) rotate(90) scale(22.2857 9.45399)">
<stop stop-color="#FFBA78"/>
<stop offset="1" stop-color="#F49DA4"/>
</radialGradient>
<linearGradient id="paint4_linear_20_2420" x1="56.2051" y1="20" x2="69.8077" y2="26.3752" gradientUnits="userSpaceOnUse">
<stop stop-color="#FFBA78"/>
<stop offset="1" stop-color="#F49DA4"/>
</linearGradient>
<linearGradient id="paint5_linear_20_2420" x1="69.2051" y1="9" x2="82.8077" y2="15.3752" gradientUnits="userSpaceOnUse">
<stop stop-color="#FFBA78"/>
<stop offset="1" stop-color="#F49DA4"/>
</linearGradient>
<clipPath id="clip0_20_2420">
<rect width="43.486" height="25.9065" fill="white" transform="translate(31.6823 80.8037)"/>
</clipPath>
<clipPath id="clip1_20_2420">
<rect width="43.486" height="25.9065" fill="white" transform="translate(58.514 66)"/>
</clipPath>
<clipPath id="clip2_20_2420">
<rect width="43.486" height="25.9065" fill="white" transform="translate(3 93.7571)"/>
</clipPath>
<clipPath id="clip3_20_2420">
<rect width="43.486" height="25.9065" fill="white" transform="translate(3.92523 66)"/>
</clipPath>
<clipPath id="clip4_20_2420">
<rect width="43.486" height="25.9065" fill="white" transform="translate(-22.9066 79.8784)"/>
</clipPath>
</defs>
</svg>
