<svg width="97" height="96" viewBox="0 0 97 96" fill="none" xmlns="http://www.w3.org/2000/svg">
<g clip-path="url(#clip0_20_2414)">
<mask id="mask0_20_2414" style="mask-type:alpha" maskUnits="userSpaceOnUse" x="1" y="0" width="96" height="95">
<path d="M96.5 48.5239C96.5008 51.3503 96.2628 54.1714 95.7889 56.956C91.7781 80.2929 73.2406 94.1728 50.6902 94.9669C27.2653 95.7919 6.34417 81.1233 2.21112 56.9444C1.73689 54.1637 1.49896 51.3464 1.5 48.5239C1.49946 45.6995 1.73738 42.8803 2.21112 40.0976C3.16624 34.5203 5.07869 29.1594 7.86026 24.262C10.6297 19.3599 14.2187 14.9916 18.4645 11.3552C22.7035 7.70801 27.5393 4.85356 32.7495 2.92312C37.9552 0.981318 43.4552 -0.00818165 48.9972 5.09505e-05C54.5409 -0.0076688 60.0427 0.981805 65.2506 2.92312C70.4584 4.85494 75.2921 7.7093 79.5298 11.3552C83.7758 14.9929 87.3665 19.361 90.1398 24.262C92.9214 29.1593 94.8338 34.5203 95.7889 40.0976C96.2626 42.8803 96.5005 45.6995 96.5 48.5239Z" fill="url(#paint0_linear_20_2414)"/>
</mask>
<g mask="url(#mask0_20_2414)">
<path d="M92.3033 61.8576C89.2862 71.0985 83.4243 79.1487 75.5559 84.857C67.6875 90.5654 58.2155 93.6395 48.4945 93.6398C38.7744 93.6394 29.3033 90.5651 21.4359 84.8567C13.5686 79.1483 7.70793 71.0981 4.69226 61.8576L26.2121 51.5048L38.1547 45.7532L39.6992 45.01C40.5329 44.6111 41.3921 44.2678 42.2712 43.9825C43.1396 43.6992 44.0272 43.4789 44.9273 43.3234C45.5641 43.204 46.207 43.1199 46.8531 43.0713C47.3959 43.0197 47.9453 43.0002 48.4946 43.0002C49.0439 43.0002 49.5867 43.0197 50.136 43.0649C50.7822 43.1156 51.4251 43.2019 52.0618 43.3234C52.9619 43.4789 53.8495 43.6992 54.7178 43.9825C55.6011 44.2621 56.4629 44.6056 57.2963 45.01L58.8409 45.7532L70.7964 51.5048L92.3033 61.8576Z" fill="url(#paint1_linear_20_2414)" stroke="black" stroke-width="3.31034" stroke-miterlimit="10"/>
<path d="M94.5634 48.0886C94.5641 50.7719 94.3334 53.4504 93.8737 56.0941C93.5002 58.2218 92.9747 60.3201 92.3013 62.3727L70.7951 52.0224L64.4503 48.9713L58.8392 46.2679L57.2944 45.523C56.4601 45.1223 55.5992 44.7795 54.7179 44.4968C53.8498 44.2159 52.963 43.9965 52.0641 43.8403C51.428 43.7156 50.785 43.629 50.1386 43.5809C49.5869 43.5368 49.0461 43.5147 48.4944 43.5147C47.9427 43.5147 47.3965 43.5368 46.8503 43.5865C46.204 43.6327 45.561 43.7174 44.9248 43.8403C44.0259 43.9965 43.1391 44.2159 42.271 44.4968C41.3932 44.7843 40.5345 45.127 39.7 45.523L38.1551 46.2679L32.5441 48.9713L26.2103 52.0224L4.69303 62.3727C4.01832 60.3167 3.49283 58.2147 3.12063 56.083C2.66071 53.4431 2.42996 50.7683 2.43097 48.0886C2.43044 45.407 2.66118 42.7304 3.12063 40.0886C4.04691 34.7935 5.90163 29.7037 8.59924 25.0541C11.285 20.4 14.7657 16.2527 18.8834 12.8003C22.9944 9.33759 27.6843 6.62754 32.7372 4.79477C37.7858 2.9512 43.1198 2.01176 48.4944 2.01958C53.8709 2.01225 59.2066 2.95167 64.2572 4.79477C69.3078 6.62886 73.9956 9.33881 78.1055 12.8003C82.2233 16.254 85.7056 20.401 88.3951 25.0541C91.0928 29.7037 92.9475 34.7934 93.8738 40.0886C94.3332 42.7304 94.5639 45.407 94.5634 48.0886Z" fill="url(#paint2_linear_20_2414)" stroke="black" stroke-width="3.31034" stroke-miterlimit="10"/>
<g style="mix-blend-mode:soft-light">
<path d="M62.5432 32.6514C61.9535 32.65 61.3884 32.4761 60.9715 32.1678C60.5546 31.8595 60.3197 31.4417 60.3182 31.0058V30.9187C60.3195 30.4827 60.5542 30.0648 60.9712 29.7564C61.3882 29.448 61.9534 29.2742 62.5432 29.2729H102.361C102.951 29.2741 103.517 29.4479 103.934 29.7563C104.352 30.0646 104.587 30.4826 104.589 30.9187V31.0058C104.587 31.4419 104.351 31.8597 103.934 32.168C103.517 32.4763 102.951 32.65 102.361 32.6514H88.8072C87.5827 32.6514 86.5808 33.2372 86.5808 33.9531C86.5808 34.6687 87.5827 35.2545 88.8072 35.2545H122.456C123.046 35.2557 123.611 35.4295 124.028 35.7379C124.445 36.0463 124.68 36.4642 124.682 36.9003V36.9877C124.68 37.4237 124.445 37.8414 124.028 38.1497C123.611 38.458 123.046 38.6318 122.456 38.6329H105.091C103.867 38.6329 102.864 39.2029 102.864 39.9003C102.864 40.597 103.867 41.1669 105.091 41.1669H105.296C105.885 41.1682 106.451 41.3421 106.868 41.6505C107.285 41.9589 107.52 42.3768 107.521 42.8128V42.9004C107.52 43.3364 107.285 43.7541 106.868 44.0623C106.45 44.3706 105.885 44.5444 105.296 44.5457H82.7653C82.1755 44.5443 81.6104 44.3706 81.1932 44.0623C80.7761 43.7541 80.5409 43.3364 80.539 42.9004V42.8128C80.5407 42.3767 80.7758 41.9589 81.1929 41.6505C81.6101 41.3421 82.1754 41.1683 82.7653 41.1669H88.4922C89.7162 41.1669 90.7181 40.597 90.7181 39.9003C90.7181 39.2029 89.7162 38.6329 88.4922 38.6329H69.5191C68.9292 38.6317 68.364 38.458 67.9468 38.1497C67.5297 37.8414 67.2945 37.4237 67.2927 36.9877V36.9003C67.2944 36.4642 67.5295 36.0463 67.9466 35.7379C68.3638 35.4296 68.9291 35.2558 69.5191 35.2545H72.2716C73.4961 35.2545 74.4975 34.6687 74.4975 33.9531C74.4975 33.2372 73.4961 32.6514 72.2716 32.6514H62.5432Z" fill="#FCDDEC"/>
</g>
<g style="mix-blend-mode:soft-light">
<path d="M-24.2372 33.3784C-24.837 33.377 -25.4116 33.2032 -25.8356 32.8949C-26.2596 32.5865 -26.4985 32.1688 -26.5 31.7328V31.6458C-26.4987 31.2098 -26.26 30.7919 -25.8359 30.4835C-25.4119 30.1751 -24.8371 30.0012 -24.2372 30H16.2558C16.8559 30.0012 17.431 30.1749 17.8554 30.4833C18.2798 30.7917 18.519 31.2096 18.5208 31.6458V31.7328C18.5187 32.1689 18.2794 32.5867 17.855 32.895C17.4307 33.2033 16.8558 33.3771 16.2558 33.3784H2.4719C1.22661 33.3784 0.207775 33.9642 0.207775 34.6802C0.207775 35.3957 1.22661 35.9816 2.4719 35.9816H36.6909C37.2908 35.9828 37.8657 36.1566 38.2899 36.465C38.7141 36.7734 38.953 37.1912 38.9545 37.6273V37.7147C38.9529 38.1507 38.7139 38.5685 38.2897 38.8768C37.8656 39.1851 37.2907 39.3588 36.6909 39.36H19.0318C17.7865 39.36 16.7668 39.9299 16.7668 40.6274C16.7668 41.324 17.7865 41.894 19.0318 41.894H19.2396C19.8396 41.8953 20.4145 42.0691 20.8386 42.3775C21.2628 42.6859 21.5017 43.1038 21.5033 43.5399V43.6275C21.5015 44.0634 21.2624 44.4811 20.8383 44.7894C20.4142 45.0976 19.8394 45.2714 19.2396 45.2727H-3.6724C-4.27223 45.2714 -4.84695 45.0976 -5.27114 44.7894C-5.69533 44.4811 -5.93453 44.0634 -5.93652 43.6275V43.5399C-5.93478 43.1038 -5.6957 42.6859 -5.27148 42.3776C-4.84726 42.0692 -4.27239 41.8953 -3.6724 41.894H2.15147C3.39631 41.894 4.41515 41.324 4.41515 40.6274C4.41515 39.9299 3.39631 39.36 2.15147 39.36H-17.1431C-17.743 39.3588 -18.3179 39.185 -18.7421 38.8768C-19.1663 38.5685 -19.4055 38.1507 -19.4073 37.7147V37.6273C-19.4056 37.1912 -19.1665 36.7734 -18.7423 36.465C-18.318 36.1566 -17.7431 35.9828 -17.1431 35.9816H-14.344C-13.0987 35.9816 -12.0803 35.3957 -12.0803 34.6802C-12.0803 33.9642 -13.0987 33.3784 -14.344 33.3784H-24.2372Z" fill="#FCDDEC"/>
</g>
<mask id="mask1_20_2414" style="mask-type:alpha" maskUnits="userSpaceOnUse" x="2" y="3" width="93" height="59">
<path d="M94.5 47.7044C94.5007 50.3899 94.2703 53.0705 93.8113 55.7163C93.4383 57.8458 92.9136 59.9457 92.2412 62L70.7659 51.6413L64.4302 48.5878L58.8272 45.8822L57.2846 45.1368C56.4515 44.7357 55.5919 44.3926 54.7118 44.1097C53.8449 43.8286 52.9594 41.6074 52.0618 41.451C51.4266 41.3263 50.7845 41.2396 50.139 41.1915C49.5881 41.1473 49.0482 41.1253 48.4972 41.1253C47.9463 41.1253 47.4009 41.1473 46.8555 41.197C46.2101 41.2433 45.568 41.3281 44.9327 41.451C44.0351 41.6074 42.879 42.3305 42.0122 42.6117C41.1356 42.8994 40.5487 44.7405 39.7154 45.1368L38.1728 45.8822L32.5698 48.5878L26.2451 51.6413L4.75881 62C4.08507 59.9423 3.56034 57.8386 3.18867 55.7053C2.72941 53.0632 2.499 50.3862 2.5 47.7044C2.49948 45.0207 2.72988 42.3419 3.18867 39.6979C4.11362 34.3986 5.96568 29.3047 8.65941 24.6513C11.3414 19.9935 14.817 15.8428 18.9287 12.3877C23.0339 8.92221 27.717 6.20999 32.7627 4.37574C37.804 2.53069 43.1303 3.07208 48.4972 3.0799C53.8659 3.07256 59.194 2.53115 64.2374 4.37574C69.2808 6.2113 73.9618 8.92343 78.0657 12.3877C82.1777 15.8442 85.655 19.9945 88.3406 24.6513C91.0344 29.3047 92.8864 34.3986 93.8114 39.6979C94.2701 42.3419 94.5005 45.0207 94.5 47.7044Z" fill="url(#paint3_linear_20_2414)"/>
</mask>
<g mask="url(#mask1_20_2414)">
<path d="M46.9058 40H51.0507V36.1834C56.0725 35.6822 59.5 32.9065 59.5 28.5888V28.5117C59.5 24.1939 56.9094 21.8423 50.8514 20.2617V14.4019C52.4855 14.8259 54.1993 15.6355 55.7935 16.6764L58.4638 12.1659C56.2717 10.7009 53.8804 9.69859 51.0507 9.35163V7H46.9058V9.23597C41.8841 9.73714 38.5362 12.5514 38.5362 16.7921V16.8692C38.5362 21.4568 41.3659 23.5386 47.1051 25.0421V31.1717C44.7536 30.7091 42.7609 29.6297 40.6087 28.0491L37.5 32.4439C40.1304 34.3715 43.4783 35.6822 46.9058 36.1063V40ZM53.6812 28.8201V28.8972C53.6812 30.285 52.7246 31.0946 50.8514 31.3645V25.9673C53.0036 26.7383 53.6812 27.5479 53.6812 28.8201ZM44.3551 16.5222V16.4451C44.3551 15.2114 45.1522 14.2862 47.1051 14.0549V19.2979C44.913 18.5269 44.3551 17.7558 44.3551 16.5222Z" fill="url(#paint4_linear_20_2414)"/>
<path d="M77.058 48H79.5072V45.8026C82.4746 45.514 84.5 43.9159 84.5 41.4299V41.3855C84.5 38.8995 82.9692 37.5456 79.3895 36.6355V33.2617C80.3551 33.5058 81.3678 33.972 82.3098 34.5713L83.8877 31.9743C82.5924 31.1308 81.1793 30.5537 79.5072 30.354V29H77.058V30.2874C74.0906 30.5759 72.1123 32.1963 72.1123 34.6378V34.6822C72.1123 37.3236 73.7844 38.5222 77.1757 39.3879V42.9171C75.7862 42.6507 74.6087 42.0292 73.337 41.1192L71.5 43.6495C73.0543 44.7593 75.0326 45.514 77.058 45.7582V48ZM81.0616 41.5631V41.6075C81.0616 42.4065 80.4964 42.8727 79.3895 43.028V39.9206C80.6612 40.3645 81.0616 40.8306 81.0616 41.5631ZM75.5507 34.4825V34.4381C75.5507 33.7278 76.0217 33.1951 77.1757 33.0619V36.0806C75.8804 35.6367 75.5507 35.1928 75.5507 34.4825Z" fill="url(#paint5_linear_20_2414)"/>
<path d="M18.058 46H20.5072V43.8026C23.4746 43.514 25.5 41.9159 25.5 39.4299V39.3855C25.5 36.8995 23.9692 35.5456 20.3895 34.6355V31.2617C21.3551 31.5058 22.3678 31.972 23.3098 32.5713L24.8877 29.9743C23.5924 29.1308 22.1793 28.5537 20.5072 28.354V27H18.058V28.2874C15.0906 28.5759 13.1123 30.1963 13.1123 32.6378V32.6822C13.1123 35.3236 14.7844 36.5222 18.1757 37.3879V40.9171C16.7862 40.6507 15.6087 40.0292 14.337 39.1192L12.5 41.6495C14.0543 42.7593 16.0326 43.514 18.058 43.7582V46ZM22.0616 39.5631V39.6075C22.0616 40.4065 21.4964 40.8727 20.3895 41.028V37.9206C21.6612 38.3645 22.0616 38.8306 22.0616 39.5631ZM16.5507 32.4825V32.4381C16.5507 31.7278 17.0217 31.1951 18.1757 31.0619V34.0806C16.8804 33.6367 16.5507 33.1928 16.5507 32.4825Z" fill="url(#paint6_linear_20_2414)"/>
</g>
</g>
</g>
<defs>
<linearGradient id="paint0_linear_20_2414" x1="49" y1="0" x2="49" y2="63.5692" gradientUnits="userSpaceOnUse">
<stop stop-color="#5611A3"/>
<stop offset="1" stop-color="#94227D"/>
</linearGradient>
<linearGradient id="paint1_linear_20_2414" x1="48.4978" y1="43.0002" x2="48.4978" y2="93.6398" gradientUnits="userSpaceOnUse">
<stop stop-color="#FFE0E3"/>
<stop offset="0.552083" stop-color="#F18C95"/>
<stop offset="1" stop-color="#E73E93"/>
</linearGradient>
<linearGradient id="paint2_linear_20_2414" x1="48.4972" y1="2.01953" x2="48.4972" y2="62.3727" gradientUnits="userSpaceOnUse">
<stop stop-color="#5611A3"/>
<stop offset="1" stop-color="#94227D"/>
</linearGradient>
<linearGradient id="paint3_linear_20_2414" x1="48.5" y1="1.59799" x2="48.5" y2="61.9997" gradientUnits="userSpaceOnUse">
<stop stop-color="#5611A3"/>
<stop offset="1" stop-color="#94227D"/>
</linearGradient>
<linearGradient id="paint4_linear_20_2414" x1="51.1513" y1="-0.700004" x2="71.411" y2="20.249" gradientUnits="userSpaceOnUse">
<stop stop-color="#FF99B9"/>
<stop offset="1" stop-color="#FFCEA0"/>
</linearGradient>
<linearGradient id="paint5_linear_20_2414" x1="79.5667" y1="24.5667" x2="91.2173" y2="36.9307" gradientUnits="userSpaceOnUse">
<stop stop-color="#FF99B9"/>
<stop offset="1" stop-color="#FFCEA0"/>
</linearGradient>
<linearGradient id="paint6_linear_20_2414" x1="20.5667" y1="22.5667" x2="32.2173" y2="34.9307" gradientUnits="userSpaceOnUse">
<stop stop-color="#FF99B9"/>
<stop offset="1" stop-color="#FFCEA0"/>
</linearGradient>
<clipPath id="clip0_20_2414">
<rect width="95.4483" height="96" fill="white" transform="translate(0.775879)"/>
</clipPath>
</defs>
</svg>
