<svg width="764" height="570" viewBox="0 0 764 570" fill="none" xmlns="http://www.w3.org/2000/svg">
<path d="M292.256 263.803C292.256 276.144 295.915 288.207 302.771 298.467C309.627 308.728 319.372 316.725 330.772 321.447C342.173 326.17 354.719 327.405 366.822 324.998C378.925 322.59 390.042 316.648 398.768 307.922C407.494 299.196 413.436 288.079 415.844 275.976C418.251 263.873 417.016 251.327 412.293 239.926C407.571 228.526 399.574 218.781 389.313 211.925C379.053 205.069 366.99 201.41 354.649 201.41C338.102 201.41 322.232 207.984 310.531 219.685C298.83 231.386 292.256 247.256 292.256 263.803Z" fill="url(#paint0_linear_1101_367)"/>
<path d="M757.878 249.689C757.878 240.212 752.235 233.637 742.827 234.778C735.253 235.696 726.671 237.371 721.649 239.494C711.726 243.691 707.591 247.888 699.322 248.727C691.053 249.567 692.706 256.282 682.783 257.961C672.86 259.639 664.591 260.479 658.802 261.318C653.014 262.157 625.725 272.23 615.802 277.266C605.879 282.302 604.225 278.106 592.648 280.624C581.071 283.142 573.629 283.142 565.359 288.178C557.09 293.214 519.051 289.017 510.782 291.535C506.408 292.867 485.147 292.79 466.086 292.422C448.958 292.091 435.143 306.573 436.579 323.645L451.806 504.604C452.927 517.926 463.142 528.687 476.389 530.499L725.455 564.565C742.603 566.911 757.878 553.583 757.878 536.276V249.689Z" fill="url(#paint1_linear_1101_367)"/>
<path d="M443.143 336.047C443.143 336.047 377.67 294.888 345.773 296.568C327.392 297.536 303.489 288.1 285.216 278.424C275.736 273.433 266.779 267.506 258.478 260.731C251.246 254.601 245.813 249.481 241.521 245.435C233.857 238.208 229.839 234.411 225.74 234.411C220.704 234.411 223.117 229.724 215.949 226.013C211.89 223.911 210.708 220.278 206.434 219.291C200.978 218.031 193.971 211.795 191.325 210.471C186.289 207.952 180.413 197.452 172.301 202.493C170.311 203.729 165.51 197.577 162.366 196.612C159.131 195.621 156.49 193.672 150.195 191.572C143.899 189.472 146.698 194.651 135.505 199.132C128.023 202.127 122.393 214.324 116.199 220.971C113.129 224.269 105.269 225.835 101.93 227.691C91.8568 233.29 77.1674 258.492 65.9766 265.211C54.7858 271.931 65.9766 515.521 65.9766 515.521H425.237L443.143 336.047Z" fill="white"/>
<path d="M37.0323 296.118C43.1128 292.467 79.1706 252.453 86.0154 243.998C89.3195 242.92 92.5348 241.587 95.6323 240.011C98.9898 237.77 102.347 234.411 109.063 234.971C115.778 235.53 119.135 228.251 123.052 226.012C126.969 223.772 133.685 222.092 142.079 222.652C150.473 223.212 153.831 232.171 161.105 232.732C168.379 233.292 173.976 231.611 181.25 229.931C188.525 228.251 183.488 231.611 189.085 235.531C194.682 239.451 191.323 237.771 198.038 237.771C204.753 237.771 209.231 238.891 214.826 243.371C220.422 247.85 224.899 249.531 230.494 247.851C236.09 246.171 234.972 246.73 242.806 252.331C246.891 254.638 251.156 256.609 255.56 258.227C256.501 259.044 257.468 259.875 258.478 260.731C266.779 267.506 275.736 273.433 285.216 278.424C303.489 288.1 327.392 297.536 345.773 296.568C377.67 294.888 443.143 336.047 443.143 336.047L425.237 515.521L28.5127 509.256C28.5127 509.256 25.8415 302.838 37.0323 296.118Z" fill="url(#paint2_linear_1101_367)"/>
<path d="M87.2401 360.409C87.2401 360.409 121.936 338.009 135.366 334.649C148.796 331.289 192.445 326.81 206.995 320.09C221.545 313.37 246.166 322.329 260.716 317.85C275.266 313.37 287.577 310.01 311.08 302.17C332.972 294.867 404.377 290.482 416.775 290.82L432.07 289.289C432.07 289.289 474.879 296.009 483.599 297.369C492.319 298.729 503.418 303.569 517.688 301.049C531.957 298.529 532.797 308.609 549.585 310.288C566.372 311.968 596.591 307.769 601.627 306.929C606.663 306.089 626.809 309.449 636.882 308.609C646.954 307.769 658.706 309.449 673.815 313.648C688.924 317.848 756.075 323.728 756.075 323.728L764 511.837L427.319 511.041L428.595 542.962H62.6191V370.488L87.2401 360.409Z" fill="url(#paint3_linear_1101_367)"/>
<path d="M520.772 414.289C520.772 414.289 415.897 370.625 394.33 366.206C372.764 361.787 318.175 351.243 302.285 349.034C286.393 346.824 255.747 335.776 243.262 337.986C230.777 340.196 202.402 349.034 186.51 346.824C170.618 344.615 168.149 344.015 155.864 339.092C136.568 331.358 127.487 315.893 108.193 309.265C88.8974 302.637 42.4914 289.273 21.6009 295.685C0.710415 302.096 9.88273 461.208 9.88273 461.208V567.885L427.139 560.024L520.772 414.289Z" fill="#FF80AB"/>
<path d="M575.763 398.799C575.763 398.799 394.083 407.318 363.071 395.618C332.059 383.917 280.782 378.801 259.402 390.502C238.023 402.202 226.141 408.888 206.892 413.903C187.643 418.917 160.089 413.903 137.384 420.589C114.68 427.275 88.1295 437.304 76.3777 437.304C64.626 437.304 17.3952 452.347 17.3952 452.347V550.965H425.113L575.763 398.799Z" fill="#FFEBC4"/>
<path d="M170.405 75.569C167.282 75.5627 164.29 74.7067 162.082 73.1881C159.874 71.6695 158.629 69.6116 158.62 67.464V67.0329C158.629 64.8855 159.874 62.8279 162.082 61.3096C164.29 59.7913 167.283 58.9357 170.405 58.9296H306.61C313.091 58.9296 318.395 56.0439 318.395 52.5188C318.395 48.9912 313.091 46.1061 306.61 46.1061H242.496C239.374 46.0998 236.382 45.2441 234.173 43.7259C231.965 42.2076 230.72 40.1501 230.71 38.0028V37.5694C230.719 35.4215 231.964 33.3634 234.172 31.8445C236.38 30.3256 239.373 29.4692 242.496 29.4627H274.907C281.39 29.4627 286.692 26.5779 286.692 23.0528C286.692 19.5269 281.39 16.6425 274.907 16.6425H225.535C222.412 16.6357 219.42 15.7794 217.212 14.2605C215.004 12.7416 213.76 10.6835 213.751 8.53587V8.10657C213.76 5.95894 215.004 3.90088 217.212 2.38197C219.419 0.863054 222.412 0.00668887 225.535 0H372.855C375.979 0.00646287 378.972 0.862641 381.181 2.38146C383.39 3.90027 384.635 5.95841 384.646 8.10657V8.53587C384.635 10.684 383.39 12.7422 381.181 14.261C378.972 15.7798 375.979 16.6359 372.855 16.6425H356.226C349.744 16.6425 344.443 19.5269 344.443 23.0528C344.443 26.5779 349.744 29.4627 356.226 29.4627H428.64C431.763 29.4695 434.756 30.3258 436.964 31.8446C439.173 33.3634 440.418 35.4215 440.428 37.5694V38.0028C440.417 40.1502 439.172 42.2076 436.963 43.7258C434.755 45.2439 431.763 46.0996 428.64 46.1061H408.086C401.604 46.1061 396.298 48.9912 396.298 52.5188C396.298 56.0439 401.604 58.9296 408.086 58.9296H483.121C486.244 58.9356 489.236 59.7912 491.445 61.3095C493.654 62.8278 494.899 64.8853 494.909 67.0329V67.464C494.899 69.6118 493.654 71.6697 491.445 73.1883C489.237 74.7069 486.244 75.5627 483.121 75.569H349.934C343.453 75.569 338.149 78.3782 338.149 81.8102C338.149 85.243 343.453 88.0513 349.934 88.0513H351.515C354.638 88.0578 357.63 88.9134 359.838 90.4317C362.046 91.9499 363.291 94.0073 363.301 96.1546V96.5881C363.292 98.7358 362.047 100.794 359.839 102.312C357.631 103.831 354.638 104.687 351.515 104.694H204.195C201.072 104.687 198.079 103.831 195.87 102.313C193.661 100.794 192.415 98.7361 192.405 96.5881V96.1546C192.416 94.007 193.662 91.9495 195.871 90.4314C198.08 88.9132 201.072 88.0577 204.195 88.0513H248.458C254.942 88.0513 260.246 85.243 260.246 81.8102C260.246 78.3782 254.942 75.569 248.458 75.569H170.405Z" fill="url(#paint4_linear_1101_367)"/>
<path d="M546.493 310.044C546.493 310.044 567.113 317.196 559.128 337.882C551.142 358.569 540.097 356.721 538.353 369.451C536.608 382.18 542.422 380.983 535.497 391.506C528.572 402.028 515.065 401.173 515.833 413.748C516.602 426.325 518.45 456.507 518.45 456.507L515.268 528.233L712.568 519.768C712.568 519.768 718.997 449.271 712.568 440.408C706.14 431.544 698.975 424.409 700.24 417.599C701.506 410.789 705.721 408.32 696.424 402C687.126 395.682 682.681 391.746 681.535 386.767C680.39 381.788 673.239 378.702 677.379 368.849C681.518 358.997 676.08 352.598 673.208 346.883C670.336 341.168 659.085 335.967 651.288 332.237C643.492 328.506 648.317 323.097 635.518 319.304C628.733 317.248 621.839 315.567 614.869 314.27C597.018 311.156 546.493 310.044 546.493 310.044Z" fill="#FFEBC4"/>
<path fill-rule="evenodd" clip-rule="evenodd" d="M746.13 294.986C752.338 293.697 757.878 298.58 757.878 304.92V559.425C757.878 565.265 753.143 570 747.302 570L440.96 570C440.96 570 440.959 570 440.957 570H406.453C405.632 570 404.834 569.907 404.067 569.73C299.362 568.997 7.87756 567.207 7.87756 570V462.206C7.87756 462.206 28.8602 458.802 45.1812 456.532C53.0948 455.432 66.7627 451.397 79.8549 447.532C93.7642 443.426 107.024 439.512 112.043 439.512C120.435 439.512 121.845 438.67 129.522 434.086C130.758 433.348 132.157 432.513 133.773 431.569C140.963 427.37 141.057 429.646 141.144 431.741C141.198 433.042 141.249 434.274 142.996 433.839C148.512 432.466 150.385 430.704 152.914 428.324C154.611 426.729 156.602 424.855 160.184 422.635C166.677 418.613 175.654 419.766 186.276 421.13C190.257 421.641 194.469 422.182 198.868 422.492C215.003 423.626 239.853 417.953 252.214 409.137C259.785 403.737 260.878 404.854 262.577 406.588C263.651 407.686 264.968 409.03 268.32 409.128C274.669 409.313 278.341 406.646 283.445 402.938C285.295 401.594 287.334 400.114 289.757 398.582C296.011 394.629 301.479 397.217 307.723 400.172C310.567 401.518 313.573 402.941 316.888 403.856C323.29 405.622 323.115 410.474 323.005 413.535C322.933 415.538 322.889 416.774 324.733 415.876C329.394 413.606 358.716 411.282 381.302 416.955C403.312 422.484 444.572 430.567 446.663 430.975C458.799 424.161 472.967 417.795 483.689 416.898C494.585 415.987 507.424 414.67 518.213 407.854C526.943 402.34 536.677 397.281 549.1 396.543C566.355 395.519 574.275 389.851 581.45 384.716C585.825 381.584 589.924 378.651 595.694 377.089C603.348 375.018 609.419 373.78 616.27 372.382C623.054 370.998 630.603 369.458 641.212 366.798C645.483 365.728 648.769 364.971 651.43 364.357C662.058 361.906 662.723 361.753 676.338 353.182C686.004 347.097 686.138 341.809 686.252 337.319C686.339 333.9 686.414 330.944 690.675 328.45C693.763 326.642 695.883 325.724 697.587 324.986C701.323 323.369 703.058 322.618 708.595 315.259C716.438 304.837 719.196 303.77 729.827 299.659C730.128 299.542 730.436 299.424 730.75 299.302C735.608 297.421 741.252 295.999 746.13 294.986Z" fill="url(#paint5_linear_1101_367)"/>
<path d="M11.6476 429.043C8.75995 429.036 5.99335 428.17 3.95206 426.633C1.91078 425.095 0.760713 423.013 0.753191 420.839V420.405C0.759377 418.232 1.90895 416.148 3.95049 414.611C5.99203 413.073 8.75944 412.207 11.6476 412.2H206.606C209.496 412.206 212.264 413.072 214.308 414.61C216.351 416.147 217.503 418.231 217.511 420.405V420.839C217.501 423.013 216.349 425.096 214.306 426.633C212.263 428.17 209.495 429.037 206.606 429.043H140.242C134.247 429.043 129.341 431.964 129.341 435.533C129.341 439.1 134.247 442.021 140.242 442.021H304.994C307.882 442.027 310.65 442.893 312.693 444.431C314.735 445.968 315.885 448.052 315.892 450.226V450.662C315.884 452.835 314.734 454.918 312.692 456.455C310.649 457.992 307.882 458.858 304.994 458.864H219.972C213.976 458.864 209.067 461.705 209.067 465.182C209.067 468.655 213.976 471.497 219.972 471.497H220.973C223.861 471.503 226.629 472.37 228.671 473.908C230.713 475.445 231.864 477.528 231.871 479.702V480.139C231.862 482.312 230.711 484.395 228.669 485.932C226.627 487.469 223.86 488.335 220.973 488.341H110.66C107.772 488.335 105.005 487.468 102.962 485.932C100.92 484.395 99.7683 482.313 99.7587 480.139V479.702C99.7671 477.528 100.918 475.445 102.961 473.908C105.003 472.37 107.771 471.504 110.66 471.497H138.699C144.693 471.497 149.598 468.655 149.598 465.182C149.598 461.705 144.693 458.864 138.699 458.864H45.8031C42.9149 458.858 40.1472 457.992 38.1047 456.455C36.0622 454.918 34.9109 452.835 34.9022 450.662V450.226C34.9102 448.052 36.0612 445.968 38.1038 444.431C40.1463 442.894 42.9143 442.027 45.8031 442.021H59.2799C65.2755 442.021 70.1786 439.1 70.1786 435.533C70.1786 431.964 65.2755 429.043 59.2799 429.043H11.6476Z" fill="#FFE3F1"/>
<path d="M590.428 169.082C654.034 169.082 692.663 162.454 692.663 162.454L690.13 169.771L682.598 171.367L679.269 176.003L660.804 188.899H651.832V193.538L647.795 197.955L647.792 203.933H667.828C667.615 205.225 667.519 206.534 667.541 207.844L662.904 215.672H647.79L647.775 270.433L650.523 280.133V316.445H635.465V280.133L638.212 270.429V215.672H542.644L542.641 270.429L545.394 280.133V316.445H530.334V280.133L533.08 270.433L533.069 215.672H517.952L513.319 207.844C513.338 206.534 513.242 205.226 513.03 203.933H533.064V197.955L529.026 193.538V188.899H520.052L501.587 176.003L498.257 171.367L490.729 169.771L488.196 162.454C488.196 162.454 526.819 169.082 590.428 169.082ZM638.209 191.928L634.195 187.509V182.872H598.465V197.903H638.209V191.928ZM582.103 197.903V182.872H546.661V187.509L542.644 191.928V197.903H582.103Z" fill="#7E1C8B"/>
<defs>
<linearGradient id="paint0_linear_1101_367" x1="435.766" y1="123.115" x2="164.383" y2="328.377" gradientUnits="userSpaceOnUse">
<stop stop-color="#FFFBF8"/>
<stop offset="1" stop-color="#F49DA4"/>
</linearGradient>
<linearGradient id="paint1_linear_1101_367" x1="562.725" y1="380.163" x2="751.664" y2="395.771" gradientUnits="userSpaceOnUse">
<stop stop-color="#FD3F83"/>
<stop offset="1" stop-color="#FD3F83" stop-opacity="0"/>
</linearGradient>
<linearGradient id="paint2_linear_1101_367" x1="235.688" y1="222.543" x2="235.688" y2="515.521" gradientUnits="userSpaceOnUse">
<stop stop-color="#FF7962"/>
<stop offset="1" stop-color="#AA00FF"/>
</linearGradient>
<linearGradient id="paint3_linear_1101_367" x1="672.525" y1="399.212" x2="738.378" y2="410.5" gradientUnits="userSpaceOnUse">
<stop stop-color="#8E44B3"/>
<stop offset="0.718376" stop-color="#8E44B3" stop-opacity="0"/>
</linearGradient>
<linearGradient id="paint4_linear_1101_367" x1="286.237" y1="-24.4286" x2="210.292" y2="264.265" gradientUnits="userSpaceOnUse">
<stop stop-color="#63159B"/>
<stop offset="1" stop-color="#F49DA4"/>
</linearGradient>
<linearGradient id="paint5_linear_1101_367" x1="697.378" y1="508" x2="760.378" y2="508" gradientUnits="userSpaceOnUse">
<stop stop-color="#360959"/>
<stop offset="1" stop-color="#360959" stop-opacity="0"/>
</linearGradient>
</defs>
</svg>
