<svg width="1210" height="821" viewBox="0 0 1210 821" fill="none" xmlns="http://www.w3.org/2000/svg">
<path d="M835.999 637.695L825.059 621.756L866.468 625.803C988.815 576.369 884.542 633.284 916.056 588.223H941.201C941.201 588.223 945.791 630.542 928.127 619.434C918.234 641.454 852.812 644.616 835.999 637.695Z" fill="url(#paint0_linear_401_333)"/>
<path d="M928.126 619.434V604.588L918.234 611.022C929.804 605.358 938.944 590.517 940.945 588.223H967.647C999.325 609.491 1023.92 619.038 1046.14 622.895L1080.9 613.549L1069.96 631.676C1046.61 639.921 952.922 644.629 928.126 619.434Z" fill="url(#paint1_linear_401_333)"/>
<path d="M856.692 601.789H945.549V711.502H856.692V601.789Z" fill="#DDD3D4"/>
<path d="M945.549 601.789H1055.7V711.502H945.549V601.789Z" fill="#FDFDFD"/>
<path d="M992.473 660.956H1009.99V708.316H992.473V660.956Z" fill="#272747"/>
<path d="M1009.99 660.956H1015.37V708.316H1009.99V660.956Z" fill="#FFBA78"/>
<path d="M987.091 660.956H992.473V708.316H987.091V660.956Z" fill="#FFBA78"/>
<path d="M966.345 673.419V660.956H980.927V673.419H966.345Z" fill="#FFBA78"/>
<path d="M1021.24 673.419V660.956H1035.82V673.419H1021.24Z" fill="#FFBA78"/>
<path d="M1040.26 601.789H1055.7V711.502H1040.26V601.789Z" fill="url(#paint2_linear_401_333)"/>
<path d="M945.549 601.789H960.992V711.502H945.549V601.789Z" fill="url(#paint3_linear_401_333)"/>
<path d="M945.072 634.97H1055.7V642.98H945.072V634.97Z" fill="url(#paint4_linear_401_333)"/>
<path d="M996.383 639.447V617.168H1004.39V639.447H996.383Z" fill="url(#paint5_linear_401_333)"/>
<path d="M856.692 601.789H872.135V711.502H856.692V601.789Z" fill="url(#paint6_linear_401_333)"/>
<path d="M930.106 601.789H945.549V711.502H930.106V601.789Z" fill="url(#paint7_linear_401_333)"/>
<path d="M856.692 634.97H945.072V642.98H856.692V634.97Z" fill="url(#paint8_linear_401_333)"/>
<path d="M815.562 625.891L802.69 607.137L851.412 611.899C995.365 553.735 872.678 620.701 909.757 567.682H939.342C939.342 567.682 944.743 617.475 923.959 604.404C912.319 630.313 835.344 634.034 815.562 625.891Z" fill="url(#paint9_linear_401_333)"/>
<path d="M923.959 604.404V586.937L912.32 594.507C925.933 587.843 936.686 570.381 939.041 567.682H970.459C1007.73 592.706 1036.66 603.939 1062.81 608.477L1103.71 597.481L1090.83 618.809C1063.36 628.509 953.134 634.049 923.959 604.404Z" fill="url(#paint10_linear_401_333)"/>
<path d="M794.667 608.395V593.689L847.331 598.837C872.194 588.734 893.95 572.247 910.398 551.041H942.378C942.378 551.041 946.132 600.377 923.666 586.249C915.144 619.836 815.777 621.459 794.667 608.395Z" fill="#0D0D1E"/>
<path d="M923.666 586.249V571.542L913.168 580.037C927.883 572.834 939.507 553.958 942.052 551.041H976.012C1016.3 578.09 1047.57 590.233 1075.84 595.138L1120.04 583.251V597.958C1089.57 618.75 950.473 625.321 923.666 586.249Z" fill="#1C1C35"/>
<path d="M794.667 593.689C842.836 602.138 916.834 536.335 916.834 536.335H942.378C942.378 536.335 946.132 585.671 923.666 571.543C915.144 605.13 815.777 606.753 794.667 593.689Z" fill="#1C1C35"/>
<path d="M923.666 571.543C945.036 576.069 942.052 536.335 942.052 536.335H976.012C1038.11 578.025 1078.79 584.305 1120.04 583.252C1089.57 604.044 950.473 610.615 923.666 571.543Z" fill="#272747"/>
<path d="M1070.87 689.972H945.549V686.165H1070.87V689.972Z" fill="url(#paint11_linear_401_333)"/>
<path d="M1070.87 701.217H945.549V697.41H1070.87V701.217Z" fill="url(#paint12_linear_401_333)"/>
<path d="M1070.87 711.502H945.549V707.695H1070.87V711.502Z" fill="url(#paint13_linear_401_333)"/>
<path d="M990.337 711.502H985.817V688.068H990.337V711.502Z" fill="url(#paint14_linear_401_333)"/>
<path d="M950.069 711.502H945.549V688.068H950.069V711.502Z" fill="url(#paint15_linear_401_333)"/>
<path d="M1030.61 711.502H1026.08V688.068H1030.61V711.502Z" fill="url(#paint16_linear_401_333)"/>
<path d="M1070.87 711.502H1066.35V688.068H1070.87V711.502Z" fill="url(#paint17_linear_401_333)"/>
<path d="M945.549 689.972H843.394V686.165H945.549V689.972Z" fill="url(#paint18_linear_401_333)"/>
<path d="M945.549 701.217H843.394V697.41H945.549V701.217Z" fill="url(#paint19_linear_401_333)"/>
<path d="M945.549 711.502H843.394V707.695H945.549V711.502Z" fill="url(#paint20_linear_401_333)"/>
<path d="M880.459 711.502H875.938V688.068H880.459V711.502Z" fill="url(#paint21_linear_401_333)"/>
<path d="M847.914 711.502H843.394V688.068H847.914V711.502Z" fill="url(#paint22_linear_401_333)"/>
<path d="M913.004 711.502H908.483V688.068H913.004V711.502Z" fill="url(#paint23_linear_401_333)"/>
<path d="M945.549 711.502H941.028V688.068H945.549V711.502Z" fill="url(#paint24_linear_401_333)"/>
<path d="M835.999 502.027L825.059 486.087L866.468 490.135C988.815 440.701 884.542 497.615 916.056 452.554H941.201C941.201 452.554 945.791 494.874 928.127 483.765C918.234 505.785 852.812 508.948 835.999 502.027Z" fill="url(#paint25_linear_401_333)"/>
<path d="M928.126 483.765V468.92L918.234 475.353C929.804 469.689 938.944 454.848 940.945 452.554H967.647C999.325 473.822 1023.92 483.37 1046.14 487.227L1080.9 477.88L1069.96 496.008C1046.61 504.252 952.922 508.96 928.126 483.765Z" fill="url(#paint26_linear_401_333)"/>
<path d="M856.692 466.121H945.548V575.834H856.692V466.121Z" fill="#DDD3D4"/>
<path d="M945.548 466.121H1055.7V575.834H945.548V466.121Z" fill="#FDFDFD"/>
<path d="M992.473 525.287H1009.99V572.647H992.473V525.287Z" fill="#272747"/>
<path d="M1009.99 525.287H1015.37V572.647H1009.99V525.287Z" fill="#FFBA78"/>
<path d="M987.091 525.287H992.473V572.647H987.091V525.287Z" fill="#FFBA78"/>
<path d="M966.345 537.75V525.287H980.927V537.75H966.345Z" fill="#FFBA78"/>
<path d="M1021.24 537.75V525.287H1035.82V537.75H1021.24Z" fill="#FFBA78"/>
<path d="M1040.26 466.121H1055.7V575.834H1040.26V466.121Z" fill="url(#paint27_linear_401_333)"/>
<path d="M945.548 466.121H960.991V575.834H945.548V466.121Z" fill="url(#paint28_linear_401_333)"/>
<path d="M945.071 499.302H1055.7V507.312H945.071V499.302Z" fill="url(#paint29_linear_401_333)"/>
<path d="M996.383 503.778V481.5H1004.39V503.778H996.383Z" fill="url(#paint30_linear_401_333)"/>
<path d="M856.692 466.121H872.135V575.834H856.692V466.121Z" fill="url(#paint31_linear_401_333)"/>
<path d="M930.106 466.121H945.549V575.834H930.106V466.121Z" fill="url(#paint32_linear_401_333)"/>
<path d="M856.692 499.302H945.072V507.312H856.692V499.302Z" fill="url(#paint33_linear_401_333)"/>
<path d="M815.562 490.222L802.69 471.468L851.412 476.23C995.365 418.066 872.678 485.031 909.757 432.013H939.342C939.342 432.013 944.743 481.806 923.959 468.735C912.319 494.645 835.344 498.365 815.562 490.222Z" fill="url(#paint34_linear_401_333)"/>
<path d="M923.959 468.735V451.269L912.32 458.838C925.933 452.174 936.686 434.712 939.041 432.013H970.459C1007.73 457.037 1036.66 468.27 1062.81 472.808L1103.71 461.812L1090.83 483.14C1063.36 492.841 953.134 498.38 923.959 468.735Z" fill="url(#paint35_linear_401_333)"/>
<path d="M794.667 472.727V458.021L847.331 463.168C872.194 453.066 893.95 436.579 910.398 415.373H942.378C942.378 415.373 946.132 464.708 923.666 450.58C915.144 484.168 815.777 485.791 794.667 472.727Z" fill="#0D0D1E"/>
<path d="M923.666 450.58V435.874L913.168 444.369C927.883 437.165 939.507 418.29 942.052 415.373H976.012C1016.3 442.421 1047.57 454.564 1075.84 459.469L1120.04 447.583V462.289C1089.57 483.082 950.473 489.652 923.666 450.58Z" fill="#1C1C35"/>
<path d="M794.667 458.02C842.836 466.469 916.834 400.667 916.834 400.667H942.378C942.378 400.667 946.132 450.002 923.666 435.874C915.144 469.462 815.777 471.084 794.667 458.02Z" fill="#1C1C35"/>
<path d="M923.666 435.874C945.036 440.4 942.052 400.667 942.052 400.667H976.012C1038.11 442.356 1078.79 448.636 1120.04 447.583C1089.57 468.375 950.473 474.946 923.666 435.874Z" fill="#272747"/>
<path d="M1070.87 554.303H945.549V550.497H1070.87V554.303Z" fill="url(#paint36_linear_401_333)"/>
<path d="M1070.87 565.548H945.549V561.742H1070.87V565.548Z" fill="url(#paint37_linear_401_333)"/>
<path d="M1070.87 575.833H945.549V572.027H1070.87V575.833Z" fill="url(#paint38_linear_401_333)"/>
<path d="M990.337 575.833H985.817V552.4H990.337V575.833Z" fill="url(#paint39_linear_401_333)"/>
<path d="M950.069 575.833H945.549V552.4H950.069V575.833Z" fill="url(#paint40_linear_401_333)"/>
<path d="M1030.61 575.833H1026.08V552.4H1030.61V575.833Z" fill="url(#paint41_linear_401_333)"/>
<path d="M1070.87 575.833H1066.35V552.4H1070.87V575.833Z" fill="url(#paint42_linear_401_333)"/>
<path d="M945.549 554.303H843.394V550.497H945.549V554.303Z" fill="url(#paint43_linear_401_333)"/>
<path d="M945.549 565.548H843.394V561.742H945.549V565.548Z" fill="url(#paint44_linear_401_333)"/>
<path d="M945.549 575.833H843.394V572.027H945.549V575.833Z" fill="url(#paint45_linear_401_333)"/>
<path d="M880.459 575.833H875.938V552.4H880.459V575.833Z" fill="url(#paint46_linear_401_333)"/>
<path d="M847.914 575.833H843.394V552.4H847.914V575.833Z" fill="url(#paint47_linear_401_333)"/>
<path d="M913.004 575.833H908.483V552.4H913.004V575.833Z" fill="url(#paint48_linear_401_333)"/>
<path d="M945.549 575.833H941.028V552.4H945.549V575.833Z" fill="url(#paint49_linear_401_333)"/>
<path d="M835.999 366.357L825.059 350.418L866.468 354.466C988.815 305.031 884.542 361.946 916.056 316.885H941.201C941.201 316.885 945.791 359.204 928.127 348.096C918.234 370.116 852.812 373.278 835.999 366.357Z" fill="url(#paint50_linear_401_333)"/>
<path d="M928.126 348.096V333.251L918.234 339.684C929.804 334.02 938.944 319.179 940.945 316.885H967.647C999.325 338.153 1023.92 347.7 1046.14 351.557L1080.9 342.211L1069.96 360.338C1046.61 368.583 952.922 373.291 928.126 348.096Z" fill="url(#paint51_linear_401_333)"/>
<path d="M856.692 330.451H945.549V440.164H856.692V330.451Z" fill="#DDD3D4"/>
<path d="M945.549 330.451H1055.7V440.164H945.549V330.451Z" fill="#FDFDFD"/>
<path d="M992.473 389.617H1009.99V436.978H992.473V389.617Z" fill="#272747"/>
<path d="M1009.99 389.617H1015.37V436.978H1009.99V389.617Z" fill="#FFBA78"/>
<path d="M987.091 389.617H992.473V436.978H987.091V389.617Z" fill="#FFBA78"/>
<path d="M966.345 402.081V389.617H980.927V402.081H966.345Z" fill="#FFBA78"/>
<path d="M1021.24 402.081V389.617H1035.82V402.081H1021.24Z" fill="#FFBA78"/>
<path d="M1040.26 330.451H1055.7V440.164H1040.26V330.451Z" fill="url(#paint52_linear_401_333)"/>
<path d="M945.549 330.451H960.992V440.164H945.549V330.451Z" fill="url(#paint53_linear_401_333)"/>
<path d="M945.072 363.632H1055.7V371.642H945.072V363.632Z" fill="url(#paint54_linear_401_333)"/>
<path d="M996.383 368.109V345.83H1004.39V368.109H996.383Z" fill="url(#paint55_linear_401_333)"/>
<path d="M856.692 330.451H872.135V440.164H856.692V330.451Z" fill="url(#paint56_linear_401_333)"/>
<path d="M930.106 330.451H945.549V440.164H930.106V330.451Z" fill="url(#paint57_linear_401_333)"/>
<path d="M856.692 363.632H945.072V371.642H856.692V363.632Z" fill="url(#paint58_linear_401_333)"/>
<path d="M815.562 354.553L802.69 335.799L851.412 340.561C995.365 282.397 872.678 349.363 909.757 296.344H939.342C939.342 296.344 944.743 346.137 923.959 333.066C912.319 358.976 835.344 362.696 815.562 354.553Z" fill="url(#paint59_linear_401_333)"/>
<path d="M923.959 333.066V315.6L912.32 323.169C925.933 316.505 936.686 299.043 939.041 296.344H970.459C1007.73 321.368 1036.66 332.601 1062.81 337.139L1103.71 326.143L1090.83 347.471C1063.36 357.172 953.134 362.711 923.959 333.066Z" fill="url(#paint60_linear_401_333)"/>
<path d="M794.667 337.057V322.351L847.331 327.499C872.194 317.396 893.95 300.909 910.398 279.703H942.378C942.378 279.703 946.132 329.039 923.666 314.911C915.144 348.498 815.777 350.121 794.667 337.057Z" fill="#0D0D1E"/>
<path d="M923.666 314.911V300.205L913.168 308.699C927.883 301.496 939.507 282.621 942.052 279.703H976.012C1016.3 306.752 1047.57 318.895 1075.84 323.8L1120.04 311.913V326.62C1089.57 347.412 950.473 353.983 923.666 314.911Z" fill="#1C1C35"/>
<path d="M794.667 322.351C842.836 330.8 916.834 264.997 916.834 264.997H942.378C942.378 264.997 946.132 314.333 923.666 300.205C915.144 333.792 815.777 335.415 794.667 322.351Z" fill="#1C1C35"/>
<path d="M923.666 300.205C945.036 304.731 942.052 264.997 942.052 264.997H976.012C1038.11 306.687 1078.79 312.967 1120.04 311.914C1089.57 332.706 950.473 339.277 923.666 300.205Z" fill="#272747"/>
<path d="M1070.87 418.634H945.549V414.827H1070.87V418.634Z" fill="url(#paint61_linear_401_333)"/>
<path d="M1070.87 429.879H945.549V426.072H1070.87V429.879Z" fill="url(#paint62_linear_401_333)"/>
<path d="M1070.87 440.164H945.549V436.358H1070.87V440.164Z" fill="url(#paint63_linear_401_333)"/>
<path d="M990.337 440.164H985.817V416.731H990.337V440.164Z" fill="url(#paint64_linear_401_333)"/>
<path d="M950.069 440.164H945.549V416.731H950.069V440.164Z" fill="url(#paint65_linear_401_333)"/>
<path d="M1030.61 440.164H1026.08V416.731H1030.61V440.164Z" fill="url(#paint66_linear_401_333)"/>
<path d="M1070.87 440.164H1066.35V416.731H1070.87V440.164Z" fill="url(#paint67_linear_401_333)"/>
<path d="M945.549 418.634H843.394V414.827H945.549V418.634Z" fill="url(#paint68_linear_401_333)"/>
<path d="M945.549 429.879H843.394V426.072H945.549V429.879Z" fill="url(#paint69_linear_401_333)"/>
<path d="M945.549 440.164H843.394V436.358H945.549V440.164Z" fill="url(#paint70_linear_401_333)"/>
<path d="M880.459 440.164H875.938V416.731H880.459V440.164Z" fill="url(#paint71_linear_401_333)"/>
<path d="M847.915 440.164H843.394V416.731H847.915V440.164Z" fill="url(#paint72_linear_401_333)"/>
<path d="M913.004 440.164H908.483V416.731H913.004V440.164Z" fill="url(#paint73_linear_401_333)"/>
<path d="M945.549 440.164H941.028V416.731H945.549V440.164Z" fill="url(#paint74_linear_401_333)"/>
<path d="M835.999 230.689L825.059 214.75L866.468 218.797C988.815 169.363 884.542 226.277 916.056 181.217H941.201C941.201 181.217 945.791 223.536 928.127 212.427C918.234 234.448 852.812 237.61 835.999 230.689Z" fill="url(#paint75_linear_401_333)"/>
<path d="M928.126 212.427V197.582L918.234 204.015C929.804 198.351 938.944 183.51 940.945 181.217H967.647C999.325 202.484 1023.92 212.032 1046.14 215.889L1080.9 206.543L1069.96 224.67C1046.61 232.914 952.922 237.622 928.126 212.427Z" fill="url(#paint76_linear_401_333)"/>
<path d="M856.692 194.783H945.549V304.496H856.692V194.783Z" fill="#DDD3D4"/>
<path d="M945.549 194.783H1055.7V304.496H945.549V194.783Z" fill="#FDFDFD"/>
<path d="M992.473 253.949H1009.99V301.309H992.473V253.949Z" fill="#272747"/>
<path d="M1009.99 253.949H1015.37V301.309H1009.99V253.949Z" fill="#FFBA78"/>
<path d="M987.091 253.949H992.473V301.309H987.091V253.949Z" fill="#FFBA78"/>
<path d="M966.345 266.412V253.949H980.927V266.412H966.345Z" fill="#FFBA78"/>
<path d="M1021.24 266.412V253.949H1035.82V266.412H1021.24Z" fill="#FFBA78"/>
<path d="M1040.26 194.783H1055.7V304.496H1040.26V194.783Z" fill="url(#paint77_linear_401_333)"/>
<path d="M945.549 194.783H960.992V304.496H945.549V194.783Z" fill="url(#paint78_linear_401_333)"/>
<path d="M945.072 227.964H1055.7V235.974H945.072V227.964Z" fill="url(#paint79_linear_401_333)"/>
<path d="M996.383 232.44V210.162H1004.39V232.44H996.383Z" fill="url(#paint80_linear_401_333)"/>
<path d="M856.692 194.783H872.135V304.496H856.692V194.783Z" fill="url(#paint81_linear_401_333)"/>
<path d="M930.106 194.783H945.549V304.496H930.106V194.783Z" fill="url(#paint82_linear_401_333)"/>
<path d="M856.692 227.964H945.072V235.974H856.692V227.964Z" fill="url(#paint83_linear_401_333)"/>
<path d="M815.562 218.884L802.69 200.13L851.412 204.893C995.365 146.728 872.678 213.694 909.757 160.675H939.342C939.342 160.675 944.743 210.468 923.959 197.398C912.319 223.307 835.344 227.028 815.562 218.884Z" fill="url(#paint84_linear_401_333)"/>
<path d="M923.959 197.398V179.931L912.32 187.5C925.933 180.836 936.686 163.374 939.041 160.675H970.459C1007.73 185.699 1036.66 196.933 1062.81 201.471L1103.71 190.474L1090.83 211.802C1063.36 221.503 953.134 227.042 923.959 197.398Z" fill="url(#paint85_linear_401_333)"/>
<path d="M794.667 201.389V186.683L847.331 191.83C872.194 181.728 893.95 165.24 910.398 144.035H942.378C942.378 144.035 946.132 193.37 923.666 179.242C915.144 212.83 815.777 214.452 794.667 201.389Z" fill="#0D0D1E"/>
<path d="M923.666 179.242V164.536L913.168 173.03C927.883 165.827 939.507 146.952 942.052 144.035H976.012C1016.3 171.083 1047.57 183.226 1075.84 188.131L1120.04 176.245V190.951C1089.57 211.743 950.473 218.314 923.666 179.242Z" fill="#1C1C35"/>
<path d="M794.667 186.683C842.836 195.131 916.834 129.329 916.834 129.329H942.378C942.378 129.329 946.132 178.664 923.666 164.536C915.144 198.124 815.777 199.746 794.667 186.683Z" fill="#1C1C35"/>
<path d="M923.666 164.536C945.036 169.062 942.052 129.329 942.052 129.329H976.012C1038.11 171.018 1078.79 177.298 1120.04 176.245C1089.57 197.037 950.473 203.608 923.666 164.536Z" fill="#272747"/>
<path d="M1070.87 282.966H945.549V279.159H1070.87V282.966Z" fill="url(#paint86_linear_401_333)"/>
<path d="M1070.87 294.211H945.549V290.404H1070.87V294.211Z" fill="url(#paint87_linear_401_333)"/>
<path d="M1070.87 304.496H945.549V300.689H1070.87V304.496Z" fill="url(#paint88_linear_401_333)"/>
<path d="M990.337 304.496H985.817V281.062H990.337V304.496Z" fill="url(#paint89_linear_401_333)"/>
<path d="M950.069 304.496H945.549V281.062H950.069V304.496Z" fill="url(#paint90_linear_401_333)"/>
<path d="M1030.61 304.496H1026.08V281.062H1030.61V304.496Z" fill="url(#paint91_linear_401_333)"/>
<path d="M1070.87 304.496H1066.35V281.062H1070.87V304.496Z" fill="url(#paint92_linear_401_333)"/>
<path d="M945.549 282.966H843.394V279.159H945.549V282.966Z" fill="url(#paint93_linear_401_333)"/>
<path d="M945.549 294.211H843.394V290.404H945.549V294.211Z" fill="url(#paint94_linear_401_333)"/>
<path d="M945.549 304.496H843.394V300.689H945.549V304.496Z" fill="url(#paint95_linear_401_333)"/>
<path d="M880.459 304.496H875.938V281.062H880.459V304.496Z" fill="url(#paint96_linear_401_333)"/>
<path d="M847.914 304.496H843.394V281.062H847.914V304.496Z" fill="url(#paint97_linear_401_333)"/>
<path d="M913.004 304.496H908.483V281.062H913.004V304.496Z" fill="url(#paint98_linear_401_333)"/>
<path d="M945.549 304.496H941.028V281.062H945.549V304.496Z" fill="url(#paint99_linear_401_333)"/>
<path d="M916.834 120.467H976.012V129.329H916.834V120.467Z" fill="#272747"/>
<path d="M923.666 111.605H969.181V120.467H923.666V111.605Z" fill="#272747"/>
<path d="M932.103 102.744H960.743V111.606H932.103V102.744Z" fill="#272747"/>
<path d="M942.613 0H950.233V102.744H942.613V0Z" fill="#272747"/>
<path d="M668.071 711.74H1087.94V720.765H668.071V711.74Z" fill="#272747"/>
<path d="M668.071 720.765H1099.04V729.79H668.071V720.765Z" fill="#272747"/>
<path d="M668.071 729.79H1110.14V738.815H668.071V729.79Z" fill="#272747"/>
<path d="M668.071 738.815H1121.23V747.84H668.071V738.815Z" fill="#272747"/>
<path d="M668.071 747.84H1132.33V756.865H668.071V747.84Z" fill="#272747"/>
<path d="M668.071 756.865H1143.42V765.89H668.071V756.865Z" fill="#272747"/>
<path d="M668.071 765.89H1154.52V774.915H668.071V765.89Z" fill="#272747"/>
<path d="M668.071 774.915H1165.62V783.94H668.071V774.915Z" fill="#272747"/>
<path d="M668.071 783.94H1176.71V792.965H668.071V783.94Z" fill="#272747"/>
<path d="M668.071 792.965H1187.81V801.99H668.071V792.965Z" fill="#272747"/>
<path d="M668.071 801.99H1198.9V811.015H668.071V801.99Z" fill="#272747"/>
<path d="M668.071 811.015H1210V820.04H668.071V811.015Z" fill="#272747"/>
<path d="M668.071 711.74H1087.94V713.217H668.071V711.74Z" fill="#3F3E56"/>
<path d="M668.071 720.765H1099.04V722.242H668.071V720.765Z" fill="#3F3E56"/>
<path d="M668.071 729.79H1110.14V731.267H668.071V729.79Z" fill="#3F3E56"/>
<path d="M668.071 738.815H1121.23V740.292H668.071V738.815Z" fill="#3F3E56"/>
<path d="M668.071 747.84H1132.33V749.317H668.071V747.84Z" fill="#3F3E56"/>
<path d="M668.071 756.865H1143.42V758.342H668.071V756.865Z" fill="#3F3E56"/>
<path d="M668.071 765.89H1154.52V767.367H668.071V765.89Z" fill="#3F3E56"/>
<path d="M668.071 774.915H1165.62V776.392H668.071V774.915Z" fill="#3F3E56"/>
<path d="M668.071 783.94H1176.71V785.417H668.071V783.94Z" fill="#3F3E56"/>
<path d="M668.071 792.965H1187.81V794.442H668.071V792.965Z" fill="#3F3E56"/>
<path d="M668.071 801.99H1198.9V803.467H668.071V801.99Z" fill="#3F3E56"/>
<path d="M668.071 811.015H1210V812.492H668.071V811.015Z" fill="#3F3E56"/>
<path d="M486.525 529.016C493.463 503.883 512.09 487.198 528.576 491.748C539.884 494.869 547.073 507.174 548.237 522.704C548.568 522.424 548.877 522.132 549.215 521.855C568.072 506.422 590.489 502.623 599.286 513.371C608.083 524.119 599.929 545.343 581.074 560.777C580.733 561.056 580.384 561.303 580.041 561.574C583.053 561.855 585.977 562.749 588.631 564.2C591.286 565.652 593.616 567.631 595.478 570.016C603.563 580.903 599.083 598.124 585.622 609.798C604.284 605.135 620.697 607.388 622.884 615.177C624.589 621.247 617.169 628.951 605.122 634.77C611.968 637.4 617.686 644.785 620.406 654.44C622.344 651.672 624.85 649.349 627.756 647.626C632.333 644.999 637.628 643.9 642.872 644.487C642.075 643.58 641.295 642.641 640.55 641.648C630.01 627.598 629.171 610.427 638.679 603.294C648.148 596.189 664.307 601.729 674.851 615.658C683.128 594.652 699.973 581.502 714.818 585.599C725.793 588.629 732.858 600.326 734.33 615.209C736.237 612.583 738.688 610.399 741.516 608.806C744.344 607.213 747.481 606.248 750.716 605.978C765.163 605.173 777.754 620.279 778.837 639.718C778.915 641.106 778.915 642.472 778.874 643.824C791.506 637.195 805.034 637.774 811.12 645.97C816.805 653.626 814.253 665.579 805.745 675.416C809.36 675.501 812.906 676.426 816.102 678.118C819.299 679.809 822.058 682.221 824.162 685.163C824.532 680.331 825.554 675.571 827.198 671.012C834.261 651.298 850.801 639.193 864.14 643.972C876.084 648.252 881.382 664.619 877.298 682.145C897.102 679.68 914.388 686.54 918.731 699.927C922.198 710.612 916.521 722.764 905.215 732.138C919.625 728.119 933.03 731.072 937.422 740.156C942.128 749.887 951.296 759.154 937.422 768C952.321 769.546 947.37 782.336 947.553 792.916C947.697 801.226 940.847 808.544 930.716 812.304C939.524 817.997 969.63 806.918 967 812.304C965.587 815.199 892.796 731.763 888.5 732.138C891.504 738.884 936.859 700.961 936.112 708.308C938.446 706.052 941.238 704.326 944.3 703.248C947.361 702.17 950.618 701.764 953.85 702.059C968.219 703.772 977.998 720.833 975.694 740.165C975.53 741.545 975.293 742.891 975.018 744.216C988.608 739.878 1001.83 742.794 1006.4 751.921C1011.73 762.548 1003.31 777.54 987.608 785.408L981.884 820H486.525V529.016Z" fill="url(#paint100_linear_401_333)"/>
<path d="M521.475 525.016C514.537 499.883 495.91 483.198 479.424 487.748C468.116 490.869 460.927 503.174 459.763 518.704C459.432 518.424 459.123 518.132 458.785 517.855C439.929 502.422 417.511 498.623 408.714 509.371C399.917 520.119 408.071 541.343 426.926 556.777C427.267 557.056 427.617 557.303 427.959 557.574C424.947 557.855 422.024 558.749 419.369 560.2C416.714 561.652 414.384 563.631 412.522 566.016C404.437 576.903 408.917 594.124 422.378 605.798C403.716 601.135 387.303 603.388 385.116 611.177C383.411 617.247 390.831 624.951 402.878 630.77C396.032 633.4 390.314 640.785 387.594 650.44C385.656 647.672 383.15 645.349 380.244 643.626C375.667 640.999 370.372 639.9 365.128 640.487C365.925 639.58 366.705 638.641 367.45 637.648C377.99 623.598 378.829 606.427 369.321 599.294C359.852 592.189 343.693 597.729 333.149 611.658C324.872 590.652 308.028 577.502 293.182 581.599C282.207 584.629 275.142 596.326 273.67 611.209C271.763 608.583 269.312 606.399 266.484 604.806C263.657 603.213 260.519 602.248 257.284 601.978C242.837 601.173 230.246 616.279 229.163 635.718C229.085 637.106 229.085 638.472 229.126 639.824C216.494 633.195 202.967 633.774 196.88 641.97C191.195 649.626 193.747 661.579 202.256 671.416C198.64 671.501 195.094 672.426 191.898 674.118C188.701 675.809 185.942 678.221 183.839 681.163C181.629 652.344 172.3 667 170.5 661.898C168.7 656.795 166 627.117 148.5 626C131 624.883 124.5 647 120 647.5C115.5 648 114.5 633.97 100.5 633.97C86.5 633.97 74.8692 661.24 85 665C68.5 656 63.6723 675.507 66.3025 680.892C67.7158 683.787 71.0374 685.424 75.3331 685.8C72.3286 692.546 71.1408 699.961 71.8878 707.308C69.5542 705.052 66.7617 703.326 63.7006 702.248C60.6395 701.17 57.3818 700.764 54.1497 701.059C39.7816 702.772 30.0018 719.833 32.3063 739.165C32.4706 740.545 32.7072 741.891 32.9822 743.216C19.3922 738.878 6.17009 741.794 1.59779 750.921C-3.72618 761.548 4.6885 776.54 20.3921 784.408L26.1158 819H521.475V525.016Z" fill="url(#paint101_linear_401_333)"/>
<path d="M611.197 631.31C613.041 629.802 614.885 628.293 616.729 626.784C629.615 641.466 643.837 654.921 659.211 666.974C648.456 651.095 639.125 634.297 631.327 616.775C633.47 615.735 635.613 614.694 637.756 613.653C644.995 627.349 653.231 640.494 662.399 652.98C658.001 638.523 654.615 623.776 652.266 608.848C654.606 608.401 656.946 607.954 659.286 607.507C661.821 618.643 664.958 629.634 668.683 640.431C671.943 624.509 676.391 608.855 681.989 593.598C684.252 594.344 686.515 595.091 688.777 595.836C682.491 617.359 678.517 639.49 676.922 661.855C677.008 662.057 677.101 662.255 677.187 662.457C682.812 642.088 690.407 622.315 699.863 603.417C702.028 604.413 704.192 605.409 706.357 606.405C699.897 621.836 694.673 637.756 690.736 654.015C699.115 640.221 708.508 627.069 718.839 614.668C720.719 616.132 722.599 617.595 724.479 619.058C709.909 639.155 697.762 660.902 688.29 683.847C688.554 684.124 688.821 684.397 689.085 684.672C700.512 668.201 710.344 650.679 718.447 632.343C720.659 633.229 722.871 634.116 725.082 635.004C719.7 649.823 713.248 664.232 705.777 678.117C718.985 668.481 732.9 659.854 747.404 652.31C748.573 654.385 749.742 656.461 750.91 658.538C734.228 668.703 718.525 680.395 704.004 693.463C721.499 685.603 739.653 679.305 758.256 674.641C758.911 676.932 759.567 679.222 760.223 681.513C745.485 686.284 731.119 692.134 717.24 699.014C732.239 697.171 747.348 696.375 762.458 696.633C762.495 699.015 762.532 701.397 762.57 703.78C742.966 704.989 723.5 707.867 704.385 712.383C693.918 713.568 680.994 717.553 674.309 726.01C671.487 729.578 668.584 733.087 665.6 736.538C664.964 737.276 664.324 738.011 663.68 738.743C663.638 738.324 663.588 737.905 663.547 737.486C663.406 736.016 663.28 734.545 663.158 733.075C662.507 725.176 662.299 717.246 662.071 709.327C661.997 706.748 663.676 688.299 662.539 687.728C641.513 677.138 619.368 668.936 596.517 663.273C597.009 660.943 597.502 658.612 597.995 656.281C613.52 659.03 628.825 662.903 643.788 667.871C632.022 656.52 621.127 644.299 611.197 631.31Z" fill="url(#paint102_linear_401_333)"/>
<path d="M784.785 750.01C785.089 748.286 785.392 746.561 785.695 744.836C799.913 746.833 814.285 747.505 828.628 746.845C815.023 743.16 801.77 738.28 789.024 732.262C789.719 730.655 790.413 729.047 791.108 727.44C801.707 731.595 812.598 734.965 823.692 737.522C814.309 731.58 805.351 724.992 796.884 717.805C797.973 716.434 799.061 715.062 800.15 713.691C806.902 718.677 813.921 723.294 821.173 727.52C815.353 717.09 810.322 706.238 806.123 695.057C807.741 694.388 809.359 693.718 810.977 693.048C817.798 708.049 826.198 722.28 836.036 735.499C836.181 735.571 836.328 735.637 836.473 735.708C829.836 721.666 824.583 707.013 820.786 691.954C822.469 691.47 824.152 690.987 825.835 690.503C829.638 702.195 834.364 713.566 839.969 724.509C838.02 712.808 836.943 700.979 836.749 689.118C838.498 689.032 840.247 688.945 841.996 688.858C843.52 707.038 847.185 724.974 852.914 742.295C853.193 742.323 853.473 742.347 853.753 742.374C852.217 727.72 849.289 713.247 845.008 699.149C846.665 698.582 848.322 698.016 849.978 697.449C854.089 708.284 857.406 719.402 859.904 730.717C862.638 719.017 866.25 707.539 870.71 696.382C872.356 696.977 874.003 697.573 875.649 698.169C871.234 711.83 868.096 725.872 866.277 740.114C872.25 727.347 879.34 715.133 887.463 703.614C888.926 704.575 890.39 705.536 891.854 706.497C885.935 716.222 880.739 726.37 876.31 736.858C883.779 728.638 891.812 720.949 900.35 713.845C901.513 715.155 902.676 716.463 903.84 717.772C893.502 727.847 884.042 738.785 875.563 750.467C870.302 756.147 865.016 764.565 865.348 772.481C865.488 775.821 865.547 779.169 865.548 782.52C865.548 783.236 865.542 783.953 865.536 784.67C865.312 784.456 865.083 784.247 864.859 784.033C864.075 783.282 863.298 782.525 862.527 781.763C858.376 777.677 854.457 773.36 850.532 769.059C849.254 767.659 841.341 756.579 840.434 756.806C823.646 760.993 807.38 767.045 791.938 774.851C791.095 773.317 790.251 771.782 789.408 770.248C799.372 764.333 809.753 759.15 820.469 754.741C808.473 754.062 796.544 752.481 784.785 750.01Z" fill="url(#paint103_linear_401_333)"/>
<path d="M839.101 784.306C840.566 803.271 857.602 817.411 877.153 815.888C896.703 814.365 911.364 797.756 909.899 778.791C908.434 759.826 891.398 729.533 871.847 731.056C852.297 732.579 837.636 765.341 839.101 784.306Z" fill="url(#paint104_linear_401_333)"/>
<path d="M826.245 819.231C808.038 781.499 781.215 748.577 747.941 723.122C612.548 620.43 396.938 666.174 215 819.231H826.245Z" fill="#7C2C9D"/>
<path d="M1017.57 820.577C991.857 800.987 963.26 785.505 932.8 774.683C831.668 739.043 720.22 758.745 615.227 820.577H1017.57Z" fill="url(#paint105_linear_401_333)"/>
<defs>
<linearGradient id="paint0_linear_401_333" x1="869.337" y1="575.917" x2="817.504" y2="711.619" gradientUnits="userSpaceOnUse">
<stop stop-color="#63159B"/>
<stop offset="1" stop-color="#F49DA4"/>
</linearGradient>
<linearGradient id="paint1_linear_401_333" x1="979.962" y1="576.548" x2="944.044" y2="714.734" gradientUnits="userSpaceOnUse">
<stop stop-color="#63159B"/>
<stop offset="1" stop-color="#F49DA4"/>
</linearGradient>
<linearGradient id="paint2_linear_401_333" x1="1046.12" y1="576.19" x2="993.694" y2="584.923" gradientUnits="userSpaceOnUse">
<stop stop-color="#63159B"/>
<stop offset="1" stop-color="#F49DA4"/>
</linearGradient>
<linearGradient id="paint3_linear_401_333" x1="951.409" y1="576.19" x2="898.981" y2="584.923" gradientUnits="userSpaceOnUse">
<stop stop-color="#63159B"/>
<stop offset="1" stop-color="#F49DA4"/>
</linearGradient>
<linearGradient id="paint4_linear_401_333" x1="987.055" y1="633.101" x2="985.616" y2="656.63" gradientUnits="userSpaceOnUse">
<stop stop-color="#63159B"/>
<stop offset="1" stop-color="#F49DA4"/>
</linearGradient>
<linearGradient id="paint5_linear_401_333" x1="994.514" y1="630.992" x2="1016.14" y2="637.561" gradientUnits="userSpaceOnUse">
<stop stop-color="#63159B"/>
<stop offset="1" stop-color="#F49DA4"/>
</linearGradient>
<linearGradient id="paint6_linear_401_333" x1="862.553" y1="576.19" x2="810.125" y2="584.923" gradientUnits="userSpaceOnUse">
<stop stop-color="#63159B"/>
<stop offset="1" stop-color="#F49DA4"/>
</linearGradient>
<linearGradient id="paint7_linear_401_333" x1="935.966" y1="576.19" x2="883.538" y2="584.923" gradientUnits="userSpaceOnUse">
<stop stop-color="#63159B"/>
<stop offset="1" stop-color="#F49DA4"/>
</linearGradient>
<linearGradient id="paint8_linear_401_333" x1="890.231" y1="633.101" x2="888.433" y2="656.58" gradientUnits="userSpaceOnUse">
<stop stop-color="#63159B"/>
<stop offset="1" stop-color="#F49DA4"/>
</linearGradient>
<linearGradient id="paint9_linear_401_333" x1="854.788" y1="553.202" x2="793.8" y2="712.87" gradientUnits="userSpaceOnUse">
<stop stop-color="#63159B"/>
<stop offset="1" stop-color="#F49DA4"/>
</linearGradient>
<linearGradient id="paint10_linear_401_333" x1="984.949" y1="553.945" x2="942.687" y2="716.535" gradientUnits="userSpaceOnUse">
<stop stop-color="#63159B"/>
<stop offset="1" stop-color="#F49DA4"/>
</linearGradient>
<linearGradient id="paint11_linear_401_333" x1="1023.31" y1="690.86" x2="1023.6" y2="679.645" gradientUnits="userSpaceOnUse">
<stop stop-color="#63159B"/>
<stop offset="1" stop-color="#F49DA4"/>
</linearGradient>
<linearGradient id="paint12_linear_401_333" x1="1023.31" y1="702.105" x2="1023.6" y2="690.889" gradientUnits="userSpaceOnUse">
<stop stop-color="#63159B"/>
<stop offset="1" stop-color="#F49DA4"/>
</linearGradient>
<linearGradient id="paint13_linear_401_333" x1="1023.31" y1="712.39" x2="1023.6" y2="701.175" gradientUnits="userSpaceOnUse">
<stop stop-color="#63159B"/>
<stop offset="1" stop-color="#F49DA4"/>
</linearGradient>
<linearGradient id="paint14_linear_401_333" x1="988.622" y1="716.97" x2="1003.61" y2="713.547" gradientUnits="userSpaceOnUse">
<stop stop-color="#63159B"/>
<stop offset="1" stop-color="#F49DA4"/>
</linearGradient>
<linearGradient id="paint15_linear_401_333" x1="948.354" y1="716.97" x2="963.346" y2="713.547" gradientUnits="userSpaceOnUse">
<stop stop-color="#63159B"/>
<stop offset="1" stop-color="#F49DA4"/>
</linearGradient>
<linearGradient id="paint16_linear_401_333" x1="1028.89" y1="716.97" x2="1043.88" y2="713.547" gradientUnits="userSpaceOnUse">
<stop stop-color="#63159B"/>
<stop offset="1" stop-color="#F49DA4"/>
</linearGradient>
<linearGradient id="paint17_linear_401_333" x1="1069.16" y1="716.97" x2="1084.15" y2="713.547" gradientUnits="userSpaceOnUse">
<stop stop-color="#63159B"/>
<stop offset="1" stop-color="#F49DA4"/>
</linearGradient>
<linearGradient id="paint18_linear_401_333" x1="906.782" y1="690.86" x2="907.135" y2="679.648" gradientUnits="userSpaceOnUse">
<stop stop-color="#63159B"/>
<stop offset="1" stop-color="#F49DA4"/>
</linearGradient>
<linearGradient id="paint19_linear_401_333" x1="906.782" y1="702.105" x2="907.135" y2="690.893" gradientUnits="userSpaceOnUse">
<stop stop-color="#63159B"/>
<stop offset="1" stop-color="#F49DA4"/>
</linearGradient>
<linearGradient id="paint20_linear_401_333" x1="906.782" y1="712.39" x2="907.135" y2="701.178" gradientUnits="userSpaceOnUse">
<stop stop-color="#63159B"/>
<stop offset="1" stop-color="#F49DA4"/>
</linearGradient>
<linearGradient id="paint21_linear_401_333" x1="878.744" y1="716.97" x2="893.736" y2="713.547" gradientUnits="userSpaceOnUse">
<stop stop-color="#63159B"/>
<stop offset="1" stop-color="#F49DA4"/>
</linearGradient>
<linearGradient id="paint22_linear_401_333" x1="846.199" y1="716.97" x2="861.191" y2="713.547" gradientUnits="userSpaceOnUse">
<stop stop-color="#63159B"/>
<stop offset="1" stop-color="#F49DA4"/>
</linearGradient>
<linearGradient id="paint23_linear_401_333" x1="911.288" y1="716.97" x2="926.28" y2="713.547" gradientUnits="userSpaceOnUse">
<stop stop-color="#63159B"/>
<stop offset="1" stop-color="#F49DA4"/>
</linearGradient>
<linearGradient id="paint24_linear_401_333" x1="943.833" y1="716.97" x2="958.825" y2="713.547" gradientUnits="userSpaceOnUse">
<stop stop-color="#63159B"/>
<stop offset="1" stop-color="#F49DA4"/>
</linearGradient>
<linearGradient id="paint25_linear_401_333" x1="869.337" y1="440.248" x2="817.504" y2="575.951" gradientUnits="userSpaceOnUse">
<stop stop-color="#63159B"/>
<stop offset="1" stop-color="#F49DA4"/>
</linearGradient>
<linearGradient id="paint26_linear_401_333" x1="979.962" y1="440.879" x2="944.044" y2="579.066" gradientUnits="userSpaceOnUse">
<stop stop-color="#63159B"/>
<stop offset="1" stop-color="#F49DA4"/>
</linearGradient>
<linearGradient id="paint27_linear_401_333" x1="1046.12" y1="440.521" x2="993.694" y2="449.254" gradientUnits="userSpaceOnUse">
<stop stop-color="#63159B"/>
<stop offset="1" stop-color="#F49DA4"/>
</linearGradient>
<linearGradient id="paint28_linear_401_333" x1="951.409" y1="440.521" x2="898.981" y2="449.254" gradientUnits="userSpaceOnUse">
<stop stop-color="#63159B"/>
<stop offset="1" stop-color="#F49DA4"/>
</linearGradient>
<linearGradient id="paint29_linear_401_333" x1="987.055" y1="497.432" x2="985.616" y2="520.961" gradientUnits="userSpaceOnUse">
<stop stop-color="#63159B"/>
<stop offset="1" stop-color="#F49DA4"/>
</linearGradient>
<linearGradient id="paint30_linear_401_333" x1="994.514" y1="495.324" x2="1016.13" y2="501.892" gradientUnits="userSpaceOnUse">
<stop stop-color="#63159B"/>
<stop offset="1" stop-color="#F49DA4"/>
</linearGradient>
<linearGradient id="paint31_linear_401_333" x1="862.553" y1="440.521" x2="810.125" y2="449.254" gradientUnits="userSpaceOnUse">
<stop stop-color="#63159B"/>
<stop offset="1" stop-color="#F49DA4"/>
</linearGradient>
<linearGradient id="paint32_linear_401_333" x1="935.966" y1="440.521" x2="883.538" y2="449.254" gradientUnits="userSpaceOnUse">
<stop stop-color="#63159B"/>
<stop offset="1" stop-color="#F49DA4"/>
</linearGradient>
<linearGradient id="paint33_linear_401_333" x1="890.231" y1="497.432" x2="888.433" y2="520.911" gradientUnits="userSpaceOnUse">
<stop stop-color="#63159B"/>
<stop offset="1" stop-color="#F49DA4"/>
</linearGradient>
<linearGradient id="paint34_linear_401_333" x1="854.788" y1="417.533" x2="793.8" y2="577.201" gradientUnits="userSpaceOnUse">
<stop stop-color="#63159B"/>
<stop offset="1" stop-color="#F49DA4"/>
</linearGradient>
<linearGradient id="paint35_linear_401_333" x1="984.949" y1="418.276" x2="942.687" y2="580.866" gradientUnits="userSpaceOnUse">
<stop stop-color="#63159B"/>
<stop offset="1" stop-color="#F49DA4"/>
</linearGradient>
<linearGradient id="paint36_linear_401_333" x1="1023.31" y1="555.191" x2="1023.6" y2="543.976" gradientUnits="userSpaceOnUse">
<stop stop-color="#63159B"/>
<stop offset="1" stop-color="#F49DA4"/>
</linearGradient>
<linearGradient id="paint37_linear_401_333" x1="1023.31" y1="566.436" x2="1023.6" y2="555.221" gradientUnits="userSpaceOnUse">
<stop stop-color="#63159B"/>
<stop offset="1" stop-color="#F49DA4"/>
</linearGradient>
<linearGradient id="paint38_linear_401_333" x1="1023.31" y1="576.722" x2="1023.6" y2="565.506" gradientUnits="userSpaceOnUse">
<stop stop-color="#63159B"/>
<stop offset="1" stop-color="#F49DA4"/>
</linearGradient>
<linearGradient id="paint39_linear_401_333" x1="988.622" y1="581.301" x2="1003.61" y2="577.879" gradientUnits="userSpaceOnUse">
<stop stop-color="#63159B"/>
<stop offset="1" stop-color="#F49DA4"/>
</linearGradient>
<linearGradient id="paint40_linear_401_333" x1="948.354" y1="581.301" x2="963.346" y2="577.879" gradientUnits="userSpaceOnUse">
<stop stop-color="#63159B"/>
<stop offset="1" stop-color="#F49DA4"/>
</linearGradient>
<linearGradient id="paint41_linear_401_333" x1="1028.89" y1="581.301" x2="1043.88" y2="577.879" gradientUnits="userSpaceOnUse">
<stop stop-color="#63159B"/>
<stop offset="1" stop-color="#F49DA4"/>
</linearGradient>
<linearGradient id="paint42_linear_401_333" x1="1069.16" y1="581.301" x2="1084.15" y2="577.879" gradientUnits="userSpaceOnUse">
<stop stop-color="#63159B"/>
<stop offset="1" stop-color="#F49DA4"/>
</linearGradient>
<linearGradient id="paint43_linear_401_333" x1="906.782" y1="555.191" x2="907.135" y2="543.979" gradientUnits="userSpaceOnUse">
<stop stop-color="#63159B"/>
<stop offset="1" stop-color="#F49DA4"/>
</linearGradient>
<linearGradient id="paint44_linear_401_333" x1="906.782" y1="566.436" x2="907.135" y2="555.224" gradientUnits="userSpaceOnUse">
<stop stop-color="#63159B"/>
<stop offset="1" stop-color="#F49DA4"/>
</linearGradient>
<linearGradient id="paint45_linear_401_333" x1="906.782" y1="576.722" x2="907.135" y2="565.51" gradientUnits="userSpaceOnUse">
<stop stop-color="#63159B"/>
<stop offset="1" stop-color="#F49DA4"/>
</linearGradient>
<linearGradient id="paint46_linear_401_333" x1="878.744" y1="581.301" x2="893.736" y2="577.878" gradientUnits="userSpaceOnUse">
<stop stop-color="#63159B"/>
<stop offset="1" stop-color="#F49DA4"/>
</linearGradient>
<linearGradient id="paint47_linear_401_333" x1="846.199" y1="581.301" x2="861.191" y2="577.879" gradientUnits="userSpaceOnUse">
<stop stop-color="#63159B"/>
<stop offset="1" stop-color="#F49DA4"/>
</linearGradient>
<linearGradient id="paint48_linear_401_333" x1="911.288" y1="581.301" x2="926.28" y2="577.879" gradientUnits="userSpaceOnUse">
<stop stop-color="#63159B"/>
<stop offset="1" stop-color="#F49DA4"/>
</linearGradient>
<linearGradient id="paint49_linear_401_333" x1="943.833" y1="581.301" x2="958.825" y2="577.879" gradientUnits="userSpaceOnUse">
<stop stop-color="#63159B"/>
<stop offset="1" stop-color="#F49DA4"/>
</linearGradient>
<linearGradient id="paint50_linear_401_333" x1="869.337" y1="304.579" x2="817.503" y2="440.282" gradientUnits="userSpaceOnUse">
<stop stop-color="#63159B"/>
<stop offset="1" stop-color="#F49DA4"/>
</linearGradient>
<linearGradient id="paint51_linear_401_333" x1="979.962" y1="305.21" x2="944.043" y2="443.397" gradientUnits="userSpaceOnUse">
<stop stop-color="#63159B"/>
<stop offset="1" stop-color="#F49DA4"/>
</linearGradient>
<linearGradient id="paint52_linear_401_333" x1="1046.12" y1="304.852" x2="993.694" y2="313.585" gradientUnits="userSpaceOnUse">
<stop stop-color="#63159B"/>
<stop offset="1" stop-color="#F49DA4"/>
</linearGradient>
<linearGradient id="paint53_linear_401_333" x1="951.409" y1="304.852" x2="898.981" y2="313.585" gradientUnits="userSpaceOnUse">
<stop stop-color="#63159B"/>
<stop offset="1" stop-color="#F49DA4"/>
</linearGradient>
<linearGradient id="paint54_linear_401_333" x1="987.055" y1="361.763" x2="985.616" y2="385.291" gradientUnits="userSpaceOnUse">
<stop stop-color="#63159B"/>
<stop offset="1" stop-color="#F49DA4"/>
</linearGradient>
<linearGradient id="paint55_linear_401_333" x1="994.514" y1="359.655" x2="1016.13" y2="366.223" gradientUnits="userSpaceOnUse">
<stop stop-color="#63159B"/>
<stop offset="1" stop-color="#F49DA4"/>
</linearGradient>
<linearGradient id="paint56_linear_401_333" x1="862.553" y1="304.852" x2="810.125" y2="313.585" gradientUnits="userSpaceOnUse">
<stop stop-color="#63159B"/>
<stop offset="1" stop-color="#F49DA4"/>
</linearGradient>
<linearGradient id="paint57_linear_401_333" x1="935.966" y1="304.852" x2="883.538" y2="313.585" gradientUnits="userSpaceOnUse">
<stop stop-color="#63159B"/>
<stop offset="1" stop-color="#F49DA4"/>
</linearGradient>
<linearGradient id="paint58_linear_401_333" x1="890.231" y1="361.763" x2="888.433" y2="385.241" gradientUnits="userSpaceOnUse">
<stop stop-color="#63159B"/>
<stop offset="1" stop-color="#F49DA4"/>
</linearGradient>
<linearGradient id="paint59_linear_401_333" x1="854.788" y1="281.864" x2="793.8" y2="441.532" gradientUnits="userSpaceOnUse">
<stop stop-color="#63159B"/>
<stop offset="1" stop-color="#F49DA4"/>
</linearGradient>
<linearGradient id="paint60_linear_401_333" x1="984.949" y1="282.607" x2="942.687" y2="445.197" gradientUnits="userSpaceOnUse">
<stop stop-color="#63159B"/>
<stop offset="1" stop-color="#F49DA4"/>
</linearGradient>
<linearGradient id="paint61_linear_401_333" x1="1023.31" y1="419.522" x2="1023.6" y2="408.306" gradientUnits="userSpaceOnUse">
<stop stop-color="#63159B"/>
<stop offset="1" stop-color="#F49DA4"/>
</linearGradient>
<linearGradient id="paint62_linear_401_333" x1="1023.31" y1="430.767" x2="1023.6" y2="419.551" gradientUnits="userSpaceOnUse">
<stop stop-color="#63159B"/>
<stop offset="1" stop-color="#F49DA4"/>
</linearGradient>
<linearGradient id="paint63_linear_401_333" x1="1023.31" y1="441.053" x2="1023.6" y2="429.837" gradientUnits="userSpaceOnUse">
<stop stop-color="#63159B"/>
<stop offset="1" stop-color="#F49DA4"/>
</linearGradient>
<linearGradient id="paint64_linear_401_333" x1="988.622" y1="445.632" x2="1003.61" y2="442.209" gradientUnits="userSpaceOnUse">
<stop stop-color="#63159B"/>
<stop offset="1" stop-color="#F49DA4"/>
</linearGradient>
<linearGradient id="paint65_linear_401_333" x1="948.354" y1="445.632" x2="963.346" y2="442.209" gradientUnits="userSpaceOnUse">
<stop stop-color="#63159B"/>
<stop offset="1" stop-color="#F49DA4"/>
</linearGradient>
<linearGradient id="paint66_linear_401_333" x1="1028.89" y1="445.632" x2="1043.88" y2="442.209" gradientUnits="userSpaceOnUse">
<stop stop-color="#63159B"/>
<stop offset="1" stop-color="#F49DA4"/>
</linearGradient>
<linearGradient id="paint67_linear_401_333" x1="1069.16" y1="445.632" x2="1084.15" y2="442.209" gradientUnits="userSpaceOnUse">
<stop stop-color="#63159B"/>
<stop offset="1" stop-color="#F49DA4"/>
</linearGradient>
<linearGradient id="paint68_linear_401_333" x1="906.782" y1="419.522" x2="907.135" y2="408.31" gradientUnits="userSpaceOnUse">
<stop stop-color="#63159B"/>
<stop offset="1" stop-color="#F49DA4"/>
</linearGradient>
<linearGradient id="paint69_linear_401_333" x1="906.782" y1="430.767" x2="907.135" y2="419.555" gradientUnits="userSpaceOnUse">
<stop stop-color="#63159B"/>
<stop offset="1" stop-color="#F49DA4"/>
</linearGradient>
<linearGradient id="paint70_linear_401_333" x1="906.782" y1="441.053" x2="907.135" y2="429.84" gradientUnits="userSpaceOnUse">
<stop stop-color="#63159B"/>
<stop offset="1" stop-color="#F49DA4"/>
</linearGradient>
<linearGradient id="paint71_linear_401_333" x1="878.744" y1="445.632" x2="893.736" y2="442.209" gradientUnits="userSpaceOnUse">
<stop stop-color="#63159B"/>
<stop offset="1" stop-color="#F49DA4"/>
</linearGradient>
<linearGradient id="paint72_linear_401_333" x1="846.199" y1="445.632" x2="861.191" y2="442.209" gradientUnits="userSpaceOnUse">
<stop stop-color="#63159B"/>
<stop offset="1" stop-color="#F49DA4"/>
</linearGradient>
<linearGradient id="paint73_linear_401_333" x1="911.288" y1="445.632" x2="926.28" y2="442.209" gradientUnits="userSpaceOnUse">
<stop stop-color="#63159B"/>
<stop offset="1" stop-color="#F49DA4"/>
</linearGradient>
<linearGradient id="paint74_linear_401_333" x1="943.833" y1="445.632" x2="958.825" y2="442.209" gradientUnits="userSpaceOnUse">
<stop stop-color="#63159B"/>
<stop offset="1" stop-color="#F49DA4"/>
</linearGradient>
<linearGradient id="paint75_linear_401_333" x1="869.337" y1="168.91" x2="817.504" y2="304.613" gradientUnits="userSpaceOnUse">
<stop stop-color="#63159B"/>
<stop offset="1" stop-color="#F49DA4"/>
</linearGradient>
<linearGradient id="paint76_linear_401_333" x1="979.962" y1="169.541" x2="944.044" y2="307.728" gradientUnits="userSpaceOnUse">
<stop stop-color="#63159B"/>
<stop offset="1" stop-color="#F49DA4"/>
</linearGradient>
<linearGradient id="paint77_linear_401_333" x1="1046.12" y1="169.183" x2="993.694" y2="177.916" gradientUnits="userSpaceOnUse">
<stop stop-color="#63159B"/>
<stop offset="1" stop-color="#F49DA4"/>
</linearGradient>
<linearGradient id="paint78_linear_401_333" x1="951.409" y1="169.183" x2="898.981" y2="177.916" gradientUnits="userSpaceOnUse">
<stop stop-color="#63159B"/>
<stop offset="1" stop-color="#F49DA4"/>
</linearGradient>
<linearGradient id="paint79_linear_401_333" x1="987.055" y1="226.095" x2="985.616" y2="249.622" gradientUnits="userSpaceOnUse">
<stop stop-color="#63159B"/>
<stop offset="1" stop-color="#F49DA4"/>
</linearGradient>
<linearGradient id="paint80_linear_401_333" x1="994.514" y1="223.986" x2="1016.13" y2="230.554" gradientUnits="userSpaceOnUse">
<stop stop-color="#63159B"/>
<stop offset="1" stop-color="#F49DA4"/>
</linearGradient>
<linearGradient id="paint81_linear_401_333" x1="862.553" y1="169.183" x2="810.125" y2="177.916" gradientUnits="userSpaceOnUse">
<stop stop-color="#63159B"/>
<stop offset="1" stop-color="#F49DA4"/>
</linearGradient>
<linearGradient id="paint82_linear_401_333" x1="935.966" y1="169.183" x2="883.538" y2="177.916" gradientUnits="userSpaceOnUse">
<stop stop-color="#63159B"/>
<stop offset="1" stop-color="#F49DA4"/>
</linearGradient>
<linearGradient id="paint83_linear_401_333" x1="890.231" y1="226.095" x2="888.433" y2="249.573" gradientUnits="userSpaceOnUse">
<stop stop-color="#63159B"/>
<stop offset="1" stop-color="#F49DA4"/>
</linearGradient>
<linearGradient id="paint84_linear_401_333" x1="854.788" y1="146.196" x2="793.8" y2="305.863" gradientUnits="userSpaceOnUse">
<stop stop-color="#63159B"/>
<stop offset="1" stop-color="#F49DA4"/>
</linearGradient>
<linearGradient id="paint85_linear_401_333" x1="984.949" y1="146.939" x2="942.687" y2="309.529" gradientUnits="userSpaceOnUse">
<stop stop-color="#63159B"/>
<stop offset="1" stop-color="#F49DA4"/>
</linearGradient>
<linearGradient id="paint86_linear_401_333" x1="1023.31" y1="283.854" x2="1023.6" y2="272.638" gradientUnits="userSpaceOnUse">
<stop stop-color="#63159B"/>
<stop offset="1" stop-color="#F49DA4"/>
</linearGradient>
<linearGradient id="paint87_linear_401_333" x1="1023.31" y1="295.099" x2="1023.6" y2="283.883" gradientUnits="userSpaceOnUse">
<stop stop-color="#63159B"/>
<stop offset="1" stop-color="#F49DA4"/>
</linearGradient>
<linearGradient id="paint88_linear_401_333" x1="1023.31" y1="305.384" x2="1023.6" y2="294.169" gradientUnits="userSpaceOnUse">
<stop stop-color="#63159B"/>
<stop offset="1" stop-color="#F49DA4"/>
</linearGradient>
<linearGradient id="paint89_linear_401_333" x1="988.622" y1="309.964" x2="1003.61" y2="306.541" gradientUnits="userSpaceOnUse">
<stop stop-color="#63159B"/>
<stop offset="1" stop-color="#F49DA4"/>
</linearGradient>
<linearGradient id="paint90_linear_401_333" x1="948.354" y1="309.964" x2="963.346" y2="306.541" gradientUnits="userSpaceOnUse">
<stop stop-color="#63159B"/>
<stop offset="1" stop-color="#F49DA4"/>
</linearGradient>
<linearGradient id="paint91_linear_401_333" x1="1028.89" y1="309.964" x2="1043.88" y2="306.541" gradientUnits="userSpaceOnUse">
<stop stop-color="#63159B"/>
<stop offset="1" stop-color="#F49DA4"/>
</linearGradient>
<linearGradient id="paint92_linear_401_333" x1="1069.16" y1="309.964" x2="1084.15" y2="306.541" gradientUnits="userSpaceOnUse">
<stop stop-color="#63159B"/>
<stop offset="1" stop-color="#F49DA4"/>
</linearGradient>
<linearGradient id="paint93_linear_401_333" x1="906.782" y1="283.854" x2="907.135" y2="272.642" gradientUnits="userSpaceOnUse">
<stop stop-color="#63159B"/>
<stop offset="1" stop-color="#F49DA4"/>
</linearGradient>
<linearGradient id="paint94_linear_401_333" x1="906.782" y1="295.099" x2="907.135" y2="283.887" gradientUnits="userSpaceOnUse">
<stop stop-color="#63159B"/>
<stop offset="1" stop-color="#F49DA4"/>
</linearGradient>
<linearGradient id="paint95_linear_401_333" x1="906.782" y1="305.384" x2="907.135" y2="294.172" gradientUnits="userSpaceOnUse">
<stop stop-color="#63159B"/>
<stop offset="1" stop-color="#F49DA4"/>
</linearGradient>
<linearGradient id="paint96_linear_401_333" x1="878.744" y1="309.964" x2="893.736" y2="306.54" gradientUnits="userSpaceOnUse">
<stop stop-color="#63159B"/>
<stop offset="1" stop-color="#F49DA4"/>
</linearGradient>
<linearGradient id="paint97_linear_401_333" x1="846.199" y1="309.964" x2="861.191" y2="306.541" gradientUnits="userSpaceOnUse">
<stop stop-color="#63159B"/>
<stop offset="1" stop-color="#F49DA4"/>
</linearGradient>
<linearGradient id="paint98_linear_401_333" x1="911.288" y1="309.964" x2="926.28" y2="306.541" gradientUnits="userSpaceOnUse">
<stop stop-color="#63159B"/>
<stop offset="1" stop-color="#F49DA4"/>
</linearGradient>
<linearGradient id="paint99_linear_401_333" x1="943.833" y1="309.964" x2="958.825" y2="306.541" gradientUnits="userSpaceOnUse">
<stop stop-color="#63159B"/>
<stop offset="1" stop-color="#F49DA4"/>
</linearGradient>
<linearGradient id="paint100_linear_401_333" x1="684.167" y1="1012.05" x2="784.518" y2="546.934" gradientUnits="userSpaceOnUse">
<stop offset="0.687849" stop-color="#FC75A0"/>
<stop offset="1" stop-color="#FF3475"/>
</linearGradient>
<linearGradient id="paint101_linear_401_333" x1="323.833" y1="1008.05" x2="223.482" y2="542.934" gradientUnits="userSpaceOnUse">
<stop offset="0.687849" stop-color="#FC75A0"/>
<stop offset="1" stop-color="#FF3475"/>
</linearGradient>
<linearGradient id="paint102_linear_401_333" x1="659.532" y1="559.731" x2="455.023" y2="836.616" gradientUnits="userSpaceOnUse">
<stop stop-color="#63159B"/>
<stop offset="1" stop-color="#F49DA4"/>
</linearGradient>
<linearGradient id="paint103_linear_401_333" x1="829.965" y1="666.502" x2="698.61" y2="859.662" gradientUnits="userSpaceOnUse">
<stop stop-color="#63159B"/>
<stop offset="1" stop-color="#F49DA4"/>
</linearGradient>
<linearGradient id="paint104_linear_401_333" x1="877.152" y1="815.888" x2="870.555" y2="731.156" gradientUnits="userSpaceOnUse">
<stop stop-color="white"/>
<stop offset="1" stop-color="#FF92B5"/>
</linearGradient>
<linearGradient id="paint105_linear_401_333" x1="767.911" y1="742.166" x2="743.321" y2="926.327" gradientUnits="userSpaceOnUse">
<stop stop-color="#63159B"/>
<stop offset="1" stop-color="#F49DA4"/>
</linearGradient>
</defs>
</svg>
