<svg width="1224" height="844" viewBox="0 0 1224 844" fill="none" xmlns="http://www.w3.org/2000/svg">
<path d="M510.688 253.306C510.395 262.667 513.831 271.762 520.242 278.595C526.8 285.926 537.774 292.963 556.068 296.828C585.992 303.038 616.496 306.026 647.058 305.742C647.058 305.742 631.574 321.503 641.446 332.157C651.318 342.812 733.485 347.898 755.967 348.672C775.291 349.324 917.489 341.615 968.017 330.624C976.232 328.857 982.048 326.986 984.48 325.046C1001.95 311.21 1004.71 292.643 978.13 272.381C978.13 272.381 1076.84 272.419 1110.91 256.485C1144.98 240.552 1156.37 203.336 1142.47 180.03C1128.56 156.723 1105.95 144.22 1062.9 139.753C1019.85 135.26 895.708 134.476 875.162 132.725C854.615 130.949 581.205 162.789 553.88 167.938C526.58 173.061 507.349 209.391 510.688 253.306Z" fill="url(#paint0_linear_401_334)"/>
<path style="mix-blend-mode:multiply" opacity="0.45" d="M510.688 253.306C510.395 262.667 513.831 271.762 520.242 278.595L596.951 277.88C632.124 277.552 660.589 289.067 653.824 297.405C653.824 297.405 671.401 284.072 687.103 297.094C702.83 310.091 762.436 308.576 814.278 313.945C853.128 317.972 928.258 326.605 968.017 330.624C976.232 328.857 982.048 326.986 984.48 325.046C1001.95 311.21 1004.71 292.643 978.13 272.381C978.13 272.381 1076.84 272.419 1110.91 256.485C1144.98 240.552 1156.37 203.336 1142.47 180.03C1128.56 156.723 1105.95 144.22 1062.9 139.753C1019.85 135.26 895.708 134.476 875.162 132.725C854.615 130.949 581.205 162.789 553.88 167.938C526.58 173.061 507.349 209.391 510.688 253.306Z" fill="url(#paint1_linear_401_334)"/>
<path d="M141.003 538.089C144.495 540.376 148.342 542.071 152.388 543.104C164.128 545.593 202.578 544.578 202.578 544.578C203.655 549.864 206.41 554.662 210.433 558.26C214.456 561.858 219.533 564.064 224.91 564.552C244.478 566.967 378.075 565.721 402.176 564.21C426.252 562.673 467.904 555.776 474.996 547.233C482.088 538.716 471.569 529.051 471.569 529.051C471.569 529.051 482.642 527.636 502.835 526.792C521.994 526.008 550.441 519.284 562.159 511.228L562.184 511.228C562.784 510.834 563.362 510.408 563.914 509.95C574.264 501.403 557.103 478.127 557.103 478.127C557.103 478.127 477.446 460.631 453.952 456.94C430.459 453.249 222.784 474.737 179.151 477.743C135.519 480.748 131.124 499.659 125.382 512.099C121.248 520.993 130.868 531.776 141.003 538.089Z" fill="url(#paint2_linear_401_334)"/>
<path style="mix-blend-mode:multiply" opacity="0.45" d="M141.003 538.089C152.657 536.795 166.204 535.281 175.108 534.264C180.188 533.475 185.386 534.01 190.199 535.817C195.011 537.624 199.275 540.642 202.578 544.578C202.578 544.578 229.377 537.164 240.617 537.538C251.883 537.938 287.733 542.472 287.733 542.472C303.679 546.447 320.27 547.125 336.488 544.464C361.849 539.838 356.505 540.872 369.146 534.396C381.788 527.921 462.888 524.238 462.888 524.238C465.753 517.375 500.604 509.557 524.343 509.84C540.658 510.041 554.857 510.767 562.159 511.228L562.184 511.228C562.784 510.834 563.362 510.408 563.914 509.95C574.264 501.403 557.103 478.127 557.103 478.127C557.103 478.127 477.446 460.631 453.952 456.94C430.459 453.249 222.784 474.737 179.151 477.743C135.519 480.748 131.124 499.659 125.382 512.099C121.248 520.993 130.868 531.776 141.003 538.089Z" fill="url(#paint3_linear_401_334)"/>
<path d="M336.068 499.387C337.418 500.711 369.604 521.224 399.884 540.442C427.191 557.745 452.923 573.978 452.923 573.978L637.153 562.169L753.632 596.4L899.519 743.879L1014.61 791.933L996.282 831.329L1000.86 831.329L1009.11 831.329L1035.68 831.329L1148.37 829.497L1215.25 829.497L839.199 565.329L813.243 489.89L852.725 391.135L824.526 345.989L804.162 328.52L806.31 288.137L796.187 285.708L786.534 333.73L824.927 388.872L782.708 464.947L796.109 548.072L686.641 453.23L676.094 405.397L690.538 329.58L674.352 218.732L664.252 218.826L672.462 286.863L636.689 241.787L624.088 244.428L672.768 319.655L645.216 395.19L643.222 400.658L661.556 471.123L725.363 543.687L636.847 529.376L548.543 537.768L489.904 477.77L472.205 475.412L517.536 529.934L528.39 543.002L452.735 553.798L346.168 499.293L336.068 499.387Z" fill="url(#paint4_linear_401_334)"/>
<path style="mix-blend-mode:multiply" opacity="0.45" d="M805.129 567.439L852.963 635.838L970.653 708.399L965.662 664.467L977.623 669.853L839.199 565.33L839.402 581.625L805.129 567.439Z" fill="url(#paint5_linear_401_334)"/>
<g style="mix-blend-mode:overlay" opacity="0.75">
<path d="M643.222 400.659L661.556 471.124L725.363 543.688L732.754 531.989L664.738 471.17L645.312 405.357L645.217 395.191L643.222 400.659Z" fill="#E8C5C9"/>
</g>
<g style="mix-blend-mode:overlay" opacity="0.75">
<path d="M782.708 464.948L796.11 548.073L807.22 550.644L787.764 465.557L797.082 465.47L789.778 462.107L824.927 388.873L782.708 464.948Z" fill="#E8C5C9"/>
</g>
<path style="mix-blend-mode:multiply" opacity="0.45" d="M950.353 693.013L856.67 665.587L783.364 561.497L680.76 460.516L661.15 401.304L657.061 382.301L672.769 319.656L626.489 248.137L641.384 247.703L672.463 286.864L667.644 246.936L678.423 246.621L690.538 329.581L676.094 405.398L686.641 453.231L796.11 548.073L851.383 622.669L838.402 593.494L881.381 634.107L959.189 658.114L950.353 693.013Z" fill="url(#paint6_linear_401_334)"/>
<g style="mix-blend-mode:overlay" opacity="0.75">
<path d="M664.625 556.089L781.104 590.32L844.196 690.237L901.916 745.208L1069 811.446L1099 828.446L1153 828.446L1088.82 737.993L870.858 702.122L780.552 579.906L793.353 566.114L770.937 575.127L664.625 556.089Z" fill="#E8C5C9"/>
</g>
<path style="mix-blend-mode:multiply" opacity="0.45" d="M783.357 561.487L848.413 670.542L884.755 689.906L887.478 665.158L846.189 643.217L783.357 561.487Z" fill="url(#paint7_linear_401_334)"/>
<path style="mix-blend-mode:multiply" opacity="0.45" d="M806.025 476.768L800.494 511.785L809.184 501.361L832.727 591.494L957.383 660.88L957.237 645.305L839.285 574.491L813.329 499.052L852.811 400.297L824.613 355.151L804.248 337.682L806.396 297.299L796.273 294.87L786.62 342.892L842.459 400.469L806.025 476.768Z" fill="url(#paint8_linear_401_334)"/>
<g style="mix-blend-mode:overlay" opacity="0.75">
<path d="M452.924 573.979L637.154 562.17L634.046 552.269L452.924 573.979Z" fill="#E8C5C9"/>
</g>
<path d="M489.904 477.771L472.206 475.413L517.537 529.935L548.544 537.769L489.904 477.771Z" fill="url(#paint9_linear_401_334)"/>
<path d="M336.068 499.387C337.418 500.711 369.604 521.224 399.884 540.442L452.735 553.798L346.168 499.293L336.068 499.387Z" fill="url(#paint10_linear_401_334)"/>
<path d="M338.485 233.419C338.809 233.946 339.159 234.457 339.535 234.948C348.434 246.873 372.643 256.865 413.036 263.98C455.15 271.382 453.151 265.548 524.528 269.776C595.929 273.979 611.502 265.055 657.377 258.774C702.344 252.603 715.317 241.104 713.812 220.457C796.422 216.23 910.328 207.473 936.392 199.763C936.392 199.763 1012.31 168.176 1021.37 151.164C1030.42 134.152 1047.32 117.799 1005.43 99.0676C982.452 88.7875 963.317 78.6481 945.396 71.348C930.592 65.3055 916.64 61.1975 902.038 60.5012C869.676 58.9616 840.37 60.2188 840.37 60.2188C840.37 60.2188 866.234 47.3891 830.456 34.2516C809.304 26.2353 787.42 20.297 765.115 16.5211C753.275 14.1088 638.045 19.0437 602.634 37.1845C567.198 55.3255 559.124 72.2778 533.953 78.2645C508.757 84.2261 480.495 86.4071 467.361 99.673C454.227 112.939 440.974 145.782 446.427 159.228C448.081 163.274 448.986 168.261 450.778 173.567C449.163 173.658 447.699 173.747 446.412 173.809C425.893 174.985 376.059 176.434 361.55 191.226C356.873 195.962 352.018 200.725 347.819 205.406C338.947 215.276 333.102 224.867 338.485 233.419Z" fill="url(#paint11_linear_401_334)"/>
<path style="mix-blend-mode:multiply" opacity="0.45" d="M339.535 234.948C348.434 246.873 372.643 256.865 413.036 263.98C455.15 271.382 453.151 265.548 524.528 269.776C595.929 273.979 611.502 265.055 657.377 258.774C702.344 252.603 715.317 241.104 713.812 220.457C796.422 216.23 910.328 207.473 936.392 199.763C936.392 199.763 1012.31 168.176 1021.37 151.165C1030.42 134.153 1047.32 117.799 1005.43 99.0677C982.452 88.7875 963.317 78.6481 945.396 71.3481C930.592 65.3055 916.64 61.1975 902.038 60.5013C869.676 58.9616 840.37 60.2189 840.37 60.2189C840.37 60.2189 748.864 77.2433 720.327 90.5268C691.764 103.836 633.11 101.759 633.11 101.759C633.11 101.759 672.443 127.805 671.274 143.255C670.13 158.705 581.988 181.677 564.299 185.752C546.685 189.776 490.192 202.816 451.363 174.016C455.713 177.456 482.188 200.267 443.887 217.148C415.544 229.623 367.993 232.11 339.535 234.948Z" fill="url(#paint12_linear_401_334)"/>
<path opacity="0.65" d="M665.569 229.067C681.784 226.398 697.797 222.621 713.494 217.763C712.204 205.713 708.396 156.891 729.965 146.437C746.242 138.548 794.362 134.904 825.19 133.338C833.923 129.848 843.007 127.309 852.285 125.765C888.461 119.269 933.156 96.7376 963.632 79.4181C976.373 85.3701 990.026 92.1764 1005.43 99.0676C1047.32 117.799 1030.42 134.152 1021.37 151.164C1012.31 168.176 936.392 199.763 936.392 199.763C919.661 204.712 866.727 210.091 809.117 214.428C809.012 214.517 808.907 214.623 808.802 214.71C788.108 231.83 713.812 220.457 713.812 220.457C715.317 241.104 702.344 252.603 657.377 258.774C611.502 265.055 595.929 273.979 524.528 269.776C453.151 265.548 455.15 271.382 413.036 263.98C400.932 261.932 388.963 259.158 377.193 255.672C427.077 251.872 612.78 237.426 665.569 229.067Z" fill="url(#paint13_linear_401_334)"/>
<path d="M648.199 252.149C648.713 253.053 649.302 253.98 649.917 254.908C650.002 255.056 650.096 255.198 650.199 255.334C651.043 256.537 651.888 257.715 652.783 258.893C664.057 273.671 680.331 285.78 716.349 292.129C722.369 293.208 728.943 294.106 736.146 294.82C789.781 300.198 945.556 288.83 978.944 283.902C1012.33 278.949 1036.72 280.613 1049 260.418C1061.31 240.247 1065.51 229.613 1044.39 215.355C1023.27 201.096 962.529 205.296 962.529 205.296C962.529 205.296 977.283 176.223 940.946 162.762C939.223 162.123 937.399 161.509 935.424 160.947C933.576 160.409 931.627 159.923 929.577 159.463C929.501 159.438 929.45 159.439 929.374 159.414C878.867 148.281 817.538 143.682 791.094 145.871C764.625 148.085 740.939 156.228 738.518 172.774C737.282 183.128 739.77 193.583 745.535 202.275C745.535 202.275 692.596 201.129 668.488 210.083C645.714 218.494 637.934 234.485 648.199 252.149Z" fill="url(#paint14_linear_401_334)"/>
<path style="mix-blend-mode:multiply" opacity="0.45" d="M648.199 252.149C648.713 253.053 649.302 253.981 649.917 254.908C650.002 255.056 650.096 255.198 650.199 255.334C651.043 256.538 651.888 257.715 652.782 258.893C664.056 273.672 680.331 285.78 716.349 292.129C722.369 293.208 728.943 294.106 736.146 294.82C789.781 300.198 945.556 288.83 978.944 283.902C1012.33 278.949 1036.72 280.613 1049 260.418C1061.31 240.247 1065.51 229.613 1044.39 215.355C1023.27 201.097 962.529 205.296 962.529 205.296C962.529 205.296 977.283 176.223 940.946 162.763C939.223 162.123 937.399 161.509 935.424 160.947C933.575 160.409 931.626 159.923 929.577 159.463C929.501 159.438 929.45 159.439 929.374 159.414C932.84 165.537 934.392 172.107 931.291 178.09C922.659 194.77 895.388 205.771 874.887 208.889C854.387 212.006 829.193 212.847 829.193 212.847C829.193 212.847 848.647 224.749 835.016 230.729C821.914 236.502 783.932 246.998 749.597 207.232C754.796 215.08 759.992 230.647 730.522 241.467C702.11 251.924 668.931 252.158 648.199 252.149Z" fill="url(#paint15_linear_401_334)"/>
<path opacity="0.65" d="M716.349 292.129C722.369 293.208 728.943 294.106 736.147 294.82C789.782 300.198 945.556 288.83 978.944 283.902C1012.33 278.949 1036.72 280.613 1049 260.418C1061.31 240.247 1065.51 229.613 1044.39 215.355C1023.27 201.097 962.529 205.296 962.529 205.296C962.529 205.296 978.402 233.957 935.426 236.957C892.45 239.981 895.209 256.883 856.268 272.862C830.206 283.549 760.919 289.418 716.349 292.129Z" fill="url(#paint16_linear_401_334)"/>
<path d="M13.9402 465.547C-0.520613 490.51 27.5476 508.595 62.1053 512.322C96.6627 516.009 127.408 504.666 138.459 508.573C149.51 512.48 137.841 521.66 176.098 528.31C214.355 535 267.867 523.444 297.283 528.192C326.727 532.939 383.152 519.371 402.931 516.15C422.738 512.967 437.554 526.883 463.776 503.552C489.999 480.182 508.186 458.911 507.277 440.855C505.416 414.86 582.869 389.889 488.75 367.758C449.205 302.722 419.58 351.882 401.312 342.643C401.312 342.643 358.776 284.594 323.498 282.898C288.219 281.242 257.732 303.535 227.633 304.789C197.533 306.082 165.944 306.377 148.432 317.597C130.919 328.817 122.181 337.931 120.14 354.029C118.07 370.127 121.966 394.189 121.966 394.189C121.966 394.189 86.7726 398.566 79.4204 400.62C72.0971 402.713 51.5501 402.905 36.2757 419.126C21.0013 435.348 -0.978634 440.575 13.9402 465.547Z" fill="url(#paint17_linear_401_334)"/>
<path d="M70.4216 489.176C83.6023 505.325 82.3985 517.041 113.051 519.379C143.703 521.691 171.007 514.272 180.803 516.779C190.599 519.286 180.226 525.261 214.154 529.485C248.082 533.735 295.585 526.127 321.674 529.138C347.787 532.149 397.88 523.23 415.435 521.099C433.016 518.992 446.13 527.977 469.448 512.8C492.765 497.597 508.949 483.773 508.183 472.075C506.59 455.234 501.012 439.012 491.909 424.749C417.421 422.719 321.228 421.775 319.614 430.14C316.964 443.838 303.433 457.84 303.433 457.84C303.433 457.84 346.584 473.582 345.528 479.445C344.497 485.307 300.857 498.404 260.713 490.983C220.568 483.537 249.772 468.608 249.772 468.608C231.765 470.301 213.603 469.1 195.977 465.048C165.612 458.318 166.426 442.695 166.426 442.695C166.426 442.695 135.191 445.61 128.663 446.957C122.161 448.33 103.93 448.5 90.3421 459.046C76.7539 469.591 57.2409 473.028 70.4216 489.176Z" fill="url(#paint18_linear_401_334)"/>
<path d="M88.4016 460.474C86.3059 473.407 94.2823 491.009 112.111 487.602C132.927 483.623 137.589 494.403 166.316 500.14C195.042 505.878 193.591 489.974 193.591 489.974C202.224 493.767 211.198 496.735 220.392 498.839C238.028 503.231 287.362 501.469 287.362 501.469L261.572 512.296C261.572 512.296 303.243 508.482 314.311 507.318C320.684 506.647 344.343 505.793 367.004 505.541C390.102 490.283 379.13 463.331 379.13 463.331C379.13 463.331 419.292 444.25 442.778 446.994C457.907 448.762 470.792 456.909 482.164 469.023C489.754 464.603 497.624 460.682 505.724 457.283C506.943 462.139 507.765 467.086 508.183 472.075C508.949 483.773 492.765 497.597 469.448 512.8C446.13 527.977 433.016 518.992 415.435 521.099C397.88 523.23 347.787 532.149 321.674 529.138C295.585 526.127 248.082 533.735 214.154 529.485C180.226 525.261 190.599 519.286 180.803 516.779C171.008 514.272 143.703 521.692 113.051 519.379C82.3986 517.042 83.6024 505.325 70.4216 489.176C57.8561 473.781 75.0005 469.935 88.4016 460.474Z" fill="url(#paint19_linear_401_334)"/>
<path d="M299.867 432.963C308.678 447.991 310.583 468.129 334.878 471.285C359.173 474.413 378.274 475.898 378.274 475.898C378.274 475.898 367.992 490.273 388.903 501.833C409.814 513.393 447.963 513.897 492.157 515.148C536.38 516.427 571.917 516.095 596.921 503.247C613.468 494.775 620.111 486.063 622.755 481.103C640.223 479.387 655.688 477.746 663.404 476.593C687.665 473.012 716.186 466.036 707.391 452.671C698.596 439.334 676.842 429.445 645.607 424.719C638.529 423.62 632.683 422.677 627.439 421.894C623.969 416.515 619.129 412.091 613.383 409.05C568.06 381.775 482.265 384.239 441.588 388.833C400.883 393.399 363.613 392.055 337.698 402.389C319.024 409.827 302.987 414.635 298.853 422.381C298.039 424.074 297.704 425.946 297.882 427.806C298.06 429.665 298.745 431.445 299.867 432.963Z" fill="url(#paint20_linear_401_334)"/>
<path style="mix-blend-mode:multiply" opacity="0.45" d="M347.998 440.151C353.902 450.54 356.297 463.61 366.513 470.528C370.217 473.009 374.469 474.553 378.903 475.029C400.344 477.882 417.199 479.238 417.199 479.238C417.199 479.238 408.13 492.315 426.586 502.839C445.042 513.363 478.708 513.831 517.708 514.981C556.733 516.155 588.093 515.863 610.156 504.179C624.755 496.474 630.616 488.549 632.947 484.036C648.362 482.48 662.009 480.99 668.817 479.943C690.226 476.691 715.394 470.351 707.629 458.188C703.253 451.982 697.319 447.035 690.425 443.843C690.421 443.843 690.418 443.842 690.415 443.841C690.412 443.84 690.409 443.838 690.407 443.836C690.404 443.834 690.402 443.831 690.401 443.828C690.4 443.825 690.399 443.821 690.399 443.818C678.625 438.191 666.038 434.452 653.1 432.738C646.853 431.737 641.693 430.877 637.066 430.163C637.066 430.163 598.437 444.398 563.3 448.636C528.138 452.85 491.792 433.007 491.792 433.007C476.67 439.698 460.498 443.708 443.999 444.856C418.412 446.86 368.709 437.914 347.1 430.522C346.382 432.063 346.086 433.766 346.244 435.458C346.402 437.15 347.007 438.769 347.998 440.151Z" fill="url(#paint21_linear_401_334)"/>
<path d="M378.903 475.029C400.344 477.882 417.199 479.238 417.199 479.238C417.199 479.238 408.13 492.315 426.586 502.839C445.043 513.363 478.708 513.831 517.708 514.981C556.733 516.155 588.094 515.863 610.156 504.179C624.755 496.474 630.616 488.549 632.947 484.037C648.362 482.48 662.009 480.99 668.818 479.943C690.226 476.691 715.394 470.351 707.629 458.188C703.253 451.982 697.32 447.035 690.425 443.843C690.989 444.721 700.731 460.422 674.155 464.656C646.822 468.998 616.537 462.772 616.537 462.772C616.537 462.772 618.389 490.706 574.477 493.563C530.54 496.42 478.696 496.298 477.328 490.433C475.986 484.593 494.8 476.597 494.8 476.597C494.8 476.597 453.127 478.6 436.763 473.077C427.14 469.79 417.354 467.002 407.443 464.723C407.443 464.723 386.728 471.904 366.513 470.528C370.217 473.009 374.469 474.553 378.903 475.029Z" fill="url(#paint22_linear_401_334)"/>
<defs>
<linearGradient id="paint0_linear_401_334" x1="735.924" y1="370.389" x2="860.873" y2="162.087" gradientUnits="userSpaceOnUse">
<stop stop-color="#EC5393"/>
<stop offset="1" stop-color="#82288C"/>
</linearGradient>
<linearGradient id="paint1_linear_401_334" x1="840.383" y1="140.414" x2="809.301" y2="364.34" gradientUnits="userSpaceOnUse">
<stop stop-color="#80288E"/>
<stop offset="1" stop-color="#7F298A" stop-opacity="0"/>
</linearGradient>
<linearGradient id="paint2_linear_401_334" x1="-78028.8" y1="32684.7" x2="-79720.1" y2="22020.8" gradientUnits="userSpaceOnUse">
<stop stop-color="#EC5393"/>
<stop offset="1" stop-color="#82288C"/>
</linearGradient>
<linearGradient id="paint3_linear_401_334" x1="-91408.6" y1="22196.9" x2="-91126.9" y2="25820.9" gradientUnits="userSpaceOnUse">
<stop stop-color="#80288E"/>
<stop offset="1" stop-color="#7F298A" stop-opacity="0"/>
</linearGradient>
<linearGradient id="paint4_linear_401_334" x1="630.752" y1="510.332" x2="682.122" y2="264.72" gradientUnits="userSpaceOnUse">
<stop stop-color="#5E558C"/>
<stop offset="1" stop-color="#2D265C"/>
</linearGradient>
<linearGradient id="paint5_linear_401_334" x1="892.636" y1="609.054" x2="805.524" y2="609.866" gradientUnits="userSpaceOnUse">
<stop stop-color="#5E558C" stop-opacity="0"/>
<stop offset="1" stop-color="#2D265C"/>
</linearGradient>
<linearGradient id="paint6_linear_401_334" x1="-32633.1" y1="109067" x2="-60367.6" y2="57265.8" gradientUnits="userSpaceOnUse">
<stop stop-color="#5E558C" stop-opacity="0"/>
<stop offset="1" stop-color="#2D265C"/>
</linearGradient>
<linearGradient id="paint7_linear_401_334" x1="-10285" y1="34775.7" x2="-14107.2" y2="29111.7" gradientUnits="userSpaceOnUse">
<stop stop-color="#5E558C" stop-opacity="0"/>
<stop offset="1" stop-color="#2D265C"/>
</linearGradient>
<linearGradient id="paint8_linear_401_334" x1="-11062.3" y1="75094.8" x2="-15175.8" y2="39915.7" gradientUnits="userSpaceOnUse">
<stop stop-color="#5E558C" stop-opacity="0"/>
<stop offset="1" stop-color="#2D265C"/>
</linearGradient>
<linearGradient id="paint9_linear_401_334" x1="-18024.4" y1="14207.7" x2="-18316.7" y2="13154.7" gradientUnits="userSpaceOnUse">
<stop stop-color="#5E558C" stop-opacity="0"/>
<stop offset="1" stop-color="#2D265C"/>
</linearGradient>
<linearGradient id="paint10_linear_401_334" x1="-18882.2" y1="16071.1" x2="-19338.1" y2="14968.7" gradientUnits="userSpaceOnUse">
<stop stop-color="#5E558C" stop-opacity="0"/>
<stop offset="1" stop-color="#2D265C"/>
</linearGradient>
<linearGradient id="paint11_linear_401_334" x1="483.018" y1="3.5206" x2="724.553" y2="209.829" gradientUnits="userSpaceOnUse">
<stop stop-color="#F0DDE0"/>
<stop offset="1" stop-color="#FC75A0"/>
</linearGradient>
<linearGradient id="paint12_linear_401_334" x1="744.939" y1="248.39" x2="614.59" y2="90.6315" gradientUnits="userSpaceOnUse">
<stop stop-color="#EE4D9B"/>
<stop offset="1" stop-color="#FC75A0" stop-opacity="0"/>
</linearGradient>
<linearGradient id="paint13_linear_401_334" x1="-30396" y1="28783.7" x2="-31585.1" y2="20021.6" gradientUnits="userSpaceOnUse">
<stop stop-color="#80288E"/>
<stop offset="1" stop-color="#7F298A" stop-opacity="0"/>
</linearGradient>
<linearGradient id="paint14_linear_401_334" x1="-20310.4" y1="13780.8" x2="-15496.6" y2="28390.5" gradientUnits="userSpaceOnUse">
<stop stop-color="#F0DDE0"/>
<stop offset="1" stop-color="#FC75A0"/>
</linearGradient>
<linearGradient id="paint15_linear_401_334" x1="886.427" y1="319.446" x2="834.539" y2="196.851" gradientUnits="userSpaceOnUse">
<stop offset="0.18428" stop-color="#EE4D9B"/>
<stop offset="1" stop-color="#FC75A0" stop-opacity="0"/>
</linearGradient>
<linearGradient id="paint16_linear_401_334" x1="10106.4" y1="16109" x2="9530.65" y2="12502.4" gradientUnits="userSpaceOnUse">
<stop stop-color="#80288E"/>
<stop offset="1" stop-color="#7F298A" stop-opacity="0"/>
</linearGradient>
<linearGradient id="paint17_linear_401_334" x1="-112434" y1="44583.7" x2="-112119" y2="60554.8" gradientUnits="userSpaceOnUse">
<stop stop-color="#FC75A0"/>
<stop offset="1" stop-color="#FC75A0"/>
</linearGradient>
<linearGradient id="paint18_linear_401_334" x1="-100518" y1="30064.2" x2="-100465" y2="25147.9" gradientUnits="userSpaceOnUse">
<stop offset="0.18428" stop-color="#EE4D9B"/>
<stop offset="1" stop-color="#FC75A0" stop-opacity="0"/>
</linearGradient>
<linearGradient id="paint19_linear_401_334" x1="-100719" y1="23304.5" x2="-100691" y2="20707.4" gradientUnits="userSpaceOnUse">
<stop stop-color="#80288E"/>
<stop offset="1" stop-color="#7F298A" stop-opacity="0"/>
</linearGradient>
<linearGradient id="paint20_linear_401_334" x1="-59219.8" y1="26300.7" x2="-58805.7" y2="33552.6" gradientUnits="userSpaceOnUse">
<stop stop-color="#F0DDE0"/>
<stop offset="1" stop-color="#FC75A0"/>
</linearGradient>
<linearGradient id="paint21_linear_401_334" x1="-53319.6" y1="22937.9" x2="-53134" y2="19174.7" gradientUnits="userSpaceOnUse">
<stop offset="0.18428" stop-color="#EE4D9B"/>
<stop offset="1" stop-color="#FC75A0" stop-opacity="0"/>
</linearGradient>
<linearGradient id="paint22_linear_401_334" x1="-44948.1" y1="18982.8" x2="-45040.7" y2="16809.3" gradientUnits="userSpaceOnUse">
<stop stop-color="#80288E"/>
<stop offset="1" stop-color="#7F298A" stop-opacity="0"/>
</linearGradient>
</defs>
</svg>
