<svg width="26" height="26" viewBox="0 0 26 26" fill="none" xmlns="http://www.w3.org/2000/svg">
  <g clip-path="url(#clip0_677_213)">
    <path fill-rule="evenodd" clip-rule="evenodd" d="M19.4477 1.1548C18.4822 1.50719 17.6602 2.19389 16.7181 3.43499C15.7109 4.762 14.8234 5.56288 13.9614 5.92248C13.0589 6.29876 13.3331 6.58932 14.4995 6.49288C15.3997 6.41822 15.4316 6.42981 15.1602 6.72915C14.8147 7.11018 13.5793 7.51563 12.3051 7.66617C11.4218 7.77052 10.6925 8.06003 10.6925 8.30631C10.6925 8.36639 11.1875 8.46758 11.7924 8.531C12.3975 8.59459 13.2822 8.70421 13.7586 8.77465L14.6248 8.90289L13.3637 9.49209C11.844 10.2021 10.6925 11.0071 10.6925 11.3591C10.6925 11.5682 10.7843 11.582 11.1765 11.4329C11.4427 11.3315 11.9939 11.2983 12.4017 11.3591C12.8241 11.4222 13.3162 11.3862 13.5457 11.2757C13.816 11.1453 13.7458 11.2607 13.3324 11.6265C12.5837 12.2887 11.1342 13.1358 10.4647 13.3022C9.7071 13.4905 10.0038 13.8157 10.9866 13.8738C12.0158 13.9346 14.6393 13.1592 16.5882 12.2183C18.1072 11.4849 18.0361 11.5344 14.1243 13.9316C9.37395 16.8426 9.65395 16.7341 8.12898 16.2543C7.22227 15.969 7.19182 15.9713 6.36149 16.3861C5.37453 16.879 5.06461 17.3747 5.87364 17.1664C6.79549 16.9289 8.22859 16.8541 8.22859 17.0434C8.22859 17.1425 8.0702 17.2737 7.87661 17.335C7.28299 17.523 7.4852 17.7742 8.23018 17.7742C8.67086 17.7742 9.61224 17.4861 10.7381 17.0067C11.7294 16.5848 13.0948 16.0381 13.7723 15.792C15.6254 15.119 16.795 14.5675 18.4907 13.568C19.3351 13.0701 20.1038 12.7107 20.199 12.7694C20.4894 12.9486 20.408 15.7549 20.0933 16.4137C19.5942 17.4582 18.8527 17.8032 16.9372 17.8817C15.0733 17.9581 14.4538 18.1844 12.8648 19.3684C11.6578 20.2677 10.7828 20.4739 9.07265 20.262C6.33368 19.9227 4.22512 18.2158 3.13151 15.4534C2.35556 13.4933 2.20315 11.5862 2.7658 10.8792C3.23235 10.293 3.69415 10.2701 4.82614 10.7769C5.47062 11.0654 6.03925 11.1609 7.17264 11.1715C8.53183 11.1841 8.77311 11.1323 9.81252 10.6048C11.362 9.81831 11.5723 9.59889 10.9274 9.44184C10.6531 9.37491 9.88626 8.99529 9.22347 8.5981C7.89896 7.80408 6.95705 7.58589 5.60437 7.7591C5.11459 7.82182 4.73251 7.85537 4.75521 7.83359C4.77809 7.81198 5.28565 7.4357 5.88332 6.9974C7.12283 6.08831 7.77101 5.11422 8.06668 3.71659C8.17879 3.18747 8.41884 2.44421 8.60029 2.06512C8.78173 1.68602 8.90493 1.35085 8.87431 1.3201C8.84351 1.28954 8.34915 1.38633 7.77559 1.53548C5.93735 2.0133 4.36468 3.17149 3.0421 5.02147C2.29132 6.0718 1.18891 8.47917 1.18891 9.06855C1.18891 9.22419 1.02031 10.0006 0.814219 10.7942C0.501657 11.998 0.455019 12.5573 0.533336 14.1712C0.693841 17.4828 1.66743 19.6702 4.01604 21.9968C7.72085 25.6671 13.4168 26.5468 18.2044 24.1883C20.9857 22.818 22.903 20.5821 24.0022 17.4266C24.2328 16.7653 24.4382 16.0194 24.4589 15.7691C24.4809 15.5032 24.6319 15.2713 24.8224 15.211C25.1699 15.1009 25.826 14.154 25.8271 13.7607C25.8275 13.6307 25.3683 13.0236 24.8067 12.4117C23.34 10.8142 22.8037 9.7584 22.8706 8.60021C22.9146 7.83833 22.9857 7.66494 23.2759 7.61066C23.7951 7.51352 23.8683 7.29411 23.8211 5.97711C23.7918 5.15375 23.6869 4.68242 23.4832 4.45774C23.3208 4.27873 23.1879 3.93776 23.1879 3.70008C23.1879 3.02094 22.4484 1.73802 21.868 1.41022C21.0963 0.974562 20.201 0.880051 19.4477 1.1548ZM18.4361 11.3435C18.4361 11.3814 18.3133 11.4596 18.163 11.5172C18.0064 11.5771 17.9358 11.5476 17.9974 11.4482C18.1007 11.2811 18.4361 11.2012 18.4361 11.3435Z" fill="white"/>
  </g>
  <defs>
    <clipPath id="clip0_677_213">
      <rect width="25.0001" height="25" fill="white" transform="translate(0.5 0.5)"/>
    </clipPath>
  </defs>
</svg>
