<svg width="52" height="45" viewBox="0 0 52 45" fill="none" xmlns="http://www.w3.org/2000/svg">
<path d="M28.3087 22.0455C28.3087 28.1331 23.2054 33.0684 16.9098 33.0684C10.6143 33.0684 5.51135 28.1346 5.51135 22.0455C5.51135 15.9563 10.6147 11.0229 16.9098 11.0229C23.205 11.0229 28.3087 15.9578 28.3087 22.0455ZM40.8134 22.0455C40.8134 27.7763 38.2616 32.4216 35.114 32.4216C31.9664 32.4216 29.4146 27.7748 29.4146 22.0455C29.4146 16.3162 31.9664 11.6694 35.114 11.6694C38.2616 11.6694 40.8134 16.3162 40.8134 22.0455ZM45.928 22.0455C45.928 27.18 45.0304 31.342 43.9234 31.342C42.8165 31.342 41.9189 27.1785 41.9189 22.0455C41.9189 16.9125 42.8165 12.749 43.9238 12.749C45.0312 12.749 45.928 16.9114 45.928 22.0455Z" fill="#FC75A0"/>
</svg>
