<svg width="434" height="434" viewBox="0 0 434 434" fill="none" xmlns="http://www.w3.org/2000/svg">
<path d="M98.1981 376.731H58.7041V337.237V297.743H98.1981H137.692V337.237V376.731H98.1981ZM98.1981 365.447H126.408V337.237V309.027H98.1981H69.9881V337.237V365.447H98.1981ZM98.1981 354.163H81.2721V337.237V320.311H98.1981H115.124V337.237V354.163H98.1981ZM154.618 376.731H148.976V348.521V320.311H154.618H160.26V331.595V342.879H165.902H171.544V348.521V354.163H165.902H160.26V365.447V376.731H154.618ZM182.828 376.731H171.544V371.089V365.447H177.186H182.828V354.163V342.879H194.112H205.396V348.521V354.163H199.754H194.112V365.447V376.731H182.828ZM256.174 376.731H250.532V371.089V365.447H244.89H239.248V359.805V354.163H233.606H227.964V359.805V365.447H222.322H216.68V359.805V354.163H222.322H227.964V348.521V342.879H233.606H239.248V337.237V331.595H227.964H216.68V325.953V320.311H211.038H205.396V325.953V331.595H199.754H194.112V320.311V309.027H199.754H205.396V303.385V297.743H199.754H194.112V292.101V286.459H182.828H171.544V297.743V309.027H177.186H182.828V314.669V320.311H177.186H171.544V314.669V309.027H160.26H148.976V297.743V286.459H160.26H171.544V280.817V275.175H154.618H137.692V280.817V286.459H132.05H126.408V280.817V275.175H132.05H137.692V269.533V263.891H132.05H126.408V258.249V252.607H132.05H137.692V246.965V241.323H120.766H103.84V246.965V252.607H98.1981H92.5561V258.249V263.891H86.9141H81.2721V252.607V241.323H75.6301H69.9881V263.891V286.459H64.3461H58.7041V263.891V241.323H64.3461H69.9881V235.681V230.039H64.3461H58.7041V201.829V173.619H69.9881H81.2721V167.977V162.335H69.9881H58.7041V151.051V139.767H86.9141H115.124V145.409V151.051H120.766H126.408V145.409V139.767H154.618H182.828V145.409V151.051H177.186H171.544V162.335V173.619H177.186H182.828V167.977V162.335H194.112H205.396V167.977V173.619H199.754H194.112V184.903V196.187H216.68H239.248V201.829V207.471H256.174H273.1V201.829V196.187H278.742H284.384V190.545V184.903H278.742H273.1V179.261V173.619H278.742H284.384V167.977V162.335H273.1H261.816V156.693V151.051H256.174H250.532V156.693V162.335H239.248H227.964V156.693V151.051H222.322H216.68V145.409V139.767H211.038H205.396V145.409V151.051H199.754H194.112V134.125V117.199H199.754H205.396V111.557V105.915H199.754H194.112V100.273V94.6306H188.47H182.828V111.557V128.483H177.186H171.544V111.557V94.6306H160.26H148.976V88.9886V83.3466H154.618H160.26V77.7046V72.0626H154.618H148.976V66.4206V60.7786H154.618H160.26V55.1366V49.4946H165.902H171.544V60.7786V72.0626H177.186H182.828V66.4206V60.7786H194.112H205.396V66.4206V72.0626H199.754H194.112V83.3466V94.6306H216.68H239.248V83.3466V72.0626H244.89H250.532V66.4206V60.7786H239.248H227.964V55.1366V49.4946H261.816H295.668V60.7786V72.0626H290.026H284.384V66.4206V60.7786H273.1H261.816V66.4206V72.0626H267.458H273.1V77.7046V83.3466H278.742H284.384V88.9886V94.6306H290.026H295.668V100.273V105.915H284.384H273.1V94.6306V83.3466H267.458H261.816V88.9886V94.6306H250.532H239.248V100.273V105.915H244.89H250.532V117.199V128.483H244.89H239.248V139.767V151.051H244.89H250.532V145.409V139.767H256.174H261.816V128.483V117.199H267.458H273.1V128.483V139.767H267.458H261.816V145.409V151.051H273.1H284.384V156.693V162.335H290.026H295.668V151.051V139.767H301.31H306.952V145.409V151.051H312.594H318.236V145.409V139.767H323.878H329.52V145.409V151.051H335.162H340.804V145.409V139.767H346.446H352.088V145.409V151.051H357.73H363.372V145.409V139.767H369.014H374.656V145.409V151.051H380.298H385.94V156.693V162.335H357.73H329.52V167.977V173.619H346.446H363.372V179.261V184.903H369.014H374.656V190.545V196.187H380.298H385.94V201.829V207.471H374.656H363.372V213.113V218.755H374.656H385.94V235.681V252.607H374.656H363.372V246.965V241.323H357.73H352.088V230.039V218.755H346.446H340.804V224.397V230.039H335.162H329.52V224.397V218.755H323.878H318.236V213.113V207.471H312.594H306.952V201.829V196.187H312.594H318.236V190.545V184.903H323.878H329.52V179.261V173.619H323.878H318.236V167.977V162.335H312.594H306.952V173.619V184.903H301.31H295.668V201.829V218.755H301.31H306.952V224.397V230.039H295.668H284.384V235.681V241.323H312.594H340.804V246.965V252.607H346.446H352.088V258.249V263.891H346.446H340.804V286.459V309.027H346.446H352.088V314.669V320.311H363.372H374.656V325.953V331.595H380.298H385.94V337.237V342.879H380.298H374.656V354.163V365.447H369.014H363.372V371.089V376.731H357.73H352.088V371.089V365.447H335.162H318.236V359.805V354.163H306.952H295.668V359.805V365.447H290.026H284.384V371.089V376.731H278.742H273.1V371.089V365.447H278.742H284.384V359.805V354.163H273.1H261.816V342.879V331.595H256.174H250.532V337.237V342.879H244.89H239.248V348.521V354.163H244.89H250.532V359.805V365.447H256.174H261.816V371.089V376.731H256.174ZM357.73 365.447H363.372V359.805V354.163H357.73H352.088V348.521V342.879H357.73H363.372V337.237V331.595H357.73H352.088V337.237V342.879H346.446H340.804V337.237V331.595H335.162H329.52V337.237V342.879H335.162H340.804V348.521V354.163H346.446H352.088V359.805V365.447H357.73ZM301.31 342.879H318.236V337.237V331.595H301.31H284.384V325.953V320.311H278.742H273.1V314.669V309.027H261.816H250.532V303.385V297.743H261.816H273.1V292.101V286.459H278.742H284.384V280.817V275.175H301.31H318.236V269.533V263.891H329.52H340.804V258.249V252.607H329.52H318.236V258.249V263.891H306.952H295.668V258.249V252.607H278.742H261.816V246.965V241.323H267.458H273.1V235.681V230.039H267.458H261.816V224.397V218.755H239.248H216.68V224.397V230.039H211.038H205.396V235.681V241.323H199.754H194.112V230.039V218.755H199.754H205.396V213.113V207.471H199.754H194.112V201.829V196.187H188.47H182.828V190.545V184.903H177.186H171.544V190.545V196.187H177.186H182.828V201.829V207.471H177.186H171.544V218.755V230.039H177.186H182.828V241.323V252.607H177.186H171.544V246.965V241.323H165.902H160.26V218.755V196.187H154.618H148.976V190.545V184.903H154.618H160.26V167.977V151.051H143.334H126.408V156.693V162.335H120.766H115.124V156.693V151.051H109.482H103.84V156.693V162.335H98.1981H92.5561V156.693V151.051H86.9141H81.2721V156.693V162.335H86.9141H92.5561V167.977V173.619H86.9141H81.2721V179.261V184.903H75.6301H69.9881V196.187V207.471H81.2721H92.5561V201.829V196.187H98.1981H103.84V213.113V230.039H98.1981H92.5561V224.397V218.755H81.2721H69.9881V224.397V230.039H75.6301H81.2721V235.681V241.323H92.5561H103.84V235.681V230.039H120.766H137.692V235.681V241.323H148.976H160.26V246.965V252.607H154.618H148.976V258.249V263.891H165.902H182.828V258.249V252.607H194.112H205.396V258.249V263.891H199.754H194.112V275.175V286.459H211.038H227.964V292.101V297.743H233.606H239.248V303.385V309.027H244.89H250.532V314.669V320.311H256.174H261.816V325.953V331.595H273.1H284.384V337.237V342.879H301.31ZM244.89 297.743H239.248V292.101V286.459H233.606H227.964V280.817V275.175H222.322H216.68V269.533V263.891H222.322H227.964V258.249V252.607H233.606H239.248V246.965V241.323H227.964H216.68V235.681V230.039H239.248H261.816V235.681V241.323H256.174H250.532V258.249V275.175H256.174H261.816V280.817V286.459H256.174H250.532V292.101V297.743H244.89ZM244.89 286.459H250.532V280.817V275.175H244.89H239.248V280.817V286.459H244.89ZM132.05 218.755H126.408V213.113V207.471H132.05H137.692V201.829V196.187H126.408H115.124V190.545V184.903H109.482H103.84V179.261V173.619H115.124H126.408V167.977V162.335H137.692H148.976V167.977V173.619H137.692H126.408V179.261V184.903H132.05H137.692V190.545V196.187H143.334H148.976V201.829V207.471H143.334H137.692V213.113V218.755H132.05ZM86.9141 196.187H81.2721V190.545V184.903H86.9141H92.5561V190.545V196.187H86.9141ZM222.322 320.311H227.964V314.669V309.027H222.322H216.68V314.669V320.311H222.322ZM312.594 320.311H329.52V303.385V286.459H312.594H295.668V303.385V320.311H312.594ZM312.594 309.027H306.952V303.385V297.743H312.594H318.236V303.385V309.027H312.594ZM278.742 218.755H284.384V213.113V207.471H278.742H273.1V213.113V218.755H278.742ZM352.088 207.471H363.372V196.187V184.903H346.446H329.52V190.545V196.187H335.162H340.804V201.829V207.471H352.088ZM290.026 184.903H295.668V179.261V173.619H290.026H284.384V179.261V184.903H290.026ZM323.878 162.335H329.52V156.693V151.051H323.878H318.236V156.693V162.335H323.878ZM222.322 139.767H227.964V134.125V128.483H233.606H239.248V122.841V117.199H233.606H227.964V122.841V128.483H222.322H216.68V122.841V117.199H211.038H205.396V122.841V128.483H211.038H216.68V134.125V139.767H222.322ZM177.186 94.6306H182.828V88.9886V83.3466H177.186H171.544V88.9886V94.6306H177.186ZM256.174 83.3466H261.816V77.7046V72.0626H256.174H250.532V77.7046V83.3466H256.174ZM369.014 297.743H363.372V292.101V286.459H357.73H352.088V280.817V275.175H357.73H363.372V280.817V286.459H369.014H374.656V275.175V263.891H380.298H385.94V275.175V286.459H380.298H374.656V292.101V297.743H369.014ZM86.9141 286.459H81.2721V280.817V275.175H86.9141H92.5561V280.817V286.459H86.9141ZM256.174 196.187H250.532V190.545V184.903H244.89H239.248V179.261V173.619H244.89H250.532V179.261V184.903H256.174H261.816V190.545V196.187H256.174ZM222.322 184.903H216.68V179.261V173.619H222.322H227.964V179.261V184.903H222.322ZM98.1981 128.483H58.7041V88.9886V49.4946H98.1981H137.692V88.9886V128.483H98.1981ZM98.1981 117.199H126.408V88.9886V60.7786H98.1981H69.9881V88.9886V117.199H98.1981ZM98.1981 105.915H81.2721V88.9886V72.0626H98.1981H115.124V88.9886V105.915H98.1981ZM154.618 128.483H148.976V117.199V105.915H154.618H160.26V117.199V128.483H154.618ZM290.026 128.483H284.384V122.841V117.199H290.026H295.668V122.841V128.483H290.026ZM346.446 128.483H306.952V88.9886V49.4946H346.446H385.94V88.9886V128.483H346.446ZM346.446 117.199H374.656V88.9886V60.7786H346.446H318.236V88.9886V117.199H346.446ZM346.446 105.915H329.52V88.9886V72.0626H346.446H363.372V88.9886V105.915H346.446ZM222.322 83.3466H216.68V77.7046V72.0626H222.322H227.964V77.7046V83.3466H222.322Z" fill="black"/>
</svg>
