<svg width="45" height="45" viewBox="0 0 45 45" fill="none" xmlns="http://www.w3.org/2000/svg">
<path fill-rule="evenodd" clip-rule="evenodd" d="M8.17228 20.8708C16.9649 17.04 22.828 14.5145 25.7616 13.2944C34.1377 9.81045 35.8782 9.20526 37.0126 9.18527C37.2621 9.18088 37.82 9.24271 38.1814 9.53594C38.4865 9.78353 38.5705 10.118 38.6106 10.3527C38.6508 10.5875 38.7009 11.1222 38.6611 11.5401C38.2072 16.3093 36.2431 27.8829 35.244 33.2245C34.8212 35.4847 33.9887 36.2425 33.1827 36.3167C31.4312 36.4779 30.1012 35.1592 28.4047 34.0471C25.7502 32.307 24.2505 31.2238 21.6738 29.5258C18.6959 27.5634 20.6263 26.4849 22.3234 24.7222C22.7675 24.2609 30.4848 17.2415 30.6341 16.6047C30.6528 16.5251 30.6701 16.2282 30.4938 16.0715C30.3174 15.9147 30.0571 15.9683 29.8693 16.011C29.6031 16.0714 25.3623 18.8744 17.1471 24.4199C15.9434 25.2464 14.8531 25.6491 13.8763 25.628C12.7993 25.6048 10.7278 25.0191 9.18782 24.5186C7.29897 23.9046 5.79774 23.5799 5.92847 22.5372C5.99656 21.9941 6.74449 21.4386 8.17228 20.8708Z" fill="#FC75A0"/>
</svg>
