<svg width="45" height="45" viewBox="0 0 45 45" fill="none" xmlns="http://www.w3.org/2000/svg">
<path d="M40.4129 10.8523C39.0767 11.4468 37.6431 11.85 36.1367 12.03C37.6748 11.1051 38.8522 9.63808 39.4102 7.89535C37.9674 8.75188 36.3749 9.37384 34.678 9.71099C33.3192 8.25532 31.3864 7.34863 29.2426 7.34863C25.1298 7.34863 21.795 10.6974 21.795 14.8252C21.795 15.4107 21.8608 15.9825 21.9879 16.5292C15.7994 16.2171 10.3118 13.2397 6.6391 8.71543C5.99709 9.81804 5.63187 11.1028 5.63187 12.4743C5.63187 15.069 6.94762 17.3584 8.94394 18.6979C7.72345 18.6569 6.57557 18.3198 5.57065 17.7593V17.8527C5.57065 21.4748 8.13863 24.4978 11.5437 25.1858C10.9198 25.3544 10.2619 25.4478 9.58138 25.4478C9.10048 25.4478 8.63542 25.4 8.17944 25.3088C9.12765 28.2817 11.8771 30.4436 15.1348 30.5028C12.5872 32.5076 9.37495 33.699 5.88599 33.699C5.28485 33.699 4.69273 33.6625 4.10974 33.5965C7.40592 35.7219 11.3191 36.9612 15.525 36.9612C29.2246 36.9612 36.713 25.5663 36.713 15.6841L36.688 14.7159C38.1512 13.6679 39.417 12.3512 40.4129 10.8523Z" fill="#FC75A0"/>
</svg>
