<svg xmlns="http://www.w3.org/2000/svg" fill="#63159B" viewBox="0 0 100 100" width="2rem" height="2rem">
  <path d=" M 88.35 9.1 Q 88.3 8.05 87.7 6.95 87 5.65 86.1 5.45 L 84.9 3.75 80.2 2 Q 79.75 2.05 78.25 2 76.95 1.95 76.25 2.05 73.7 2.5 71 4.3 68.75 5.8 66.7 8 65.5 9.2 64.85 9.9 63.75 11.15 63.65 12.05 63.3 12.05 63.2 12.2 63.15 12.3 63.1 12.7 L 62.1 13.4 Q 62 14.2 61.1 15.2 60.8 15.45 59.55 16.65 58.1 18 57.35 18.7 56.05 19.85 54.95 20.45 54.4 20.8 52.7 21.3 51.2 21.8 50.55 22.3 50.05 22.7 50.25 23.2 50.4 23.7 51.05 23.75 51.1 24.25 51.7 24.3 52.05 24.35 52.75 24.3 L 57.6 24.3 57.6 24.45 56.55 25 56.4 25.15 56.55 25.5 50.15 27.7 45.9 27.95 41.9 28.95 41.9 29.45 Q 40.15 29.65 40.15 31.55 L 54.3 33.6 54.3 33.8 49.15 35.7 49.15 36.2 Q 48.25 36.2 46.45 37.2 44.55 38.25 44.45 38.95 42.9 39.1 41.4 40.7 40.05 42.15 39.65 43.8 40.35 44 40.75 44 41.45 44 41.55 43.45 42.15 43.45 43.5 43.3 44.8 43.1 45.5 43.15 46.7 43.15 48.75 43.35 50.5 43.4 51.9 42.75 L 51.9 42.95 Q 50.95 43.35 49.75 44.3 48.35 45.45 47.65 46.05 45 48.25 43.1 48.45 L 42.9 49 Q 42.15 48.95 40.8 49.6 39.35 50.35 38.75 50.55 38.65 50.6 38.15 50.7 37.8 50.75 37.6 50.9 37.25 51.15 37.3 51.6 37.3 52 37.55 52.35 38.15 53 39.25 53.3 40 53.45 41.2 53.45 46 53.5 49.5 51.95 49.85 51.8 51.35 51.5 52.7 51.2 52.75 50.7 53.7 50.7 54.65 50.45 55.95 50.15 56.05 49.5 57.1 49.5 58.3 49.1 59.5 48.75 60.35 48.1 L 59.85 49.15 59 49.65 55 51.4 54.85 51.55 55 51.9 53.3 52.45 51.4 54.15 Q 50.2 54.15 48.6 55.35 48.55 55.4 47.3 56.35 46.5 56.95 46.05 57.2 45.7 57.4 44.9 57.8 44.25 58.2 44.15 58.65 L 40.65 60.35 39.8 60.9 37.4 62.1 Q 37.4 62.45 36.8 62.5 36 62.6 35.85 62.7 34.9 63.25 33.15 62.65 32.2 62.35 31.75 62.2 30.9 61.95 30.3 61.95 30.25 61.45 29.65 61.4 28.9 61.45 28.6 61.4 25.9 60.95 24.1 61.7 23.55 61.85 23.35 61.95 22.95 62.1 22.9 62.45 L 20.65 63.3 Q 20.65 63.5 20.15 64.4 19.7 65.15 19.95 65.85 20.2 66.5 21.1 66.4 21.95 66.3 22.2 65.7 22.85 65.8 24 65.45 24.65 65.25 26.05 64.8 28.65 64.05 29.8 65.2 L 30.65 65.2 30.3 65.9 Q 29.6 65.85 29.25 65.9 28.65 65.95 28.6 66.4 27.85 66.4 27.4 66.95 26.95 67.5 27.55 67.95 28.15 68.45 29.3 68.7 30.45 68.9 31.35 68.65 32 68.5 33.35 68.15 34.5 67.85 35.15 67.45 35.5 67.25 36.45 67.2 37.4 67.15 37.75 66.95 39 66.1 39.1 66.05 40.05 65.5 40.35 65.55 L 48.45 62.3 50.15 61.25 51.55 61.25 51.7 61.05 51.55 60.7 56.4 59.25 57.6 58.45 Q 58.5 58.45 59.15 58.2 59.15 58.15 60.35 57.45 60.55 57.35 60.85 57.4 L 61.2 57.45 Q 61.45 57.3 62.1 56.85 62.5 56.5 62.8 56.55 62.8 56.35 63.55 56.05 63.95 55.9 64.7 55.65 65.5 55.35 66.65 54.6 68.25 53.6 68.5 53.45 68.75 53.3 69.3 53.1 69.75 52.85 69.7 52.45 L 71.75 51.75 74.35 49.5 75.4 49.5 75.4 49 77.5 48.7 78.15 50.55 Q 77.95 51.2 78.1 52.4 78.15 53.05 78.4 54.55 78.8 57.25 77.8 58.3 77.85 59.2 77.8 59.8 77.7 60.65 77.3 61.05 L 77.45 61.4 77.1 62.6 Q 76.75 62.65 76.65 62.95 76.6 63.1 76.6 63.65 L 76.1 63.65 74.5 65.9 73.3 66.95 72.1 67.6 Q 71.5 67.5 70.95 67.55 70.25 67.65 70.2 68.15 67.85 67.85 64.9 68.05 62.7 68.2 59.65 68.65 58.2 68.7 57.5 68.8 56.2 69 55.7 69.85 54.55 69.7 52.55 70.9 50.55 72.1 50.15 73.15 L 47.05 74.85 46.9 75.05 47.05 75.4 44.15 76.6 Q 43.45 77.25 42 77.45 41.05 77.65 39.65 77.65 37.85 77.65 35.45 77.45 32.75 77.2 31.35 77.1 30.95 77.1 29.8 76.75 28.9 76.5 28.25 76.6 L 21.5 73.15 21.5 72.65 20.8 72.65 20.8 72.1 18.05 70.4 Q 17.9 69.65 16.95 68.45 16 67.25 15.3 67.1 L 15.3 66.4 14.75 66.4 14.25 65.55 12.5 61.6 10.8 59 10.8 57.6 10.6 57.45 10.3 57.6 8.6 50.7 8.2 44.5 9.05 41.75 9.75 41.55 9.6 41.2 10.6 40 11.5 39.65 13.9 39.55 24.1 42.75 30.3 42.75 30.15 42.25 Q 31.8 42.45 34.25 41.35 35.85 40.6 36.2 40.5 37.35 40.05 38.25 40 L 38.25 39.5 39.3 39.5 41.2 37.75 Q 42 37.65 42.85 36.85 43.8 36 43.15 35.3 42.8 35.05 42.1 35.05 41.2 35.1 41 35.05 40.25 34.85 38.6 33.9 37.05 33.05 36.2 32.9 L 35.5 32.4 Q 35.1 31.75 34.2 31.2 33.35 30.65 32.55 30.5 L 31.35 29.45 27.55 28.35 19.25 28.25 19.25 28.1 24.25 24.45 26 22.4 Q 26.35 22.35 26.45 22.15 26.5 22 26.5 21.55 27.3 21.3 28 20.1 28.7 19 28.75 18.1 L 29.25 18.1 30.5 14.45 Q 30.4 13.35 30.6 11.95 30.85 10.25 31.35 9.6 L 31.15 9.25 31.7 7.9 33.25 5.65 33.75 4.25 33.6 3.4 29.1 3.75 27.2 4.25 22.9 6.15 Q 22.9 6.45 22.35 6.75 21.75 7 21.5 7.1 20.8 7.4 19.6 8.3 18.3 9.3 18.2 9.8 16.9 9.95 15.2 11.8 14.75 12.25 13.9 13.25 13.1 14.1 12.5 14.45 L 12.7 14.8 11.65 15.65 11.85 16 7.5 21.35 3.65 30.5 2.5 35.15 Q 2.55 36.05 2.5 36.45 2.4 37.15 2 37.6 2.05 38.85 1.35 41.2 0.45 44 0.35 44.8 -0.05 47.5 0 51.3 0 53.5 0.25 57.8 0.4 59.95 0.85 62.3 1.35 64.6 2.05 66.7 2.25 67.2 3.05 68.95 3.7 70.35 3.9 71.25 L 7.2 76.9 8.7 78.65 Q 8.8 79.6 9.7 80.8 9.85 81 11.3 82.7 13.2 84.85 15.6 86.9 18 88.9 20.5 90.4 21.05 90.7 22.1 91.45 23.1 92.1 23.9 92.15 L 23.9 92.65 24.95 92.65 24.95 93.15 28.4 94.4 28.4 94.9 35.3 96.65 Q 35.4 97.15 37.35 97.5 38.4 97.7 39.95 97.85 42.8 98.2 47.45 98.15 53.5 98.1 55 98.2 L 55 97.85 60.55 97.15 66.25 95.4 75.05 90.8 78.15 88.7 82.1 85.25 83 83.7 Q 83.9 83.25 84.9 81.95 85.95 80.65 86.1 79.7 86.95 79.4 87.9 77.75 88.8 76.2 88.85 75.2 89.25 75.1 89.3 74.95 89.4 74.75 89.35 74.35 L 91.6 70.55 93.85 63.8 94.55 58.8 94.9 58.45 Q 96.45 58.4 96.65 57.45 97.2 57.3 97.45 57.05 97.75 56.8 97.85 56.25 98.85 55.9 99.55 54.05 100.3 52.2 99.85 51.25 99.55 50.55 98.75 49.9 97.8 49.25 97.4 48.85 95.55 47.15 94.45 45.9 92.7 43.85 92.3 42.4 89.6 40.1 88.8 36.1 88.35 33.85 88.35 28.8 L 90.4 28.8 91.9 27.4 92.3 22.05 91.9 20.35 92.65 18.25 92.15 17.2 90.4 16 89.9 11.85 88.35 9.1 Z"></path>
</svg>