<svg width="132" height="127" viewBox="0 0 132 127" fill="none" xmlns="http://www.w3.org/2000/svg">
<path fill-rule="evenodd" clip-rule="evenodd" d="M128.234 62.1585C124.283 58.2071 121.838 54.7888 118.733 50.1307C116.697 47.0793 115.786 43.8233 115.257 40.3354C115.164 39.7367 115.195 39.1226 115.11 38.5239C114.724 35.7816 115.06 34.5301 116.863 33.6031L116.925 33.5799C117.698 33.4486 118.323 33.6186 119.2 33.1126C120.077 32.6066 120.359 32.3401 120.432 31.4479C120.506 30.5556 120.258 30.2196 120.046 29.5398C119.834 28.86 119.687 28.5703 120.305 28.1223C120.923 27.6742 121.108 27.6858 121.027 27.3034C120.946 26.921 120.386 27.006 120.092 26.2567C119.895 25.7661 120.285 25.7932 120.707 25.4301C121.054 25.1288 121.174 25.0439 120.907 24.6151C120.641 24.1864 120.367 23.8619 120.05 23.2401C119.733 22.6182 119.664 22.1818 119.934 21.7607C120.386 21.0964 119.934 21.5367 120.707 20.9883C121.479 20.4398 121.062 19.7484 120.911 19.4008C120.761 19.0531 120.038 18.4158 119.428 17.7399C118.818 17.064 117.806 16.137 117.072 15.2486L117.01 15.1173L116.933 14.731C117.644 12.344 116.632 10.4128 115.774 8.51243C114.14 4.86238 111.475 2.15864 107.551 0.829949C101.8 -1.10129 96.7128 0.493913 92.2284 4.00105C88.9916 6.53484 86.2995 9.6789 83.8932 13.0972C81.8963 15.9323 79.7294 18.6553 76.9175 20.8994C74.0918 23.1741 70.9997 25.0963 67.7094 26.6236V26.9481C68.7793 27.4101 69.9278 27.6632 71.0929 27.6935C72.7615 27.651 74.4185 27.1914 76.091 27.0215C76.4502 26.9828 76.9446 27.3382 77.2034 27.651C77.327 27.7978 77.1415 28.4235 76.9214 28.5935C75.4227 29.7986 74.0322 31.3204 72.3173 32.0311C69.1903 33.3404 65.8797 34.1586 62.5027 34.4567C60.2355 34.646 58.0029 35.3103 55.782 35.855C55.3224 35.9708 54.9284 36.3416 54.3838 36.7433L54.461 37.0639C58.0145 37.6665 61.2011 38.269 64.4108 38.7171C67.6205 39.1651 70.8187 39.4355 74.2717 39.8063C74.3026 39.8093 74.3321 39.8203 74.3576 39.838C74.383 39.8557 74.4035 39.8797 74.417 39.9076C74.4306 39.9354 74.4368 39.9663 74.435 39.9973C74.4332 40.0282 74.4236 40.0582 74.4069 40.0844C73.3061 41.7143 71.5023 41.7182 70.3745 42.7418C67.7299 45.1563 64.5125 46.8554 61.0273 47.678C57.7287 48.4505 55.6893 50.4435 53.3332 52.6992C53.3112 52.7213 53.2952 52.7486 53.2868 52.7786C53.2784 52.8086 53.2779 52.8402 53.2853 52.8705C53.2926 52.9007 53.3077 52.9286 53.3289 52.9514C53.3502 52.9741 53.3769 52.9911 53.4066 53.0005C53.7238 53.1432 54.0638 53.2282 54.4108 53.2516C56.3421 53.0778 58.2424 52.6529 60.1466 52.6915C63.1246 52.7572 66.0833 52.9657 69.011 51.6873C69.0405 51.6742 69.0729 51.6693 69.1049 51.6733C69.1369 51.6772 69.1672 51.6898 69.1926 51.7096C69.218 51.7294 69.2375 51.7558 69.2491 51.7859C69.2607 51.816 69.2638 51.8486 69.2582 51.8804C69.0921 52.7108 68.872 53.4254 68.4007 53.8541C63.3563 58.2921 57.7944 61.9113 51.4483 64.2403L49.4862 64.9588C49.4532 64.9695 49.4242 64.9896 49.4025 65.0166C49.3809 65.0436 49.3676 65.0764 49.3643 65.1109C49.361 65.1453 49.3679 65.18 49.3841 65.2106C49.4002 65.2412 49.425 65.2665 49.4553 65.2832C50.3977 65.8201 50.9307 66.2759 51.4754 66.2913C53.6538 66.3531 55.9249 66.5926 58.0068 66.1098C69.2698 63.5065 80.023 59.4933 90.0152 53.6185C90.5811 53.3106 91.1669 53.041 91.7688 52.8113C91.8029 52.7968 91.8408 52.7933 91.877 52.8014C91.9132 52.8096 91.946 52.8288 91.9707 52.8565C91.9954 52.8842 92.0109 52.919 92.0148 52.9559C92.0188 52.9928 92.0111 53.03 91.9928 53.0623C91.4562 54.0886 90.6564 54.9537 89.6753 55.5691C87.3578 57.087 84.9283 58.493 82.5259 59.9105C77.1184 63.1125 71.6298 66.2411 66.2455 69.5088C62.5182 71.7683 58.8797 74.1746 55.2451 76.5848C50.2239 79.9066 45.3224 82.1932 39.0652 79.2384C34.6697 77.1603 30.363 79.1109 26.5392 81.7026C26.3481 81.8672 26.2131 82.0873 26.1529 82.3322C26.1218 82.4316 26.111 82.5363 26.1213 82.6399C26.1317 82.7435 26.1628 82.844 26.213 82.9353C26.2631 83.0266 26.3312 83.1068 26.4132 83.1711C26.4951 83.2354 26.5892 83.2824 26.6898 83.3094C26.9396 83.3873 27.2041 83.4059 27.4623 83.3635C28.7524 83.0545 29.9999 82.5678 31.2707 82.17C34.0092 81.3087 36.6782 80.9765 39.5712 81.9266C40.5059 82.2318 40.6604 82.6721 40.7029 83.1202C40.7454 83.5682 40.2085 84.163 39.7682 84.4643C38.903 85.063 37.5048 84.727 36.9061 85.9668C36.8836 86.014 36.8775 86.0673 36.8887 86.1184C36.8999 86.1694 36.9278 86.2153 36.9679 86.2488C38.3236 87.3689 39.7102 86.1329 40.9887 86.0556C43.4351 85.8711 45.836 85.2947 48.0995 84.3484C55.585 81.3743 62.9431 78.0719 70.4672 75.2098C78.4278 72.2009 86.1334 68.829 93.3331 64.3215C95.4883 62.9734 97.632 61.6177 99.8568 60.3779C101.336 59.559 102.785 60.1616 103.376 61.6988C103.566 62.2726 103.655 62.8751 103.638 63.4794C103.673 67.1256 103.804 70.7795 103.638 74.418C103.538 76.6969 103.078 78.9796 101.792 80.9842C98.7406 85.708 94.3103 88.0332 88.7831 88.3461C86.8518 88.4581 84.8974 88.3461 82.9507 88.3461C76.118 88.2727 70.2316 90.5593 65.1022 95.1016C62.3985 97.4925 59.5943 99.9799 55.7395 100.308C52.2633 100.606 48.7369 100.868 45.2336 100.837C38.5051 100.776 32.5106 98.3886 27.022 94.5917C21.9235 91.0653 18.0494 86.4419 15.0908 81.073C10.7571 73.2013 8.23485 64.8197 8.72925 55.7197C9.03439 50.0843 13.4106 47.4192 18.2039 48.3424C19.9696 48.7468 21.6954 49.3091 23.3603 50.0225C29.3704 52.3748 35.3958 52.9928 41.7805 51.3203C46.7284 50.0225 50.8458 47.4888 54.8898 44.5031C54.917 44.4818 54.9376 44.4533 54.9492 44.4207C54.9607 44.3882 54.9628 44.3531 54.9551 44.3194C54.9474 44.2858 54.9302 44.255 54.9057 44.2307C54.8811 44.2065 54.8501 44.1897 54.8164 44.1825C50.2162 43.3636 49.6947 43.0237 44.9902 39.8758C42.9668 38.5676 40.8254 37.4516 38.594 36.5425C35.7575 35.4744 32.7693 34.8642 29.7412 34.7348C26.4553 34.594 23.1691 35.0053 20.0193 35.9515C19.9788 35.9654 19.9345 35.9638 19.8951 35.9471C19.8557 35.9304 19.8238 35.8997 19.8056 35.8609C19.7874 35.8221 19.7842 35.778 19.7965 35.737C19.8089 35.696 19.8359 35.6609 19.8725 35.6387C21.7729 34.2675 23.3487 33.1937 24.5075 32.4173C25.5504 31.726 26.2379 31.2934 27.3117 30.4861C28.3854 29.6788 29.4862 28.7325 30.9772 27.3961C31.6773 26.757 32.3353 26.0732 32.947 25.349C33.2406 25.0014 33.5303 24.6267 33.8084 24.2405C35.9602 21.5013 37.4476 18.3004 38.1536 14.8894C38.7516 11.843 39.5621 8.84225 40.5793 5.90912C40.9192 4.96667 42.1513 2.89638 42.7423 1.84965C42.7754 1.79021 42.7906 1.72243 42.786 1.65453C42.7814 1.58663 42.7572 1.52152 42.7163 1.46712C42.6754 1.41272 42.6196 1.37137 42.5556 1.34808C42.4917 1.32479 42.4223 1.32057 42.356 1.33593C41.9466 1.44795 41.5024 1.59858 41.3981 1.6179C33.8624 3.10109 27.0876 6.2297 21.3789 11.3282C12.9394 18.8677 7.19198 28.1918 4.46507 39.1844C2.9896 45.1326 1.19354 51.0113 0.552372 57.1874C-0.193087 64.3524 -0.335999 71.4786 1.08926 78.5161C3.43378 90.1035 9.23523 99.9258 17.5318 108.234C23.9912 114.674 31.8149 119.58 40.4248 122.591C45.7821 124.498 51.3656 125.696 57.0335 126.156C64.6735 126.793 72.2478 125.994 79.7062 124.128C88.2887 121.981 96.1759 118.385 102.943 112.668C109.895 106.805 115.438 99.8099 118.968 91.3318C120.919 86.6389 122.757 81.9112 123.356 76.8282C123.565 75.0746 123.275 73.5953 125.144 72.9657C126.539 72.559 127.795 71.7743 128.771 70.6984C129.111 70.3475 129.426 69.9732 129.714 69.5783C130.412 68.5131 130.833 67.2902 130.938 66.0209V66.0209C131.189 64.2674 130.938 64.8622 128.234 62.1585Z" fill="#6B1D9C"/>
</svg>
