<svg width="28" height="28" viewBox="0 0 28 28" fill="none" xmlns="http://www.w3.org/2000/svg">
<path d="M10.5 21.0002C9.85833 21.0002 9.30922 20.7719 8.85267 20.3153C8.39533 19.858 8.16667 19.3085 8.16667 18.6668V4.66683C8.16667 4.02516 8.39533 3.47566 8.85267 3.01833C9.30922 2.56177 9.85833 2.3335 10.5 2.3335H21C21.6417 2.3335 22.1912 2.56177 22.6485 3.01833C23.1051 3.47566 23.3333 4.02516 23.3333 4.66683V18.6668C23.3333 19.3085 23.1051 19.858 22.6485 20.3153C22.1912 20.7719 21.6417 21.0002 21 21.0002H10.5ZM10.5 18.6668H21V4.66683H10.5V18.6668ZM5.83333 25.6668C5.19167 25.6668 4.64217 25.4386 4.18483 24.982C3.72828 24.5247 3.5 23.9752 3.5 23.3335V8.16683C3.5 7.83627 3.612 7.559 3.836 7.335C4.05922 7.11177 4.33611 7.00016 4.66667 7.00016C4.99722 7.00016 5.2745 7.11177 5.4985 7.335C5.72172 7.559 5.83333 7.83627 5.83333 8.16683V23.3335H17.5C17.8306 23.3335 18.1078 23.4455 18.3318 23.6695C18.5551 23.8927 18.6667 24.1696 18.6667 24.5002C18.6667 24.8307 18.5551 25.1076 18.3318 25.3308C18.1078 25.5548 17.8306 25.6668 17.5 25.6668H5.83333Z" fill="black"/>
</svg>
