<svg width="46" height="46" viewBox="0 0 46 46" fill="none" xmlns="http://www.w3.org/2000/svg">
<path d="M27 5.538C27 4.136 25.864 3 24.462 3H21.54C20.136 3 19 4.136 19 5.538C19 6.694 18.208 7.686 17.13 8.11C16.96 8.178 16.79 8.25 16.624 8.322C15.562 8.782 14.3 8.642 13.48 7.824C13.0041 7.34842 12.3588 7.08127 11.686 7.08127C11.0132 7.08127 10.3679 7.34842 9.892 7.824L7.824 9.892C7.34842 10.3679 7.08127 11.0132 7.08127 11.686C7.08127 12.3588 7.34842 13.0041 7.824 13.48C8.644 14.3 8.784 15.56 8.32 16.624C8.2471 16.7914 8.17709 16.9601 8.11 17.13C7.686 18.208 6.694 19 5.538 19C4.136 19 3 20.136 3 21.538V24.462C3 25.864 4.136 27 5.538 27C6.694 27 7.686 27.792 8.11 28.87C8.178 29.04 8.25 29.21 8.32 29.376C8.782 30.438 8.642 31.7 7.824 32.52C7.34842 32.9959 7.08127 33.6412 7.08127 34.314C7.08127 34.9868 7.34842 35.6321 7.824 36.108L9.892 38.176C10.3679 38.6516 11.0132 38.9187 11.686 38.9187C12.3588 38.9187 13.0041 38.6516 13.48 38.176C14.3 37.356 15.56 37.216 16.624 37.678C16.79 37.752 16.96 37.822 17.13 37.89C18.208 38.314 19 39.306 19 40.462C19 41.864 20.136 43 21.538 43H24.462C25.864 43 27 41.864 27 40.462C27 39.306 27.792 38.314 28.87 37.888C29.04 37.822 29.21 37.752 29.376 37.68C30.438 37.216 31.7 37.358 32.518 38.176C32.7537 38.4118 33.0335 38.5988 33.3415 38.7264C33.6495 38.854 33.9796 38.9197 34.313 38.9197C34.6464 38.9197 34.9765 38.854 35.2845 38.7264C35.5925 38.5988 35.8723 38.4118 36.108 38.176L38.176 36.108C38.6516 35.6321 38.9187 34.9868 38.9187 34.314C38.9187 33.6412 38.6516 32.9959 38.176 32.52C37.356 31.7 37.216 30.44 37.678 29.376C37.752 29.21 37.822 29.04 37.89 28.87C38.314 27.792 39.306 27 40.462 27C41.864 27 43 25.864 43 24.462V21.54C43 20.138 41.864 19.002 40.462 19.002C39.306 19.002 38.314 18.21 37.888 17.132C37.821 16.9621 37.751 16.7934 37.678 16.626C37.218 15.564 37.358 14.302 38.176 13.482C38.6516 13.0061 38.9187 12.3608 38.9187 11.688C38.9187 11.0152 38.6516 10.3699 38.176 9.894L36.108 7.826C35.6321 7.35042 34.9868 7.08327 34.314 7.08327C33.6412 7.08327 32.9959 7.35042 32.52 7.826C31.7 8.646 30.44 8.786 29.376 8.324C29.2086 8.25042 29.0399 8.17974 28.87 8.112C27.792 7.686 27 6.694 27 5.54V5.538Z" stroke="#6B1D9C" stroke-width="4.4"/>
<path d="M31 23C31 25.1217 30.1571 27.1566 28.6569 28.6569C27.1566 30.1571 25.1217 31 23 31C20.8783 31 18.8434 30.1571 17.3431 28.6569C15.8429 27.1566 15 25.1217 15 23C15 20.8783 15.8429 18.8434 17.3431 17.3431C18.8434 15.8429 20.8783 15 23 15C25.1217 15 27.1566 15.8429 28.6569 17.3431C30.1571 18.8434 31 20.8783 31 23V23Z" stroke="#6B1D9C" stroke-width="4.4"/>
</svg>
