<svg width="52" height="52" viewBox="0 0 52 52" fill="none" xmlns="http://www.w3.org/2000/svg">
<path d="M26.0002 13C23.7405 13.0029 21.5741 13.9018 19.9763 15.4997C18.3784 17.0976 17.4794 19.2639 17.4766 21.5237H21.8099C21.8099 19.2118 23.6906 17.3333 26.0002 17.3333C28.3099 17.3333 30.1906 19.2118 30.1906 21.5237C30.1906 22.8193 29.1484 23.7597 27.5559 25.0467C27.0357 25.4542 26.536 25.8874 26.0587 26.3445C23.8964 28.5047 23.8336 30.7992 23.8336 31.0548V32.5H28.1669L28.1647 31.1285C28.1669 31.0938 28.2362 30.2922 29.1202 29.4103C29.4452 29.0853 29.8547 28.7603 30.2794 28.418C31.9672 27.0508 34.5217 24.986 34.5217 21.5237C34.52 19.264 33.6217 17.0973 32.0241 15.4992C30.4264 13.9011 28.2599 13.0023 26.0002 13ZM23.8336 34.6667H28.1669V39H23.8336V34.6667Z" fill="black" fill-opacity="0.4"/>
<path d="M26.0006 4.33331C14.0537 4.33331 4.33398 14.053 4.33398 26C4.33398 37.947 14.0537 47.6666 26.0006 47.6666C37.9476 47.6666 47.6673 37.947 47.6673 26C47.6673 14.053 37.9476 4.33331 26.0006 4.33331ZM26.0006 43.3333C16.4435 43.3333 8.66732 35.5571 8.66732 26C8.66732 16.4428 16.4435 8.66665 26.0006 8.66665C35.5578 8.66665 43.334 16.4428 43.334 26C43.334 35.5571 35.5578 43.3333 26.0006 43.3333Z" fill="black" fill-opacity="0.4"/>
</svg>
