<svg width="32" height="33" viewBox="0 0 32 33" fill="none" xmlns="http://www.w3.org/2000/svg">
<path d="M17.3346 21.8331H9.33465C8.98102 21.8331 8.64189 21.9736 8.39184 22.2236C8.14179 22.4737 8.00131 22.8128 8.00131 23.1664C8.00131 23.5201 8.14179 23.8592 8.39184 24.1092C8.64189 24.3593 8.98102 24.4998 9.33465 24.4998H17.3346C17.6883 24.4998 18.0274 24.3593 18.2775 24.1092C18.5275 23.8592 18.668 23.5201 18.668 23.1664C18.668 22.8128 18.5275 22.4737 18.2775 22.2236C18.0274 21.9736 17.6883 21.8331 17.3346 21.8331ZM12.0013 13.8331H14.668C15.0216 13.8331 15.3607 13.6926 15.6108 13.4426C15.8608 13.1925 16.0013 12.8534 16.0013 12.4998C16.0013 12.1461 15.8608 11.807 15.6108 11.557C15.3607 11.3069 15.0216 11.1664 14.668 11.1664H12.0013C11.6477 11.1664 11.3086 11.3069 11.0585 11.557C10.8085 11.807 10.668 12.1461 10.668 12.4998C10.668 12.8534 10.8085 13.1925 11.0585 13.4426C11.3086 13.6926 11.6477 13.8331 12.0013 13.8331ZM28.0013 16.4998H24.0013V4.49977C24.0022 4.26482 23.9411 4.0338 23.824 3.83009C23.7069 3.62639 23.5381 3.45724 23.3346 3.33977C23.132 3.22274 22.902 3.16113 22.668 3.16113C22.4339 3.16113 22.204 3.22274 22.0013 3.33977L18.0013 5.6331L14.0013 3.33977C13.7986 3.22274 13.5687 3.16113 13.3346 3.16113C13.1006 3.16113 12.8707 3.22274 12.668 3.33977L8.66798 5.6331L4.66798 3.33977C4.46529 3.22274 4.23536 3.16113 4.00131 3.16113C3.76726 3.16113 3.53734 3.22274 3.33465 3.33977C3.13117 3.45724 2.96235 3.62639 2.84528 3.83009C2.72821 4.0338 2.66705 4.26482 2.66798 4.49977V25.8331C2.66798 26.894 3.08941 27.9114 3.83955 28.6615C4.5897 29.4117 5.60711 29.8331 6.66798 29.8331H25.3346C26.3955 29.8331 27.4129 29.4117 28.1631 28.6615C28.9132 27.9114 29.3346 26.894 29.3346 25.8331V17.8331C29.3346 17.4795 29.1942 17.1403 28.9441 16.8903C28.6941 16.6402 28.3549 16.4998 28.0013 16.4998ZM6.66798 27.1664C6.31436 27.1664 5.97522 27.026 5.72517 26.7759C5.47512 26.5259 5.33465 26.1867 5.33465 25.8331V6.80643L8.00131 8.32643C8.2071 8.43391 8.43582 8.49005 8.66798 8.49005C8.90014 8.49005 9.12886 8.43391 9.33465 8.32643L13.3346 6.0331L17.3346 8.32643C17.5404 8.43391 17.7691 8.49005 18.0013 8.49005C18.2335 8.49005 18.4622 8.43391 18.668 8.32643L21.3346 6.80643V25.8331C21.3383 26.288 21.4194 26.7389 21.5746 27.1664H6.66798ZM26.668 25.8331C26.668 26.1867 26.5275 26.5259 26.2775 26.7759C26.0274 27.026 25.6883 27.1664 25.3346 27.1664C24.981 27.1664 24.6419 27.026 24.3918 26.7759C24.1418 26.5259 24.0013 26.1867 24.0013 25.8331V19.1664H26.668V25.8331ZM17.3346 16.4998H9.33465C8.98102 16.4998 8.64189 16.6402 8.39184 16.8903C8.14179 17.1403 8.00131 17.4795 8.00131 17.8331C8.00131 18.1867 8.14179 18.5259 8.39184 18.7759C8.64189 19.026 8.98102 19.1664 9.33465 19.1664H17.3346C17.6883 19.1664 18.0274 19.026 18.2775 18.7759C18.5275 18.5259 18.668 18.1867 18.668 17.8331C18.668 17.4795 18.5275 17.1403 18.2775 16.8903C18.0274 16.6402 17.6883 16.4998 17.3346 16.4998Z" fill="#63159B"/>
</svg>
