<svg width="52" height="52" viewBox="0 0 52 52" fill="none" xmlns="http://www.w3.org/2000/svg">
<path d="M48.001 3.95683C47.2506 3.19984 46.3571 2.59956 45.3727 2.19088C44.3882 1.78219 43.3323 1.57325 42.2664 1.5762C40.4021 1.57129 38.5939 2.21331 37.1502 3.39273C35.7064 4.57216 34.7165 6.21594 34.3494 8.0437H23.8568C23.643 8.04375 23.4313 8.08597 23.2339 8.16795C23.0365 8.24993 22.8572 8.37006 22.7063 8.52145L2.76265 28.5008C1.96988 29.2982 1.5249 30.377 1.5249 31.5014C1.5249 32.6258 1.96988 33.7045 2.76265 34.502L17.4104 49.1806C17.8032 49.576 18.2707 49.8896 18.7856 50.103C19.3006 50.3163 19.8527 50.4254 20.4102 50.4237C20.9673 50.4253 21.5192 50.3163 22.0339 50.1029C22.5486 49.8895 23.0157 49.576 23.4083 49.1806L43.3454 29.1931C43.6492 28.8885 43.8198 28.476 43.8199 28.0458V17.6718C45.4066 17.3645 46.8637 16.5858 48.001 15.4375C49.5166 13.9114 50.3672 11.8479 50.3672 9.69714C50.3672 7.54637 49.5166 5.48288 48.001 3.95683ZM21.1154 46.8844C21.0237 46.9762 20.9147 47.049 20.7948 47.0987C20.6749 47.1484 20.5464 47.174 20.4166 47.174C20.2869 47.174 20.1584 47.1484 20.0385 47.0987C19.9186 47.049 19.8096 46.9762 19.7179 46.8844L5.07015 32.2075C4.88428 32.0195 4.78004 31.7658 4.78004 31.5014C4.78004 31.237 4.88428 30.9833 5.07015 30.7953L24.5376 11.2937H40.5845V14.2593C39.9272 14.0207 39.3298 13.6414 38.8344 13.1478C38.5308 12.8418 38.118 12.669 37.687 12.6673C37.2559 12.6656 36.8418 12.8353 36.5358 13.1389C36.2298 13.4425 36.057 13.8553 36.0553 14.2863C36.0536 14.7174 36.2233 15.1315 36.5269 15.4375C37.6334 16.5501 39.0419 17.314 40.578 17.6345V27.3812L21.1154 46.8844ZM45.7 13.1478C45.1728 13.6698 44.5321 14.0629 43.828 14.2967V9.6687C43.828 9.23772 43.6568 8.8244 43.3521 8.51965C43.0473 8.21491 42.634 8.0437 42.203 8.0437H37.7002C37.9752 7.27318 38.441 6.58489 39.0539 6.04301C39.6669 5.50114 40.4071 5.12334 41.2056 4.94486C42.004 4.76639 42.8346 4.79305 43.62 5.02235C44.4053 5.25166 45.1198 5.67614 45.6968 6.2562C46.6079 7.17137 47.1196 8.40999 47.1202 9.70134C47.1208 10.9927 46.6102 12.2318 45.7 13.1478Z" fill="url(#paint0_linear_1252_360)"/>
<path d="M31.1869 23.4228L32.3358 22.2739C32.6318 21.9674 32.7956 21.557 32.7919 21.1309C32.7882 20.7048 32.6173 20.2973 32.316 19.996C32.0147 19.6947 31.6071 19.5238 31.181 19.5201C30.755 19.5164 30.3445 19.6802 30.038 19.9762L28.8908 21.1251C28.438 20.6723 27.9006 20.3132 27.3091 20.0682C26.7176 19.8232 26.0836 19.6971 25.4433 19.6971C24.8031 19.6971 24.1691 19.8232 23.5776 20.0682C22.9861 20.3132 22.4486 20.6723 21.9959 21.1251C21.5432 21.5778 21.184 22.1152 20.939 22.7067C20.694 23.2983 20.5679 23.9322 20.5679 24.5725C20.5679 25.2127 20.694 25.8467 20.939 26.4382C21.184 27.0297 21.5432 27.5672 21.9959 28.0199L24.2936 30.3161C24.4446 30.4669 24.5644 30.6461 24.6462 30.8432C24.7279 31.0404 24.77 31.2517 24.7701 31.4652C24.7702 31.6786 24.7282 31.89 24.6466 32.0872C24.565 32.2844 24.4453 32.4636 24.2945 32.6146C24.1436 32.7656 23.9644 32.8854 23.7673 32.9671C23.5701 33.0489 23.3588 33.091 23.1453 33.0911C22.9319 33.0911 22.7205 33.0492 22.5233 32.9676C22.3261 32.886 22.1469 32.7663 21.9959 32.6154L17.4004 28.0199C17.0939 27.7239 16.6834 27.5601 16.2574 27.5638C15.8313 27.5675 15.4237 27.7384 15.1224 28.0397C14.8211 28.341 14.6502 28.7486 14.6465 29.1746C14.6428 29.6007 14.8066 30.0112 15.1026 30.3177L17.4004 32.6154L16.2499 33.7643C16.0947 33.9142 15.9709 34.0935 15.8857 34.2918C15.8006 34.49 15.7557 34.7033 15.7539 34.919C15.752 35.1348 15.7931 35.3488 15.8748 35.5485C15.9565 35.7482 16.0772 35.9296 16.2297 36.0822C16.3823 36.2348 16.5638 36.3554 16.7635 36.4371C16.9632 36.5188 17.1772 36.56 17.3929 36.5581C17.6087 36.5562 17.8219 36.5114 18.0202 36.4262C18.2184 36.3411 18.3977 36.2173 18.5476 36.0621L19.6965 34.9148C20.6108 35.8293 21.851 36.3432 23.1442 36.3434C24.4374 36.3435 25.6777 35.8299 26.5922 34.9156C27.5067 34.0013 28.0206 32.7611 28.0208 31.4679C28.0209 30.1747 27.5073 28.9345 26.593 28.0199L24.2936 25.7222C23.9887 25.4175 23.8173 25.0041 23.8172 24.5731C23.817 24.142 23.9881 23.7285 24.2928 23.4236C24.5975 23.1187 25.0109 22.9473 25.4419 22.9472C25.873 22.947 26.2865 23.1181 26.5914 23.4228L31.1869 28.0199C31.3368 28.1751 31.5161 28.2989 31.7144 28.3841C31.9126 28.4693 32.1258 28.5141 32.3416 28.516C32.5574 28.5178 32.7714 28.4767 32.9711 28.395C33.1708 28.3133 33.3522 28.1926 33.5048 28.0401C33.6574 27.8875 33.778 27.7061 33.8597 27.5064C33.9414 27.3066 33.9825 27.0927 33.9807 26.8769C33.9788 26.6611 33.934 26.4479 33.8488 26.2496C33.7636 26.0514 33.6398 25.8721 33.4846 25.7222L31.1869 23.4228Z" fill="url(#paint1_linear_1252_360)"/>
<defs>
<linearGradient id="paint0_linear_1252_360" x1="31.8322" y1="-9.8216" x2="102.834" y2="74.1946" gradientUnits="userSpaceOnUse">
<stop stop-color="#63159B"/>
<stop offset="1" stop-color="#F49DA4"/>
</linearGradient>
<linearGradient id="paint1_linear_1252_360" x1="26.6436" y1="15.5445" x2="50.7071" y2="47.8597" gradientUnits="userSpaceOnUse">
<stop stop-color="#63159B"/>
<stop offset="1" stop-color="#F49DA4"/>
</linearGradient>
</defs>
</svg>
