<svg width="32" height="32" viewBox="0 0 32 32" fill="none" xmlns="http://www.w3.org/2000/svg">
<path d="M12.4453 26.9243L12.4453 13.4043L10.6675 13.4043L10.6675 26.9243L7.35199 23.6265C7.26911 23.5442 7.17084 23.479 7.06277 23.4347C6.95471 23.3904 6.83898 23.3678 6.72218 23.3682C6.60539 23.3686 6.48982 23.392 6.38207 23.4371C6.27432 23.4822 6.17651 23.5481 6.09421 23.6309C6.01192 23.7138 5.94675 23.8121 5.90244 23.9202C5.85813 24.0282 5.83553 24.1439 5.83594 24.2607C5.83636 24.3775 5.85977 24.4931 5.90485 24.6009C5.94992 24.7086 6.01578 24.8064 6.09866 24.8887L11.5564 30.3198L17.0142 24.8887C17.1078 24.8097 17.184 24.7121 17.2381 24.6023C17.2922 24.4924 17.323 24.3725 17.3286 24.2501C17.3342 24.1278 17.3144 24.0056 17.2705 23.8912C17.2266 23.7769 17.1596 23.6728 17.0736 23.5856C16.9876 23.4984 16.8845 23.4299 16.7708 23.3844C16.6571 23.3389 16.5352 23.3174 16.4128 23.3212C16.2903 23.3251 16.17 23.3542 16.0594 23.4067C15.9487 23.4592 15.8501 23.5341 15.7698 23.6265L12.4453 26.9243Z" fill="#63159B"/>
<path d="M10.668 11.5557L10.668 8.889L12.4457 8.889L12.4457 11.5557L10.668 11.5557Z" fill="#63159B"/>
<path d="M10.668 7.11133L10.668 5.33355L12.4457 5.33355L12.4457 7.11133L10.668 7.11133Z" fill="#63159B"/>
<path d="M15.876 7.18206C15.7931 7.26435 15.7273 7.36217 15.6822 7.46991C15.6371 7.57766 15.6137 7.69323 15.6133 7.81003C15.6129 7.92682 15.6355 8.04256 15.6798 8.15062C15.7241 8.25868 15.7893 8.35696 15.8716 8.43984C15.9539 8.52272 16.0517 8.58857 16.1594 8.63365C16.2672 8.67873 16.3827 8.70214 16.4995 8.70255C16.6163 8.70297 16.7321 8.68037 16.8401 8.63606C16.9482 8.59174 17.0465 8.52658 17.1293 8.44428L20.4449 5.1465L20.4449 18.6665L22.2227 18.6665L22.2227 5.1465L25.5471 8.44428C25.6275 8.53672 25.7261 8.61155 25.8367 8.66409C25.9474 8.71662 26.0677 8.74572 26.1901 8.74956C26.3125 8.7534 26.4344 8.73189 26.5481 8.6864C26.6619 8.6409 26.7649 8.57239 26.8509 8.48517C26.9369 8.39795 27.004 8.2939 27.0478 8.17954C27.0917 8.06519 27.1115 7.943 27.1059 7.82064C27.1004 7.69829 27.0695 7.5784 27.0154 7.46851C26.9614 7.35862 26.8851 7.2611 26.7916 7.18206L21.3338 1.77761L15.876 7.18206Z" fill="#63159B"/>
<path d="M20.4453 23.1113L20.4453 20.4447L22.2231 20.4447L22.2231 23.1113L20.4453 23.1113Z" fill="#63159B"/>
<path d="M20.4453 26.6665L20.4453 24.8887L22.2231 24.8887L22.2231 26.6665L20.4453 26.6665Z" fill="#63159B"/>
</svg>
