<svg width="70" height="56" viewBox="0 0 70 56" fill="none" xmlns="http://www.w3.org/2000/svg">
<path fill-rule="evenodd" clip-rule="evenodd" d="M27.5334 0.979989C29.1108 1.52884 30.7817 2.08993 31.2466 2.22677C32.6236 2.63217 32.5577 2.81161 30.8324 3.35385C29.9312 3.63708 26.0424 4.96392 22.1905 6.30201C18.3387 7.64035 13.9884 9.14956 12.5235 9.65606L9.85981 10.577L6.12388 9.28445C4.069 8.57378 2.24909 7.91869 2.07908 7.82909C1.90931 7.73949 3.26772 7.15442 5.09777 6.52919C6.92806 5.90396 11.3052 4.38324 14.8249 3.14968C22.6593 0.404212 23.7745 0.0328467 24.2732 0.00444954C24.4891 -0.00779062 25.9562 0.43114 27.5334 0.979989ZM47.6683 0.566516C49.1875 1.05661 63.1901 5.914 67.0845 7.30179L68.2678 7.72359L66.843 8.22984C66.0593 8.50842 64.2228 9.15226 62.7617 9.66071L60.1053 10.5848L57.2073 9.57307C44.0261 4.9715 41.2648 4.01849 39.5164 3.46841C38.4197 3.12348 37.5793 2.7837 37.6487 2.71344C37.8356 2.52396 45.0729 0.0213397 45.4948 0.000286609C45.6941 -0.00975032 46.6721 0.24509 47.6683 0.566516ZM42.7176 6.69272C46.4367 7.99115 51.297 9.67148 53.5185 10.4265C55.74 11.1814 57.507 11.8821 57.4452 11.9836C57.3834 12.085 57.0327 12.2404 56.6661 12.3288C56.0339 12.4813 50.5037 14.3849 41.1479 17.6712C34.3177 20.07 35.5798 19.9943 30.7358 18.2959C28.4267 17.4863 25.6137 16.5123 24.4848 16.1316C19.2798 14.3766 12.6334 12.0407 12.5218 11.9276C12.454 11.8588 14.7102 11.0189 17.536 10.061C20.3617 9.10305 25.336 7.38306 28.5902 6.23861C32.3645 4.91153 34.7691 4.1896 35.2313 4.24493C35.6297 4.29242 38.9986 5.39404 42.7176 6.69272ZM12.2554 14.0491C14.0007 14.65 18.4715 16.1974 22.1905 17.4878C25.9096 18.7784 29.6573 20.0619 30.5187 20.34L32.0848 20.8458L28.7976 22.0098C26.9895 22.65 24.8946 23.3702 24.1418 23.6103L22.7735 24.0466L18.0144 22.4328C6.04298 18.3737 0.09375 16.276 0.09375 16.1135C0.09375 16.0165 1.62048 15.4244 3.48652 14.7974C5.35255 14.1702 7.22727 13.5041 7.65231 13.3166C8.73927 12.8375 8.73275 12.8363 12.2554 14.0491ZM65.5099 14.4194C69.6084 15.8422 70.0725 16.0359 69.8658 16.2371C69.7602 16.3399 65.6867 17.7573 54.1461 21.7065L47.221 24.0764L42.6278 22.5019C40.1015 21.6357 38.0657 20.8957 38.1036 20.8573C38.1415 20.8186 42.9446 19.1476 48.7767 17.1434C54.6091 15.1394 59.6525 13.3844 59.9845 13.2436C60.9244 12.8454 61.057 12.8735 65.5099 14.4194ZM13.5837 22.9046C15.3954 23.5288 18.1139 24.4652 19.6249 24.9854C21.1357 25.5056 22.5733 25.9313 22.8194 25.9313C23.0652 25.9313 25.5901 25.1051 28.4301 24.0953C31.2698 23.0855 33.663 22.2593 33.7483 22.2593C33.8335 22.2593 33.9031 29.8472 33.9031 39.1216V55.9836L22.8547 52.1999C16.7782 50.1188 11.3716 48.2821 10.8403 48.1181L9.8743 47.8197L9.81175 34.7947C9.76635 25.3147 9.82286 21.7697 10.0194 21.7697C10.1682 21.7697 11.772 22.2803 13.5837 22.9046ZM60.1678 34.7947L60.1053 47.8197L59.1393 48.1205C58.608 48.2858 53.2017 50.1264 47.1249 52.2107L36.0765 56V39.1296C36.0765 29.8509 36.1581 22.2598 36.2576 22.2602C36.3571 22.2607 38.2862 22.9325 40.5442 23.7531C42.8022 24.5736 45.2659 25.4207 46.0194 25.6351L47.3891 26.0251L52.6605 24.2236C55.5596 23.2328 58.2578 22.2796 58.6563 22.1055C59.0548 21.9312 59.5718 21.7846 59.8056 21.7792C60.2065 21.7701 60.2267 22.5014 60.1678 34.7947ZM49.4343 28.1933C49.0607 28.8991 48.592 29.4976 48.3928 29.5236C45.8798 29.8513 45.6945 30.1395 47.0744 31.5721C47.9192 32.449 47.9264 32.4747 47.668 33.6441C47.4512 34.6243 47.4688 34.8918 47.77 35.1971C48.0943 35.5256 48.2599 35.4968 49.2897 34.9322L50.4455 34.2984L51.601 34.8977C52.2366 35.2272 52.8739 35.4233 53.0174 35.3335C53.185 35.2287 53.2229 34.6762 53.1237 33.787C52.9734 32.4416 52.9923 32.3811 53.8204 31.5677C54.951 30.4567 54.9351 29.9155 53.766 29.7155C52.162 29.4413 52.0147 29.3414 51.4025 28.1164C51.0709 27.4533 50.6452 26.9105 50.4568 26.9105C50.2682 26.9105 49.8082 27.4878 49.4343 28.1933ZM21.6783 29.5424C21.5293 29.6433 21.0659 30.4144 20.6486 31.2558C20.2311 32.0974 19.8565 32.7858 19.8164 32.7858C19.6232 32.7858 16.8282 33.3173 16.4773 33.4208C15.5748 33.6869 15.7566 34.3278 17.1365 35.7413L18.5007 37.1386L18.1979 38.8559C18.0315 39.8004 17.9617 40.7488 18.0429 40.9635C18.267 41.5554 19.0733 41.4359 20.6679 40.5745L22.1106 39.7948L23.5094 40.5745C25.9726 41.9471 26.5193 41.5698 26.0117 38.8479L25.6881 37.1129L27.0185 35.8581C28.986 34.002 28.8008 33.5613 25.834 33.0392C25.0486 32.9009 24.3785 32.7596 24.3449 32.7256C24.3114 32.6913 23.9187 31.9483 23.4724 31.0744C22.6871 29.5365 22.2449 29.1588 21.6783 29.5424ZM43.2335 37.7279C43.0354 38.0393 42.7444 38.5857 42.5867 38.9424C42.3457 39.4875 42.096 39.6168 41.0197 39.7532C39.3326 39.9666 39.165 40.4175 40.3244 41.6215C41.1887 42.5184 41.2047 42.5694 41.04 43.9057C40.8316 45.5966 41.1812 45.8346 42.7432 45.0654L43.8044 44.5427L44.8655 45.0654C46.4275 45.8346 46.7772 45.5966 46.5688 43.9057C46.4041 42.5694 46.42 42.5184 47.2843 41.6215C48.4114 40.4513 48.2633 40.0156 46.6429 39.7336C45.5166 39.5377 45.3461 39.4187 44.7798 38.4349C44.0277 37.1289 43.7078 36.9825 43.2335 37.7279Z" fill="url(#paint0_linear_748_249)"/>
<defs>
<linearGradient id="paint0_linear_748_249" x1="43.4132" y1="-13.0667" x2="120.095" y2="100.064" gradientUnits="userSpaceOnUse">
<stop stop-color="#63159B"/>
<stop offset="1" stop-color="#F49DA4"/>
</linearGradient>
</defs>
</svg>
