<svg xmlns="http://www.w3.org/2000/svg" viewBox="0 0 200 200"><defs><style>.cls-1{fill:#63159B;}.cls-2{fill:#fff;}</style></defs><g id="Livello_2" data-name="Livello 2"><g id="Livello_1-2" data-name="Livello 1"><path class="cls-1" d="M117.83,31.87h16.93v99c0,19.35-13.89,36.58-33.09,39a37.8,37.8,0,0,1-18.26-2.17c-.19-.07-.11-.37.09-.37s.69,0,1,0h0c-.67,0-1.34,0-2,0l-.08,0a38,38,0,0,1-23.54-35.07V90.88a.18.18,0,0,1,.18-.19H75.66a.19.19,0,0,1,.19.19v40.46c0,10.76,7.7,20.43,18.38,21.73a21,21,0,0,0,23.6-20.84h0ZM193.37,39c-2.43-19.2-19.66-33.1-39-33.1H96.8V0h-.14L83,14.27a.21.21,0,0,0,0,.26L96.66,28.8h.14V22.86h59a21,21,0,0,1,20.83,23.61c-1.3,10.68-11,18.38-21.72,18.38h-11a.19.19,0,0,0-.19.19V81.59a.19.19,0,0,0,.19.19h11.9a38,38,0,0,0,35.07-23.54.25.25,0,0,0,0-.08v0c0-.28,0-.53,0-.81l0-1.29c0,.38,0,.74,0,1.14,0,.2.29.28.36.09A37.56,37.56,0,0,0,193.37,39ZM96.8,87.71h.14l13.65-14.27a.21.21,0,0,0,0-.26L96.94,58.92H96.8v5.93H37.92a21,21,0,0,1-20.83-23.6c1.3-10.68,11-18.39,21.72-18.39H75.27a.18.18,0,0,0,.19-.18V6.12a.19.19,0,0,0-.19-.19H37.92A38,38,0,0,0,2.85,29.47a.28.28,0,0,0,0,.09c0,.72,0,1.41,0,2.1,0-.38,0-.75,0-1.14,0-.21-.29-.29-.36-.09A37.67,37.67,0,0,0,.31,48.69C2.74,67.88,20,81.78,39.32,81.78H96.8Z"></path><path class="cls-2" d="M245.11,124.82V57.57a.18.18,0,0,0-.18-.18H232.54a.2.2,0,0,1-.19-.19V49.75a.2.2,0,0,1,.19-.19h35.3a.2.2,0,0,1,.19.19V57.2a.2.2,0,0,1-.19.19h-12a.18.18,0,0,0-.19.18v67.25a.19.19,0,0,1-.19.19H245.3A.2.2,0,0,1,245.11,124.82Zm30.18,0V49.75a.19.19,0,0,1,.19-.19h16.2q8.38,0,13.28,2.57a14.68,14.68,0,0,1,7,7.68A33.82,33.82,0,0,1,314,72.57v27.75a38,38,0,0,1-2.1,13.51,16.14,16.14,0,0,1-6.8,8.34Q300.45,125,292.52,125h-17A.19.19,0,0,1,275.29,124.82Zm10.53-7.55a.18.18,0,0,0,.18.19h5.78q5.78,0,8.19-2.23a10.15,10.15,0,0,0,2.94-6.52,89.26,89.26,0,0,0,.51-10.34V73.87a48.72,48.72,0,0,0-.75-9.5,7.93,7.93,0,0,0-3.26-5.31q-2.51-1.66-7.91-1.67H286a.18.18,0,0,0-.18.18Zm38.56,7.55V49.75a.19.19,0,0,1,.18-.19h28.87a.19.19,0,0,1,.19.19V57.2a.19.19,0,0,1-.19.19H335.09a.18.18,0,0,0-.19.18V82.16a.19.19,0,0,0,.19.19h14.8a.18.18,0,0,1,.19.19v7.07a.18.18,0,0,1-.19.19h-14.8a.18.18,0,0,0-.19.19v27.28a.18.18,0,0,0,.19.19h18.53a.2.2,0,0,1,.19.19v7.17a.2.2,0,0,1-.19.19H324.56A.19.19,0,0,1,324.38,124.82Zm33.35-.07,15.61-39.16a.2.2,0,0,0,0-.15L358,49.83a.19.19,0,0,1,.17-.27h9.37a.18.18,0,0,1,.17.12L379,75.78a.18.18,0,0,0,.34,0l10.22-26.1a.2.2,0,0,1,.18-.12h9.37a.19.19,0,0,1,.17.27L383.55,86.28a.2.2,0,0,0,0,.15L400,124.75a.18.18,0,0,1-.17.26h-9.37a.18.18,0,0,1-.17-.12L378.21,97a.19.19,0,0,0-.35,0l-10.41,27.85a.19.19,0,0,1-.17.13H357.9A.19.19,0,0,1,357.73,124.75Z"></path></g></g></svg>
