<svg width="57" height="48" viewBox="0 0 57 48" fill="none" xmlns="http://www.w3.org/2000/svg">
<path fill-rule="evenodd" clip-rule="evenodd" d="M7.63611 2.88078C11.0603 4.34885 13.8262 5.58566 13.7828 5.62934C13.7394 5.67325 12.017 5.46198 9.95526 5.1599C7.89351 4.85783 6.18647 4.62794 6.16157 4.64886C6.13668 4.66978 6.75929 5.87325 7.54521 7.32316C8.33112 8.7733 13.376 18.1581 18.7561 28.1785C24.136 38.1989 28.6126 44.3972 28.704 44.3972C28.7954 44.3972 33.272 38.1989 38.6519 28.1785C44.032 18.1583 49.0769 8.7733 49.8628 7.32316C50.6487 5.87325 51.2713 4.66978 51.2464 4.64886C51.2215 4.62794 49.5145 4.85783 47.4527 5.1599C45.391 5.46198 43.6695 5.67394 43.6273 5.63141C43.5848 5.58865 46.4893 4.28793 50.0816 2.74078C53.6738 1.19339 56.6366 -0.0392732 56.6658 0.000957449C56.6951 0.041418 53.0391 6.38498 48.5417 14.0978C44.0443 21.8106 37.7666 32.594 34.5914 38.0607C31.4162 43.5275 28.7668 48.0002 28.704 48C28.6412 47.9998 26.7736 44.8719 24.5535 41.0488C14.1466 23.1269 1.22681 0.939366 0.907962 0.441196C0.47332 -0.237897 -0.254582 -0.501811 7.63611 2.88078Z" fill="url(#paint0_linear_748_252)"/>
<defs>
<linearGradient id="paint0_linear_748_252" x1="35.4147" y1="-11.2" x2="102.647" y2="81.625" gradientUnits="userSpaceOnUse">
<stop stop-color="#63159B"/>
<stop offset="1" stop-color="#F49DA4"/>
</linearGradient>
</defs>
</svg>
