<svg width="50" height="32" viewBox="0 0 50 32" fill="none" xmlns="http://www.w3.org/2000/svg">
<path fill-rule="evenodd" clip-rule="evenodd" d="M31.1076 4.04784C37.2225 6.27387 42.633 8.30835 43.131 8.56835C48.5639 10.9036 49.4769 15.0812 49.4541 19.4742C49.4288 24.3038 47.2596 27.9649 43.0709 30.2481C40.175 31.8265 37.6981 32.5911 33.8951 31.4622L22.6743 27.2927C12.5967 23.5482 11.4196 23.0264 11.1226 22.1728C10.655 20.8299 11.124 19.3456 12.1668 18.8679C12.9259 18.5201 13.9426 18.7823 19.1292 20.6624C22.4693 21.8731 25.2166 22.8403 25.2339 22.8116C25.2513 22.7828 25.1934 21.592 25.105 20.1653L24.9449 17.5719L13.2425 13.3026C6.80595 10.9542 1.20029 8.79412 0.785219 8.50171C-0.841026 7.35647 0.254969 4.26888 2.2818 4.28527C2.73671 4.28927 8.30325 6.19412 14.6525 8.51846C21.0017 10.8432 26.3162 12.7451 26.4625 12.7451C26.6092 12.7451 27.5531 11.9163 28.5607 10.9036C30.288 9.16664 30.3477 9.04575 29.6082 8.77519C29.1771 8.61751 26.624 7.70351 23.9348 6.74435C18.9597 4.96986 17.4153 3.96737 17.4153 2.51224C17.4153 1.74171 18.9242 0 19.5914 0C19.8105 0 24.9927 1.82146 31.1076 4.04784ZM34.2573 12.705C28.7483 15.2614 28.686 23.0716 34.1522 25.8897C35.747 26.7119 38.6626 26.8015 40.3356 26.0798C41.7561 25.4673 43.6739 23.4885 44.1955 22.0982C45.5255 18.5475 43.8206 14.0223 40.3356 12.5197C38.7177 11.8216 35.9813 11.905 34.2573 12.705Z" fill="white"/>
</svg>
