<svg width="102" height="100" viewBox="0 0 102 100" fill="none" xmlns="http://www.w3.org/2000/svg">
<mask id="mask0_309_277" style="mask-type:alpha" maskUnits="userSpaceOnUse" x="0" y="0" width="102" height="100">
<path d="M100.063 51.0347C100.064 53.8908 99.8186 56.7416 99.3293 59.5555C95.1892 83.1381 76.0539 97.1641 52.7764 97.9666C28.5961 98.8003 7.00037 83.9773 2.73405 59.5438C2.24453 56.7339 1.99893 53.8869 2 51.0347C1.99944 48.1805 2.24504 45.3316 2.73405 42.5197C3.71997 36.8837 5.69408 31.4663 8.56535 26.5174C11.4241 21.5637 15.1288 17.1494 19.5115 13.4747C23.8872 9.78915 28.879 6.90465 34.2571 4.95389C39.6307 2.99165 45.3081 1.99173 51.0288 2.00005C56.7513 1.99225 62.4305 2.99214 67.8062 4.95389C73.182 6.90605 78.1716 9.79045 82.546 13.4747C86.9289 17.1508 90.6354 21.5648 93.498 26.5174C96.3693 31.4663 98.3434 36.8837 99.3293 42.5197C99.8183 45.3316 100.064 48.1805 100.063 51.0347Z" fill="url(#paint0_linear_309_277)" stroke="black" stroke-width="3.52345" stroke-miterlimit="10"/>
</mask>
<g mask="url(#mask0_309_277)">
<path d="M100.063 51.0347C100.064 53.8908 99.8186 56.7416 99.3293 59.5555C95.1892 83.1381 76.0539 97.1641 52.7764 97.9666C28.5961 98.8003 7.00037 83.9773 2.73405 59.5438C2.24453 56.7339 1.99893 53.8869 2 51.0347C1.99944 48.1805 2.24504 45.3316 2.73405 42.5197C3.71997 36.8837 5.69408 31.4663 8.56535 26.5174C11.4241 21.5637 15.1288 17.1494 19.5115 13.4747C23.8872 9.78915 28.879 6.90465 34.2571 4.95389C39.6307 2.99165 45.3081 1.99173 51.0288 2.00005C56.7513 1.99225 62.4305 2.99214 67.8062 4.95389C73.182 6.90605 78.1716 9.79045 82.546 13.4747C86.9289 17.1508 90.6354 21.5648 93.498 26.5174C96.3693 31.4663 98.3434 36.8837 99.3293 42.5197C99.8183 45.3316 100.064 48.1805 100.063 51.0347Z" fill="url(#paint1_linear_309_277)"/>
<path d="M91.0317 81.502C88.2423 90.0788 82.8227 97.5504 75.548 102.848C68.2734 108.147 59.5162 111 50.5287 111C41.542 111 32.7856 108.146 25.5119 102.848C18.2382 97.55 12.8199 90.0784 10.0317 81.502L29.9277 71.8933L40.9691 66.5551L42.3971 65.8654C43.1679 65.4951 43.9623 65.1765 44.775 64.9117C45.5779 64.6487 46.3985 64.4443 47.2307 64.2999C47.8194 64.1892 48.4138 64.1111 49.0111 64.066C49.513 64.018 50.0209 64 50.5287 64C51.0366 64 51.5385 64.018 52.0464 64.06C52.6438 64.1071 53.2382 64.1872 53.8268 64.2999C54.659 64.4442 55.4796 64.6487 56.2824 64.9117C57.099 65.1712 57.8958 65.4899 58.6664 65.8654L60.0944 66.5551L71.1477 71.8933L91.0317 81.502Z" fill="url(#paint2_linear_309_277)" stroke="black" stroke-width="3.31034" stroke-miterlimit="10"/>
<g clip-path="url(#clip0_309_277)">
<path d="M65.0136 25.3489C64.7855 25.5251 60.76 27.7845 60.76 32.8085C60.76 38.6195 65.8824 40.6753 66.0357 40.7262C66.0121 40.8515 65.2219 43.5417 63.3349 46.2827C61.6524 48.6949 59.8951 51.1031 57.2219 51.1031C54.5487 51.1031 53.8607 49.5563 50.7747 49.5563C47.7674 49.5563 46.6981 51.154 44.2529 51.154C41.8077 51.154 40.1015 48.922 38.1398 46.1809C35.8676 42.9622 34.0317 37.9617 34.0317 33.2157C34.0317 25.6035 39.0008 21.5663 43.8912 21.5663C46.4897 21.5663 48.6558 23.2657 50.2873 23.2657C51.8401 23.2657 54.2617 21.4645 57.218 21.4645C58.3384 21.4645 62.3639 21.5663 65.0136 25.3489ZM55.8145 18.2418C57.0371 16.7968 57.902 14.792 57.902 12.7871C57.902 12.5091 57.8784 12.2271 57.8273 12C55.8381 12.0744 53.4715 13.3196 52.0445 14.9682C50.9241 16.2369 49.8784 18.2418 49.8784 20.2741C49.8784 20.5795 49.9295 20.8849 49.9531 20.9828C50.0789 21.0063 50.2833 21.0337 50.4878 21.0337C52.2725 21.0337 54.5172 19.8433 55.8145 18.2418Z" fill="#FFBCA9"/>
</g>
<path d="M100.095 51.0347C100.096 53.8908 99.8503 56.7416 99.361 59.5555C95.2209 83.1381 76.0857 97.1641 52.8082 97.9666C28.6279 98.8003 7.03211 83.9773 2.76579 59.5438C2.27627 56.7339 2.03067 53.8869 2.03174 51.0347C2.03118 48.1805 2.27677 45.3316 2.76579 42.5197C3.75171 36.8837 5.72582 31.4663 8.59709 26.5174C11.4558 21.5637 15.1605 17.1494 19.5432 13.4747C23.9189 9.78915 28.9107 6.90465 34.2889 4.95389C39.6625 2.99165 45.3399 1.99173 51.0605 2.00005C56.783 1.99225 62.4622 2.99214 67.838 4.95389C73.2137 6.90605 78.2033 9.79045 82.5777 13.4747C86.9606 17.1508 90.6671 21.5648 93.5298 26.5174C96.4011 31.4663 98.3752 36.8837 99.3611 42.5197C99.8501 45.3316 100.096 48.1805 100.095 51.0347Z" stroke="black" stroke-width="3.52345" stroke-miterlimit="10"/>
</g>
<defs>
<linearGradient id="paint0_linear_309_277" x1="51.0317" y1="2" x2="51.0317" y2="66.2384" gradientUnits="userSpaceOnUse">
<stop stop-color="#5611A3"/>
<stop offset="1" stop-color="#94227D"/>
</linearGradient>
<linearGradient id="paint1_linear_309_277" x1="51.0317" y1="2" x2="51.0317" y2="66.2384" gradientUnits="userSpaceOnUse">
<stop stop-color="#5611A3"/>
<stop offset="1" stop-color="#94227D"/>
</linearGradient>
<linearGradient id="paint2_linear_309_277" x1="50.5317" y1="64" x2="50.5317" y2="111" gradientUnits="userSpaceOnUse">
<stop stop-color="#FFE0E3"/>
<stop offset="0.552083" stop-color="#F18C95"/>
<stop offset="1" stop-color="#E73E93"/>
</linearGradient>
<clipPath id="clip0_309_277">
<rect width="32" height="39.1579" fill="white" transform="translate(34.0317 12)"/>
</clipPath>
</defs>
</svg>
