<svg width="102" height="100" viewBox="0 0 102 100" fill="none" xmlns="http://www.w3.org/2000/svg">
<mask id="mask0_584_171" style="mask-type:alpha" maskUnits="userSpaceOnUse" x="0" y="0" width="102" height="100">
<path d="M100.063 51.0347C100.064 53.8908 99.8186 56.7416 99.3293 59.5555C95.1892 83.1381 76.0539 97.1641 52.7764 97.9666C28.5961 98.8003 7.00037 83.9773 2.73405 59.5438C2.24453 56.7339 1.99893 53.8869 2 51.0347C1.99944 48.1805 2.24504 45.3316 2.73405 42.5197C3.71997 36.8837 5.69408 31.4663 8.56535 26.5174C11.4241 21.5637 15.1288 17.1494 19.5115 13.4747C23.8872 9.78915 28.879 6.90465 34.2571 4.95389C39.6307 2.99165 45.3081 1.99173 51.0288 2.00005C56.7513 1.99225 62.4305 2.99214 67.8062 4.95389C73.182 6.90605 78.1716 9.79045 82.546 13.4747C86.9289 17.1508 90.6354 21.5648 93.498 26.5174C96.3693 31.4663 98.3434 36.8837 99.3293 42.5197C99.8183 45.3316 100.064 48.1805 100.063 51.0347Z" fill="url(#paint0_linear_584_171)" stroke="black" stroke-width="3.52345" stroke-miterlimit="10"/>
</mask>
<g mask="url(#mask0_584_171)">
<path d="M100.063 51.0347C100.064 53.8908 99.8186 56.7416 99.3293 59.5555C95.1892 83.1381 76.0539 97.1641 52.7764 97.9666C28.5961 98.8003 7.00037 83.9773 2.73405 59.5438C2.24453 56.7339 1.99893 53.8869 2 51.0347C1.99944 48.1805 2.24504 45.3316 2.73405 42.5197C3.71997 36.8837 5.69408 31.4663 8.56535 26.5174C11.4241 21.5637 15.1288 17.1494 19.5115 13.4747C23.8872 9.78915 28.879 6.90465 34.2571 4.95389C39.6307 2.99165 45.3081 1.99173 51.0288 2.00005C56.7513 1.99225 62.4305 2.99214 67.8062 4.95389C73.182 6.90605 78.1716 9.79045 82.546 13.4747C86.9289 17.1508 90.6354 21.5648 93.498 26.5174C96.3693 31.4663 98.3434 36.8837 99.3293 42.5197C99.8183 45.3316 100.064 48.1805 100.063 51.0347Z" fill="url(#paint1_linear_584_171)"/>
<path d="M90.0312 81.502C87.2418 90.0788 81.8222 97.5504 74.5476 102.848C67.2729 108.147 58.5157 111 49.5282 111C40.5415 111 31.7851 108.146 24.5115 102.848C17.2378 97.55 11.8194 90.0784 9.03125 81.502L28.9272 71.8933L39.9686 66.5551L41.3966 65.8654C42.1674 65.4951 42.9618 65.1765 43.7745 64.9117C44.5774 64.6487 45.398 64.4443 46.2302 64.2999C46.819 64.1892 47.4133 64.1111 48.0107 64.066C48.5125 64.018 49.0204 64 49.5283 64C50.0361 64 50.538 64.018 51.0459 64.06C51.6433 64.1071 52.2377 64.1872 52.8263 64.2999C53.6585 64.4442 54.4791 64.6487 55.282 64.9117C56.0986 65.1712 56.8953 65.4899 57.6659 65.8654L59.0939 66.5551L70.1472 71.8933L90.0312 81.502Z" fill="url(#paint2_linear_584_171)" stroke="black" stroke-width="3.31034" stroke-miterlimit="10"/>
<g clip-path="url(#clip0_584_171)">
<path fill-rule="evenodd" clip-rule="evenodd" d="M64.0502 45.6706C65.6467 45.4875 69.1387 45.087 69.7613 45.859C70.3907 46.6385 69.0631 49.844 68.4696 51.2769L68.4685 51.2795C68.2881 51.714 68.6748 51.8885 69.0799 51.5609C71.7207 49.4275 72.3984 44.9579 71.8607 44.3133C71.3229 43.6722 66.7117 43.1202 63.9015 45.0327C63.4669 45.3247 63.5406 45.7307 64.023 45.6738L64.0502 45.6706ZM49.5296 53.6552C55.6904 53.6552 62.846 51.7071 67.7827 48.0558C68.6 47.4473 67.9011 46.5419 67.0653 46.8981C61.5332 49.2543 55.5166 50.3898 50.0474 50.3898C41.9378 50.3898 34.087 48.1597 27.7376 44.4528C27.1829 44.1262 26.7688 44.6977 27.231 45.117C33.1144 50.4492 40.8912 53.6552 49.5296 53.6552Z" fill="#FFBCA9"/>
<path d="M52.255 29.564V28.5796C48.926 28.5796 45.4092 29.2827 45.4092 33.1567C45.4092 35.1192 46.439 36.4489 48.2071 36.4489C49.5025 36.4489 50.6618 35.6626 51.3936 34.3841C52.3003 32.8115 52.255 31.3348 52.255 29.564ZM56.8987 40.6425C56.5943 40.9109 56.1539 40.9301 55.8107 40.7511C54.2822 39.4982 54.0102 38.9164 53.1682 37.721C50.6423 40.2653 48.8548 41.026 45.5776 41.026C41.7046 41.026 38.6865 38.6671 38.6865 33.943C38.6865 30.2544 40.7137 27.7421 43.5958 26.5147C46.0958 25.428 49.5867 25.2362 52.255 24.9358V24.3476C52.255 23.2673 52.3392 21.9887 51.698 21.0554C51.1346 20.218 50.0594 19.8728 49.1139 19.8728C47.3587 19.8728 45.7914 20.7614 45.4092 22.6024C45.3315 23.0116 45.0271 23.4143 44.6126 23.4335L40.1438 22.9604C39.7681 22.8773 39.3536 22.5769 39.4572 22.0079C40.487 16.6637 45.3769 15.0527 49.755 15.0527C51.9959 15.0527 54.9234 15.6409 56.6915 17.3157C58.9324 19.3805 58.7187 22.1358 58.7187 25.1339V32.217C58.7187 34.3457 59.6124 35.279 60.4544 36.4297C60.7523 36.8388 60.8171 37.3311 60.4414 37.6379C59.5023 38.4114 57.8314 39.8498 56.9117 40.6552L56.8987 40.6424" fill="#FFBCA9"/>
</g>
<path d="M100.095 51.0347C100.095 53.8908 99.8498 56.7416 99.3605 59.5555C95.2205 83.1381 76.0852 97.1641 52.8077 97.9666C28.6274 98.8003 7.03162 83.9773 2.7653 59.5438C2.27578 56.7339 2.03018 53.8869 2.03125 51.0347C2.03069 48.1805 2.27629 45.3316 2.7653 42.5197C3.75122 36.8837 5.72533 31.4663 8.5966 26.5174C11.4553 21.5637 15.16 17.1494 19.5427 13.4747C23.9184 9.78915 28.9102 6.90465 34.2884 4.95389C39.662 2.99165 45.3394 1.99173 51.06 2.00005C56.7825 1.99225 62.4617 2.99214 67.8375 4.95389C73.2132 6.90605 78.2028 9.79045 82.5772 13.4747C86.9601 17.1508 90.6666 21.5648 93.5293 26.5174C96.4006 31.4663 98.3747 36.8837 99.3606 42.5197C99.8496 45.3316 100.095 48.1805 100.095 51.0347Z" stroke="black" stroke-width="3.52345" stroke-miterlimit="10"/>
</g>
<defs>
<linearGradient id="paint0_linear_584_171" x1="51.0317" y1="2" x2="51.0317" y2="66.2384" gradientUnits="userSpaceOnUse">
<stop stop-color="#5611A3"/>
<stop offset="1" stop-color="#94227D"/>
</linearGradient>
<linearGradient id="paint1_linear_584_171" x1="51.0317" y1="2" x2="51.0317" y2="66.2384" gradientUnits="userSpaceOnUse">
<stop stop-color="#5611A3"/>
<stop offset="1" stop-color="#94227D"/>
</linearGradient>
<linearGradient id="paint2_linear_584_171" x1="49.5312" y1="64" x2="49.5312" y2="111" gradientUnits="userSpaceOnUse">
<stop stop-color="#FFE0E3"/>
<stop offset="0.552083" stop-color="#F18C95"/>
<stop offset="1" stop-color="#E73E93"/>
</linearGradient>
<clipPath id="clip0_584_171">
<rect width="45" height="40" fill="white" transform="translate(27.0317 14)"/>
</clipPath>
</defs>
</svg>
