<svg width="102" height="100" viewBox="0 0 102 100" fill="none" xmlns="http://www.w3.org/2000/svg">
<mask id="mask0_584_259" style="mask-type:alpha" maskUnits="userSpaceOnUse" x="0" y="0" width="102" height="100">
<path d="M100.063 51.0347C100.064 53.8908 99.8186 56.7416 99.3293 59.5555C95.1892 83.1381 76.0539 97.1641 52.7764 97.9666C28.5961 98.8003 7.00037 83.9773 2.73405 59.5438C2.24453 56.7339 1.99893 53.8869 2 51.0347C1.99944 48.1805 2.24504 45.3316 2.73405 42.5197C3.71997 36.8837 5.69408 31.4663 8.56535 26.5174C11.4241 21.5637 15.1288 17.1494 19.5115 13.4747C23.8872 9.78915 28.879 6.90465 34.2571 4.95389C39.6307 2.99165 45.3081 1.99173 51.0288 2.00005C56.7513 1.99225 62.4305 2.99214 67.8062 4.95389C73.182 6.90605 78.1716 9.79045 82.546 13.4747C86.9289 17.1508 90.6354 21.5648 93.498 26.5174C96.3693 31.4663 98.3434 36.8837 99.3293 42.5197C99.8183 45.3316 100.064 48.1805 100.063 51.0347Z" fill="url(#paint0_linear_584_259)" stroke="black" stroke-width="3.52345" stroke-miterlimit="10"/>
</mask>
<g mask="url(#mask0_584_259)">
<path d="M100.063 51.0347C100.064 53.8908 99.8186 56.7416 99.3293 59.5555C95.1892 83.1381 76.0539 97.1641 52.7764 97.9666C28.5961 98.8003 7.00037 83.9773 2.73405 59.5438C2.24453 56.7339 1.99893 53.8869 2 51.0347C1.99944 48.1805 2.24504 45.3316 2.73405 42.5197C3.71997 36.8837 5.69408 31.4663 8.56535 26.5174C11.4241 21.5637 15.1288 17.1494 19.5115 13.4747C23.8872 9.78915 28.879 6.90465 34.2571 4.95389C39.6307 2.99165 45.3081 1.99173 51.0288 2.00005C56.7513 1.99225 62.4305 2.99214 67.8062 4.95389C73.182 6.90605 78.1716 9.79045 82.546 13.4747C86.9289 17.1508 90.6354 21.5648 93.498 26.5174C96.3693 31.4663 98.3434 36.8837 99.3293 42.5197C99.8183 45.3316 100.064 48.1805 100.063 51.0347Z" fill="url(#paint1_linear_584_259)"/>
<path d="M90.0312 81.502C87.2418 90.0788 81.8222 97.5504 74.5476 102.848C67.2729 108.147 58.5157 111 49.5282 111C40.5415 111 31.7851 108.146 24.5115 102.848C17.2378 97.55 11.8194 90.0784 9.03125 81.502L28.9272 71.8933L39.9686 66.5551L41.3966 65.8654C42.1674 65.4951 42.9618 65.1765 43.7745 64.9117C44.5774 64.6487 45.398 64.4443 46.2302 64.2999C46.819 64.1892 47.4133 64.1111 48.0107 64.066C48.5125 64.018 49.0204 64 49.5283 64C50.0361 64 50.538 64.018 51.0459 64.06C51.6433 64.1071 52.2377 64.1872 52.8263 64.2999C53.6585 64.4442 54.4791 64.6487 55.282 64.9117C56.0986 65.1712 56.8953 65.4899 57.6659 65.8654L59.0939 66.5551L70.1472 71.8933L90.0312 81.502Z" fill="url(#paint2_linear_584_259)" stroke="black" stroke-width="3.31034" stroke-miterlimit="10"/>
<path d="M49.3702 56.9997L55.2007 24.2087C60.7582 24.2087 62.5111 24.8182 62.7642 27.3056C62.7642 27.3056 66.4923 25.9155 68.3727 23.0923C61.0351 19.6922 53.6625 19.5389 53.6625 19.5389L49.3605 24.7787L49.3702 24.7781L45.0682 19.5381C45.0682 19.5381 37.6955 19.6916 30.3589 23.0917C32.2376 25.9149 35.9672 27.3049 35.9672 27.3049C36.2217 24.8173 37.9726 24.2079 43.4927 24.204L49.3702 56.9997Z" fill="#FFBCA9"/>
<path d="M49.368 18.0254C55.2994 17.98 62.0885 18.943 69.0386 21.9721C69.9675 20.3002 70.2063 19.5612 70.2063 19.5612C62.6089 16.5554 55.494 15.5268 49.3672 15.501C43.2407 15.5268 36.1262 16.5556 28.5298 19.5612C28.5298 19.5612 28.8687 20.4714 29.6967 21.9721C36.6454 18.943 43.4357 17.98 49.3672 18.0254H49.368Z" fill="#FFBCA9"/>
<path d="M100.095 51.0347C100.095 53.8908 99.8498 56.7416 99.3605 59.5555C95.2205 83.1381 76.0852 97.1641 52.8077 97.9666C28.6274 98.8003 7.03162 83.9773 2.7653 59.5438C2.27578 56.7339 2.03018 53.8869 2.03125 51.0347C2.03069 48.1805 2.27629 45.3316 2.7653 42.5197C3.75122 36.8837 5.72533 31.4663 8.5966 26.5174C11.4553 21.5637 15.16 17.1494 19.5427 13.4747C23.9184 9.78915 28.9102 6.90465 34.2884 4.95389C39.662 2.99165 45.3394 1.99173 51.06 2.00005C56.7825 1.99225 62.4617 2.99214 67.8375 4.95389C73.2132 6.90605 78.2028 9.79045 82.5772 13.4747C86.9601 17.1508 90.6666 21.5648 93.5293 26.5174C96.4006 31.4663 98.3747 36.8837 99.3606 42.5197C99.8496 45.3316 100.095 48.1805 100.095 51.0347Z" stroke="black" stroke-width="3.52345" stroke-miterlimit="10"/>
</g>
<defs>
<linearGradient id="paint0_linear_584_259" x1="51.0317" y1="2" x2="51.0317" y2="66.2384" gradientUnits="userSpaceOnUse">
<stop stop-color="#5611A3"/>
<stop offset="1" stop-color="#94227D"/>
</linearGradient>
<linearGradient id="paint1_linear_584_259" x1="51.0317" y1="2" x2="51.0317" y2="66.2384" gradientUnits="userSpaceOnUse">
<stop stop-color="#5611A3"/>
<stop offset="1" stop-color="#94227D"/>
</linearGradient>
<linearGradient id="paint2_linear_584_259" x1="49.5312" y1="64" x2="49.5312" y2="111" gradientUnits="userSpaceOnUse">
<stop stop-color="#FFE0E3"/>
<stop offset="0.552083" stop-color="#F18C95"/>
<stop offset="1" stop-color="#E73E93"/>
</linearGradient>
</defs>
</svg>
