<svg width="96" height="96" viewBox="0 0 96 96" fill="none" xmlns="http://www.w3.org/2000/svg">
  <g clip-path="url(#clip0_257_147)">
  <mask id="mask0_257_147" style="mask-type:alpha" maskUnits="userSpaceOnUse" x="0" y="0" width="96" height="95">
  <path d="M95.7241 48.5239C95.7249 51.3503 95.487 54.1714 95.013 56.956C91.0022 80.2929 72.4647 94.1728 49.9144 94.9669C26.4894 95.7919 5.56829 81.1233 1.43524 56.9444C0.961011 54.1637 0.723085 51.3464 0.724124 48.5239C0.72358 45.6995 0.961502 42.8803 1.43524 40.0976C2.39036 34.5203 4.30281 29.1594 7.08438 24.262C9.85378 19.3599 13.4428 14.9916 17.6886 11.3552C21.9276 7.70801 26.7634 4.85356 31.9736 2.92312C37.1793 0.981318 42.6794 -0.00818165 48.2213 5.09505e-05C53.7651 -0.0076688 59.2669 0.981805 64.4747 2.92312C69.6825 4.85494 74.5162 7.7093 78.754 11.3552C83 14.9929 86.5907 19.361 89.3639 24.262C92.1455 29.1593 94.0579 34.5203 95.013 40.0976C95.4868 42.8803 95.7246 45.6995 95.7241 48.5239Z" fill="url(#paint0_linear_257_147)"/>
  </mask>
  <g mask="url(#mask0_257_147)">
  <path d="M91.5275 61.8574C88.5104 71.0983 82.6485 79.1486 74.7801 84.8569C66.9117 90.5652 57.4397 93.6394 47.7188 93.6396C37.9986 93.6392 28.5275 90.565 20.6602 84.8566C12.7928 79.1481 6.93218 71.098 3.9165 61.8574L25.4364 51.5047L37.3789 45.7531L38.9234 45.0099C39.7571 44.611 40.6164 44.2677 41.4955 43.9824C42.3638 43.6991 43.2515 43.4788 44.1515 43.3232C44.7884 43.2039 45.4313 43.1198 46.0773 43.0712C46.6201 43.0195 47.1695 43.0001 47.7188 43.0001C48.2681 43.0001 48.8109 43.0195 49.3603 43.0647C50.0064 43.1155 50.6493 43.2018 51.286 43.3232C52.1861 43.4788 53.0738 43.6991 53.9421 43.9824C54.8253 44.262 55.6871 44.6054 56.5206 45.0099L58.0651 45.7531L70.0206 51.5047L91.5275 61.8574Z" fill="url(#paint1_linear_257_147)" stroke="black" stroke-width="3.31034" stroke-miterlimit="10"/>
  <path d="M93.7877 48.0884C93.7884 50.7718 93.5577 53.4502 93.098 56.094C92.7245 58.2217 92.199 60.3199 91.5256 62.3726L70.0194 52.0222L63.6746 48.9712L58.0635 46.2677L56.5187 45.5229C55.6844 45.1222 54.8235 44.7793 53.9422 44.4967C53.0741 44.2158 52.1873 43.9964 51.2884 43.8401C50.6523 43.7155 50.0093 43.6289 49.3629 43.5808C48.8112 43.5367 48.2704 43.5146 47.7187 43.5146C47.167 43.5146 46.6208 43.5367 46.0746 43.5863C45.4283 43.6325 44.7853 43.7173 44.1491 43.8401C43.2502 43.9964 42.3634 44.2158 41.4953 44.4967C40.6175 44.7842 39.7588 45.1269 38.9243 45.5229L37.3794 46.2677L31.7684 48.9712L25.4346 52.0222L3.91733 62.3726C3.24262 60.3166 2.71714 58.2145 2.34493 56.0829C1.88501 53.4429 1.65427 50.7682 1.65528 48.0884C1.65475 45.4069 1.88549 42.7303 2.34493 40.0884C3.27122 34.7933 5.12594 29.7036 7.82355 25.0539C10.5094 20.3999 13.99 16.2525 18.1077 12.8002C22.2187 9.33747 26.9086 6.62742 31.9615 4.79465C37.0101 2.95108 42.3441 2.01164 47.7188 2.01946C53.0952 2.01213 58.4309 2.95154 63.4815 4.79465C68.5321 6.62874 73.2199 9.33869 77.3298 12.8002C81.4476 16.2539 84.9299 20.4009 87.6194 25.0539C90.3171 29.7036 92.1718 34.7933 93.0981 40.0884C93.5575 42.7303 93.7882 45.4069 93.7877 48.0884Z" fill="url(#paint2_linear_257_147)" stroke="black" stroke-width="3.31034" stroke-miterlimit="10"/>
  <mask id="mask1_257_147" style="mask-type:alpha" maskUnits="userSpaceOnUse" x="0" y="-1" width="93" height="60">
  <path d="M92.0005 44.7043C92.0012 47.3898 91.7708 50.0704 91.3118 52.7162C90.9388 54.8457 90.4141 56.9456 89.7417 58.9999L68.2664 48.6412L61.9307 45.5877L56.3277 42.8821L54.7851 42.1367C53.952 41.7356 53.0923 41.3925 52.2123 41.1096C51.3454 40.8285 50.4599 38.6073 49.5623 38.451C48.9271 38.3262 48.285 38.2395 47.6395 38.1914C47.0886 38.1472 46.5487 38.1252 45.9977 38.1252C45.4468 38.1252 44.9014 38.1473 44.356 38.1969C43.7106 38.2432 43.0685 38.328 42.4332 38.451C41.5356 38.6073 40.3795 39.3304 39.5127 39.6116C38.6361 39.8993 38.0492 41.7404 37.2159 42.1367L35.6733 42.8821L30.0703 45.5877L23.7456 48.6412L2.2593 58.9999C1.58556 56.9422 1.06082 54.8385 0.689156 52.7052C0.229898 50.0631 -0.000515497 47.3861 0.000491568 44.7043C-3.54684e-05 42.0206 0.230373 39.3418 0.689156 36.6978C1.61411 31.3985 3.46616 26.3046 6.1599 21.6512C8.84184 16.9934 12.3175 12.8428 16.4292 9.38759C20.5344 5.92212 25.2175 3.20989 30.2631 1.37564C35.3045 -0.469408 40.6308 0.0719781 45.9977 0.0798005C51.3664 0.0724654 56.6945 -0.468946 61.7379 1.37564C66.7812 3.2112 71.4623 5.92334 75.5662 9.38759C79.6781 12.8441 83.1555 16.9944 85.8411 21.6512C88.5349 26.3046 90.3869 31.3985 91.3119 36.6978C91.7706 39.3418 92.001 42.0206 92.0005 44.7043Z" fill="url(#paint3_linear_257_147)"/>
  </mask>
  <g mask="url(#mask1_257_147)">
  <path d="M46.1299 39.9999H50.2748V36.1833C55.2966 35.6821 58.7241 32.9064 58.7241 28.5887V28.5115C58.7241 24.1938 56.1335 21.8422 50.0756 20.2616V14.4017C51.7096 14.8258 53.4234 15.6354 55.0176 16.6763L57.6879 12.1658C55.4959 10.7008 53.1046 9.69847 50.2748 9.3515V6.99988H46.1299V9.23585C41.1082 9.73702 37.7604 12.5513 37.7604 16.7919V16.869C37.7604 21.4567 40.5901 23.5384 46.3292 25.0419V31.1716C43.9777 30.709 41.985 29.6295 39.8328 28.0489L36.7241 32.4438C39.3546 34.3714 42.7024 35.6821 46.1299 36.1062V39.9999ZM52.9053 28.82V28.8971C52.9053 30.2849 51.9488 31.0945 50.0756 31.3644V25.9672C52.2277 26.7382 52.9053 27.5478 52.9053 28.82ZM43.5792 16.5221V16.445C43.5792 15.2113 44.3763 14.2861 46.3292 14.0548V19.2978C44.1372 18.5267 43.5792 17.7557 43.5792 16.5221Z" fill="url(#paint4_linear_257_147)"/>
  </g>
  </g>
  </g>
  <defs>
  <linearGradient id="paint0_linear_257_147" x1="48.2241" y1="0" x2="48.2241" y2="63.5692" gradientUnits="userSpaceOnUse">
  <stop stop-color="#5611A3"/>
  <stop offset="1" stop-color="#94227D"/>
  </linearGradient>
  <linearGradient id="paint1_linear_257_147" x1="47.722" y1="43.0001" x2="47.722" y2="93.6396" gradientUnits="userSpaceOnUse">
  <stop stop-color="#FFE0E3"/>
  <stop offset="0.552083" stop-color="#F18C95"/>
  <stop offset="1" stop-color="#E73E93"/>
  </linearGradient>
  <linearGradient id="paint2_linear_257_147" x1="47.7215" y1="2.01941" x2="47.7215" y2="62.3726" gradientUnits="userSpaceOnUse">
  <stop stop-color="#5611A3"/>
  <stop offset="1" stop-color="#94227D"/>
  </linearGradient>
  <linearGradient id="paint3_linear_257_147" x1="46.0005" y1="-1.40213" x2="46.0005" y2="58.9996" gradientUnits="userSpaceOnUse">
  <stop stop-color="#5611A3"/>
  <stop offset="1" stop-color="#94227D"/>
  </linearGradient>
  <linearGradient id="paint4_linear_257_147" x1="50.3754" y1="-0.700126" x2="70.6351" y2="20.2489" gradientUnits="userSpaceOnUse">
  <stop stop-color="#FF99B9"/>
  <stop offset="1" stop-color="#FFCEA0"/>
  </linearGradient>
  <clipPath id="clip0_257_147">
  <rect width="95.4483" height="96" fill="white"/>
  </clipPath>
  </defs>
  </svg>
